<?xml version="1.0" encoding="utf-8"?>
<!-- Generator: Adobe Illustrator 23.0.0, SVG Export Plug-In . SVG Version: 6.00 Build 0)  -->
<svg version="1.1"
	 id="svg9420" xmlns:cc="http://creativecommons.org/ns#" xmlns:dc="http://purl.org/dc/elements/1.1/" xmlns:inkscape="http://www.inkscape.org/namespaces/inkscape" xmlns:rdf="http://www.w3.org/1999/02/22-rdf-syntax-ns#" xmlns:sodipodi="http://sodipodi.sourceforge.net/DTD/sodipodi-0.dtd" xmlns:svg="http://www.w3.org/2000/svg"
	 xmlns="http://www.w3.org/2000/svg" xmlns:xlink="http://www.w3.org/1999/xlink" x="0px" y="0px" viewBox="0 0 1260 400"
	 style="enable-background:new 0 0 1260 400;" xml:space="preserve">
<style type="text/css">
	.st0{fill:#FFFFFF;}
	.st1{fill:#CE985D;}
	.st2{fill:#FFB9B9;stroke:#000000;stroke-width:0.2646;}
	.st3{fill:url(#SVGID_1_);stroke:#000000;stroke-width:0.2646;}
	.st4{fill:#E8D98B;}
	.st5{fill:#EFEFB6;}
	.st6{fill:#A5A355;}
	.st7{fill:#3A3A34;}
	.st8{fill:#6D6D6A;}
	.st9{fill:#474744;}
	.st10{fill:#111111;}
	.st11{fill:none;stroke:#000000;stroke-width:4;stroke-miterlimit:10;}
	.st12{fill:#EFA73F;}
	.st13{fill:#BA8D3C;}
	.st14{fill:#C6A97B;}
	.st15{fill:#E2C596;}
	.st16{fill:#784421;}
	.st17{fill:#855331;}
	.st18{fill-rule:evenodd;clip-rule:evenodd;fill:#D38D5F;}
	.st19{opacity:0.64;fill:#B8623A;enable-background:new    ;}
	.st20{fill:#D38D5F;}
	.st21{opacity:0.885;fill:#C87137;enable-background:new    ;}
	.st22{opacity:0.885;fill:#C87E57;enable-background:new    ;}
	.st23{fill:#B8623A;}
	.st24{opacity:0.885;fill:#CE8351;enable-background:new    ;}
	.st25{fill:#CE9067;}
	.st26{fill:#A05A2C;}
	.st27{opacity:0.885;fill:#B8623A;enable-background:new    ;}
	.st28{fill:#502D0C;stroke:#000000;stroke-width:0.2317;}
	.st29{fill:#AA0000;}
	.st30{opacity:0.885;fill:#502D16;enable-background:new    ;}
	.st31{opacity:0.885;fill:#A05A2C;enable-background:new    ;}
	.st32{opacity:0.885;fill:#FFFFFF;enable-background:new    ;}
	.st33{opacity:0.885;fill:#00FFCC;enable-background:new    ;}
	.st34{opacity:0.885;enable-background:new    ;}
	.st35{fill:#502D16;}
	.st36{opacity:0.885;fill:#010100;enable-background:new    ;}
	.st37{opacity:0.885;fill:#2B1100;enable-background:new    ;}
	.st38{fill:#8B3E1A;}
	.st39{opacity:0.885;fill:#8B3E1A;enable-background:new    ;}
	.st40{opacity:0.885;fill:#8B3E16;enable-background:new    ;}
	.st41{opacity:0.885;fill:#C87E58;enable-background:new    ;}
	.st42{fill:#B86239;}
	.st43{fill:#D5D5FF;fill-opacity:0;}
	.st44{opacity:0.885;fill:#2D1100;enable-background:new    ;}
	.st45{opacity:0.885;fill:#8E4C2C;enable-background:new    ;}
	.st46{fill:#8B3E16;}
	.st47{opacity:0.885;fill:#AA6B41;enable-background:new    ;}
	.st48{opacity:0.885;fill:#83441B;enable-background:new    ;}
	.st49{opacity:0.885;fill:#515137;enable-background:new    ;}
	.st50{opacity:0.885;fill:#532F17;enable-background:new    ;}
	.st51{enable-background:new    ;}
	.st52{fill:#502D0C;}
	.st53{fill:none;stroke:#000000;stroke-width:0.1793;}
	.st54{fill:none;stroke:#000000;stroke-width:0.2646;}
	.st55{fill:#B7692E;}
	.st56{fill:#DFD188;}
	.st57{fill:#88782F;}
	.st58{fill:#705F23;}
	.st59{fill:#594A1D;}
	.st60{fill:#CE8F3C;}
	.st61{fill:#DAAAF9;}
	.st62{fill:#AD56DB;}
	.st63{fill:#140D06;}
	.st64{fill:#F2E71C;}
	.st65{fill:#890AC4;}
	.st66{opacity:0.15;fill:#FFFF00;enable-background:new    ;}
	.st67{fill:#160D07;}
</style>
<sodipodi:namedview  bordercolor="#666666" borderopacity="1.0" id="base" inkscape:current-layer="layer1" inkscape:cx="581.19349" inkscape:cy="255.14308" inkscape:document-units="mm" inkscape:pageopacity="0.0" inkscape:pageshadow="2" inkscape:window-height="705" inkscape:window-maximized="1" inkscape:window-width="1366" inkscape:window-x="-8" inkscape:window-y="-8" inkscape:zoom="0.63" pagecolor="#ffffff" showgrid="false" units="px" width="1260px">
	</sodipodi:namedview>
<path class="st0" d="M1.5,0C420-0.1,841.5,0.1,1260,0c0,14.6,0,28.6,0,43.2c-263.4-0.2-526.8-0.5-790.2-0.7
	C313.7,28.3,157.6,14.1,1.5,0z"/>
<polygon class="st1" points="3,400 469.7,349.2 1259.8,349.2 1259.8,400 "/>
<path class="st2" d="M484.7-218.4"/>
<linearGradient id="SVGID_1_" gradientUnits="userSpaceOnUse" x1="188.1" y1="698.8665" x2="188.1" y2="698.8665" gradientTransform="matrix(1 0 0 1 0 -633.1665)">
	<stop  offset="0" style="stop-color:#EDE5E5"/>
	<stop  offset="1" style="stop-color:#EDE5E5;stop-opacity:0"/>
</linearGradient>
<path class="st3" d="M188.1,65.7"/>
<polygon class="st4" points="-0.5,0 467.8,42.4 467.7,349.2 1,400 "/>
<polygon class="st5" points="467.8,42.4 1260,43.1 1259.8,349.2 467.7,349.2 "/>
<path class="st5" d="M-0.5,417"/>
<polygon class="st6" points="1,400 467.7,349.2 467.7,344.5 1,388.7 "/>
<polygon class="st6" points="467.7,344.5 1259.8,344.5 1259.8,352.2 467.7,349.2 "/>
<g>
	<rect x="1000.8" y="266.6" class="st7" width="35.8" height="6"/>
	<path class="st8" d="M1094.9,266.8H942.6c-5.5,0-10-4.5-10-10v-65.4c0-5.5,4.5-10,10-10h152.3c5.5,0,10,4.5,10,10v65.4
		C1104.9,262.3,1100.4,266.8,1094.9,266.8z"/>
	<path d="M1094.9,262.6H942.6c-5.5,0-10-4.5-10-10v-65.4c0-5.5,4.5-10,10-10h152.3c5.5,0,10,4.5,10,10v65.4
		C1104.9,258.2,1100.4,262.6,1094.9,262.6z"/>
	<path class="st9" d="M1088.5,258.5H948.9c-5.5,0-10-4.5-10-10v-57.1c0-5.5,4.5-10,10-10h139.6c5.5,0,10,4.5,10,10v57.1
		C1098.5,254,1094.1,258.5,1088.5,258.5z"/>
	<rect x="984.3" y="272.5" class="st10" width="69.4" height="2.5"/>
	<line class="st11" x1="938.7" y1="299.3" x2="927.3" y2="351.1"/>
	<line class="st11" x1="949.1" y1="300.7" x2="927.3" y2="348.7"/>
	<line class="st11" x1="945.9" y1="300.3" x2="940.1" y2="341.2"/>
	<line class="st11" x1="949.1" y1="300.7" x2="939.5" y2="345.2"/>
	<line class="st11" x1="1096" y1="299.6" x2="1098.2" y2="342.8"/>
	<line class="st11" x1="1092.6" y1="300.1" x2="1114.1" y2="351.8"/>
	<line class="st11" x1="1100.5" y1="300" x2="1114.1" y2="351.8"/>
	<line class="st11" x1="1088.6" y1="299.3" x2="1113.4" y2="349.1"/>
	<rect x="913.8" y="274.7" class="st12" width="210.8" height="27.3"/>
	<rect x="918.1" y="277.8" class="st0" width="202.2" height="21.1"/>
	<polygon class="st13" points="918.1,277.8 933.1,277.8 933.1,293.7 918.1,298.9 	"/>
	<polygon class="st14" points="933.1,293.7 1107.6,293.7 1120.3,298.9 918.1,298.9 	"/>
	<polygon class="st13" points="1107.6,277.8 1107.6,293.7 1120.3,298.9 1120.3,277.8 	"/>
	<rect x="933.1" y="277.8" class="st15" width="174.6" height="15.9"/>
</g>
<g>
	<g id="layer1_1_" transform="translate(0,-121)" inkscape:groupmode="layer" inkscape:label="Camada 1">
		<path id="path1170" inkscape:connector-curvature="0" sodipodi:nodetypes="ccccc" class="st16" d="M275.6,363.5
			c-2.2,1.4-2.1-10.7-12.8-14.2c-4.1-7.5-26.9-27-26.9-27s40.4-13.3,47.3,10.4C284.6,347,277.1,364.4,275.6,363.5L275.6,363.5z"/>
		<path id="path1742" inkscape:connector-curvature="0" sodipodi:nodetypes="cszzscc" class="st17" d="M238.3,323.2
			c33.1-5.7,37.6,1.2,41.5,8.2c2.7,4.9,1,10,0.4,13s-1.1,6.5-2.9,5.6s0-16-9.4-17.7c-6.9-1.2-20.7-1.7-20.7-1.7L238.3,323.2z"/>
		<path id="path4698" inkscape:connector-curvature="0" sodipodi:nodetypes="csssszzsccccsszc" class="st18" d="M155.5,365.2
			c-1.9,6.6,12.8,21.5,17.9,27.1c9.1,9.8,14.1,12.3,31.6,21.3c11.9,6.2,32.1,6.7,45.4,0.1c11.1-5.6,20-17.8,18.1-29.9
			c-0.6-4.3-5.1-7.3-6.5-10.4s-0.3-9.8-0.4-10.7c-0.1-0.9,4-3.9,6.3-12.1c2.4-8.4-8.3-18.9-16.8-20.4c-1.1-0.1-2.2-0.5-3.4-0.5
			c0.9-0.1,5,0.8,7.3,1.7c2.2-4.1-28.1-20.5-47.6-23.2c-13.5,0.3-17.4,4.7-31.4,13.1c-7.1,4.3-16.7,23.5-18.6,37.2
			C157,361.3,157.4,358.6,155.5,365.2L155.5,365.2z"/>
		<path id="path5509-1" inkscape:connector-curvature="0" sodipodi:nodetypes="cccc" class="st19" d="M176,320.9
			c7.2-1.9,12.8-8.5,18.9-10.6c-1.3,1.6-12.4,9.2-13.6,13.6L176,320.9z"/>
		
			<path id="path4994" inkscape:connector-curvature="0" sodipodi:nodetypes="caaaaaaaaaaaaaaaaaacaaaaacaaaaaacccc" class="st20" d="
			M245.2,459.5c0,0,1.5,2.1,2,3.3c0.7,1.6,1,3.4,1.3,5c0.3,2,0.4,4,0.5,6c0,1.3,0,2.5,0,3.7c-0.1,1.5-0.2,2.9-0.5,4.4
			c-0.4,2.2-0.9,4.4-1.6,6.6c-0.4,1.3-1,2.5-1.5,3.8c-0.4,1-0.7,2.1-1.1,3.1c-0.5,1.3-1.1,2.5-1.6,3.8c-0.7,1.6-1.5,3.1-2.2,4.7
			c-0.3,0.8-0.6,1.6-0.9,2.5c-0.2,0.7-0.6,1.4-0.7,2.2c-0.1,0.6-0.4,1.3-0.3,1.9c0,0.3,0.2,0.5,0.4,0.6c0.8,0.9,1.8,1.5,2.8,2.2
			c0.7,0.5,1.7,0.7,2.2,1.4c0.4,0.4,0.5,1,0.6,1.5c0.1,0.6-0.1,1.3-0.3,2s-0.6,1.9-0.6,1.9s-0.6,0.2-1,0.3c-0.9,0.2-1.7,0.4-2.6,0.6
			c-1.8,0.2-3.6,0.3-5.4,0.3c-1.7,0-3.5,0-5.2-0.3c-1.4-0.2-2.8-0.6-4.2-1.1c-1-0.3-3-1.2-3-1.2s-0.7-2.7-0.8-4.1
			c0-1.2,0.2-2.4,0.4-3.6c0.1-1.2,0.5-2.4,0.5-3.5c-0.1-1.4-0.6-2.7-1.1-4c-0.6-1.6-1.5-3.1-2.2-4.7c-0.6-1.6-1.3-3.2-1.7-4.8
			c-0.5-1.9-1.1-5.7-1.1-5.7l0.3-2.3l8-5.5L245.2,459.5z"/>
		<path id="path4996" inkscape:connector-curvature="0" sodipodi:nodetypes="caacccc" class="st21" d="M147.6,508
			c0,0.4,1.1,0.8,1.4,1.3c0.4,0.7,0.6,1.6,0.6,2.5c0,1-0.4,2.9-0.4,2.9c-9.7-1.1-12.5-0.5-21.1-3.5l-0.4-2.7L147.6,508z"/>
		<path id="path5608-7" inkscape:connector-curvature="0" class="st22" d="M168.8,335.3c0,0-9,33.9,4.7,52.3s-18.9-20.3-18.9-20.3
			l6-12.9l5.7-17.3l1.8-1.9L168.8,335.3z"/>
		<path id="path5608" inkscape:connector-curvature="0" class="st23" d="M167,337.3c0,0-9,33.9,4.7,52.3s-18.9-20.3-18.9-20.3
			l6-12.9l5.7-17.3l1.8-1.9L167,337.3L167,337.3z"/>
		<path id="path5708" inkscape:connector-curvature="0" sodipodi:nodetypes="ccccsc" class="st24" d="M244.2,459.2
			c0.5-0.4,5.8,2.3,4.6,18.2c-31.5,6-25.6,25.7-26.5,29.6c-0.4-1.7-0.5-3-2.6-6.8c0,0-4.8-9.8-2.9-14.5
			C218.8,481.1,244.2,459.2,244.2,459.2z"/>
		<path id="rect4708" inkscape:connector-curvature="0" sodipodi:nodetypes="ccscscaacaaacsc" class="st25" d="M251.2,415.5
			c-56.4,15.9-93.3-36.4-97.2-49.2c0,0-4.3,15.3-19.7,32.2c0,0-9.2,11-25.1,29.4c-7.2,8.5-14.3,14.2-21.7,23.4
			c-6.7,8.3-19.3,20.7-26.3,35.1c-1,5.7,1.3,12.2,5.5,16.3c4.1,4,11,4.8,16.8,5.6c34.6,4.3,59.8,9.8,104.5-7.7
			c11.1-4.1,22.1-8.5,32-14.8c7.2-4.5,13.9-9.8,19.3-16.1c3.9-4.6,7.2-9.8,9.1-15.4c1.6-4.5,1.7-14.2,1.7-14.2
			c0.4-1.6,0-8.2-0.6-12.3C248.6,422.4,252.4,413.3,251.2,415.5L251.2,415.5z"/>
		<path id="path5000" inkscape:connector-curvature="0" sodipodi:nodetypes="ccaaaaaaaaaaaaaaacaaaaaaaac" class="st26" d="
			M71.6,470.1c-0.5,0.6-1.4,2-1.4,2s-1.6-0.7-2.2-1.3c-0.7-0.6-1.4-1.4-1.8-2.3c-0.5-0.8-0.7-1.7-0.8-2.6c-0.2-1.3-0.2-2.5,0-3.8
			c0.2-1.1,0.6-2.2,1.2-3.2c1-1.6,2.3-3.2,3.9-4.3c1.7-1.2,3.7-2,5.7-2.5c1.8-0.4,3.7-0.4,5.5-0.1c1.7,0.3,3.5,0.9,5,1.8
			c1.3,0.8,2.3,1.9,3.2,3.1c0.6,0.8,1.1,1.6,1.3,2.6c0.4,1.8,0.3,3.8-0.3,5.5c-0.5,1.4-1.4,2.8-2.7,3.6c-0.8,0.5-1.9,0.6-2.9,0.6
			s-1.9-0.4-2.8-0.9c-0.5-0.3-1.1-1.3-1.1-1.3s2.2-0.4,2.9-1.3c0.7-0.8,0.8-2,0.6-3.1c-0.1-0.6-0.4-1.3-0.8-1.8
			c-0.8-0.9-1.8-1.7-3-2.2c-1.1-0.4-2.2-0.5-3.3-0.3c-0.9,0.2-1.7,0.7-2.4,1.4c-0.6,0.5-1.1,1.2-1.2,1.9c-0.2,0.7-0.2,1.6,0.3,2.2
			c0.4,0.5,1.7,0.7,1.7,0.7L71.6,470.1z"/>
		<path id="path4584" inkscape:connector-curvature="0" sodipodi:nodetypes="cccccccsscc" class="st27" d="M251,417
			c-3,8.8-1.1,11.2-1.1,15.6c5.1,42.5-34.1,56.3-69.3,71.7c-1.5,0.6-29,7.9-42.8,8.2c-13.8-1.2-21.1-3.1-20.3-3c0,0,1.9-0.5,2.2-0.5
			l-9-15.8c0,0,22,1.7,32.5-0.8c30.9-7.4,50.6-12.7,64.9-31c8.3-10.6,9.3-35.4,6.7-42C227.1,417.4,251.3,414.9,251,417L251,417z"/>
		<path id="path4980" inkscape:connector-curvature="0" sodipodi:nodetypes="csaaaaaaccaaaaacaccsaaaaaaaaaacc" class="st20" d="
			M188.3,435.5c0.3,0,5,5,6.5,8.3c1.2,2.8,2.4,6.1,3,9.3c0.5,2.2,0.6,4.5,0.6,6.7c0,2.7-0.3,5.4-0.7,8.1c-0.4,2.4-0.8,4.7-1.5,7
			c-0.8,2.5-1.9,5-2.9,7.4c-1.1,2.7-2.4,5.4-3.7,8.1c-1.1,2.1-3.3,6.3-3.3,6.3c-2,4.1-3.3,6.8-3.3,11.2c0,0,0.1,1.8,0.7,2.4
			c0.6,0.5,1.6,0.3,2.4,0.6c0.9,0.3,1.8,0.5,2.5,1.1c0.8,0.6,1.3,1.6,1.5,2.5c0.3,1.3,0,2.6-0.5,3.8c-0.4,0.9-0.9,1.7-1.8,2.2
			c-2.8,0.7-5.7,0.8-8.6,0.8c-3,0-5.1-0.3-8.9-0.9c-1.1-0.5-2.2-0.6-3.1-1.9c-0.3-0.9-0.4-1.9-0.4-2.9c0-1.3-0.2-2.7-0.4-4
			c-0.2-1.8-0.4-3.5-0.6-5.3c-0.4-2.6-0.8-5.3-1.5-7.9s-1.7-5.1-2.7-7.6c-0.9-2.2-2.1-4.4-3.1-6.7c-0.8-1.7-1.7-3.4-2.4-5.1
			c-0.9-2.1-1.8-4.3-2.5-6.5c-0.8-2.7-1.4-5.4-2-8.1c-0.4-1.8-0.9-3.6-0.9-5.4c0-1.7,0.1-3.5,0.7-5.1c0.2-0.6,1.1-1.7,1.1-1.7
			l-0.2,0.3"/>
		<path id="path4998" inkscape:connector-curvature="0" sodipodi:nodetypes="ccaccaaaazaaaacccccccccacac" class="st20" d="
			M95.8,480.3l6.3-1.1c0,0,4.8-0.3,6.9,0.3c5.7,1.6,8.7,3.1,14.4,8.4c1.8,2,3.5,3.9,5.2,6.1c0,0,1.3,2.2,1.9,3.3
			c0.5,1.1,1.1,2.2,1.3,3.4c0.2,1.2,0.2,2.4-0.1,3.5c-0.3,1-1.7,1.9-1.5,2.8c0.1,0.4,0.3,0.6,1.1,1c0.7,0.4,2.6,0.7,3.7,1.2
			c1.1,0.6,2.3,1.2,3,2c0.4,0.5,0.5,1.2,0.6,1.8c0,0.7-0.4,1.5-0.4,2.2c0,0.8,0.3,1.5,0.4,2.3c-1.6-0.3-5.4-0.6-5.4-0.6l-7.2-0.6
			l-8.3-0.6l-7.6-0.7L96,513.8l-7.6-0.3l-7.2-0.4c0,0-3.8-0.4-4.8-0.8c-0.4-0.8-1.1-1.6-1.3-2.5c-0.2-1,0.2-3,0.2-3s-1.3-0.7-2-1.1
			c-1.7-0.8-5.2-2.3-5.2-2.3"/>
		<path id="path1481-7" inkscape:connector-curvature="0" sodipodi:nodetypes="ccscccc" class="st28" d="M228.8,415.8
			c1.4-0.9,2.2-0.3,2.6,0.1c-1.4,2.1-0.6,4.3-0.3,5.3c0.1,0.3,0.6,0.3,0.6,0.3s-1.4,0.4-2.8-0.1
			C228.7,420.7,227.5,418.3,228.8,415.8L228.8,415.8z"/>
		
			<path id="path4976" inkscape:connector-curvature="0" sodipodi:nodetypes="caaaaaaaaaaaaacaaaacaaaaaaaaaaaacsscc" class="st29" d="
			M250.3,412.3c-2.5,0.5-4.6,1-6.9,1.5c-3.3,0.6-6.7,1.2-10,1.5c-2.3,0.2-4.7,0.3-7.1,0.3c-3.3-0.2-6.7-0.6-10-1.4
			c-5-1.2-9.7-3-14.3-5.1c-4-1.9-7.8-4.2-11.5-6.6c-3.4-2.2-6.6-4.7-9.7-7.2c-2.2-1.8-4.2-3.8-6.2-5.8c-2.1-2.1-4-4.2-6-6.4
			c-1.8-2-3.5-4-5.2-6.1c-2.2-2.8-5-5.4-6.6-8.6c-0.5-1-0.9-2.1-1-3.2c0-0.6,0.1-1.3,0.2-2c0-0.5,0.1-1.4,0.1-1.4s-1.1,0.9-1.5,1.5
			c-0.3,0.5-0.4,1.2-0.6,1.7c-0.3,0.7-0.6,1.4-0.9,2.2c-0.3,0.7-0.6,1.4-0.9,2.1c-0.2,0.6-0.5,2-0.5,2s0.9,1.2,1.3,1.8
			c1.2,1.7,2.3,3.5,3.6,5.2c1.6,2,3.2,4,5,5.9c2.2,2.4,4.4,4.6,6.7,6.9c2.2,2.2,4.5,4.5,6.9,6.6c3.1,2.7,6.4,5.3,9.8,7.8
			c2.8,2,5.8,3.9,8.8,5.7c3.3,1.9,6.6,3.7,10.1,5.1c3.1,1.3,6.4,2.3,9.7,2.9c4,0.8,8.2,1.1,12.3,1.3c2.7,0.1,5.4,0,8.1-0.3
			c4.2-0.4,8.3-1.1,12.5-1.9c1.5-0.3,4.5-1,4.5-1c-0.4,0.2,1-1,1.2-1.9c0.2-0.8,1.1-1.3,1.6-2.5c0.3-0.7,0.2-1.3,0.2-1.3
			C252.5,411.7,252.1,412,250.3,412.3z"/>
		<path id="path5509" inkscape:connector-curvature="0" sodipodi:nodetypes="cccc" class="st27" d="M176.2,320.6
			c4-2.4,14.5-8.8,16.9-9.6c-1.3,1.6-13.9,8.7-12.7,12.8L176.2,320.6z"/>
		<path id="path1153" inkscape:connector-curvature="0" sodipodi:nodetypes="cscsssc" class="st26" d="M172.8,333.5
			c-0.1,1.3-9.2-0.3-11.8,23.7c-0.2,1.7-2.2,4.8-2.2,4.8s-9.4-7.8-12.7-12.2c-2.7-3.7-4.5-7.3-6.5-11.3c-3.5-7.3,2.9-11.1,7.5-14
			c20.9-13.1,34.2-0.1,34.2-0.1"/>
		<path id="path1153-6" inkscape:connector-curvature="0" sodipodi:nodetypes="ccsc" class="st30" d="M179.2,326.2
			c-16.9-11.5-32.2-0.3-40.2,5.4c1.2-3.5,5-5.7,8.1-7.6c20.9-13.1,34.2-0.1,34.2-0.1"/>
		<path id="rect4692" inkscape:connector-curvature="0" sodipodi:nodetypes="sccssssss" class="st31" d="M249.7,351.5
			c-1.7-0.2-5.5-1.4-7.2-1c-0.9,1.9-0.6,4-1.5,6.8c-4.3,7.1-3.6,12.2-3.5,17c0.1,4,4.8,2.3,5.4,5.6c0.3,1.8,7.9,0.6,12.7-2.3
			c1.5-0.9,3.5-3.5,4.5-6.5c0.9-2.9,0.4-6.6-0.3-9.1C258.7,357.5,254.7,352,249.7,351.5L249.7,351.5z"/>
		<path id="rect4692-4" inkscape:connector-curvature="0" sodipodi:nodetypes="cssssssccsc" class="st31" d="M198.8,347.7
			c-4.3,0.9-8.5,3.1-11.8,5.7c-4.5,3.4-7.3,5.4-10.4,10.3c-3.8,6,5.9,9.3,9.2,11.2c5.1,2.9,13.8,5.1,20.8,5c0,0,9.4,0.7,17.1-5
			c2.9-2.2-6.6-12.7-8.8-14.9c-1.5-1.5-4.8-6.9-9.9-9.8c1.6-0.9,2.2-1.3,5.5-1.7C208.2,346.6,199.6,347.5,198.8,347.7L198.8,347.7z"
			/>
		<path id="rect4692-4-0" inkscape:connector-curvature="0" sodipodi:nodetypes="assssssa" class="st32" d="M199.8,351.6
			c-3.4-0.4-6.7,2.1-9.3,4c-3.5,2.6-5.6,4.2-8,7.9c-2.9,4.6,4.5,7.1,7.1,8.6c3.9,2.2,10.6,3.9,16,3.8c0,0,7.2,0.6,13.2-3.8
			c2.2-1.7-5-9.8-6.7-11.5C210.5,359.2,204.9,352.2,199.8,351.6L199.8,351.6z"/>
		<path id="rect4692-4-0-9" inkscape:connector-curvature="0" sodipodi:nodetypes="cscc" class="st33" d="M204.2,376
			c0,0,8.5,0.5,14.4-3.9c2.2-1.7-5-9.8-6.7-11.5C203.9,361.6,197,370.9,204.2,376L204.2,376z"/>
		<ellipse id="path5589-4" class="st0" cx="203.3" cy="370.4" rx="1.4" ry="1.2"/>
		<path id="rect4692-4-0-9-0" inkscape:connector-curvature="0" sodipodi:nodetypes="cccccccc" class="st34" d="M207.6,376
			c1.4-0.1,6.9-0.4,11.1-3.7c2.4-1.9-4.3-9.2-6-10.9c-5.1,0.6-9.4,5.1-10.1,8.2c2.5-0.6,1.7,2.8,0,1.4c0.1,1.1,1.1,3.6,3.1,5
			C205.5,376.1,206.9,376.1,207.6,376L207.6,376z"/>
		<path id="rect4692-4-0-8" inkscape:connector-curvature="0" sodipodi:nodetypes="scccss" class="st35" d="M199.8,351.6
			c-2.8-0.3-5.2,1-7.8,2.9c-3.5,2.6-5.7,4-8.4,7.5c12.5,7.3,22.5,7.4,34.4,5.7c-2-3.1-5-6.3-5.8-7.2
			C211.2,359.5,204.9,352.3,199.8,351.6L199.8,351.6z"/>
		<path id="rect4692-9" inkscape:connector-curvature="0" sodipodi:nodetypes="cssasssac" class="st32" d="M249.7,355
			c-2.9-0.3-5.5,2.3-7,4.7c-3.5,5.8-2.9,10-2.8,13.8c0.1,3.3-0.5,3.3,0.7,4.1c3.7,2.7,12.1,0.6,14-1.4c1-1,2.9-2.8,3.7-5.3
			c0.7-2.4,0.3-5.3-0.2-7.5C257,359.8,253.8,355.4,249.7,355z"/>
		<path id="rect4692-9-5" inkscape:connector-curvature="0" sodipodi:nodetypes="csscc" class="st33" d="M251.1,378.6
			c1.4-1,3-2.1,3.7-2.8c1-1,3.3-2.3,4.1-4.7c0.7-2.4,0.3-5.3-0.2-7.5C244.4,364.3,245.3,377.3,251.1,378.6z"/>
		<ellipse id="path5589" class="st0" cx="250.1" cy="374.9" rx="1.4" ry="1.2"/>
		<path id="rect4692-9-5-9" inkscape:connector-curvature="0" sodipodi:nodetypes="ccscccc" class="st34" d="M251.7,378.3
			c1.2-0.7,1.4-0.9,2.5-1.6s3.8-2.8,4.5-5.3c0.6-1.9,0.5-4.6,0.1-6.5c-7.8-0.5-10.8,5.1-10,9.3c1.1-0.6,2.9,1,0.6,1.7
			C250.3,377.3,250.5,377.5,251.7,378.3z"/>
		<path id="rect4692-9-7" inkscape:connector-curvature="0" sodipodi:nodetypes="asccsa" class="st35" d="M249.9,354.9
			c-3-0.3-5.8,2.3-7.4,4.7c-1.8,2.8-2.7,6.8-3,9c7.3,1.7,10.7,2.3,19.7,0.6c0.2-2-0.1-4.1-0.6-5.7
			C257.6,359.8,254.3,355.4,249.9,354.9z"/>
		<polygon id="path4951" class="st36" points="236.9,390.5 236.9,390.5 236.9,390.5 236.9,390.5 		"/>
		<path id="path904" inkscape:connector-curvature="0" class="st37" d="M236.9,395.6c1.4-1.4,2-3,1.6-3.9c-0.6-1.3-2.7-2.4-4.1-2.2
			c-1.1,0.1-2.4,1.1-2.8,2c-0.4,0.7-0.4,0.7,0.1,1.7c0.9,1.8,2.6,3.2,3.9,3.2C236,396.4,236.4,396.2,236.9,395.6L236.9,395.6z"/>
		<path id="path5563-2" inkscape:connector-curvature="0" sodipodi:nodetypes="csscc" class="st38" d="M235.5,358.4
			c0,0,1.6,0.7,1.5,0.2c-0.2-1.8-3.1-4.7,1.8-9.4c1.7-1.6-1.5-0.1-0.9-0.7C235.3,349.8,234.4,355.7,235.5,358.4z"/>
		<path id="path5563-2-3" inkscape:connector-curvature="0" sodipodi:nodetypes="csscc" class="st38" d="M224.1,356.1
			c0,0-1.6,0.7-1.5,0.2c0.2-1.8,3.1-4.7-1.8-9.4c-1.7-1.6,1.5-0.1,0.9-0.7C224.3,347.6,225.2,353.5,224.1,356.1z"/>
		<path id="path5563" inkscape:connector-curvature="0" sodipodi:nodetypes="csscc" class="st39" d="M236,341.2c0,0,0.9-2,0.3-1.9
			c-2.1,0.6-4.9,5.1-11.6-0.1c-2.3-1.8,0.2,2-0.6,1.3C229.3,344.8,233.1,343.1,236,341.2z"/>
		<path id="path5563-5" inkscape:connector-curvature="0" sodipodi:nodetypes="ccsccc" class="st38" d="M228.8,335
			c0,0-0.7-2.8-6.2-7.2c-0.5,0.6,6.9,8.2,3.2,7.2c-1.9-0.4-1.4,1.1-1,0.6C228.3,336.3,229.1,335.3,228.8,335z"/>
		<path id="path5561" inkscape:connector-curvature="0" sodipodi:nodetypes="ssscsssssss" class="st40" d="M209.4,335.2
			c-2.8-2.5-5.2-3.8-11-3.2c-5.2,0.5-5,0.3-11.9,4.9c-7,4.6-9.8,11.2-10.4,12.5c0,0.8-0.6,5.8,1.4,0.7c2-5,3.2-1.7,4.8-3.8
			c1.6-2.1,5.1-7.9,6.4-8.9c1.3-1,4-2,6.6-2.6c2.5-0.6,6.1-0.5,7.7-0.3c2.1,0.3,5.4,2.6,7,2.5C210.7,336.9,209.9,335.6,209.4,335.2
			L209.4,335.2z"/>
		<path id="path5563-2-3-1" inkscape:connector-curvature="0" sodipodi:nodetypes="csscc" class="st38" d="M263.4,350.9
			c0,0-0.8,2.6-1.4,1.9c-1.9-2.5-2.2-9.5-13-10.3c-3.7-0.3,1.5-1.8,0.1-1.8C253.7,339.6,261.5,346.2,263.4,350.9L263.4,350.9z"/>
		<path id="path1174" inkscape:connector-curvature="0" class="st31" d="M210.7,379.6c4.2-0.5,8.2-1.8,11.3-3.8
			c1.5-0.9,1.9-1.3,2.1-1.7c0.3-0.8-0.2-2.3-1.1-4.1c-1.4-2.4-4.3-6.2-7.3-9.4c-0.7-0.7-1.7-2-2.3-2.7c-2.6-3.2-4.7-5.4-6.8-6.9
			c-0.6-0.4-1.2-0.8-1.3-0.9c-0.1,0-0.1-0.1-0.1-0.1c0-0.1,1.5-0.9,2.1-1.1s2.4-0.6,2.8-0.6c0.9,0-0.2-0.6-1.8-0.9
			c-0.9-0.2-1.4-0.2-3.9-0.2c-3.4,0-5.1,0.2-7,0.7c-3.9,1.1-7.2,2.8-11.6,6.2c-4.3,3.2-6.6,5.5-8.7,8.6c-1.1,1.6-1.2,2.1-1.2,3.4
			c0,1,0,1.1,0.4,1.9c0.9,1.8,2.8,3.2,6.7,5.1c0.8,0.4,2.2,1.1,3,1.6c4.5,2.4,9.8,4,15.8,4.7C203.6,379.8,209.1,379.9,210.7,379.6
			L210.7,379.6z M201.6,375.8c-3.9-0.5-7.7-1.6-10.6-2.9c-2.3-1.1-5.1-2.5-6.1-3.2c-1.2-0.8-2.2-1.7-2.6-2.5
			c-0.4-0.6-0.4-0.7-0.4-1.6s0-1,0.4-1.6c0.9-1.6,2.5-3.6,4.3-5.2c1.3-1.3,1.7-1.5,4.4-3.5c2.4-1.8,3.3-2.3,4.5-2.8
			c2.9-1.3,5.3-1.1,8.5,0.9c3.1,1.9,6.9,5.5,11.2,10.7c1.9,2.3,3.4,4.6,3.9,6.2c0.2,0.6,0.1,1.5-0.1,1.9c-0.5,0.7-3.2,2.2-5.3,2.9
			c-1.3,0.4-3.3,0.8-4.9,1C207.1,376.1,203.5,376.1,201.6,375.8L201.6,375.8z"/>
		<path id="path1499-0" inkscape:connector-curvature="0" sodipodi:nodetypes="ccsccsc" class="st28" d="M231,421.5
			c-0.3,0-0.8,0-0.8,0s-0.5,0.9-0.4,1.6c0,0.4,0.5,1.4,0.5,1.4s0.4-0.1,0.5-0.2c-0.2-0.7-0.4-1-0.4-1.6
			C230.5,422.2,230.7,422,231,421.5L231,421.5z"/>
		<path id="path1481" inkscape:connector-curvature="0" sodipodi:nodetypes="ccscccc" class="st28" d="M232,415.7
			c-1.4-0.9-2.7-0.5-3.1,0c1.4,2.1,1.1,4.4,0.8,5.4c-0.1,0.3-0.6,0.3-0.6,0.3s1.4,0.4,2.8-0.1C232.1,420.6,233.3,418.3,232,415.7
			L232,415.7z"/>
		<path id="path1499" inkscape:connector-curvature="0" sodipodi:nodetypes="ccsccscc" class="st28" d="M230.6,421.2
			c0.1-0.6,0.7-0.1,0.8,0c0,0,0.5,0.9,0.4,1.6c0,0.4-0.5,1.4-0.5,1.4s-0.6,0.4-0.5-0.2c0.2-0.7,0.4-1,0.4-1.6
			C231.1,421.9,231,421.7,230.6,421.2L230.6,421.2z"/>
		<path id="path4473" inkscape:connector-curvature="0" sodipodi:nodetypes="ccccscccccccscc" class="st41" d="M173.8,395.9
			c-10.5-10.4-13.6-12.3-13.6-12.3l-24,14.5l-38.6,42.4c0,0,11.8-8.8,11.4-6.9s-0.1,0.5,2.7,7.7c1.1-7.8,12.6-21.4,12.6-21.4
			s3.8,7.9,8.1,8.1c1-4.8,7-15.5,7-15.5l5,5.5c0,0,6.2-13.4,13-15.7c-0.5,3.9,1.2,10.4,1.2,10.4s7.6-15,9.1-10.1
			c0.9,3.1,2.9,5.9,7.8,10C172.3,404.3,173.8,401.5,173.8,395.9L173.8,395.9z"/>
		<path id="path3778" inkscape:connector-curvature="0" sodipodi:nodetypes="csscscccccccsccc" class="st42" d="M152.1,371.1
			c-2.6,7.1-8,15.7-14.2,23.2c-4.2,5-6.4,7.4-9.1,10.8c-2.5,3-16.1,19.9-34.6,38.4c0,0,23.3-24.4,21.8-17.3c-0.1,0.6-1.8,5-1.8,5
			l9.6-15.1c0,0,7.3,5.8,7.5,4.5c0.1-1.3,6.1-16.4,6.1-16.4s3.8,7.9,4.9,7.5s6.4-17.9,13.5-23.6c2.8,5,5.4,15.3,5.4,15.3
			s1.5-7.9,2.1-8.2c1.1-0.6,4.5,1.4,6,0.3c-1.7-2.7-2.2-6.4-2.2-6.4C164,385.9,162.9,385,152.1,371.1L152.1,371.1z"/>
		<ellipse id="path4542" class="st43" cx="249.4" cy="374.7" rx="1.2" ry="0.9"/>
		<path id="path4134" inkscape:connector-curvature="0" sodipodi:nodetypes="csscc" class="st44" d="M249.7,387.1
			c0,0-7.9-11.4-16.3-13.9c-6.3-1.9-15.4,9.6-17.6,17.1c-2,6.9-5-16.5,15.6-19.8C245.4,371.5,252,387.7,249.7,387.1z"/>
		<path id="path4582" inkscape:connector-curvature="0" sodipodi:nodetypes="ccccccccccccccc" class="st45" d="M76,464.7l-3.5,4.3
			l-1.4,1.8l-0.5,0.6l-0.5,0.6l-1.4-0.7l-0.6-0.4l-0.6-0.5l-0.5-0.6l-0.5-0.6l-0.3-0.4l-0.4-0.8c0,0,5-3.8,9.1-3.9
			c0.4,0.2,1.1,0.3,1.1,0.3L76,464.7z"/>
		<path id="path5559" inkscape:connector-curvature="0" sodipodi:nodetypes="sssccsccccs" class="st46" d="M168.2,334.5
			c2.7-4.4-6.5-6.6-7-6.6c-0.4,0-6-1.2-4.2,4.9c1.8,6,0,8.1-1.6,7.5s-7.2-3-4.5,2.5s3.5,5.3,3.2,7.9c-0.3,2.5-1,5-1,5l-0.4,0.3
			l3.3,2.3c0,0,5.8-16.9,7.1-18C164.6,339.1,166.9,336.6,168.2,334.5L168.2,334.5z"/>
		<path id="path5549" inkscape:connector-curvature="0" sodipodi:nodetypes="cscccc" class="st35" d="M172.7,333.9
			c-2.6,1.1-6.7,4.7-8.9,10.5c-1.5,3.8-1.6,10.1-3,13.9c-1.5,3.8-2.6,3.7-2.6,3.7l-5-4.8C159.8,351.2,161.6,333.5,172.7,333.9z"/>
		<path id="path5644" inkscape:connector-curvature="0" sodipodi:nodetypes="ccccc" class="st22" d="M249.3,324.9
			c5.3,3.7,6.1,5.5,5.7,6.4c-2.2-0.7-5.8-1.6-5.8-1.6C254.1,329.3,251.2,327.1,249.3,324.9L249.3,324.9z"/>
		<path id="path5646" inkscape:connector-curvature="0" sodipodi:nodetypes="ccc" class="st47" d="M249.1,329.7
			c24.4,11.2,17.6,20.4,12.4,32.3C280.2,341.2,254.5,329.3,249.1,329.7z"/>
		<path id="path5704" inkscape:connector-curvature="0" sodipodi:nodetypes="cccccsssssc" class="st24" d="M95.1,480.3
			c0.8,0,16.6-7.9,32.2,12c5.5,6.4,5.3,12,3.3,13.8c0,0-2.1,1.5,3.3,2.9c6.1,2.1,4.5,5.2,4.5,5.2c-0.8,1.5,0.4,3.8,0.1,3.8
			c-1.1,0.1-44.5-3.6-43.2-3.7c0.3,0-3-2.5,1.1-3.7c5.7-1.6,19.2-2.7,21.5-6.8c1.7-3.1,1.4-8.9,1.1-9.3
			C116.3,490.6,115.8,485,95.1,480.3L95.1,480.3z"/>
		<path id="path5706" inkscape:connector-curvature="0" sodipodi:nodetypes="ccsccc" class="st24" d="M183.6,510.5
			c-8.4-1.6-7.2,0.9-9.9,1.6c0,0,14.5-44,0.3-65.4s14.4-11.3,14.4-11.3c15.5,14.7,10.3,35.2,5.1,46.6
			C186.1,497.9,181.1,506.2,183.6,510.5z"/>
		<path id="path1721" inkscape:connector-curvature="0" sodipodi:nodetypes="cccc" class="st48" d="M249.4,355.3
			c4.1,4.8,6.9,9.6,7.4,14.3c0,0.2,1.8-0.3,1.7-0.2C258.8,366.2,256.5,356.8,249.4,355.3z"/>
		<path id="path1721-2" inkscape:connector-curvature="0" sodipodi:nodetypes="cccc" class="st48" d="M199.9,352.1
			c4.7,4.6,8.6,8.3,10.4,16.5c0,0.2,2.9-0.3,3.7-0.3C213.2,365.2,206.7,354.8,199.9,352.1L199.9,352.1z"/>
		<path id="rect4692-4-7" inkscape:connector-curvature="0" sodipodi:nodetypes="sssssssssss" class="st31" d="M233.1,372.3
			c-2.6-1.6-5.9,2.1-8.4,4.1c-3.3,2.6-6.1,7.4-7.4,10.1c-2.3,4.5-2.8,8-2,11c0.6,2.5,2,4.7,3.9,6.2s5,2.2,7.2,3.6
			c4.6,3,4.6,1.6,8.8,1.5c2.6,0,7.2-2.8,9.4-5.3c3.8-4.3,5.3-8.2,5.9-11.5c1-5-3.8-9.5-5.6-11.1
			C239.2,375.8,239.8,376.5,233.1,372.3L233.1,372.3z"/>
		
			<path id="path4974" inkscape:connector-curvature="0" sodipodi:nodetypes="ccaacaaacccaaaccccaaaaaaaaaaaaaaacaccaaaccaaaaaaaccc" class="st34" d="
			M234.9,379.2c0,2.8,1.2,5.6,0.5,8.2c0,0,1.1,0,1.6,0.1s0.9,0.3,1.2,0.5c0.7,0.4,2,1.6,2,1.6s0.4,0.3,0.6,0.3
			c0.4,0.1,0.7,0.2,1.1,0.3c0.4,0.1,0.8,0.1,1.3,0.1c0.4,0,1.2-0.2,1.2-0.2l-0.1-0.3l-0.5-0.8c0,0,0.9,0.4,1.1,0.8
			c0.1,0.2,0.2,0.5,0.2,0.8s-0.1,0.6-0.2,0.8c-0.1,0.2-0.3,0.5-0.3,0.5l0.1-0.9l-0.2-0.1l-0.3,0.1c0,0-0.7,0-1.1,0
			c-0.6,0-1.2,0-1.7-0.1s-0.9-0.3-1.3-0.4c-0.3-0.2-0.6-0.4-0.8-0.6c-0.7-0.4-1.3-1-2.1-1.3c-0.5-0.2-1-0.2-1.4-0.2
			s-0.7-0.1-1.1-0.1c-0.6,0-1.2,0.2-1.9,0.3c-0.5,0.1-0.9,0.2-1.3,0.4c-0.4,0.2-0.6,0.5-1,0.7c-0.5,0.3-1,0.4-1.5,0.5
			s-0.9,0.2-1.4,0.3c-0.6,0.1-1.1,0.1-1.6,0.1s-0.9-0.1-1.3-0.2c-0.3,0-0.6-0.1-0.9-0.2c-0.5-0.1-1.3-0.3-1.3-0.3s-0.4,0.3-0.6,0.6
			c-0.2,0.3-0.5,0.9-0.5,0.9v0.8c0,0-0.5-1.3-0.4-1.9c0.1-0.5,0.4-0.9,0.7-1.3c0.2-0.3,0.5-0.5,0.7-0.7s0.7-0.4,0.7-0.4
			c-0.3,0.8-0.5,1-0.2,1.4c0,0,1.2,0.3,1.8,0.4c0.7,0.1,1.3,0.1,2,0c0.6,0,1.2-0.1,1.9-0.3c0.5-0.1,1-0.3,1.4-0.5
			c0.5-0.2,0.9-0.6,1.4-0.8c0.5-0.2,0.9-0.3,1.4-0.4c0.4-0.1,0.8-0.2,1.2-0.2c0.2,0,0.6,0,0.6,0c0.7-2.7-0.4-5.4-0.5-8.2
			L234.9,379.2z"/>
		<path id="path910" inkscape:connector-curvature="0" class="st34" d="M244.9,386.2c-0.2-1.2-1.1-2.9-2.1-3.8s-2.3-1.7-2.8-1.6
			c-0.4,0.1-1.2,1.3-1.5,2.2c-0.3,0.9-0.1,2.5,0.3,2.8c0.8,0.6,2.6,1,4.3,1.1l1.8,0.1V386.2z"/>
		<path id="path912" inkscape:connector-curvature="0" class="st34" d="M228.3,386.1c0.7-0.1,1.8-0.3,2.4-0.4c1-0.2,1.1-0.3,1.3-0.9
			c0.2-0.9,0-2.2-0.5-3.3c-0.4-0.8-0.5-0.8-1.4-0.8c-1,0-3.5,0.8-3.7,1.1c0,0.1-0.2,0.2-0.3,0.2c-0.9,0-3.4,2.6-3.7,3.8l-0.1,0.6
			h2.3C226,386.3,227.6,386.2,228.3,386.1L228.3,386.1z"/>
		<path id="path1180" inkscape:connector-curvature="0" class="st34" d="M236.3,396c0.6-0.3,1.4-1.4,1.8-2.2
			c0.4-0.8,0.6-1.8,0.3-2.2c-0.3-0.5-1.2-1.3-2-1.6c-1-0.4-2-0.5-2.8-0.1c-0.7,0.3-1.6,1.1-1.9,1.8c-0.2,0.5-0.2,0.5-0.1,0.9
			c0.7,1.8,2.5,3.5,3.9,3.6C235.8,396.3,235.9,396.3,236.3,396L236.3,396z"/>
		<path id="path1182" inkscape:connector-curvature="0" class="st34" d="M235.9,413.6c1.4-0.1,3.6-0.6,5-1c2.2-0.7,3.9-1.7,4.6-2.6
			c0.5-0.7,0.6-1.3,0.6-4.3c0-3.3,0-3.2,1.3-4.6c0.5-0.5,0.9-0.9,0.9-1.1c0.1-0.4-0.7-1.8-1.7-2.6l-0.4-0.3l-0.3,0.3
			c-0.8,1-2.6,2.3-3.7,2.7c-0.2,0.1-1,0.2-1.6,0.3c-1.7,0.2-7.8,0.3-12.2,0.3h-3.9l-0.6-0.3c-0.6-0.3-1.7-1.3-1.9-1.6
			c-0.1-0.4-1.4,1.2-2.2,2.6l-0.4,0.9l0.2,0.5c0.3,0.7,1.1,2,2.2,3.6c1.2,1.8,1.5,2.3,1.7,3.7c0.2,1.3,0.3,1.5,1.2,2.2
			c0.7,0.6,1.4,0.9,2.5,1.1C227.9,413.6,234.3,413.7,235.9,413.6L235.9,413.6z"/>
		<path id="path5702" inkscape:connector-curvature="0" sodipodi:nodetypes="sscsss" class="st49" d="M246.9,400.5
			c-1.4,2.2-1.7,0.3-1.5,7.8c0.1,2.1-4.5,4.4-6,4.2c0-1.9,4-2.1,4.7-3.6c1.1-2.2-0.5-5.8,1.1-7.7
			C245.8,400.8,247.7,399.3,246.9,400.5z"/>
		<path id="path5606" inkscape:connector-curvature="0" sodipodi:nodetypes="ccc" class="st50" d="M238.3,375.5
			c2.1,1.8,19.4,10.3,8.8,24C249.3,389.9,252.2,388.3,238.3,375.5z"/>
		
			<path id="rect4692-42" inkscape:connector-curvature="0" inkscape:transform-center-x="-1.4313192e-06" inkscape:transform-center-y="0.59928847" sodipodi:nodetypes="sssszsss" class="st34" d="
			M232.9,371.5c-2.4,0-5,0.6-6.9,2c-1.6,1.2-0.7,2.1,1.3,3.8c1.2,1,3.6,2.2,6.6,2.5c1.4,0.1,2.7-0.9,3.7-1.5
			c1.1-0.6,0.7-0.6,1.8-1.8c0.6-0.6,1.4-1.8,0.4-2.5C237.9,372.6,235.4,371.6,232.9,371.5L232.9,371.5z"/>
	</g>
	<g id="g1479" transform="matrix(-1.0522304,-0.2770188,-0.15155223,1.9233478,207.33929,-99.876873)">
		<g class="st51">
			<path class="st52" d="M-44.2,207.4c-0.2,0.9-0.1,1.8,0.4,2.5s1.3,1.2,2.3,1.5l-0.3,1.5l2.9,0.8l1-3.6c0.3-0.9,0.7-2.2,1.1-3.8
				c-0.5-0.2-1.3-0.5-2.3-0.8c-1.3-0.3-2.4-0.4-3.2-0.1C-43.3,205.6-43.9,206.3-44.2,207.4z M-42.2,208.8c0.1-0.5,0.5-0.7,1.1-0.5
				c0.1,0,0.2,0,0.2,0.1l-0.4,1.7C-42,209.8-42.4,209.4-42.2,208.8z"/>
		</g>
		<g class="st51">
			<path class="st53" d="M-44.2,207.4c-0.2,0.9-0.1,1.8,0.4,2.5s1.3,1.2,2.3,1.5l-0.3,1.5l2.9,0.8l1-3.6c0.3-0.9,0.7-2.2,1.1-3.8
				c-0.5-0.2-1.3-0.5-2.3-0.8c-1.3-0.3-2.4-0.4-3.2-0.1C-43.3,205.6-43.9,206.3-44.2,207.4z M-42.2,208.8c0.1-0.5,0.5-0.7,1.1-0.5
				c0.1,0,0.2,0,0.2,0.1l-0.4,1.7C-42,209.8-42.4,209.4-42.2,208.8z"/>
		</g>
		<g class="st51">
			<path class="st52" d="M-48.2,206.2l-0.4,2c-0.1,0.6-0.3,1.4-0.6,2.6c0.5,0.3,1.1,0.6,1.6,0.7c0.7,0.2,1.3,0.2,1.7,0
				c0.4-0.1,0.7-0.4,0.9-0.9c0.1-0.3,0.3-0.7,0.6-1.5c0.2-0.7,0.4-1.3,0.6-1.8l-2.1-0.6c-0.1,0.3-0.1,0.7-0.3,1.3
				c-0.1,0.3-0.2,0.8-0.4,1.4c-0.1,0.5-0.2,0.8-0.4,0.9c-0.1,0.2-0.3,0.2-0.6,0.1c-0.1,0-0.2-0.1-0.2-0.1c0.1-0.4,0.3-1.1,0.5-2
				c0.1-0.5,0.3-1.1,0.6-1.9L-48.2,206.2z"/>
		</g>
		<g class="st51">
			<path class="st54" d="M-48.2,206.2l-0.4,2c-0.1,0.6-0.3,1.4-0.6,2.6c0.5,0.3,1.1,0.6,1.6,0.7c0.7,0.2,1.3,0.2,1.7,0
				c0.4-0.1,0.7-0.4,0.9-0.9c0.1-0.3,0.3-0.7,0.6-1.5c0.2-0.7,0.4-1.3,0.6-1.8l-2.1-0.6c-0.1,0.3-0.1,0.7-0.3,1.3
				c-0.1,0.3-0.2,0.8-0.4,1.4c-0.1,0.5-0.2,0.8-0.4,0.9c-0.1,0.2-0.3,0.2-0.6,0.1c-0.1,0-0.2-0.1-0.2-0.1c0.1-0.4,0.3-1.1,0.5-2
				c0.1-0.5,0.3-1.1,0.6-1.9L-48.2,206.2z"/>
		</g>
		<g class="st51">
			<path class="st52" d="M-52.2,208.1c0,0.2-0.1,0.5-0.1,1c0,0.3-0.1,0.6-0.2,1c0.3,0.2,0.7,0.3,1.2,0.5c0.8,0.2,1.5,0.2,2.2,0
				c0.7-0.3,1.2-0.8,1.4-1.6c0.2-0.8,0.1-1.5-0.4-2.1c-0.4-0.6-1-0.9-1.8-1.2c-0.3-0.1-0.6-0.1-1-0.2l-0.6,1.9c0.2,0,0.4,0,0.6,0.1
				c0.3,0.1,0.6,0.3,0.8,0.5c0.3,0.3,0.3,0.6,0.3,1c-0.1,0.3-0.3,0.5-0.6,0.6s-0.5,0.1-0.8,0l0.2-0.6c0-0.1,0.1-0.3,0.2-0.6
				L-52.2,208.1z"/>
		</g>
		<g class="st51">
			<path class="st54" d="M-52.2,208.1c0,0.2-0.1,0.5-0.1,1c0,0.3-0.1,0.6-0.2,1c0.3,0.2,0.7,0.3,1.2,0.5c0.8,0.2,1.5,0.2,2.2,0
				c0.7-0.3,1.2-0.8,1.4-1.6c0.2-0.8,0.1-1.5-0.4-2.1c-0.4-0.6-1-0.9-1.8-1.2c-0.3-0.1-0.6-0.1-1-0.2l-0.6,1.9c0.2,0,0.4,0,0.6,0.1
				c0.3,0.1,0.6,0.3,0.8,0.5c0.3,0.3,0.3,0.6,0.3,1c-0.1,0.3-0.3,0.5-0.6,0.6s-0.5,0.1-0.8,0l0.2-0.6c0-0.1,0.1-0.3,0.2-0.6
				L-52.2,208.1z"/>
		</g>
		<g class="st51">
			<path class="st52" d="M-57.2,203.2c-0.1,0.6-0.1,1.1,0.1,1.6c0.2,0.4,0.4,0.8,0.8,1c-0.3,0-0.5,0.1-0.7,0.3s-0.3,0.4-0.4,0.7
				c-0.2,0.6,0.1,1.2,0.7,1.7c0.5,0.4,1.2,0.7,2.1,0.9c0.8,0.2,1.6,0.4,2.6,0.5c0.2-0.8,0.6-2,1-3.7c0.3-0.9,0.7-2.2,1.1-3.7
				c-0.6-0.3-1.5-0.6-2.5-0.9C-55.2,200.9-56.8,201.4-57.2,203.2z M-55.3,204.7c0.1-0.3,0.2-0.4,0.5-0.5c0.2-0.1,0.5-0.1,0.8,0
				l-0.3,1.5C-55.1,205.6-55.5,205.2-55.3,204.7z M-55.7,207.1c0.1-0.4,0.4-0.5,1-0.3c0.1,0,0.1,0,0.2,0.1l-0.3,1.2
				C-55.5,207.8-55.8,207.5-55.7,207.1z"/>
		</g>
		<g class="st51">
			<path class="st54" d="M-57.2,203.2c-0.1,0.6-0.1,1.1,0.1,1.6c0.2,0.4,0.4,0.8,0.8,1c-0.3,0-0.5,0.1-0.7,0.3s-0.3,0.4-0.4,0.7
				c-0.2,0.6,0.1,1.2,0.7,1.7c0.5,0.4,1.2,0.7,2.1,0.9c0.8,0.2,1.6,0.4,2.6,0.5c0.2-0.8,0.6-2,1-3.7c0.3-0.9,0.7-2.2,1.1-3.7
				c-0.6-0.3-1.5-0.6-2.5-0.9C-55.2,200.9-56.8,201.4-57.2,203.2z M-55.3,204.7c0.1-0.3,0.2-0.4,0.5-0.5c0.2-0.1,0.5-0.1,0.8,0
				l-0.3,1.5C-55.1,205.6-55.5,205.2-55.3,204.7z M-55.7,207.1c0.1-0.4,0.4-0.5,1-0.3c0.1,0,0.1,0,0.2,0.1l-0.3,1.2
				C-55.5,207.8-55.8,207.5-55.7,207.1z"/>
		</g>
		<g class="st51">
			<path class="st52" d="M-60.5,205.3c-0.2,0.7-0.1,1.4,0.2,2s0.8,1,1.4,1.2c0.7,0.2,1.3,0.1,1.8-0.4c0.5-0.4,0.8-0.9,1-1.7
				s0.1-1.4-0.2-2c-0.3-0.5-0.8-0.9-1.4-1c-0.6-0.2-1.2-0.1-1.7,0.2C-60,204-60.4,204.6-60.5,205.3z M-59.1,206.3
				c0.1-0.6,0.4-0.8,0.8-0.7c0.4,0.1,0.5,0.4,0.4,1c-0.1,0.2-0.2,0.4-0.3,0.6c-0.2,0.2-0.3,0.3-0.5,0.2c-0.2,0-0.3-0.2-0.4-0.5
				C-59.1,206.7-59.2,206.5-59.1,206.3z"/>
		</g>
		<g class="st51">
			<path class="st54" d="M-60.5,205.3c-0.2,0.7-0.1,1.4,0.2,2s0.8,1,1.4,1.2c0.7,0.2,1.3,0.1,1.8-0.4c0.5-0.4,0.8-0.9,1-1.7
				s0.1-1.4-0.2-2c-0.3-0.5-0.8-0.9-1.4-1c-0.6-0.2-1.2-0.1-1.7,0.2C-60,204-60.4,204.6-60.5,205.3z M-59.1,206.3
				c0.1-0.6,0.4-0.8,0.8-0.7c0.4,0.1,0.5,0.4,0.4,1c-0.1,0.2-0.2,0.4-0.3,0.6c-0.2,0.2-0.3,0.3-0.5,0.2c-0.2,0-0.3-0.2-0.4-0.5
				C-59.1,206.7-59.2,206.5-59.1,206.3z"/>
		</g>
		<g class="st51">
			<path class="st52" d="M-62.9,204.2c0.2,0,0.3,0,0.4,0c0.1,0,0.2,0.1,0.3,0.2c0.1,0.1,0.1,0.2,0.1,0.4c0,0.1-0.2,0.3-0.4,0.5
				c-0.3,0.2-0.4,0.5-0.5,0.7c-0.1,0.3,0,0.7,0.2,0.9c0.2,0.3,0.5,0.5,0.9,0.6s0.6,0.1,0.8,0.1c0-0.1,0.1-0.2,0.2-0.4
				c0.1-0.1,0.1-0.2,0.2-0.4c-0.3,0-0.4,0-0.5,0c-0.3-0.1-0.5-0.2-0.4-0.5c0-0.2,0.1-0.3,0.3-0.4c0.3-0.1,0.5-0.2,0.8-0.4
				c0.5-0.2,0.8-0.6,0.9-1.1c0.1-0.5,0-0.9-0.3-1.3c-0.3-0.3-0.7-0.5-1.3-0.7c-0.3-0.1-0.7-0.1-1.1-0.2L-62.9,204.2z"/>
		</g>
		<g class="st51">
			<path class="st54" d="M-62.9,204.2c0.2,0,0.3,0,0.4,0c0.1,0,0.2,0.1,0.3,0.2c0.1,0.1,0.1,0.2,0.1,0.4c0,0.1-0.2,0.3-0.4,0.5
				c-0.3,0.2-0.4,0.5-0.5,0.7c-0.1,0.3,0,0.7,0.2,0.9c0.2,0.3,0.5,0.5,0.9,0.6s0.6,0.1,0.8,0.1c0-0.1,0.1-0.2,0.2-0.4
				c0.1-0.1,0.1-0.2,0.2-0.4c-0.3,0-0.4,0-0.5,0c-0.3-0.1-0.5-0.2-0.4-0.5c0-0.2,0.1-0.3,0.3-0.4c0.3-0.1,0.5-0.2,0.8-0.4
				c0.5-0.2,0.8-0.6,0.9-1.1c0.1-0.5,0-0.9-0.3-1.3c-0.3-0.3-0.7-0.5-1.3-0.7c-0.3-0.1-0.7-0.1-1.1-0.2L-62.9,204.2z"/>
		</g>
		<g class="st51">
			<path class="st52" d="M-65.7,203.2c0.2,0,0.3,0,0.4,0s0.2,0.1,0.3,0.2c0.1,0.1,0.1,0.2,0.1,0.4c0,0.1-0.2,0.3-0.4,0.5
				c-0.3,0.2-0.4,0.5-0.5,0.7c-0.1,0.3,0,0.7,0.2,0.9c0.2,0.3,0.5,0.5,0.9,0.6s0.6,0.1,0.8,0.1c0-0.1,0.1-0.2,0.2-0.4
				c0.1-0.1,0.1-0.2,0.2-0.4c-0.3,0-0.4,0-0.5,0c-0.3-0.1-0.5-0.2-0.4-0.5c0-0.2,0.1-0.3,0.3-0.4c0.3-0.1,0.5-0.2,0.8-0.4
				c0.5-0.2,0.8-0.6,0.9-1.1c0.1-0.5,0-0.9-0.3-1.3c-0.3-0.3-0.7-0.5-1.3-0.7c-0.3-0.1-0.7-0.1-1.1-0.2L-65.7,203.2z"/>
		</g>
		<g class="st51">
			<path class="st54" d="M-65.7,203.2c0.2,0,0.3,0,0.4,0s0.2,0.1,0.3,0.2c0.1,0.1,0.1,0.2,0.1,0.4c0,0.1-0.2,0.3-0.4,0.5
				c-0.3,0.2-0.4,0.5-0.5,0.7c-0.1,0.3,0,0.7,0.2,0.9c0.2,0.3,0.5,0.5,0.9,0.6s0.6,0.1,0.8,0.1c0-0.1,0.1-0.2,0.2-0.4
				c0.1-0.1,0.1-0.2,0.2-0.4c-0.3,0-0.4,0-0.5,0c-0.3-0.1-0.5-0.2-0.4-0.5c0-0.2,0.1-0.3,0.3-0.4c0.3-0.1,0.5-0.2,0.8-0.4
				c0.5-0.2,0.8-0.6,0.9-1.1c0.1-0.5,0-0.9-0.3-1.3c-0.3-0.3-0.7-0.5-1.3-0.7c-0.3-0.1-0.7-0.1-1.1-0.2L-65.7,203.2z"/>
		</g>
	</g>
	<path id="path1950" class="st55" d="M218.8,307c-0.5,0.2-1.8,0.1-2.2,0.7c-0.6,1.7,0.5,6.7,0.5,6.7s-0.8-4.6,0.1-6.5
		C217.4,307.5,218.7,307.8,218.8,307L218.8,307z"/>
	<path id="path1950-8" class="st55" d="M234.1,303.5c-1.2,0.8-3.2-0.1-3.6,0.5c-0.6,1.7,0.5,6.7,0.5,6.7s-0.8-4.6,0.1-6.5
		C231.3,303.8,233.3,304.8,234.1,303.5L234.1,303.5z"/>
</g>
<g>
	<polygon class="st56" points="431.6,122.7 164.4,133.4 163.9,74.4 431.6,93.1 	"/>
	<polygon class="st57" points="447.4,85.9 201.2,65.7 163.9,75.5 431.6,93.1 	"/>
	<polygon class="st57" points="447.4,129.1 201.2,143.5 163.9,133.4 431.6,122.7 	"/>
	<polygon class="st58" points="201.2,143.5 163.9,134.8 163.9,74 201.2,65.7 	"/>
	<polygon class="st59" points="447.4,129.1 431.6,122.7 431.6,93.1 447.4,85.9 	"/>
	<polygon class="st60" points="203.9,141.1 201.2,143.4 201.2,65.7 203.9,67.5 	"/>
	<polygon class="st60" points="446.1,128.6 447.4,129.1 447.4,85.9 446.4,86.9 	"/>
	<polygon class="st60" points="446.4,86.9 203.9,67.5 201.2,65.7 447.4,85.9 	"/>
	<polygon class="st60" points="446.1,128.6 203.9,141.1 201.2,143.5 447.4,129.1 	"/>
</g>
<g>
	<g>
		<path class="st61" d="M778.9,57.5c-1.3-0.1-2.6-0.1-3.9-0.1c-11.5,0-22.6,3.3-30.7,9.3c-8,5.8-12.7,13.7-13,21.9l88.3,0.1
			c-1.8-8-0.7-7.3-5.7-15.7C812.6,65.6,787.2,57.4,778.9,57.5z"/>
	</g>
	<path class="st62" d="M779.4,57.5c-1.3-0.1-2.6-0.1-3.9-0.1c-11.5,0-22.6,3.3-30.7,9.3c-8,5.8-12.7,13.7-13,21.9h7.8
		c0.3-8.2,5-16.1,13-21.9C759.8,61.4,769.3,58.2,779.4,57.5z"/>
	<path class="st63" d="M761.4,7.9H774v48.3c0,0.6,0.7,1.1,1.6,1.1c0.9,0,1.6-0.5,1.6-1.1V7.9h12.6c0.9,0,1.6-0.5,1.6-1.1
		s-0.7-1.1-1.6-1.1h-28.3c-0.9,0-1.6,0.5-1.6,1.1S760.5,7.9,761.4,7.9L761.4,7.9z"/>
	<path class="st64" d="M783.7,89.8c-6.1-0.1-3.7-0.3-8.2-0.3s-4.5,1-8.2,0.3c-0.8-0.1-0.7-1.1-1.6-1.1c-0.9,0-1.6,0.5-1.6,1.1
		c0,4.6,5.1,8.3,11.3,8.3s11.3-3.7,11.3-8.3c0-0.6-0.7-1.1-1.6-1.1S784.6,89.8,783.7,89.8z"/>
	<path class="st65" d="M775.6,55.2c-12.3,0-24.2,3.6-32.8,10c-8.8,6.4-13.8,15.1-13.9,24.1c0,0.9,1,1.6,2.2,1.7l0,0h89.1
		c1.2,0,2.2-0.7,2.2-1.6l0,0c-0.1-9-5.1-17.7-13.9-24.1C799.7,58.7,787.9,55.1,775.6,55.2L775.6,55.2z M731.9,88.6
		c0.3-8.2,5-16.1,13-21.9c16.8-12.3,44.1-12.4,61-0.2c0.1,0.1,0.2,0.2,0.3,0.2c8,5.8,12.7,13.7,13,21.9H731.9z"/>
</g>
<polygon class="st66" points="1069.5,399.1 551.5,400 731,90.9 823.5,90.9 "/>
<g transform="translate(0.000000,1051.000000) scale(0.100000,-0.100000)">
	<path class="st67" d="M10903.8,6506.8c1.4,18.7,6.8,72,11.4,118.5c5,46.2,48.5-109.3,51.2-57.6c6.8,130,11.4,172.8,32.3,297.4
		c12.7,73.7,19.1,123.6,19.5,154.8c0.5,53-3.2,61.5-28.6,68.2c-28.2,7.5-132.3,4.4-263.2-7.5c-65.9-5.8-120.9-9.8-122.3-8.8
		c-1.4,0.7,2.7,3.4,8.6,6.1c5.9,2.4,39.1,19,73.6,36.7l62.3,32.3l-15,3.1c-8.2,2-16.4,4.8-18.2,6.5c-3.6,4.1-170.5,3.4-260.5-1
		c-35-1.7-87.7-2.4-116.8-1l-53.6,2v19c-0.5,47.2-9.1,409.1-10.5,409.5c-0.5,0.7-288.2,2.7-639.6,4.8c-351.4,2-654.1,5.4-672.8,7.1
		c-79.1,7.1-204.6,10.2-461.4,10.9c-235.5,0.7-276.8,0-302.3-4.8c-26.4-4.8-77.7-5.1-498.7-2.4c-403.7,2.7-472.8,3.7-495.5,8.5
		c-25.7,5-119.4,10.4-123.9,7c-1.4-1-22.7-4.1-47.7-6.8c-39.1-4.4-111.4-4.8-522.3-2c-262.3,1.7-477.3,2.7-478.2,2.4
		c-0.5-0.7-9.5-89.6-20-198c-10-108.3-19.5-200-20.5-203.7c-1.8-6.5-5-6.8-50.9-6.1c-38.6,0.3-65.9,3.4-126.4,14.3
		c-42.3,7.1-89.6,14.9-104.6,17c-15,2.4-31.8,4.8-37.7,5.8c-8.6,1.4-11.8-1-20-14.6c-8.2-13.9-8.6-18-4.1-32.3
		c15.9-51.9,85.9-82.2,207.3-90c27.7-1.7,40.5-4.1,53.6-10.5c9.1-4.8,16.4-8.8,15.5-9.5s-11.4,1-23.6,4.1
		c-36.8,8.1-90.9,14.3-163.6,18.3c-37.3,2-122.3,7.5-188.6,12.6c-100.5,7.1-136.8,8.5-217.3,7.1c-54.5-1-98.6-3.1-100.9-4.8
		c-2.7-2-7.7-13.9-11.4-27.2c-29.5-104.2-43.6-173.7,10.5-583.2"/>
</g>
</svg>
