<?xml version="1.0" encoding="utf-8"?>
<!-- Generator: Adobe Illustrator 23.0.0, SVG Export Plug-In . SVG Version: 6.00 Build 0)  -->
<svg version="1.1" id="Camada_1" xmlns="http://www.w3.org/2000/svg" xmlns:xlink="http://www.w3.org/1999/xlink" x="0px" y="0px"
	 viewBox="0 0 455.9 436.4" style="enable-background:new 0 0 455.9 436.4;" xml:space="preserve">
<style type="text/css">
	.st0{fill:#C95E62;}
	.st1{fill:#A9484E;}
	.st2{fill:#C4865E;}
	.st3{fill:#4E2D14;}
	.st4{fill:#2B1310;}
	.st5{opacity:0.885;fill:#A95F3A;enable-background:new    ;}
	.st6{opacity:0.885;fill:#0B090C;enable-background:new    ;}
	.st7{opacity:0.885;fill:#95572E;enable-background:new    ;}
	.st8{fill:none;stroke:#FFFFFF;stroke-miterlimit:10;}
	.st9{fill:#833F1D;}
	.st10{fill:#2D2D37;}
	.st11{fill:#0D0C0F;}
	.st12{opacity:0.885;fill:#833F1D;enable-background:new    ;}
	.st13{fill:#4E2D12;stroke:#0B090C;stroke-width:0.2317;}
	.st14{fill:#A95F3A;}
	.st15{fill:#981F1E;}
	.st16{opacity:0.32;}
	.st17{fill:#291210;}
	.st18{font-family:'ShowcardGothic-Reg';}
	.st19{font-size:28.5051px;}
	.st20{fill:#291210;stroke:#0B090C;stroke-width:0.1793;}
	.st21{font-size:17.8157px;}
	.st22{fill:#291210;stroke:#0B090C;stroke-width:0.2646;}
	.st23{fill:#4E2D12;}
	.st24{fill:none;stroke:#0B090C;stroke-width:0.1793;}
	.st25{fill:none;stroke:#0B090C;stroke-width:0.2646;}
	.st26{opacity:0.885;fill:#B6B186;enable-background:new    ;}
	.st27{fill:#0B090C;}
</style>
<g>
	<path class="st0" d="M178.9,93.9L228,115l51.8,11l29.4,36.5c0,0,49.1,21.4,52.4,28.5c3.4,7.1,18.8,48.7,24.1,54
		c5.4,5.3,39.8,50.5,43.3,60.5c3.6,10,11.3,48.6,11.3,48.6l15.6,45.9l-14.4,17.1l-34.4,11.4l-55.3-57h-26.6L309,360.1L178.9,93.9z"
		/>
	<polygon class="st0" points="43.3,22.7 18.9,11.6 0,21.2 0,436.4 322,434.9 325.2,410.8 281.7,393.7 198.9,379.8 181.5,344.1 
		119.4,298.4 124.7,245 70.9,154 79.2,102.7 	"/>
	<path class="st1" d="M30.3,93.7c-5.5,2-23.7,11.8-23.7,11.9c0,0,0,0,0,0c0,0,0.2,1.7,15.4,8.3c17.8,14,23.2,19.3,22.5,20.2
		c-1.1,1.6-20.3-12.8-27.3-7.1c-0.8,0.6-2.7,2.5-2.4,11.9c0.4,10.9,3.3,19,5.9,26.1C31,192.2,32.5,194,31.5,199.3
		c-1.7,9.5-7.8,10.9-7.1,19c0.2,2.6,1.2,7.6,13.1,19c15.4,14.9,21.1,13.5,23.7,20.2c6.2,15.9-20.8,38.3-17.8,41.5
		c2.2,2.4,15.7-4.3,27.3-15.4c17.9-17.2,22.2-36.2,23.7-35.6c1.9,0.7-12,28-23.7,70c-2.6,9.3-5.2,19.5-13.1,22.5
		c-11.4,4.4-25.3-9.5-26.1-8.3c-0.9,1.3,12.4,21.3,33.2,20.2c4.1-0.2,12.8-1.6,27.3-16.6c25.8-26.7,30.4-55.3,33.2-54.6
		c3.1,0.8,5,36.2-16.6,62.9c-16,19.8-38.4,26.7-45.1,28.5c-18.4,4.9-35.6,3-35.6,3.6c0,0.7,32.7-7.2,52.2,9.5
		c11.8,10.1,12.9,24.3,24.9,26.1c4.8,0.7,11.6-0.5,14.2-4.7c4.5-7.3-7.3-16.2-7.1-30.9c0.1-13.8,10.7-23.9,15.4-28.5
		c14.9-14.4,42.4-24.2,55.8-14.2c22.1,16.5-10,75.4,11.9,90.2c7.5,5,14.2,0.2,52.2-3.6c21.4-2.1,26.1,0.1,40.3-2.4
		c4.1-0.7,41.3-7.4,41.5-16.6c0.3-10.4-47.2-4.8-85.4-33.2c-30.7-22.8-24-44.2-64.1-119.9c-6.2-11.7-27.9-51.8-65.3-96.1
		C98.6,132.9,55.5,84.4,30.3,93.7z"/>
	<path class="st1" d="M177.5,112.6c5.7-7.6,23.4-8.1,34.4-2.1c11.4,6.2,11.3,17.1,27.3,28.2c4.9,3.4,4.2,1.9,16.6,8.3
		c17.2,8.9,29.6,17.4,43.9,27.3c8.9,6.1,10.3,10.4,16.6,11.9c11,2.5,21.1-3.8,22.5-1.2c1.2,2.1-5.8,5.7-7.1,14.2
		c-0.8,5.2,1.4,7,0,9.5c-3.9,6.9-25.4,2.3-25.4,2.5c0,0.2,26.5,0.7,29,9.4c1.2,4.3-4.7,6.9-4.7,14.2c-0.1,4.6,2.2,8.9,10.7,17.8
		c12.3,12.9,16.2,12.9,22.5,20.2c10.1,11.6,6.8,19.1,14.2,32c10.3,17.9,29.7,25.2,34.4,27.3c12.4,5.5,13.8,2.6,19,7.1
		c0,0,8,7.1,10.7,49.8c0,0-19.3,5.7-29.7,5.9c-14.7,0.3-32.8-17.2-42.7-27.3c-58.7-59.6-41-38.3-54.6-54.6
		C269.7,259,247,231.9,225,201.7C173.9,131.5,173.1,118.5,177.5,112.6z"/>
	<g>
		<path class="st2" d="M14.7,85.6c3.5,7.3,1.7,11,5.5,17.4c3.6,6,9.1,9.3,13.3,11.3c0,0,0,0,0,0c0.9,23,0.7,23.1,1.1,29
			c0.6,9.1,1.2,7.7,2.6,22.6c0.3,3.1,0.6,6.5,1.2,11.5c0,0,0.9,7.3,2,13.5c0.9,5.4,6.6,20.2,12.3,33.9c5.1,12.4,10.3,24,12,27.1
			c2.1,3.7,3.3,5.4,8.5,14.5c4.8,8.2,7.2,12.4,7.6,13.5c5.9,14.1-1.1,21.5,3.9,31.8c2.8,5.8,7.4,8.3,16.6,13.4
			c28.4,15.9,42.6,23.9,55.4,33.6c15,11.4,24.7,22.5,27.4,25.6c10.4,12.2,8.7,13.8,14,18.3c12.4,10.7,25.5,4.8,69,4.8
			c45.5,0,53.3,6.4,56.6,10.3c2.5,2.9,6.8,9.4,15.4,13.2c2.2,1,6.5,1.8,15,3.4c14.7,2.7,17.9,2.6,21.4,1.6c2.7-0.8,8-2.3,9.9-6.8
			c1.6-3.8-0.1-7.7-2-11.9c-1.2-2.7-3.8-8.5-10.1-13.6c-4.8-3.9-9.2-5.3-24.7-8.9c-0.9-0.2-20.8-4.8-35.6-8.7
			c-13.7-3.6-17.5-5-17.8-7.5c-0.3-2.4,4.9-5.7,15.4-12.3c20.4-12.7,22.2-13.7,26.1-14.2c5.7-0.8,11.7,1.3,23.7,5.4
			c17,5.8,16.7,9.1,30.1,12.8c3.5,1,8.4,2.1,13.8,5.8c4.4,3,4,4.2,7.7,6.2c0.7,0.4,9.6,5,17.8,1.6c3.4-1.4,3.2-2.7,6.7-3.8
			c5.3-1.5,7.5,1.1,11,0c6.2-1.9,10.6-13.3,7.2-18.7c-1.9-3-4.8-1.8-14.4-7c-4.2-2.2-4.2-2.8-7.2-4.2c-6.8-3.2-12.8-3.3-15.8-3.5
			c-12.1-0.8-28.4-7.1-38-18c-3.7-4.2-5.7-8.4-9.1-15.4c-4.5-9.4-4.8-13.5-7.8-20.3c-4.2-9.5-9.7-15.3-16.8-22.8
			c-12.1-12.7-21-22.1-34.8-25.3c-16.3-3.8-26,4.2-34.8-3.6c-1.5-1.4-3.5-5.4-7.5-13.5c-6.8-13.8-6.7-17.7-12.3-23.3
			c-4.1-4.1-8.9-6.9-8.4-7.7c0.2-0.4,1.4,0,4.8,1c5.8,1.6,8.7,2.4,10.8,2.7c5.7,0.8,6-1.5,10.2-0.8c8.8,1.5,13.9,12.4,14.5,13.7
			c2.7,6,0.7,7.2,3.2,10.8c4.5,6.2,15.1,8.2,22.6,5.7c3.7-1.2,9.7-4.6,9.7-4.6c0,0,0,0,0,0c1.7-3.2,2.6-5.8,2.7-6.2
			c0.5-1.7-0.3-4.4-7.2-13c-3.9-4.7-5.8-7.1-9.1-10.3c-6.9-6.6-8.4-5.8-10.7-9.9c-1.2-2-2.3-4.9-5.3-8.1c-1.1-1.2-2.1-2-2.8-2.6
			c-3.3-3-8.6-7.3-15.5-11.5c-9-5.3-15.3-6.9-31.7-13c-24.9-9.3-24.8-9-26.4-10.3c-10.6-8.5-8.7-16.4-23.9-34.5
			c-7.1-8.5-10.9-10.8-14.9-11.7c-4.1-1-7.2-0.2-9.5-2.8c-2.6-2.9-0.7-6-4-10.3c-1.9-2.6-4.5-4-5.1-4.4c-3.9-2.1-7.1-1.8-7.4-3.1
			c-0.3-1.2,2.3-2.1,3.4-3.6c3.4-4.4-3.6-16.7-13.1-27.6c-7.5-8.6-19.1-22.1-40.1-29.3C95.5,10.3,85.2,6.7,72,8.8
			C55.2,11.5,41.9,22,39.7,27.7c-0.2,0.5-0.9,2.5-2.6,4.9c-0.9,1.2-2.8,3.9-5.8,5.2c-3.1,1.3-5.9,0.5-7.3,0.4
			c-9.7-1.2-27.1,18.1-23.6,31C2.5,76.4,9.6,74.9,14.7,85.6z"/>
		<polygon class="st3" points="62.9,227.2 66.1,235.1 70.5,243.8 76.4,251.7 80.4,256.9 91,264.8 88.7,279.8 87.9,294.8 83,305.5 
			83.4,291.7 80.8,279.8 73.2,266.4 66.9,255.7 56.6,234.1 53.7,227.2 		"/>
		<polygon class="st4" points="93.4,266.4 95.8,275.9 100.9,279 100.9,291.3 104.5,307.5 104.5,314.6 109.6,320.6 114.4,323.7 
			119.1,323.7 117.1,328.5 119.1,332.8 127.8,332.8 145.6,345.1 169.2,358.5 178.1,372.4 181.5,381.2 172.3,371.8 163.8,364.2 
			154,356.6 140.6,347.6 126.4,339.2 112.4,331.2 99.1,323.8 91,318.8 84.7,311.6 83,305.5 87.9,294.8 88.7,279.8 91,264.8 		"/>
		<path class="st5" d="M132.2,332.8l5.9-1.6l-3-3.2h6.9v-12.3l4.4,10.3l15.4-1.8l30.5,3c0,0,25.3,14.6,26.1,15.8
			c0.8,1.2,20.2,20.6,20.2,20.6l17.4,7.5l5.9,11.9l19.8,10.7c0,0,22.9,2.8,24.5,4c1.6,1.2,4.4,13.1,4.4,13.1l-12.3-2.1l-15-1.1
			l-21.4-0.3l-20.6,0.6l-17.4,0.9l-9.5-0.1l-10.4-2.4l-6-3.9l-6-7.7l-8-10.6l-2.6-4.6l-5.2-9.9l-7.1-11.1l-41.4-25.7H132.2z"/>
		<path class="st6" d="M49.5,51.7l5.3-7.1c0,0-0.3-1.3,0-2.9c0.3-1.6,1.3-6.8,1.3-6.8l4.2-2.5l1.8-2.4l6.3,3.7l7.1,1.1l3.2-2.5
			l-3.4,8.4l-0.3,5.8c0,0-0.5,4.5-1.3,6.1c-0.8,1.6-2.4,8.2-2.9,9.2c-0.5,1.1-1.1,10-1.1,10l1.3,3.4l-1.1,2.9l-4.5-2.6l-3.7-7.9
			l-2.1-4.5l-5.3-4.2l-2.9-3.6l-2.1-1.3V51.7z"/>
		<path class="st6" d="M97.8,20.6c0,0,2.8-3.2,3.8-3.8c1-0.5,5.8,0,5.8,0l1.3,1.8l3.8,2l1.7,2v3.2l-5.5-1.8l-7.1-2.1L97,22.9
			L97.8,20.6z"/>
		<path class="st5" d="M323.6,355l3.6-15.8l-1.8-11.1l3.4,2l2.8-4l3.2,4.4l1.6-7.5l7.5,6.3l2-6.3l-3.6-11.1l1.6-9.1l4-4.4l8.3,4.4
			l4.7,13.1l1.6,10.9l10.3,7.3c0,0,12.3,4.7,13.1,6.3c0.8,1.6,21.8,11.1,21.8,11.1l3.6,9.5l-7.5,5.5l-2.2,7.5l-6.6-2.8l-4.2-1.2
			l-7.7-2.6l-8.2-4.1l-7.3-3.4l-11.3-4.1l-10.1-3.1l-6.5-1l-5.4,0.7l-4.2,2l-7.7,4.6l-15.8,9.8l2.6-8.6l9.1-3.6L323.6,355z"/>
		<path class="st5" d="M219.2,152.8l5.5,8.3l3.2,5.9l2.7,4l-11.4-9.1l3.1,9.1l-12.3-13.5l7.5,17.8h5.5l11.1,8.3l13.8,12.9l9.1,2.1
			l6.5,1.5l6.5-0.6l3.7-0.2l5.3,2.1l4.5,4.1l3.8,5.6l7.7-3.1l6.3-2.5l-5.1-9.8l-14.2-16.2c0,0-9.9-8.3-12.3-9.5
			s-31.6-10.3-31.6-10.3l-7.1-4l-7.1-3.2l-2.8-3.6L219.2,152.8z"/>
		<path class="st4" d="M70.9,92.8l-8.2-7.4c0,0-5-3.2-4.5-5c0.5-1.8,1.6-4.7,2.1-5.8c0.5-1.1,2.9-4,2.9-4l15.6-40.5l2.6-5.3l5.5-2.6
			l3.7-1.5l6.3,2.3l4.5-1.1l7.1,2.1l7.9,1.8l8.2,4.2v2.4L89.1,91.2l-4.2,1.6l-6.1,2.1H74h-4.7L70.9,92.8z"/>
		<path class="st5" d="M124.7,245c0,0-9.1-9.9-10.3-11.9c-1.2-2-8.7-7.9-8.7-7.9l-8.3-11.9l-10.7-14.2L83,180.3L94.2,169l19.8,22.2
			l5.9,15.8L124.7,245z"/>
		<path class="st7" d="M89.1,91.2c0,0-4-2.4-5-2.6s-4-2.6-4-2.6l-1.3-5.8l-2.1-6.3c0,0,0-5.8,0-6.6c0-0.8,0-6.3,0-7.1
			s1.1-4.6,1.1-4.6l1.1-6.2l4.1-5.5c0,0,0.9-3.7,1.7-4.5c0.8-0.8,4-2.7,4.5-4.4s1.6-3.8,1.6-3.8l5.5-4.2h13.5l6.6,1.8l5.3,2.1l7.4,4
			l3.4,6.8l4.2,6.6l2.6,3.7l2.9,6.4c0,0,1.8,4.2,1.8,5.2c0,1.1,4.2,0.5,4.2,1.3c0,0.8-3.4,2.1-5,3.2c-1.6,1.1-9.8,4.5-9.8,4.5
			L117,81.7l-5.8,1.6c0,0-14.3,4.2-14.8,5C95.9,89.1,89.1,91.2,89.1,91.2z"/>
		<polygon class="st8" points="142.1,315.8 145.6,309.1 143.8,298.4 148.4,307.1 145.2,315.8 145.2,320.2 		"/>
		<path class="st3" d="M107.3,183.7l8.7-6.8l13.5-2l12.7,4.4c0,0,4.7,9.5,6.3,10.7c1.6,1.2,4.7,15,4.4,17c-0.4,2-2.8,23.3-2.8,23.3
			l9.1,20.2c0,0,15.4,12.3,15.8,14.2c0.4,2,7.6,17.8,6.6,19.8c-1,2-2.6,13.8-2.6,13.8l16.2,10.9h4.7l4.7,3.8h-5.1h-6.7l3.6,2.8
			c0,0,15.8,5.1,9.9,4.4s-30.9-4.4-30.9-4.4l-2,4.4l3.5,5.5l-15-1.5l-12.7,1.5l-2.8,0.3l-1.2-5.9v-4.4l3.2-8.7l-6.3-13.5l-2-11.5
			l-2.4-4.7l-2.4-7.1l-3.1-8.3l-2-5.1l-5.5-8.3V245l-4.7-38l-5.9-15.8L107.3,183.7z"/>
		<path class="st5" d="M62.9,227.2l3.2-20.2c0,0,6.2-7.9,6.3-9.9c0.1-2,6.4-24.9,6.4-24.9L70.9,154l-12.7-12.7l-12.7,7.9l-5.1-4
			l-5.2,4l2.9,25.7l2.3,15.8l3.1,10.4l5,13.2l5.2,12.8H62.9z"/>
		<path class="st4" d="M407.1,378l6.4-4c0,0,3.6,3.6,5.1,4c1.6,0.4,6.3-2.8,7.9-2c1.6,0.8,5.9,0,5.9,0l5.5-4l-3.2-5.9l-12.3-6.3
			l10.7,1.6l4.7,7.5l3.6,9.1l-5.1,1.9l-6.7,3.8l-7.6,1.2l-7.8-1.8L407.1,378z"/>
		<polygon class="st4" points="448.3,370.4 448.3,366.5 451,363.3 455.7,368.4 452,374 447.5,379.8 441.5,379.8 441.5,378 
			441.5,374 448.6,374 		"/>
		<polygon class="st4" points="364.4,410.8 375.1,415.5 383.4,417.1 385.8,423.6 364.4,412.7 		"/>
		<polygon class="st4" points="361.6,400.1 368,402.8 373.3,403.5 377.6,407.7 		"/>
		<polygon class="st4" points="381.3,433.4 375.1,428.3 369.6,428.3 358.7,421.4 367.6,430.7 372.8,433.4 375.5,435.7 		"/>
		<polygon class="st4" points="358.7,434.9 351.2,423.6 344.9,421.4 351.8,430.7 351.8,433.7 		"/>
		<path class="st3" d="M31,42.7h-1.6h-5.8l-4.7,4.7l1.6,4.2c0,0,4.5,2.1,4.5,2.9c0,0.8,4.7,5,5,6.1c0.3,1.1,2.1,12.1,2.1,12.1
			l-4.2,6.3h-4.7l-5.8,2.6l-6.1-1.6L6.3,76l-3.5-2.7l-2.4-4.2l-0.5-5l0.7-3.6l1.5-4.1l2.7-4.9l5.8-6.9l3.6-3l7.6-3.5l3.6,0.2
			l4.6-0.2l5-3.2l-1.3,3.9l-0.3,2.9L31,42.7z"/>
		<polygon class="st9" points="31,46.7 32.1,55.1 35.2,66.7 33.1,69.4 31.5,69.4 30,60.6 25,54.6 20.5,51.7 18.9,47.5 23.6,42.7 
			31,42.7 33.7,41.7 		"/>
		<path class="st3" d="M103.1,12.9V8.2l0.7-1.1h1.6h1.9h2.3l2.9,2.9l1.8,1.6c0,0,2.1,2.9,3.4,4s1.6,2.6,1.6,2.6v2.5L103.1,12.9z"/>
		<path class="st10" d="M91.7,85.7l5-7.1l2.9-4.5c0,0,1.6-2.6,1.8-4.7c0.3-2.1,1.3-4.7,1.7-5.8c0.4-1.1,0.4-3.4,0.7-5.2
			c0.3-1.9,0-7.4,0-7.4l2.4-4.7l5.1-2.6l6-1.8c0,0,4.2,1.3,5,1.6c0.8,0.3,6.3,5,6.3,5l2.4,2.9l1.8,1.8c0,0,1.8,0.3,2.6,1.1
			c0.8,0.8,2.1,0.8,2.9,1.5c0.8,0.7,3.7,2.8,3.7,2.8l1.8,5.2l-2.9,0.1l-5-4.6l-4.5-1.8l-4.2-3.7l-1.6-2.9l-3.2-2.9l-3.2-3.4
			l-2.9-0.8l-4.1,1.8l-3.8,1.8l-1.3,1.8l-1.4,2.6l-0.5,3.8V62l-0.5,5.8l-1.1,4.7c0,0-3.1,5-3.1,6.1c0,1.1-2.1,5.3-2.1,5.3l-2.1,4.5
			l-7.4,2.9L91.7,85.7z"/>
		<polygon class="st11" points="90.6,31.1 93.3,34.9 96.4,34.9 101.5,34.9 105.9,39 111.3,34.9 112.4,31.1 112.4,27.7 103.8,25.8 
			96.2,26.9 		"/>
		<path class="st12" d="M72.2,26.9L68,25.8l-3.8-1.1h-3.3v-2.1c0,0,3.4-1.6,3.3-1.4c-0.1,0.1,3,3.7,3.8,2.8s4.2,0,4.2,0V26.9z"/>
		<path class="st12" d="M70.3,19.5c0,0-2.1-1.3-3.8-1.3c-1.7,0-6.7,1.3-6.7,1.3L57,24.1v2.8l-1.2,3.2l-1.1,1.3l-1.1,3.5L51.9,39
			l-2.4,4.2l-1.8,6.3L46.6,44c0,0,1.1-3.2,1.6-5s2.9-6.6,2.9-6.6l1.8-3.4l0.5-4.9l1.6-3.4l5.8-5.1c0,0,3.2-0.3,4.5,0
			C66.6,15.8,70.3,19.5,70.3,19.5z"/>
		<path class="st12" d="M74.8,16.6l1.8-5h3.2h5.5h3.7c0,0,3.2,3.2,4.2,2.3s6.9,0,6.9,0L97,16.6c0,0-0.5,0.4-2.1-1.2s-4.2,0-4.2,0
			l-1.6-1.3H83l-4.2,1.3l-2.1,1.2v4L74.8,16.6z"/>
		<polygon class="st12" points="81.4,18.7 83,16.1 87.5,16.1 87.5,18.7 84.4,18.7 83,20.6 78.8,22.7 		"/>
		<path id="path1481-7" class="st13" d="M79.8,115.7c1.1-1.4,1.7-0.6,2,0.2c-1.1,3.3-0.4,6.6-0.2,8.1c0.1,0.4,0.5,0.6,0.5,0.6
			s-1,0.6-2.1-0.2C79.7,123.2,78.8,119.8,79.8,115.7L79.8,115.7z"/>
		<path class="st14" d="M67.7,91.2l-3.6,1.3l-3.3-1.3h-5L54,88.9l-4.5-9l-2.9-4.2l-4.7-5.3l-3.4-1.1l-1.8-2.9l-1.8-1.2l-6.7,4.1
			l2.1,6.2l4.9-2.2l4.3,2.9c0,0,7.6,5,7.1,5.5c-0.5,0.5,2.9,6.3,2.9,6.3v3.2l4,1.3l5,1.3l4.5,1.1h6.3l7.4-2.6l-3.4-2.9L67.7,91.2z"
			/>
		<path class="st15" d="M35.2,113.9h7.4l2.9,2.4l6.9,1.3h8.4c0,0,6.1-1.6,6.9-1.8c0.8-0.3,12.7,0,12.7,0s18.2-5,19.8-5.8
			c1.6-0.8,19-6.3,22.4-7.6s15.3-7.4,15.3-7.4l16.6-16.6l-1.6-4.9l4.5,1.9l2.9,1.2l-1.3,7.1l-10.8,9.8l-12.7,9c0,0-8.2,5-10.8,6.1
			c-2.6,1.1-18.2,6.6-19.1,6.9c-0.9,0.3-28.9,8.7-28.9,8.7s-13.7,1.8-14.8,1.8c-1.1,0-17.4-1.3-17.4-1.3l-4.2-2.1l-6.5-2.6l-0.2-5.5
			L35.2,113.9z"/>
		<polygon class="st10" points="64.1,40.3 60.8,47.7 60.8,54.2 60.8,59.1 62.5,59.9 62.5,54.2 62.5,48 66.5,40.3 66.5,37.4 63.7,39 
					"/>
		<g id="g1479_1_" transform="matrix(-1.0522304,-0.2770188,-0.15155223,1.9233478,207.33929,-99.876873)" class="st16">
			<text transform="matrix(-0.4699 -6.552531e-02 0.1384 0.5265 124.1613 145.9263)" class="st17 st18 st19">P</text>
			<text transform="matrix(-0.4699 -6.552531e-02 0.1384 0.5265 124.1613 145.9263)" class="st20 st18 st19">P</text>
			<text transform="matrix(-0.4699 -6.552531e-02 0.1384 0.5265 116.0406 144.8939)" class="st17 st18 st21">u</text>
			<text transform="matrix(-0.4699 -6.552531e-02 0.1384 0.5265 116.0406 144.8939)" class="st22 st18 st21">u</text>
			<text transform="matrix(-0.4699 -6.552531e-02 0.1384 0.5265 111.9446 144.4822)" class="st17 st18 st21">g</text>
			<text transform="matrix(-0.4699 -6.552531e-02 0.1384 0.5265 111.9446 144.4822)" class="st22 st18 st21">g</text>
			<text transform="matrix(-0.4699 -6.552531e-02 0.1384 0.5265 107.5224 143.3866)" class="st17 st18 st19">B</text>
			<text transform="matrix(-0.4699 -6.552531e-02 0.1384 0.5265 107.5224 143.3866)" class="st22 st18 st19">B</text>
			<text transform="matrix(-0.4699 -6.552531e-02 0.1384 0.5265 101.2447 142.8306)" class="st17 st18 st21">o</text>
			<text transform="matrix(-0.4699 -6.552531e-02 0.1384 0.5265 101.2447 142.8306)" class="st22 st18 st21">o</text>
			<text transform="matrix(-0.4699 -6.552531e-02 0.1384 0.5265 96.4637 142.0034)" class="st17 st18 st21">s</text>
			<text transform="matrix(-0.4699 -6.552531e-02 0.1384 0.5265 96.4637 142.0034)" class="st22 st18 st21">s</text>
			<text transform="matrix(-0.4699 -6.552531e-02 0.1384 0.5265 92.8253 141.1755)" class="st17 st18 st21">s</text>
			<text transform="matrix(-0.4699 -6.552531e-02 0.1384 0.5265 92.8253 141.1755)" class="st22 st18 st21">s</text>
		</g>
		<g id="g1479" transform="matrix(-1.0522304,-0.2770188,-0.15155223,1.9233478,207.33929,-99.876873)">
			<text transform="matrix(-0.4699 -6.552531e-02 0.1384 0.5265 123.3221 145.4626)" class="st23 st18 st19">P</text>
			<text transform="matrix(-0.4699 -6.552531e-02 0.1384 0.5265 123.3221 145.4626)" class="st24 st18 st19">P</text>
			<text transform="matrix(-0.4699 -6.552531e-02 0.1384 0.5265 115.2013 144.4302)" class="st23 st18 st21">u</text>
			<text transform="matrix(-0.4699 -6.552531e-02 0.1384 0.5265 115.2013 144.4302)" class="st25 st18 st21">u</text>
			<text transform="matrix(-0.4699 -6.552531e-02 0.1384 0.5265 111.1053 144.0185)" class="st23 st18 st21">g</text>
			<text transform="matrix(-0.4699 -6.552531e-02 0.1384 0.5265 111.1053 144.0185)" class="st25 st18 st21">g</text>
			<text transform="matrix(-0.4699 -6.552531e-02 0.1384 0.5265 106.6832 142.9228)" class="st23 st18 st19">B</text>
			<text transform="matrix(-0.4699 -6.552531e-02 0.1384 0.5265 106.6832 142.9228)" class="st25 st18 st19">B</text>
			<text transform="matrix(-0.4699 -6.552531e-02 0.1384 0.5265 100.4055 142.3669)" class="st23 st18 st21">o</text>
			<text transform="matrix(-0.4699 -6.552531e-02 0.1384 0.5265 100.4055 142.3669)" class="st25 st18 st21">o</text>
			<text transform="matrix(-0.4699 -6.552531e-02 0.1384 0.5265 95.6244 141.5396)" class="st23 st18 st21">s</text>
			<text transform="matrix(-0.4699 -6.552531e-02 0.1384 0.5265 95.6244 141.5396)" class="st25 st18 st21">s</text>
			<text transform="matrix(-0.4699 -6.552531e-02 0.1384 0.5265 91.9861 140.7118)" class="st23 st18 st21">s</text>
			<text transform="matrix(-0.4699 -6.552531e-02 0.1384 0.5265 91.9861 140.7118)" class="st25 st18 st21">s</text>
		</g>
		<path id="path1481" class="st13" d="M82.5,115.8c-1.1-1.3-2-0.8-2.4,0c1.1,3.3,0.8,6.7,0.6,8.3c-0.1,0.4-0.5,0.6-0.5,0.6
			s1,0.6,2.1-0.2C82.5,123.3,83.4,119.8,82.5,115.8L82.5,115.8z"/>
		<path id="path1950" class="st26" d="M80.4,125.8c-0.3,0.2-1.3-0.1-1.7,0.4c-0.6,1.3-0.3,5.4-0.3,5.4s-0.2-3.7,0.7-5.2
			C79.4,126.1,80.3,126.4,80.4,125.8L80.4,125.8z"/>
		<path id="path1950-8" class="st26" d="M64,126.1c-0.9,0.5-2.3-0.4-2.6-0.1c-0.6,1.3-0.5,5.4-0.5,5.4s0-3.7,0.8-5.1
			C62,126,63.3,127.1,64,126.1L64,126.1z"/>
		<path id="path910" class="st6" d="M125.3,39.8c-0.2-1.5-2.1-4-3.8-5.2c-1.9-1.4-4.3-2.5-5.1-2.1c-0.7,0.2-2.2,1.7-2.7,2.9
			c-0.5,1.4-0.3,3.4,0.4,3.8c1.4,0.7,4.6,1.4,7.8,1.7l3.4,0.2L125.3,39.8z"/>
		<path id="path912" class="st6" d="M103.1,48c0.5-1.3,1.2-3.1,1.5-4c0.5-1.9,0.5-1.9-0.3-2.8c-1.1-1.1-3.1-1.6-4.9-1.5
			c-1.4,0.1-1.5,0-2.3,1.5s-1.9,6.2-1.5,6.7c0.2,0.1,0.1,0.3,0,0.5c-0.8,1.5,0.7,7.3,2.1,8.6l0.7,0.7l1.9-3.6
			C101.3,51.9,102.4,49.3,103.1,48L103.1,48z"/>
		<path id="path1180" class="st6" d="M118.4,54.8c0.4-0.8,0.9-2.6,0.8-3.9c-0.1-1.3-0.5-2.4-1.1-2.8c-0.6-0.4-2.3-0.6-3.5-0.5
			c-1.4,0.2-2.8,0.8-3.5,1.8c-0.7,1-1.2,2.4-1.3,3.4c0,0.8,0,0.8,0.5,1.2c2.1,1.5,5.4,2.3,7.1,1.6C117.9,55.5,118.1,55.4,118.4,54.8
			L118.4,54.8z"/>
		<path id="path1182" class="st27" d="M137.9,96c1.4-1.2,3.7-3.6,4.7-5.5c1.7-3,2.9-6,2.5-8.3c-0.2-1.8-0.8-2.7-4.3-8.4
			c-3.8-6.1-3.8-6.1-3.6-9.4c-0.1-1.2,0-2.6-0.2-2.8c-0.3-0.8-3-2.7-4.9-3.8l-0.9-0.4l0.1,0.9c-0.3-0.3-1.4-1.3-3.2-1.4
			c-1.8-0.1-3.1,0.8-3.4,1.1c-1.7,0.5-3.5,1.1-5.5,2.1c-4.7,2.3-7.8,5.4-9.8,7.6c-0.6,1.5-1.2,3-1.8,4.5c-0.3,0.4-0.5,0.9-0.8,1.3
			c-0.8,2.6-1.8,5.3-2.2,5.2c-0.1,0-0.1-0.1-0.1-0.1c-0.4,0.1-0.3,3.5,0.5,6.6l0.5,1.9l0.9,0.7c1.2,1.2,3.6,3,6.9,5.1
			c3.4,2.4,4.5,3.4,6.4,5.8c1.8,2.1,2.1,2.6,4,3.3c1.4,0.4,2.8,0.6,4.3,0.3C128.4,101.9,136.1,97.4,137.9,96z"/>
		<polygon class="st14" points="114.4,323.7 119.5,320.2 119.5,312.6 119.5,305.5 122.7,320.2 119.1,323.7 118.5,326.1 		"/>
		<path class="st14" d="M135.2,328.1l4.9-10.3l-4.9-8.5l-3-3.7c0,0,1.6,11,3.9,10.3c2.4-0.8,0,7.2,0,7.2l-2,9.3l4-1.1L135.2,328.1z"
			/>
		<polygon class="st14" points="304.2,230.4 305.9,229.6 310.7,227.2 310.7,217.3 306.4,211.3 313.8,216.5 313.8,224 314.2,229.6 
			310.7,230.4 		"/>
		<polygon class="st14" points="318.9,214.9 320.9,222.3 320.9,226.6 325.2,222.3 323.3,214.9 318.9,211.3 		"/>
		<path class="st14" d="M283.7,248.6l5.1,24.5l5.1,28.5l-14.2,30.7c0,0,24.8-26.4,24.5-28.8s-1.9-18.2-2.7-19.8
			c-0.8-1.6-11.5-33.2-11.5-33.2l6.7-5.5l-9.5-0.4l-5.3-0.5l-2.2-0.7L283.7,248.6z"/>
	</g>
</g>
</svg>
