<?xml version="1.0" encoding="utf-8"?>
<!-- Generator: Adobe Illustrator 23.0.0, SVG Export Plug-In . SVG Version: 6.00 Build 0)  -->
<svg version="1.1" id="Camada_1" xmlns="http://www.w3.org/2000/svg" xmlns:xlink="http://www.w3.org/1999/xlink" x="0px" y="0px"
	 viewBox="0 0 167.7 170.2" style="enable-background:new 0 0 167.7 170.2;" xml:space="preserve">
<style type="text/css">
	.st0{opacity:0.885;fill:#DAD8D6;enable-background:new    ;}
	.st1{fill-rule:evenodd;clip-rule:evenodd;fill:#ECEBE9;}
	.st2{fill:#F0EFEF;}
	.st3{fill:#ECEBE9;}
	.st4{opacity:0.885;fill:#606060;enable-background:new    ;}
	.st5{opacity:0.885;fill:#C6C6C5;enable-background:new    ;}
	.st6{fill:#FFFFFF;}
	.st7{fill:#4F2D12;stroke:#070308;stroke-width:0.2317;}
	.st8{fill:#C85964;}
	.st9{fill:#FAF9F8;}
	.st10{opacity:0.885;fill:#FAFAEA;enable-background:new    ;}
	.st11{opacity:0.885;fill:#655631;enable-background:new    ;}
	.st12{opacity:0.885;fill:#070308;enable-background:new    ;}
	.st13{opacity:0.885;fill:#2A130E;enable-background:new    ;}
	.st14{enable-background:new    ;}
	.st15{fill:#4F2D12;}
	.st16{fill:none;stroke:#070308;stroke-width:0.1793;}
	.st17{fill:none;stroke:#070308;stroke-width:0.2646;}
	.st18{fill:#D0CDE5;fill-opacity:0;}
	.st19{fill:#7D6B6B;}
	.st20{fill:#070308;}
	.st21{opacity:0.885;fill:#505137;enable-background:new    ;}
	.st22{opacity:0.885;fill:#050007;enable-background:new    ;}
</style>
<g>
	<path id="path1170_2_" class="st0" d="M162.2,44.8c-1.7,1.1-1.6-8.5-9.6-11.4c-3.1-6-20.3-21.5-20.3-21.5s30.4-10.6,35.7,8.3
		C168.9,31.6,163.3,45.5,162.2,44.8L162.2,44.8z"/>
	<path id="path1742_2_" class="st0" d="M134.1,12.6c24.9-4.5,28.3,1,31.2,6.5c2,3.9,0.8,8,0.3,10.4c-0.4,2.4-0.8,5.2-2.2,4.5
		s0-12.8-7.1-14.1c-5.2-1-15.6-1.3-15.6-1.3L134.1,12.6z"/>
	<path id="path4698_2_" class="st1" d="M71.7,46.1c-1.5,5.2,9.6,17.1,13.5,21.6c6.9,7.8,10.6,9.8,23.8,17c9,4.9,24.2,5.4,34.2,0.1
		c8.3-4.4,15.1-14.2,13.7-23.9c-0.5-3.4-3.9-5.9-4.9-8.3c-1-2.4-0.2-7.8-0.3-8.5s3-3.1,4.8-9.7c1.8-6.7-6.2-15.1-12.6-16.2
		c-0.8-0.1-1.7-0.4-2.6-0.4c0.7-0.1,3.8,0.6,5.5,1.3c1.7-3.2-21.2-16.4-35.9-18.5C100.6,0.7,97.6,4.2,87.1,11
		c-5.4,3.4-12.6,18.8-14,29.7C72.8,43,73.1,40.8,71.7,46.1L71.7,46.1z"/>
	<path id="path5509-1_2_" class="st2" d="M87.1,10.8c5.4-1.5,9.6-6.8,14.2-8.5c-1,1.3-9.4,7.4-10.3,10.8L87.1,10.8z"/>
	<path id="path4994_2_" class="st3" d="M139.3,121.3c0,0,1.1,1.7,1.5,2.6c0.5,1.3,0.8,2.7,1,4c0.2,1.6,0.3,3.2,0.3,4.8c0,1,0,2,0,3
		c-0.1,1.2-0.1,2.3-0.3,3.5c-0.3,1.8-0.7,3.5-1.2,5.2c-0.3,1-0.7,2-1.1,3.1c-0.3,0.8-0.6,1.7-0.9,2.5c-0.4,1-0.8,2-1.2,3.1
		c-0.5,1.2-1.1,2.4-1.7,3.7c-0.2,0.7-0.4,1.3-0.7,2c-0.2,0.6-0.4,1.1-0.6,1.8c-0.1,0.5-0.3,1-0.2,1.5c0,0.2,0.2,0.4,0.3,0.5
		c0.6,0.7,1.3,1.2,2.1,1.8c0.5,0.4,1.2,0.6,1.7,1.1c0.3,0.3,0.4,0.8,0.4,1.2c0.1,0.5-0.1,1.1-0.2,1.6s-0.5,1.5-0.5,1.5
		s-0.5,0.2-0.7,0.2c-0.7,0.2-1.3,0.3-2,0.4c-1.3,0.2-2.7,0.2-4,0.2s-2.7,0-3.9-0.2c-1.1-0.2-2.1-0.5-3.2-0.9c-0.8-0.3-2.2-1-2.2-1
		s-0.6-2.2-0.6-3.3c0-1,0.2-1.9,0.3-2.9c0.1-0.9,0.4-1.9,0.3-2.8c-0.1-1.1-0.5-2.1-0.8-3.2c-0.4-1.3-1.1-2.4-1.7-3.7
		c-0.5-1.3-1-2.5-1.3-3.9c-0.4-1.5-0.8-4.6-0.8-4.6l0.2-1.9l6-4.4L139.3,121.3z"/>
	<path id="path4996_2_" class="st4" d="M65.7,160c0,0.3,0.8,0.6,1,1.1c0.3,0.6,0.4,1.3,0.4,2c0,0.8-0.3,2.3-0.3,2.3
		c-7.3-0.9-9.4-0.4-15.9-2.8l-0.3-2.2L65.7,160z"/>
	<path id="path5608-7_2_" class="st2" d="M81.7,22.3c0,0-6.8,27,3.5,41.7S71,47.8,71,47.8l4.5-10.3l4.3-13.8l1.3-1.5L81.7,22.3z"/>
	<path id="path5608_2_" class="st0" d="M80.3,23.9c0,0-6.8,27,3.5,41.7S69.6,49.4,69.6,49.4l4.5-10.3l4.3-13.8l1.3-1.5L80.3,23.9
		L80.3,23.9z"/>
	<path id="path5708_2_" class="st5" d="M138.5,121.1c0.3-0.3,4.4,1.9,3.5,14.5c-23.7,4.8-19.3,20.5-20,23.6
		c-0.3-1.3-0.3-2.4-1.9-5.4c0,0-3.6-7.8-2.2-11.5C119.3,138.6,138.5,121.1,138.5,121.1z"/>
	<path id="rect4708_2_" class="st3" d="M143.8,86.3C101.2,99,73.5,57.2,70.5,47c0,0-3.2,12.2-14.9,25.7c0,0-6.9,8.8-18.9,23.4
		c-5.4,6.8-10.8,11.3-16.4,18.7c-5.1,6.6-14.5,16.5-19.8,28c-0.7,4.5,1,9.7,4.2,13c3.1,3.2,8.3,3.9,12.7,4.4
		c26.1,3.4,45,7.8,78.7-6.1c8.3-3.2,16.7-6.8,24.1-11.8c5.4-3.6,10.5-7.8,14.5-12.8c2.9-3.6,5.4-7.8,6.8-12.3
		c1.2-3.6,1.3-11.3,1.3-11.3c0.3-1.2,0-6.6-0.4-9.8C141.8,91.8,144.7,84.5,143.8,86.3L143.8,86.3z"/>
	<path id="path5000_2_" class="st5" d="M8.5,129.8c-0.4,0.5-1.1,1.6-1.1,1.6s-1.2-0.6-1.7-1c-0.6-0.5-1-1.1-1.4-1.8
		c-0.3-0.7-0.5-1.4-0.6-2.1c-0.1-1-0.1-2,0-3c0.2-0.9,0.5-1.8,0.9-2.5c0.8-1.3,1.7-2.5,2.9-3.4c1.2-1,2.8-1.6,4.3-2
		c1.3-0.3,2.8-0.3,4.2-0.1c1.3,0.2,2.6,0.7,3.8,1.4c1,0.6,1.8,1.5,2.4,2.4c0.4,0.6,0.8,1.3,1,2.1c0.3,1.4,0.2,3-0.2,4.4
		c-0.4,1.1-1.1,2.2-2,2.9c-0.6,0.4-1.4,0.5-2.2,0.5c-0.7,0-1.5-0.3-2.1-0.7c-0.4-0.3-0.9-1.1-0.9-1.1s1.7-0.3,2.2-1s0.6-1.6,0.5-2.4
		c-0.1-0.5-0.3-1-0.6-1.4c-0.6-0.8-1.4-1.4-2.3-1.7c-0.8-0.3-1.7-0.4-2.5-0.2c-0.7,0.2-1.3,0.6-1.8,1.1c-0.4,0.4-0.8,0.9-0.9,1.5
		c-0.1,0.6-0.1,1.2,0.2,1.7c0.3,0.4,1.3,0.6,1.3,0.6L8.5,129.8z"/>
	<path id="path4584_2_" class="st0" d="M143.7,87.4c-2.3,7.1-0.8,9-0.8,12.4c3.8,33.9-25.7,44.9-52.2,57.2
		c-1.1,0.4-21.8,6.3-32.2,6.5c-10.4-0.9-15.9-2.5-15.3-2.4c0,0,1.4-0.4,1.7-0.4l-6.8-12.6c0,0,16.6,1.3,24.5-0.7
		c23.3-5.9,38.2-10.2,48.9-24.7c6.2-8.4,7-28.3,5.1-33.5C125.6,87.7,143.9,85.8,143.7,87.4L143.7,87.4z"/>
	<path id="path4980_2_" class="st3" d="M96.4,102.2c0.2,0,3.8,4,4.9,6.6c0.9,2.3,1.8,4.9,2.3,7.4c0.3,1.8,0.4,3.6,0.4,5.4
		c0,2.2-0.2,4.3-0.6,6.5c-0.3,1.9-0.6,3.8-1.1,5.6c-0.6,2-1.4,4-2.2,5.9c-0.9,2.2-1.8,4.3-2.8,6.4c-0.8,1.7-2.5,5.1-2.5,5.1
		c-1.5,3.2-2.5,5.4-2.5,9c0,0,0.1,1.4,0.6,1.9c0.4,0.4,1.2,0.3,1.8,0.4c0.7,0.2,1.4,0.4,1.9,0.9c0.6,0.5,1,1.3,1.1,2
		c0.2,1,0,2.1-0.3,3c-0.3,0.7-0.7,1.4-1.4,1.8c-2.1,0.6-4.3,0.6-6.5,0.6s-3.9-0.2-6.7-0.7c-0.9-0.4-1.7-0.5-2.4-1.5
		c-0.2-0.8-0.3-1.5-0.3-2.3c0-1-0.2-2.1-0.3-3.2c-0.1-1.4-0.3-2.8-0.4-4.2c-0.3-2.1-0.6-4.2-1.1-6.3s-1.3-4.1-2-6.1
		c-0.7-1.8-1.6-3.5-2.3-5.3c-0.6-1.4-1.2-2.7-1.8-4.1c-0.7-1.7-1.3-3.4-1.9-5.2c-0.6-2.1-1-4.3-1.5-6.5c-0.3-1.4-0.7-2.9-0.7-4.3
		s0.1-2.8,0.6-4.1c0.2-0.5,0.9-1.4,0.9-1.4l-0.1,0.2"/>
	<path id="path4998_2_" class="st6" d="M26.7,138l4.7-0.9c0,0,3.6-0.2,5.2,0.3c4.3,1.3,6.5,2.5,10.8,6.7c1.4,1.6,2.6,3.1,3.9,4.9
		c0,0,1,1.8,1.4,2.7s0.8,1.8,1,2.7c0.1,0.9,0.1,1.9-0.1,2.8c-0.2,0.8-1.3,1.5-1.1,2.3c0.1,0.3,0.2,0.4,0.8,0.8
		c0.6,0.3,1.9,0.6,2.8,1c0.9,0.4,1.7,0.9,2.2,1.6c0.3,0.4,0.4,0.9,0.4,1.4c0,0.6-0.3,1.2-0.3,1.8s0.2,1.2,0.3,1.9
		c-1.2-0.2-4-0.4-4-0.4l-5.4-0.4l-6.3-0.4l-5.7-0.6l-10.6-1L21,165l-5.4-0.3c0,0-2.9-0.3-3.6-0.7c-0.3-0.7-0.8-1.3-1-2
		c-0.2-0.8,0.1-2.4,0.1-2.4s-1-0.6-1.5-0.9c-1.3-0.7-3.9-1.9-3.9-1.9"/>
	<path id="path1481-7_2_" class="st7" d="M126.9,86.4c1.1-0.7,1.7-0.3,2,0.1c-1.1,1.7-0.4,3.4-0.2,4.2c0.1,0.2,0.5,0.3,0.5,0.3
		s-1,0.3-2.1-0.1C126.8,90.4,125.9,88.5,126.9,86.4L126.9,86.4z"/>
	<path id="path4976_2_" class="st8" d="M143.1,83.7c-1.9,0.4-3.5,0.8-5.2,1.2c-2.5,0.5-5,1-7.6,1.2c-1.8,0.2-3.6,0.3-5.3,0.2
		c-2.5-0.1-5.1-0.4-7.5-1.1c-3.7-1-7.3-2.4-10.8-4.1c-3-1.5-5.9-3.4-8.6-5.3c-2.6-1.8-5-3.7-7.3-5.8c-1.7-1.4-3.2-3-4.7-4.6
		c-1.6-1.7-3-3.3-4.5-5.1c-1.3-1.6-2.7-3.2-3.9-4.9c-1.7-2.2-3.7-4.3-4.9-6.9c-0.4-0.8-0.7-1.7-0.7-2.5c0-0.5,0.1-1.1,0.2-1.6
		c0-0.4,0.1-1.1,0.1-1.1s-0.8,0.7-1.1,1.2c-0.2,0.4-0.3,0.9-0.5,1.4c-0.2,0.6-0.4,1.1-0.7,1.7c-0.2,0.6-0.5,1.1-0.7,1.7
		C69.2,49.9,69,51,69,51s0.7,0.9,1,1.4c0.9,1.4,1.8,2.8,2.7,4.1c1.2,1.6,2.4,3.2,3.7,4.7c1.6,1.9,3.3,3.7,5,5.5
		c1.7,1.8,3.4,3.6,5.2,5.2c2.4,2.2,4.8,4.2,7.4,6.2c2.1,1.6,4.4,3.1,6.6,4.5c2.5,1.5,4.9,3,7.6,4.1c2.4,1,4.8,1.8,7.3,2.3
		c3,0.7,6.2,0.9,9.3,1c2,0.1,4.1,0,6.1-0.2c3.1-0.3,6.3-0.9,9.4-1.5c1.1-0.2,3.4-0.8,3.4-0.8c-0.3,0.1,0.8-0.8,0.9-1.5
		c0.1-0.7,0.8-1,1.2-2c0.2-0.6,0.2-1.1,0.2-1.1C144.8,83.2,144.5,83.5,143.1,83.7z"/>
	<path id="path5509_2_" class="st0" d="M87.2,10.5c3-1.9,11-7,12.7-7.7c-1,1.3-10.5,6.9-9.6,10.2L87.2,10.5z"/>
	<path id="path1153_2_" class="st0" d="M84.7,20.8c-0.1,1.1-6.9-0.2-8.9,18.9c-0.1,1.3-1.7,3.9-1.7,3.9s-7.1-6.2-9.6-9.7
		c-2-2.9-3.4-5.8-4.9-9.1c-2.6-5.9,2.2-8.9,5.7-11.2C81,3.2,91,13.5,91,13.5"/>
	<path id="path1153-6_2_" class="st5" d="M89.5,15c-12.8-9.2-24.3-0.2-30.3,4.3c0.9-2.8,3.8-4.6,6.1-6.1C81,2.8,91,13.1,91,13.1"/>
	<path id="rect4692_2_" class="st0" d="M142.6,35.2c-1.3-0.1-4.2-1.1-5.4-0.8c-0.7,1.5-0.4,3.2-1.1,5.4c-3.2,5.7-2.7,9.7-2.6,13.5
		c0.1,3.2,3.6,1.8,4,4.5c0.2,1.4,6,0.4,9.5-1.8c1.1-0.7,2.7-2.8,3.4-5.2c0.7-2.3,0.3-5.2-0.2-7.3C149.4,39.9,146.4,35.6,142.6,35.2
		L142.6,35.2z"/>
	<path id="rect4692-4_2_" class="st9" d="M104.3,32.1c-3.2,0.7-6.4,2.5-8.9,4.5c-3.4,2.7-5.5,4.3-7.8,8.2c-2.9,4.8,4.4,7.4,6.9,9
		c3.8,2.3,10.4,4.1,15.7,4c0,0,7.1,0.6,12.9-4c2.2-1.7-5-10.2-6.6-11.9c-1.1-1.2-3.6-5.5-7.4-7.8c1.2-0.8,1.6-1,4.1-1.3
		C111.4,31.2,104.9,32,104.3,32.1L104.3,32.1z"/>
	<path id="rect4692-4-0_2_" class="st10" d="M105,35.3c-2.6-0.3-5,1.7-7,3.2c-2.6,2.1-4.2,3.3-6,6.3c-2.2,3.6,3.4,5.7,5.3,6.9
		c2.9,1.8,8,3.1,12,3.1c0,0,5.4,0.4,9.9-3.1c1.7-1.3-3.8-7.8-5.1-9.2C113.1,41.4,108.9,35.7,105,35.3L105,35.3z"/>
	<path id="rect4692-4-0-9_2_" class="st11" d="M108.4,54.7c0,0,6.4,0.4,10.9-3.1c1.7-1.3-3.8-7.8-5.1-9.2
		C108.1,43.2,102.9,50.7,108.4,54.7L108.4,54.7z"/>
	<ellipse id="path5589-4_2_" class="st6" cx="107.7" cy="50.3" rx="1" ry="1"/>
	<path id="rect4692-4-0-9-0_2_" class="st12" d="M110.9,54.7c1.1-0.1,5.2-0.3,8.3-2.9c1.8-1.5-3.2-7.3-4.5-8.7
		c-3.8,0.5-7.1,4.1-7.6,6.5c1.9-0.5,1.2,2.2,0,1.1c0.1,0.9,0.8,2.9,2.4,4C109.4,54.8,110.4,54.8,110.9,54.7L110.9,54.7z"/>
	<path id="rect4692-4-0-8_2_" class="st2" d="M105,35.3c-2.1-0.3-3.9,0.8-5.9,2.3c-2.6,2.1-4.3,3.2-6.3,6c9.4,5.8,16.9,5.9,25.9,4.6
		c-1.5-2.5-3.8-5-4.4-5.7C113.6,41.5,108.9,35.8,105,35.3L105,35.3z"/>
	<path id="rect4692-9_2_" class="st10" d="M142.6,38c-2.2-0.2-4.2,1.8-5.3,3.8c-2.6,4.6-2.2,8-2.1,11.1c0.1,2.6-0.3,2.6,0.6,3.3
		c2.8,2.1,9.1,0.4,10.5-1.1c0.7-0.8,2.2-2.3,2.8-4.2s0.2-4.3-0.2-6C148.1,41.8,145.7,38.3,142.6,38z"/>
	<path id="rect4692-9-5_2_" class="st11" d="M143.7,56.8c1.1-0.8,2.2-1.7,2.8-2.3c0.7-0.8,2.5-1.8,3.1-3.8c0.6-1.9,0.2-4.3-0.2-6
		C138.7,45.4,139.3,55.7,143.7,56.8z"/>
	<ellipse id="path5589_2_" class="st6" cx="142.9" cy="53.8" rx="1" ry="1"/>
	<path id="rect4692-9-5-9_2_" class="st12" d="M144.2,56.5c0.9-0.6,1.1-0.7,1.9-1.3s2.8-2.3,3.4-4.2c0.4-1.5,0.4-3.6,0.1-5.2
		c-5.9-0.4-8.1,4.1-7.5,7.4c0.9-0.5,2.2,0.8,0.4,1.4C143.1,55.7,143.3,55.9,144.2,56.5z"/>
	<path id="rect4692-9-7_2_" class="st2" d="M142.8,37.9c-2.3-0.2-4.4,1.8-5.6,3.8c-1.3,2.2-2,5.4-2.2,7.2c5.5,1.4,8.1,1.9,14.9,0.5
		c0.2-1.6-0.1-3.3-0.4-4.6C148.6,41.8,146.1,38.3,142.8,37.9z"/>
	<polygon id="path4951_2_" class="st12" points="133,66.3 133,66.3 133,66.3 	"/>
	<path id="path904_2_" class="st13" d="M133,70.4c1-1.1,1.5-2.4,1.2-3.1c-0.4-1-2-1.9-3.1-1.7c-0.8,0.1-1.8,0.9-2.1,1.6
		c-0.3,0.6-0.3,0.6,0.1,1.3c0.7,1.4,2,2.6,3,2.6C132.3,71,132.6,70.8,133,70.4L133,70.4z"/>
	<path id="path5563-2_2_" class="st0" d="M131.9,40.7c0,0,1.2,0.6,1.1,0.1c-0.1-1.4-2.3-3.8,1.3-7.5c1.2-1.3-1.1-0.1-0.7-0.6
		C131.8,33.8,131.1,38.5,131.9,40.7z"/>
	<path id="path5563-2-3_2_" class="st0" d="M123.4,38.9c0,0-1.2,0.6-1.1,0.1c0.1-1.4,2.3-3.8-1.3-7.5c-1.2-1.3,1.1-0.1,0.7-0.6
		C123.5,32.1,124.2,36.7,123.4,38.9z"/>
	<path id="path5563_2_" class="st0" d="M132.3,26.9c0,0,0.7-1.6,0.2-1.5c-1.6,0.5-3.7,4.1-8.7-0.1c-1.7-1.4,0.2,1.6-0.4,1
		C127.2,29.8,130.1,28.5,132.3,26.9z"/>
	<path id="path5563-5_2_" class="st0" d="M126.9,22c0,0-0.5-2.2-4.7-5.7c-0.3,0.5,5.2,6.5,2.4,5.8c-1.5-0.3-1,0.9-0.8,0.5
		C126.5,23,127.1,22.2,126.9,22z"/>
	<path id="path5561_2_" class="st0" d="M112.3,22.2c-2.1-2-3.9-3-8.3-2.5c-3.9,0.4-3.8,0.3-9,3.9c-5.3,3.7-7.4,9-7.8,10
		c0,0.7-0.4,4.6,1,0.6c1.5-4,2.4-1.4,3.6-3.1c1.2-1.7,3.9-6.3,4.8-7.1c1-0.8,3-1.6,4.9-2.1c1.9-0.4,4.6-0.4,5.8-0.2
		c1.6,0.2,4,2.1,5.3,2C113.2,23.6,112.6,22.5,112.3,22.2L112.3,22.2z"/>
	<path id="path5563-2-3-1_2_" class="st0" d="M153,34.7c0,0-0.6,2.1-1.1,1.5c-1.5-2-1.7-7.6-9.8-8.2c-2.8-0.2,1.1-1.4,0.1-1.4
		C145.6,25.7,151.5,31,153,34.7L153,34.7z"/>
	<path id="path1174_2_" class="st0" d="M113.4,57.5c3.2-0.4,6.3-1.4,8.7-3c1.1-0.7,1.5-1,1.6-1.4c0.2-0.6-0.1-1.9-0.9-3.2
		c-1-1.9-3.3-4.9-5.6-7.5c-0.5-0.6-1.3-1.6-1.8-2.2c-1.9-2.6-3.7-4.3-5.2-5.5c-0.5-0.3-0.9-0.7-1-0.7s-0.1-0.1-0.1-0.1
		c0-0.1,1.1-0.7,1.6-0.9c0.4-0.2,1.8-0.4,2.1-0.4c0.7,0-0.2-0.4-1.3-0.7c-0.7-0.1-1-0.2-3.1-0.2c-2.6,0-3.9,0.1-5.4,0.6
		c-3,0.9-5.5,2.3-8.9,4.9c-3.3,2.6-5.1,4.4-6.6,6.9c-0.8,1.3-0.9,1.7-0.9,2.7c0,0.8,0,0.9,0.3,1.5c0.7,1.4,2.1,2.5,5.1,4.1
		c0.6,0.3,1.6,0.9,2.3,1.2c3.5,1.9,7.5,3.2,12.1,3.8C107.9,57.6,112.2,57.6,113.4,57.5L113.4,57.5z M106.4,54.4
		c-3-0.4-5.9-1.2-8.1-2.3c-1.8-0.9-3.9-2-4.7-2.5c-0.9-0.6-1.6-1.3-2-2c-0.3-0.5-0.3-0.6-0.3-1.3s0-0.8,0.3-1.3
		c0.7-1.3,1.9-2.9,3.3-4.2c1-1,1.3-1.2,3.4-2.8c1.8-1.4,2.5-1.9,3.5-2.3c2.2-1,4.1-0.9,6.5,0.7c2.3,1.5,5.3,4.4,8.6,8.6
		c1.5,1.9,2.6,3.7,3,4.9c0.1,0.5,0.1,1.2-0.1,1.5c-0.3,0.6-2.4,1.8-4.1,2.3c-1,0.3-2.5,0.7-3.8,0.8
		C110.6,54.6,107.8,54.6,106.4,54.4L106.4,54.4z"/>
	<path id="path1499-0_2_" class="st7" d="M128.5,91.1c-0.2,0-0.6,0-0.6,0s-0.3,0.7-0.3,1.2c0,0.3,0.4,1.1,0.4,1.1s0.3-0.1,0.4-0.2
		c-0.1-0.6-0.3-0.8-0.3-1.3C128.2,91.6,128.3,91.4,128.5,91.1L128.5,91.1z"/>
	<g class="st14">
		<path class="st15" d="M121.7,99.8c0.1,1.5-0.1,2.7-0.5,3.7c-0.5,1-1.1,1.6-2,1.9l0.1,2.4l-2.4,0.6l-0.6-5.7
			c-0.2-1.5-0.4-3.5-0.7-6.1c0.4-0.3,1.1-0.5,2-0.8c1.1-0.3,1.9-0.1,2.6,0.5C121.1,96.9,121.6,98.1,121.7,99.8z M120,101.5
			c-0.1-0.8-0.4-1.1-0.9-1c-0.1,0-0.1,0-0.2,0.1l0.2,2.7C119.8,103.1,120.1,102.5,120,101.5z"/>
	</g>
	<g class="st14">
		<path class="st16" d="M121.7,99.8c0.1,1.5-0.1,2.7-0.5,3.7c-0.5,1-1.1,1.6-2,1.9l0.1,2.4l-2.4,0.6l-0.6-5.7
			c-0.2-1.5-0.4-3.5-0.7-6.1c0.4-0.3,1.1-0.5,2-0.8c1.1-0.3,1.9-0.1,2.6,0.5C121.1,96.9,121.6,98.1,121.7,99.8z M120,101.5
			c-0.1-0.8-0.4-1.1-0.9-1c-0.1,0-0.1,0-0.2,0.1l0.2,2.7C119.8,103.1,120.1,102.5,120,101.5z"/>
	</g>
	<g class="st14">
		<path class="st15" d="M125.1,98.8l0.2,3.2c0.1,0.9,0.2,2.3,0.3,4.1c-0.4,0.4-0.9,0.7-1.4,0.8c-0.6,0.2-1.1,0.1-1.4-0.3
			c-0.3-0.3-0.5-0.8-0.7-1.5c-0.1-0.4-0.2-1.2-0.4-2.3c-0.1-1.1-0.3-2-0.3-2.9l1.8-0.5c0,0.4,0.1,1.1,0.1,2.1c0,0.5,0.1,1.3,0.2,2.3
			c0.1,0.7,0.1,1.2,0.2,1.5s0.3,0.4,0.5,0.3c0.1,0,0.1-0.1,0.2-0.2c-0.1-0.7-0.1-1.7-0.3-3.2c-0.1-0.7-0.2-1.7-0.3-3L125.1,98.8z"/>
	</g>
	<g class="st14">
		<path class="st17" d="M125.1,98.8l0.2,3.2c0.1,0.9,0.2,2.3,0.3,4.1c-0.4,0.4-0.9,0.7-1.4,0.8c-0.6,0.2-1.1,0.1-1.4-0.3
			c-0.3-0.3-0.5-0.8-0.7-1.5c-0.1-0.4-0.2-1.2-0.4-2.3c-0.1-1.1-0.3-2-0.3-2.9l1.8-0.5c0,0.4,0.1,1.1,0.1,2.1c0,0.5,0.1,1.3,0.2,2.3
			c0.1,0.7,0.1,1.2,0.2,1.5s0.3,0.4,0.5,0.3c0.1,0,0.1-0.1,0.2-0.2c-0.1-0.7-0.1-1.7-0.3-3.2c-0.1-0.7-0.2-1.7-0.3-3L125.1,98.8z"/>
	</g>
	<g class="st14">
		<path class="st15" d="M128.1,102.5c0,0.3,0,0.8,0,1.6c0,0.5,0,1,0.1,1.6c-0.2,0.2-0.6,0.3-1,0.5c-0.7,0.2-1.3,0-1.8-0.4
			c-0.6-0.5-0.9-1.5-1-2.8s0-2.3,0.4-3.1c0.4-0.8,0.9-1.2,1.6-1.4c0.3-0.1,0.5-0.1,0.8-0.1l0.4,3c-0.1-0.1-0.3,0-0.5,0
			c-0.3,0.1-0.5,0.3-0.7,0.7c-0.2,0.4-0.3,0.9-0.3,1.4s0.2,0.9,0.4,1.1c0.2,0.2,0.4,0.2,0.7,0.2l-0.1-1c0-0.2-0.1-0.5-0.2-1
			L128.1,102.5z"/>
	</g>
	<g class="st14">
		<path class="st17" d="M128.1,102.5c0,0.3,0,0.8,0,1.6c0,0.5,0,1,0.1,1.6c-0.2,0.2-0.6,0.3-1,0.5c-0.7,0.2-1.3,0-1.8-0.4
			c-0.6-0.5-0.9-1.5-1-2.8s0-2.3,0.4-3.1c0.4-0.8,0.9-1.2,1.6-1.4c0.3-0.1,0.5-0.1,0.8-0.1l0.4,3c-0.1-0.1-0.3,0-0.5,0
			c-0.3,0.1-0.5,0.3-0.7,0.7c-0.2,0.4-0.3,0.9-0.3,1.4s0.2,0.9,0.4,1.1c0.2,0.2,0.4,0.2,0.7,0.2l-0.1-1c0-0.2-0.1-0.5-0.2-1
			L128.1,102.5z"/>
	</g>
	<g class="st14">
		<path class="st15" d="M132.6,95.9c0.1,0.9,0,1.8-0.2,2.5c-0.2,0.6-0.4,1.1-0.7,1.4c0.2,0.1,0.4,0.3,0.6,0.6
			c0.2,0.3,0.3,0.7,0.3,1.1c0.1,1-0.2,1.8-0.7,2.4c-0.4,0.5-1,0.8-1.8,1c-0.6,0.2-1.4,0.3-2.1,0.3c-0.1-1.2-0.3-3.2-0.6-5.9
			c-0.2-1.5-0.4-3.4-0.7-6c0.5-0.3,1.2-0.6,2.1-0.8C131.1,92,132.4,93.1,132.6,95.9z M130.9,97.8c0-0.4-0.1-0.7-0.3-0.8
			c-0.2-0.2-0.4-0.2-0.7-0.1l0.1,2.4C130.7,99.1,131,98.6,130.9,97.8z M131.1,101.5c0-0.6-0.3-0.8-0.8-0.7c0,0-0.1,0-0.2,0.1
			l0.1,1.9C130.9,102.7,131.2,102.3,131.1,101.5z"/>
	</g>
	<g class="st14">
		<path class="st17" d="M132.6,95.9c0.1,0.9,0,1.8-0.2,2.5c-0.2,0.6-0.4,1.1-0.7,1.4c0.2,0.1,0.4,0.3,0.6,0.6
			c0.2,0.3,0.3,0.7,0.3,1.1c0.1,1-0.2,1.8-0.7,2.4c-0.4,0.5-1,0.8-1.8,1c-0.6,0.2-1.4,0.3-2.1,0.3c-0.1-1.2-0.3-3.2-0.6-5.9
			c-0.2-1.5-0.4-3.4-0.7-6c0.5-0.3,1.2-0.6,2.1-0.8C131.1,92,132.4,93.1,132.6,95.9z M130.9,97.8c0-0.4-0.1-0.7-0.3-0.8
			c-0.2-0.2-0.4-0.2-0.7-0.1l0.1,2.4C130.7,99.1,131,98.6,130.9,97.8z M131.1,101.5c0-0.6-0.3-0.8-0.8-0.7c0,0-0.1,0-0.2,0.1
			l0.1,1.9C130.9,102.7,131.2,102.3,131.1,101.5z"/>
	</g>
	<g class="st14">
		<path class="st15" d="M135.1,99.8c0.1,1.1,0,2.1-0.3,3s-0.7,1.4-1.2,1.6c-0.6,0.1-1-0.2-1.4-0.9c-0.4-0.7-0.6-1.6-0.7-2.8
			c-0.1-1.2,0-2.2,0.3-3c0.3-0.7,0.7-1.2,1.2-1.3c0.5-0.1,1,0.1,1.4,0.7C134.8,97.7,135,98.6,135.1,99.8z M133.9,101
			c-0.1-0.9-0.3-1.3-0.6-1.2c-0.3,0.1-0.5,0.6-0.4,1.5c0,0.4,0.1,0.7,0.2,1c0.1,0.3,0.3,0.5,0.4,0.4c0.1,0,0.2-0.2,0.3-0.6
			C133.9,101.7,133.9,101.3,133.9,101z"/>
	</g>
	<g class="st14">
		<path class="st17" d="M135.1,99.8c0.1,1.1,0,2.1-0.3,3s-0.7,1.4-1.2,1.6c-0.6,0.1-1-0.2-1.4-0.9c-0.4-0.7-0.6-1.6-0.7-2.8
			c-0.1-1.2,0-2.2,0.3-3c0.3-0.7,0.7-1.2,1.2-1.3c0.5-0.1,1,0.1,1.4,0.7C134.8,97.7,135,98.6,135.1,99.8z M133.9,101
			c-0.1-0.9-0.3-1.3-0.6-1.2c-0.3,0.1-0.5,0.6-0.4,1.5c0,0.4,0.1,0.7,0.2,1c0.1,0.3,0.3,0.5,0.4,0.4c0.1,0,0.2-0.2,0.3-0.6
			C133.9,101.7,133.9,101.3,133.9,101z"/>
	</g>
	<g class="st14">
		<path class="st15" d="M137.2,98.6c-0.1,0-0.2,0-0.3,0s-0.2,0.1-0.2,0.2c-0.1,0.1-0.1,0.3-0.1,0.5s0.1,0.4,0.3,0.8s0.3,0.8,0.3,1.2
			c0,0.5,0,1-0.2,1.4s-0.4,0.6-0.8,0.7c-0.3,0.1-0.5,0.1-0.7,0.1c0-0.1-0.1-0.4-0.1-0.7c0-0.2-0.1-0.4-0.2-0.7c0.2,0,0.3,0,0.4,0
			c0.3-0.1,0.4-0.3,0.4-0.7c0-0.3-0.1-0.5-0.2-0.7c-0.2-0.2-0.4-0.5-0.6-0.7c-0.4-0.5-0.6-1.1-0.7-1.8c-0.1-0.8,0.1-1.4,0.3-1.9
			c0.3-0.4,0.6-0.7,1.1-0.8c0.3-0.1,0.6-0.1,0.9,0L137.2,98.6z"/>
	</g>
	<g class="st14">
		<path class="st17" d="M137.2,98.6c-0.1,0-0.2,0-0.3,0s-0.2,0.1-0.2,0.2c-0.1,0.1-0.1,0.3-0.1,0.5s0.1,0.4,0.3,0.8s0.3,0.8,0.3,1.2
			c0,0.5,0,1-0.2,1.4s-0.4,0.6-0.8,0.7c-0.3,0.1-0.5,0.1-0.7,0.1c0-0.1-0.1-0.4-0.1-0.7c0-0.2-0.1-0.4-0.2-0.7c0.2,0,0.3,0,0.4,0
			c0.3-0.1,0.4-0.3,0.4-0.7c0-0.3-0.1-0.5-0.2-0.7c-0.2-0.2-0.4-0.5-0.6-0.7c-0.4-0.5-0.6-1.1-0.7-1.8c-0.1-0.8,0.1-1.4,0.3-1.9
			c0.3-0.4,0.6-0.7,1.1-0.8c0.3-0.1,0.6-0.1,0.9,0L137.2,98.6z"/>
	</g>
	<g class="st14">
		<path class="st15" d="M139.5,97.6c-0.1,0-0.2,0-0.3,0s-0.2,0.1-0.2,0.2c-0.1,0.1-0.1,0.3-0.1,0.5s0.1,0.4,0.3,0.8s0.3,0.8,0.3,1.2
			c0,0.5,0,1-0.2,1.4s-0.4,0.6-0.8,0.7c-0.3,0.1-0.5,0.1-0.7,0.1c0-0.1-0.1-0.4-0.1-0.7c0-0.2-0.1-0.4-0.2-0.7c0.2,0,0.3,0,0.4,0
			c0.3-0.1,0.4-0.3,0.4-0.7c0-0.3-0.1-0.5-0.2-0.7c-0.2-0.2-0.4-0.5-0.6-0.7c-0.4-0.5-0.6-1.1-0.7-1.8c-0.1-0.8,0.1-1.4,0.3-1.9
			c0.3-0.4,0.6-0.7,1.1-0.8c0.3-0.1,0.6-0.1,0.9,0L139.5,97.6z"/>
	</g>
	<g class="st14">
		<path class="st17" d="M139.5,97.6c-0.1,0-0.2,0-0.3,0s-0.2,0.1-0.2,0.2c-0.1,0.1-0.1,0.3-0.1,0.5s0.1,0.4,0.3,0.8s0.3,0.8,0.3,1.2
			c0,0.5,0,1-0.2,1.4s-0.4,0.6-0.8,0.7c-0.3,0.1-0.5,0.1-0.7,0.1c0-0.1-0.1-0.4-0.1-0.7c0-0.2-0.1-0.4-0.2-0.7c0.2,0,0.3,0,0.4,0
			c0.3-0.1,0.4-0.3,0.4-0.7c0-0.3-0.1-0.5-0.2-0.7c-0.2-0.2-0.4-0.5-0.6-0.7c-0.4-0.5-0.6-1.1-0.7-1.8c-0.1-0.8,0.1-1.4,0.3-1.9
			c0.3-0.4,0.6-0.7,1.1-0.8c0.3-0.1,0.6-0.1,0.9,0L139.5,97.6z"/>
	</g>
	<path id="path1481_2_" class="st7" d="M129.3,86.4c-1.1-0.7-2-0.4-2.4,0c1.1,1.7,0.8,3.5,0.6,4.3c-0.1,0.2-0.5,0.3-0.5,0.3
		s1,0.3,2.1-0.1C129.4,90.3,130.3,88.5,129.3,86.4L129.3,86.4z"/>
	<path id="path1499_2_" class="st7" d="M128.3,90.8c0.1-0.4,0.6-0.1,0.6,0c0,0,0.3,0.7,0.3,1.2c0,0.3-0.4,1.1-0.4,1.1
		s-0.4,0.3-0.4-0.2c0.1-0.6,0.3-0.8,0.3-1.3C128.7,91.4,128.5,91.2,128.3,90.8L128.3,90.8z"/>
	<path id="path4473_2_" class="st2" d="M85.5,70.6c-7.9-8.3-10.3-9.8-10.3-9.8L57.1,72.3L28,106.2c0,0,8.9-7,8.6-5.5
		c-0.3,1.5-0.1,0.4,2,6.2c0.8-6.2,9.5-17.1,9.5-17.1s2.9,6.3,6.1,6.5c0.8-3.8,5.3-12.4,5.3-12.4l3.8,4.4c0,0,4.7-10.7,9.8-12.6
		C72.8,78.8,74,84,74,84s5.7-11.9,6.9-8.1c0.7,2.4,2.2,4.7,5.9,8C84.3,77.3,85.4,75.1,85.5,70.6L85.5,70.6z"/>
	<path id="path3778_2_" class="st0" d="M69.1,50.9c-1.9,5.7-6,12.5-10.7,18.5c-3.1,4-4.8,5.9-6.9,8.6c-1.9,2.4-12.1,15.9-26.1,30.7
		c0,0,17.6-19.4,16.4-13.8c-0.1,0.4-1.4,4-1.4,4l7.2-12c0,0,5.5,4.6,5.6,3.6s4.6-13.1,4.6-13.1s2.9,6.3,3.7,6s4.8-14.3,10.2-18.9
		c2.1,4,4,12.2,4,12.2s1.1-6.3,1.6-6.5c0.9-0.5,3.4,1.1,4.5,0.2c-1.3-2.1-1.6-5.1-1.6-5.1C78.1,62.6,77.3,61.9,69.1,50.9L69.1,50.9z
		"/>
	<ellipse id="path4542_4_" class="st18" cx="142.4" cy="53.7" rx="0.9" ry="0.8"/>
	<path id="path4134_2_" class="st0" d="M142.6,63.6c0,0-5.9-9.1-12.3-11.1c-4.7-1.5-11.6,7.7-13.2,13.6c-1.5,5.5-3.7-13.2,11.8-15.8
		C139.4,51.2,144.4,64,142.6,63.6z"/>
	<path id="path4582_2_" class="st4" d="M11.8,125.5l-2.6,3.4l-1.1,1.4l-0.3,0.5l-0.3,0.5l-1-0.6L6,130.4L5.6,130l-0.4-0.5L4.8,129
		l-0.2-0.3l-0.3-0.6c0,0,3.8-3.1,6.9-3.1c0.3,0.2,0.9,0.2,0.9,0.2L11.8,125.5z"/>
	<path id="path5559_2_" class="st0" d="M81.3,21.6c2-3.5-4.9-5.2-5.3-5.2c-0.3,0-4.5-0.9-3.1,3.9s0,6.4-1.2,6s-5.4-2.4-3.4,2
		s2.6,4.2,2.4,6.3c-0.2,2-0.7,4-0.7,4l-0.3,0.2l2.5,1.8c0,0,4.4-13.5,5.4-14.4C78.5,25.3,80.3,23.3,81.3,21.6L81.3,21.6z"/>
	<path id="path5549_2_" class="st5" d="M84.6,21.1c-2,0.9-5,3.8-6.7,8.4c-1.1,3.1-1.2,8-2.3,11.1c-1.1,3.1-2,2.9-2,2.9l-3.8-3.9
		C74.9,34.9,76.3,20.8,84.6,21.1z"/>
	<path id="path5644_2_" class="st2" d="M142.4,14c4,2.9,4.6,4.4,4.3,5.1c-1.6-0.6-4.4-1.2-4.4-1.2C146,17.4,143.8,15.7,142.4,14
		L142.4,14z"/>
	<path id="path5646_2_" class="st2" d="M142.2,17.8c18.4,8.9,13.2,16.3,9.4,25.7C165.6,26.9,146.2,17.5,142.2,17.8z"/>
	<path id="path5704_2_" class="st5" d="M26.1,137.9c0.6,0,12.5-6.3,24.2,9.5c4.1,5.1,4,9.5,2.5,11c0,0-1.6,1.2,2.5,2.3
		c4.6,1.7,3.4,4.1,3.4,4.1c-0.6,1.2,0.3,3,0.1,3c-0.9,0.1-33.6-2.9-32.5-2.9c0.2,0-2.3-2,0.8-3c4.3-1.3,14.5-2.2,16.2-5.4
		c1.3-2.4,1-7.1,0.9-7.4C42.1,146.2,41.7,141.7,26.1,137.9L26.1,137.9z"/>
	<path id="path5706_2_" class="st5" d="M92.8,162.1c-6.4-1.2-5.4,0.7-7.5,1.3c0,0,11-35.1,0.2-52.2s10.8-9,10.8-9
		c11.6,11.7,7.8,28.1,3.9,37.2C94.7,152,90.9,158.6,92.8,162.1z"/>
	<path id="path1721_2_" class="st0" d="M142.4,38.2c3.1,3.8,5.2,7.7,5.6,11.4c0,0.1,1.3-0.2,1.3-0.2
		C149.5,46.9,147.7,39.4,142.4,38.2z"/>
	<path id="path1721-2_2_" class="st0" d="M105.2,35.7c3.6,3.6,6.5,6.6,7.8,13.2c0,0.1,2.2-0.2,2.8-0.2
		C115.2,46.1,110.3,37.8,105.2,35.7L105.2,35.7z"/>
	<path id="path1950_2_" class="st15" d="M117.9,96.1c-0.4,0.2-1.4,0.1-1.7,0.6c-0.4,1.4,0.6,5.4,0.6,5.4s-0.7-3.6-0.1-5.2
		C116.9,96.5,117.9,96.7,117.9,96.1L117.9,96.1z"/>
	<path id="path1950-8_2_" class="st15" d="M130.1,93.4c-0.9,0.7-2.4,0-2.7,0.4c-0.4,1.4,0.6,5.4,0.6,5.4s-0.7-3.6-0.1-5.2
		C128,93.6,129.5,94.4,130.1,93.4L130.1,93.4z"/>
	<path id="rect4692-4-7_2_" class="st19" d="M130.1,51.8c-2-1.3-4.5,1.7-6.3,3.2c-2.5,2.1-4.6,5.9-5.6,8.1c-1.7,3.6-2.1,6.4-1.5,8.8
		c0.5,2,1.5,3.8,2.9,5s3.8,1.8,5.4,2.9c3.5,2.4,3.5,1.2,6.6,1.2c1.9,0,5.4-2.2,7.1-4.3c2.8-3.4,4-6.5,4.5-9.2c0.7-4-2.9-7.6-4.2-8.8
		C134.7,54.6,135.2,55.2,130.1,51.8L130.1,51.8z"/>
	<path id="path4974_2_" class="st12" d="M131.5,57.3c0,2.3,0.9,4.4,0.3,6.5c0,0,0.8,0,1.2,0.1c0.3,0.1,0.7,0.2,0.9,0.4
		c0.6,0.3,1.5,1.2,1.5,1.2s0.3,0.2,0.5,0.3c0.3,0.1,0.6,0.2,0.8,0.2c0.3,0.1,0.6,0.1,1,0.1c0.3,0,0.9-0.2,0.9-0.2l-0.1-0.3l-0.3-0.7
		c0,0,0.7,0.3,0.8,0.7c0.1,0.2,0.1,0.4,0.1,0.6s-0.1,0.4-0.1,0.7c-0.1,0.1-0.2,0.4-0.2,0.4l0.1-0.7l-0.1-0.1l-0.2,0.1
		c0,0-0.5,0-0.8,0c-0.4,0-0.9,0-1.3-0.1c-0.3-0.1-0.7-0.2-1-0.3c-0.2-0.1-0.4-0.3-0.6-0.4c-0.5-0.3-1-0.8-1.6-1
		c-0.3-0.1-0.7-0.1-1.1-0.2c-0.3,0-0.6-0.1-0.8-0.1c-0.5,0-0.9,0.1-1.4,0.3c-0.3,0.1-0.7,0.2-1,0.3c-0.3,0.1-0.4,0.4-0.7,0.6
		s-0.8,0.3-1.1,0.4c-0.3,0.1-0.7,0.2-1,0.2c-0.4,0.1-0.8,0.1-1.2,0.1c-0.3,0-0.7-0.1-1-0.2c-0.2,0-0.4-0.1-0.7-0.2
		c-0.3-0.1-1-0.2-1-0.2s-0.3,0.3-0.4,0.4c-0.2,0.2-0.3,0.8-0.3,0.8v0.6c0,0-0.4-1-0.3-1.5c0.1-0.4,0.3-0.7,0.5-1
		c0.1-0.2,0.3-0.4,0.5-0.6c0.2-0.1,0.5-0.3,0.5-0.3c-0.2,0.7-0.4,0.8-0.1,1.1c0,0,0.9,0.2,1.4,0.3c0.5,0.1,1,0.1,1.5,0
		c0.5,0,0.9-0.1,1.4-0.2c0.4-0.1,0.7-0.2,1.1-0.4c0.4-0.2,0.7-0.5,1.1-0.7c0.3-0.1,0.7-0.2,1-0.3c0.3-0.1,0.6-0.2,0.9-0.2
		c0.1,0,0.4,0,0.4,0c0.5-2.2-0.3-4.3-0.3-6.5L131.5,57.3z"/>
	<path id="path910_2_" class="st12" d="M139.1,62.8c-0.1-0.9-0.9-2.3-1.6-3c-0.8-0.8-1.8-1.4-2.1-1.2c-0.3,0.1-0.9,1-1.1,1.7
		c-0.2,0.8-0.1,2,0.2,2.2c0.6,0.4,1.9,0.8,3.2,0.9l1.4,0.1L139.1,62.8z"/>
	<path id="path912_2_" class="st12" d="M126.5,62.8c0.6-0.1,1.4-0.2,1.8-0.3c0.8-0.2,0.8-0.2,1-0.8c0.2-0.8,0-1.8-0.4-2.6
		c-0.3-0.6-0.3-0.7-1-0.7s-2.7,0.6-2.8,0.9c0,0.1-0.1,0.1-0.2,0.1c-0.7,0-2.6,2.1-2.8,3L122,63h1.7C124.7,62.9,126,62.9,126.5,62.8
		L126.5,62.8z"/>
	<path id="path1180_2_" class="st12" d="M132.5,70.7c0.4-0.3,1.1-1.1,1.4-1.8c0.3-0.7,0.4-1.4,0.2-1.8s-0.9-1-1.5-1.3
		c-0.7-0.3-1.5-0.4-2.1-0.1s-1.2,0.9-1.5,1.4c-0.2,0.4-0.2,0.4-0.1,0.8c0.6,1.4,1.9,2.8,2.9,2.9C132.1,70.9,132.2,70.9,132.5,70.7
		L132.5,70.7z"/>
	<path id="path1182_2_" class="st20" d="M132.2,84.7c1-0.1,2.7-0.4,3.7-0.8c1.6-0.6,3-1.3,3.5-2.1c0.4-0.6,0.4-1,0.4-3.4
		c0-2.6,0-2.6,1-3.6c0.3-0.4,0.7-0.8,0.7-0.9c0.1-0.3-0.6-1.4-1.2-2.1l-0.3-0.3l-0.2,0.3c-0.6,0.8-1.9,1.8-2.8,2.2
		c-0.2,0.1-0.7,0.2-1.2,0.2c-1.3,0.1-5.9,0.3-9.2,0.3h-3l-0.4-0.2c-0.4-0.2-1.3-1-1.4-1.3s-1.1,0.9-1.7,2.1l-0.3,0.7l0.2,0.4
		c0.2,0.6,0.8,1.6,1.7,2.9c0.9,1.4,1.1,1.9,1.3,3c0.2,1,0.2,1.2,0.9,1.8c0.5,0.4,1.1,0.7,1.9,0.9C126.2,84.7,131,84.8,132.2,84.7
		L132.2,84.7z"/>
	<path id="path5702_2_" class="st21" d="M140.5,74.3c-1,1.8-1.3,0.2-1.1,6.2c0.1,1.7-3.4,3.5-4.5,3.4c0-1.5,3-1.7,3.5-2.9
		c0.8-1.8-0.4-4.6,0.9-6.1C139.7,74.5,141.2,73.3,140.5,74.3z"/>
	<path id="path5606_2_" class="st0" d="M134,54.4c1.6,1.4,14.6,8.2,6.6,19.2C142.3,65.8,144.5,64.5,134,54.4z"/>
	<path id="rect4692-42_2_" class="st22" d="M130,51.2c-1.8,0-3.8,0.5-5.2,1.6c-1.2,0.9-0.5,1.7,1,3c0.9,0.8,2.7,1.8,4.9,2
		c1.1,0.1,2-0.7,2.8-1.2s0.6-0.5,1.4-1.4c0.5-0.5,1.1-1.4,0.3-2C133.8,52,131.9,51.2,130,51.2L130,51.2z"/>
</g>
</svg>
