<?xml version="1.0" encoding="utf-8"?>
<!-- Generator: Adobe Illustrator 23.0.0, SVG Export Plug-In . SVG Version: 6.00 Build 0)  -->
<svg version="1.1" id="Camada_1" xmlns="http://www.w3.org/2000/svg" xmlns:xlink="http://www.w3.org/1999/xlink" x="0px" y="0px"
	 viewBox="0 0 167.7 170.2" style="enable-background:new 0 0 167.7 170.2;" xml:space="preserve">
<style type="text/css">
	.st0{fill:#754421;}
	.st1{fill:#825230;}
	.st2{fill-rule:evenodd;clip-rule:evenodd;fill:#CB8A5F;}
	.st3{opacity:0.64;fill:#B0603A;enable-background:new    ;}
	.st4{fill:#CB8A5F;}
	.st5{opacity:0.885;fill:#BF6F39;enable-background:new    ;}
	.st6{opacity:0.885;fill:#C07A56;enable-background:new    ;}
	.st7{fill:#B0603A;}
	.st8{opacity:0.885;fill:#C68050;enable-background:new    ;}
	.st9{fill:#C78D65;}
	.st10{fill:#9A582D;}
	.st11{opacity:0.885;fill:#B0603A;enable-background:new    ;}
	.st12{fill:#4F2D12;stroke:#070308;stroke-width:0.2317;}
	.st13{fill:#A0141B;}
	.st14{opacity:0.885;fill:#4F2D15;enable-background:new    ;}
	.st15{opacity:0.885;fill:#9A582D;enable-background:new    ;}
	.st16{opacity:0.885;fill:#FFFFFF;enable-background:new    ;}
	.st17{opacity:0.885;fill:#9C8848;enable-background:new    ;}
	.st18{fill:#FFFFFF;}
	.st19{opacity:0.885;fill:#070308;enable-background:new    ;}
	.st20{fill:#4F2D15;}
	.st21{opacity:0.885;fill:#2A130E;enable-background:new    ;}
	.st22{fill:#873E1D;}
	.st23{opacity:0.885;fill:#873E1D;enable-background:new    ;}
	.st24{opacity:0.885;fill:#863F1D;enable-background:new    ;}
	.st25{enable-background:new    ;}
	.st26{fill:#4F2D12;}
	.st27{fill:none;stroke:#070308;stroke-width:0.1793;}
	.st28{fill:none;stroke:#070308;stroke-width:0.2646;}
	.st29{opacity:0.885;fill:#C07B57;enable-background:new    ;}
	.st30{fill:#D0CDE5;fill-opacity:0;}
	.st31{fill:#2C120E;}
	.st32{opacity:0.885;fill:#8A4B2C;enable-background:new    ;}
	.st33{fill:#863F1D;}
	.st34{opacity:0.885;fill:#A56941;enable-background:new    ;}
	.st35{opacity:0.885;fill:#80431D;enable-background:new    ;}
	.st36{opacity:0.885;fill:#2C120E;enable-background:new    ;}
	.st37{fill:#070308;}
	.st38{opacity:0.885;fill:#505137;enable-background:new    ;}
	.st39{opacity:0.885;fill:#522F16;enable-background:new    ;}
</style>
<path id="path1170" class="st0" d="M161.8,44.2c-1.7,1.1-1.6-8.5-9.6-11.4c-3.1-6-20.3-21.5-20.3-21.5s30.4-10.6,35.7,8.3
	C168.6,31.1,163,45,161.8,44.2L161.8,44.2z"/>
<path id="path1742" class="st1" d="M133.7,12.1c24.9-4.5,28.3,1,31.2,6.5c2,3.9,0.8,8,0.3,10.4c-0.4,2.4-0.8,5.2-2.2,4.5
	s0-12.8-7.1-14.1c-5.2-1-15.6-1.3-15.6-1.3L133.7,12.1z"/>
<path id="path4698" class="st2" d="M71.3,45.5c-1.5,5.2,9.6,17.1,13.5,21.6c6.9,7.8,10.6,9.8,23.8,17c9,4.9,24.2,5.4,34.2,0.1
	c8.3-4.4,15.1-14.2,13.7-23.9c-0.5-3.4-3.9-5.9-4.9-8.3c-1-2.4-0.2-7.8-0.3-8.5s3-3.1,4.8-9.7c1.8-6.7-6.2-15.1-12.6-16.2
	c-0.8-0.1-1.7-0.4-2.6-0.4c0.7-0.1,3.8,0.6,5.5,1.3c1.6-3.2-21.3-16.3-36-18.5c-10.2,0.2-13.1,3.7-23.6,10.4
	c-5.4,3.4-12.6,18.8-14,29.7C72.5,42.5,72.8,40.3,71.3,45.5L71.3,45.5z"/>
<path id="path5509-1" class="st3" d="M86.7,10.2c5.4-1.5,9.6-6.8,14.2-8.5c-1,1.3-9.4,7.4-10.3,10.8L86.7,10.2z"/>
<path id="path4994" class="st4" d="M139.2,120.8c0,0,1.1,1.7,1.5,2.6c0.5,1.3,0.8,2.7,1,4c0.2,1.6,0.3,3.2,0.3,4.8c0,1,0,2,0,3
	c-0.1,1.2-0.1,2.3-0.3,3.5c-0.3,1.8-0.7,3.5-1.2,5.2c-0.3,1-0.7,2-1.1,3.1c-0.3,0.8-0.6,1.7-0.9,2.5c-0.4,1-0.8,2-1.2,3.1
	c-0.5,1.2-1.1,2.4-1.7,3.7c-0.2,0.7-0.4,1.3-0.7,2c-0.2,0.6-0.4,1.1-0.6,1.8c-0.1,0.5-0.3,1-0.2,1.5c0,0.2,0.2,0.4,0.3,0.5
	c0.6,0.7,1.3,1.2,2.1,1.8c0.5,0.4,1.2,0.6,1.7,1.1c0.3,0.3,0.4,0.8,0.4,1.2c0.1,0.5-0.1,1.1-0.2,1.6c-0.1,0.5-0.5,1.5-0.5,1.5
	s-0.5,0.2-0.7,0.2c-0.7,0.2-1.3,0.3-2,0.4c-1.3,0.2-2.7,0.2-4,0.2s-2.7,0-3.9-0.2c-1.1-0.2-2.1-0.5-3.2-0.9c-0.8-0.3-2.2-1-2.2-1
	s-0.6-2.2-0.6-3.3c0-1,0.2-1.9,0.3-2.9c0.1-0.9,0.4-1.9,0.3-2.8c-0.1-1.1-0.5-2.1-0.8-3.2c-0.4-1.3-1.1-2.4-1.7-3.7
	c-0.5-1.3-1-2.5-1.3-3.9c-0.4-1.5-0.8-4.6-0.8-4.6l0.2-1.9l6-4.4L139.2,120.8z"/>
<path id="path4996" class="st5" d="M65.3,159.5c0,0.3,0.8,0.6,1,1.1c0.3,0.6,0.4,1.3,0.4,2c0,0.8-0.3,2.3-0.3,2.3
	c-7.3-0.9-9.4-0.4-15.9-2.8l-0.3-2.2L65.3,159.5z"/>
<path id="path5608-7" class="st6" d="M81.4,21.8c0,0-6.8,27,3.5,41.7S70.7,47.3,70.7,47.3L75.2,37l4.3-13.8l1.3-1.5L81.4,21.8z"/>
<path id="path5608" class="st7" d="M80,23.2c0,0-6.8,27,3.5,41.7S69.3,48.8,69.3,48.8l4.5-10.3l4.3-13.8l1.3-1.5L80,23.2L80,23.2z"
	/>
<path id="path5708" class="st8" d="M138.2,120.6c0.3-0.3,4.4,1.9,3.5,14.5c-23.7,4.8-19.3,20.5-20,23.6c-0.3-1.3-0.3-2.4-1.9-5.4
	c0,0-3.6-7.8-2.2-11.5C119,138,138.2,120.6,138.2,120.6z"/>
<path id="rect4708" class="st9" d="M143.4,85.8c-42.5,12.7-70.3-29.1-73.3-39.3c0,0-3.2,12.2-14.9,25.7c0,0-6.9,8.8-18.9,23.4
	c-5.4,6.8-10.8,11.3-16.4,18.7c-5.1,6.6-14.5,16.5-19.8,28c-0.7,4.5,1,9.7,4.2,13c3.1,3.2,8.3,3.9,12.7,4.4
	c26.1,3.4,45,7.8,78.7-6.1c8.3-3.2,16.7-6.8,24.1-11.8c5.4-3.6,10.5-7.8,14.5-12.8c2.9-3.6,5.4-7.8,6.8-12.3
	c1.2-3.6,1.3-11.3,1.3-11.3c0.3-1.2,0-6.6-0.4-9.8C141.5,91.2,144.4,84,143.4,85.8L143.4,85.8z"/>
<path id="path5000" class="st10" d="M8.1,129.3c-0.4,0.5-1.1,1.6-1.1,1.6s-1.2-0.6-1.7-1c-0.6-0.5-1-1.1-1.4-1.8
	c-0.3-0.7-0.5-1.4-0.6-2.1c-0.1-1-0.1-2,0-3c0.2-0.9,0.5-1.8,0.9-2.5c0.8-1.3,1.7-2.5,2.9-3.4c1.2-1,2.8-1.6,4.3-2
	c1.3-0.3,2.8-0.3,4.2-0.1c1.3,0.2,2.6,0.7,3.8,1.4c1,0.6,1.8,1.5,2.4,2.4c0.4,0.6,0.8,1.3,1,2.1c0.3,1.4,0.2,3-0.2,4.4
	c-0.4,1.1-1.1,2.2-2,2.9c-0.6,0.4-1.4,0.5-2.2,0.5c-0.7,0-1.5-0.3-2.1-0.7c-0.4-0.3-0.9-1.1-0.9-1.1s1.7-0.3,2.2-1s0.6-1.6,0.5-2.4
	c-0.1-0.5-0.3-1-0.6-1.4c-0.6-0.8-1.4-1.4-2.3-1.7c-0.8-0.3-1.7-0.4-2.5-0.2c-0.7,0.2-1.3,0.6-1.8,1.1c-0.4,0.4-0.8,0.9-0.9,1.5
	c-0.1,0.6-0.1,1.2,0.2,1.7c0.3,0.4,1.3,0.6,1.3,0.6L8.1,129.3z"/>
<path id="path4584" class="st11" d="M143.3,86.9c-2.3,7.1-0.8,9-0.8,12.4c3.8,33.9-25.7,44.9-52.2,57.2c-1.1,0.4-21.8,6.3-32.2,6.5
	c-10.4-0.9-15.9-2.5-15.3-2.4c0,0,1.4-0.4,1.7-0.4l-6.8-12.6c0,0,16.6,1.3,24.5-0.7c23.3-5.9,38.2-10.2,48.9-24.7
	c6.2-8.4,7-28.3,5.1-33.5C125.3,87.2,143.5,85.2,143.3,86.9L143.3,86.9z"/>
<path id="path4980" class="st4" d="M96.1,101.7c0.2,0,3.8,4,4.9,6.6c0.9,2.3,1.8,4.9,2.3,7.4c0.3,1.8,0.4,3.6,0.4,5.4
	c0,2.2-0.2,4.3-0.6,6.5c-0.3,1.9-0.6,3.8-1.1,5.6c-0.6,2-1.4,4-2.2,5.9c-0.9,2.2-1.8,4.3-2.8,6.4c-0.8,1.7-2.5,5.1-2.5,5.1
	c-1.5,3.2-2.5,5.4-2.5,9c0,0,0.1,1.4,0.6,1.9c0.4,0.4,1.2,0.3,1.8,0.4c0.7,0.2,1.4,0.4,1.9,0.9c0.6,0.5,1,1.3,1.1,2
	c0.2,1,0,2.1-0.3,3c-0.3,0.7-0.7,1.4-1.4,1.8c-2.1,0.6-4.3,0.6-6.5,0.6s-3.9-0.2-6.7-0.7c-0.9-0.4-1.7-0.5-2.4-1.5
	c-0.2-0.8-0.3-1.5-0.3-2.3c0-1-0.2-2.1-0.3-3.2c-0.1-1.4-0.3-2.8-0.4-4.2c-0.3-2.1-0.6-4.2-1.1-6.3s-1.3-4.1-2-6.1
	c-0.7-1.8-1.6-3.5-2.3-5.3c-0.6-1.4-1.2-2.7-1.8-4.1c-0.7-1.7-1.3-3.4-1.9-5.2c-0.6-2.1-1-4.3-1.5-6.5c-0.3-1.4-0.7-2.9-0.7-4.3
	s0.1-2.8,0.6-4.1c0.2-0.5,0.9-1.4,0.9-1.4l-0.1,0.2"/>
<path id="path4998" class="st4" d="M26.4,137.5l4.7-0.9c0,0,3.6-0.2,5.2,0.3c4.3,1.3,6.5,2.5,10.8,6.7c1.4,1.6,2.6,3.1,3.9,4.9
	c0,0,1,1.8,1.4,2.7s0.8,1.8,1,2.7c0.1,0.9,0.1,1.9-0.1,2.8c-0.2,0.8-1.3,1.5-1.1,2.3c0.1,0.3,0.2,0.4,0.8,0.8c0.6,0.3,1.9,0.6,2.8,1
	c0.9,0.4,1.7,0.9,2.2,1.6c0.3,0.4,0.4,0.9,0.4,1.4c0,0.6-0.3,1.2-0.3,1.8s0.2,1.2,0.3,1.9c-1.2-0.2-4-0.4-4-0.4l-5.4-0.4l-6.3-0.4
	l-5.7-0.6l-10.6-1l-5.7-0.2l-5.4-0.3c0,0-2.9-0.3-3.6-0.7c-0.3-0.7-0.8-1.3-1-2c-0.2-0.8,0.1-2.4,0.1-2.4s-1-0.6-1.5-0.9
	c-1.3-0.7-3.9-1.9-3.9-1.9"/>
<path id="path1481-7" class="st12" d="M126.6,85.9c1.1-0.7,1.7-0.3,2,0.1c-1.1,1.7-0.4,3.4-0.2,4.2c0.1,0.2,0.5,0.3,0.5,0.3
	s-1,0.3-2.1-0.1C126.5,89.8,125.6,88,126.6,85.9L126.6,85.9z"/>
<path id="path4976" class="st13" d="M142.8,83.2c-1.9,0.4-3.5,0.8-5.2,1.2c-2.5,0.5-5,1-7.6,1.2c-1.8,0.2-3.6,0.3-5.3,0.2
	c-2.5-0.1-5.1-0.4-7.5-1.1c-3.7-1-7.3-2.4-10.8-4.1c-3-1.5-5.9-3.4-8.6-5.3c-2.6-1.8-5-3.7-7.3-5.8c-1.7-1.4-3.2-3-4.7-4.6
	c-1.6-1.7-3-3.3-4.5-5.1c-1.3-1.6-2.7-3.2-3.9-4.9c-1.7-2.2-3.7-4.3-4.9-6.9c-0.4-0.8-0.7-1.7-0.7-2.5c0-0.5,0.1-1.1,0.2-1.6
	c0-0.4,0.1-1.1,0.1-1.1S71.3,43.5,71,44c-0.2,0.4-0.3,0.9-0.5,1.4c-0.2,0.6-0.4,1.1-0.7,1.7c-0.2,0.6-0.5,1.1-0.7,1.7
	c-0.2,0.5-0.4,1.6-0.4,1.6s0.7,0.9,1,1.4c0.9,1.4,1.8,2.8,2.7,4.1c1.2,1.6,2.4,3.2,3.7,4.7c1.6,1.9,3.3,3.7,5,5.5s3.4,3.6,5.2,5.2
	c2.4,2.2,4.8,4.2,7.4,6.2c2.1,1.6,4.4,3.1,6.6,4.5c2.5,1.5,4.9,3,7.6,4.1c2.4,1,4.8,1.8,7.3,2.3c3,0.7,6.2,0.9,9.3,1
	c2,0.1,4.1,0,6.1-0.2c3.1-0.3,6.3-0.9,9.4-1.5c1.1-0.2,3.4-0.8,3.4-0.8c-0.3,0.1,0.8-0.8,0.9-1.5c0.1-0.7,0.8-1,1.2-2
	c0.2-0.6,0.2-1.1,0.2-1.1C144.4,82.7,144.1,82.9,142.8,83.2z"/>
<path id="path5509" class="st11" d="M86.9,10c3-1.9,11-7,12.7-7.7c-1,1.3-10.5,6.9-9.6,10.2L86.9,10z"/>
<path id="path1153" class="st10" d="M84.4,20.3c-0.1,1.1-6.9-0.2-8.9,18.9c-0.1,1.3-1.7,3.9-1.7,3.9s-7.1-6.2-9.6-9.7
	c-2-2.9-3.4-5.8-4.9-9.1c-2.6-5.9,2.2-8.9,5.7-11.2C80.7,2.7,90.7,13,90.7,13"/>
<path id="path1153-6" class="st14" d="M89.2,14.5c-12.8-9.2-24.3-0.2-30.3,4.3c0.9-2.8,3.8-4.6,6.1-6.1c15.7-10.4,25.7-0.1,25.7-0.1
	"/>
<path id="rect4692" class="st15" d="M142.3,34.7c-1.3-0.1-4.2-1.1-5.4-0.8c-0.7,1.5-0.4,3.2-1.1,5.4c-3.2,5.7-2.7,9.7-2.6,13.5
	c0.1,3.2,3.6,1.8,4,4.5c0.2,1.4,6,0.4,9.5-1.8c1.1-0.7,2.7-2.8,3.4-5.2c0.7-2.3,0.3-5.2-0.2-7.3C149.1,39.4,146.1,35.1,142.3,34.7
	L142.3,34.7z"/>
<path id="rect4692-4" class="st15" d="M103.9,31.6c-3.2,0.7-6.4,2.5-8.9,4.5c-3.4,2.7-5.5,4.3-7.8,8.2c-2.9,4.8,4.4,7.4,6.9,9
	c3.8,2.3,10.4,4.1,15.7,4c0,0,7.1,0.6,12.9-4c2.2-1.7-5-10.2-6.6-11.9c-1.1-1.2-3.6-5.5-7.4-7.8c1.2-0.8,1.6-1,4.1-1.3
	C111.1,30.7,104.6,31.5,103.9,31.6L103.9,31.6z"/>
<path id="rect4692-4-0" class="st16" d="M104.7,34.8c-2.6-0.3-5,1.7-7,3.2c-2.6,2.1-4.2,3.3-6,6.3c-2.2,3.6,3.4,5.7,5.3,6.9
	c2.9,1.8,8,3.1,12,3.1c0,0,5.4,0.4,9.9-3.1c1.7-1.3-3.8-7.8-5.1-9.2C112.8,40.8,108.6,35.2,104.7,34.8L104.7,34.8z"/>
<path id="rect4692-4-0-9" class="st17" d="M108,54.2c0,0,6.4,0.4,10.9-3.1c1.7-1.3-3.8-7.8-5.1-9.2C107.8,42.7,102.6,50.2,108,54.2
	L108,54.2z"/>
<ellipse id="path5589-4" class="st18" cx="107.4" cy="49.7" rx="1" ry="1"/>
<path id="rect4692-4-0-9-0" class="st19" d="M110.6,54.2c1.1-0.1,5.2-0.3,8.3-2.9c1.8-1.5-3.2-7.3-4.5-8.7c-3.8,0.5-7.1,4.1-7.6,6.5
	c1.9-0.5,1.2,2.2,0,1.1c0.1,0.9,0.8,2.9,2.4,4C109,54.3,110,54.3,110.6,54.2L110.6,54.2z"/>
<path id="rect4692-4-0-8" class="st20" d="M104.7,34.8c-2.1-0.3-3.9,0.8-5.9,2.3c-2.6,2.1-4.3,3.2-6.3,6c9.4,5.8,16.9,5.9,25.9,4.6
	c-1.5-2.5-3.8-5-4.4-5.7C113.3,41,108.5,35.3,104.7,34.8L104.7,34.8z"/>
<path id="rect4692-9" class="st16" d="M142.3,37.5c-2.2-0.2-4.2,1.8-5.3,3.8c-2.6,4.6-2.2,8-2.1,11.1c0.1,2.6-0.3,2.6,0.6,3.3
	c2.8,2.1,9.1,0.4,10.5-1.1c0.7-0.8,2.2-2.3,2.8-4.2s0.2-4.3-0.2-6C147.8,41.3,145.4,37.8,142.3,37.5z"/>
<path id="rect4692-9-5" class="st17" d="M143.3,56.3c1.1-0.8,2.2-1.7,2.8-2.3c0.7-0.8,2.5-1.8,3.1-3.8c0.6-1.9,0.2-4.3-0.2-6
	C138.3,44.9,139,55.2,143.3,56.3z"/>
<ellipse id="path5589" class="st18" cx="142.6" cy="53.3" rx="1" ry="1"/>
<path id="rect4692-9-5-9" class="st19" d="M143.8,56c0.9-0.6,1.1-0.7,1.9-1.3c0.8-0.6,2.8-2.3,3.4-4.2c0.4-1.5,0.4-3.6,0.1-5.2
	c-5.9-0.4-8.1,4.1-7.5,7.4c0.9-0.5,2.2,0.8,0.4,1.4C142.7,55.2,142.9,55.4,143.8,56z"/>
<path id="rect4692-9-7" class="st20" d="M142.5,37.4c-2.3-0.2-4.4,1.8-5.6,3.8c-1.3,2.2-2,5.4-2.2,7.2c5.5,1.4,8.1,1.9,14.9,0.5
	c0.2-1.6-0.1-3.3-0.4-4.6C148.3,41.3,145.7,37.7,142.5,37.4z"/>
<polygon id="path4951" class="st19" points="132.6,65.8 132.6,65.8 132.6,65.8 132.6,65.8 "/>
<path id="path904" class="st21" d="M132.7,69.8c1-1.1,1.5-2.4,1.2-3.1c-0.4-1-2-1.9-3.1-1.7c-0.8,0.1-1.8,0.9-2.1,1.6
	c-0.3,0.6-0.3,0.6,0.1,1.3c0.7,1.4,2,2.6,3,2.6C132,70.5,132.3,70.3,132.7,69.8L132.7,69.8z"/>
<path id="path5563-2" class="st22" d="M131.6,40.1c0,0,1.2,0.6,1.1,0.1c-0.1-1.4-2.3-3.8,1.3-7.5c1.2-1.3-1.1-0.1-0.7-0.6
	C131.5,33.3,130.8,38,131.6,40.1z"/>
<path id="path5563-2-3" class="st22" d="M123,38.3c0,0-1.2,0.6-1.1,0.1c0.1-1.4,2.3-3.8-1.3-7.5c-1.2-1.3,1.1-0.1,0.7-0.6
	C123.2,31.6,123.9,36.2,123,38.3z"/>
<path id="path5563" class="st23" d="M131.9,26.4c0,0,0.7-1.6,0.2-1.5c-1.6,0.5-3.7,4.1-8.7-0.1c-1.7-1.4,0.2,1.6-0.4,1
	C126.9,29.3,129.8,28,131.9,26.4z"/>
<path id="path5563-5" class="st22" d="M126.6,21.5c0,0-0.5-2.2-4.7-5.7c-0.3,0.5,5.2,6.5,2.4,5.8c-1.5-0.3-1,0.9-0.8,0.5
	C126.2,22.5,126.8,21.7,126.6,21.5z"/>
<path id="path5561" class="st24" d="M111.9,21.7c-2.1-2-3.9-3-8.3-2.5c-3.9,0.4-3.8,0.3-9,3.9c-5.3,3.7-7.4,9-7.8,10
	c0,0.7-0.4,4.6,1,0.6c1.5-4,2.4-1.4,3.6-3.1c1.2-1.7,3.9-6.3,4.8-7.1c1-0.8,3-1.6,4.9-2.1c1.9-0.4,4.6-0.4,5.8-0.2
	c1.6,0.2,4,2.1,5.3,2C112.9,23,112.3,22,111.9,21.7L111.9,21.7z"/>
<path id="path5563-2-3-1" class="st22" d="M152.6,34.1c0,0-0.6,2.1-1.1,1.5c-1.5-2-1.7-7.6-9.8-8.2c-2.8-0.2,1.1-1.4,0.1-1.4
	C145.3,25.1,151.2,30.4,152.6,34.1L152.6,34.1z"/>
<path id="path1174" class="st15" d="M112.9,57.1c3.1-0.4,6.2-1.4,8.5-3c1.1-0.7,1.5-1,1.6-1.4c0.2-0.6-0.1-1.9-0.9-3.2
	c-1-1.9-3.2-4.9-5.5-7.5c-0.5-0.6-1.3-1.6-1.8-2.2c-1.9-2.6-3.6-4.3-5.1-5.5c-0.5-0.3-0.9-0.7-1-0.7s-0.1-0.1-0.1-0.1
	c0-0.1,1.1-0.7,1.6-0.9c0.4-0.2,1.8-0.4,2.1-0.4c0.7,0-0.2-0.4-1.3-0.7c-0.7-0.1-1-0.2-3-0.2c-2.6,0-3.8,0.1-5.3,0.6
	c-2.9,0.9-5.4,2.3-8.7,4.9c-3.2,2.6-5,4.4-6.5,6.9c-0.8,1.3-0.9,1.7-0.9,2.7c0,0.8,0,0.9,0.3,1.5c0.7,1.4,2.1,2.5,5,4.1
	c0.6,0.3,1.6,0.9,2.3,1.2c3.4,1.9,7.4,3.2,11.9,3.8C107.6,57.2,111.7,57.3,112.9,57.1L112.9,57.1z M106.1,54.1
	c-2.9-0.4-5.8-1.2-8-2.3c-1.8-0.9-3.8-2-4.6-2.5c-0.9-0.6-1.6-1.3-2-2c-0.3-0.5-0.3-0.6-0.3-1.3s0-0.8,0.3-1.3
	c0.7-1.3,1.9-2.9,3.2-4.2c1-1,1.3-1.2,3.3-2.8c1.8-1.4,2.5-1.9,3.4-2.3c2.2-1,4-0.9,6.4,0.7c2.3,1.5,5.2,4.4,8.4,8.6
	c1.5,1.9,2.6,3.7,2.9,4.9c0.1,0.5,0.1,1.2-0.1,1.5c-0.3,0.6-2.4,1.8-4,2.3c-1,0.3-2.5,0.7-3.7,0.8C110.2,54.3,107.5,54.3,106.1,54.1
	L106.1,54.1z"/>
<path id="path1499-0" class="st12" d="M128.2,90.2c-0.2,0-0.6,0-0.6,0s-0.3,0.7-0.3,1.2c0,0.3,0.4,1.1,0.4,1.1s0.3-0.1,0.4-0.2
	c-0.1-0.6-0.3-0.8-0.3-1.3C127.8,90.8,128,90.6,128.2,90.2L128.2,90.2z"/>
<g class="st25">
	<path class="st26" d="M121.5,98.8c0.1,1.5,0,2.7-0.5,3.7c-0.4,1-1.1,1.6-1.9,1.9l0.1,2.4l-2.3,0.6l-0.6-5.7
		c-0.2-1.5-0.4-3.5-0.6-6.1c0.4-0.3,1.1-0.5,1.9-0.8c1-0.3,1.9-0.1,2.6,0.5C120.9,96,121.3,97.1,121.5,98.8z M119.8,100.6
		c-0.1-0.8-0.4-1.1-0.9-1c-0.1,0-0.1,0-0.2,0.1l0.2,2.7C119.6,102.1,119.9,101.5,119.8,100.6z"/>
</g>
<g class="st25">
	<path class="st27" d="M121.5,98.8c0.1,1.5,0,2.7-0.5,3.7c-0.4,1-1.1,1.6-1.9,1.9l0.1,2.4l-2.3,0.6l-0.6-5.7
		c-0.2-1.5-0.4-3.5-0.6-6.1c0.4-0.3,1.1-0.5,1.9-0.8c1-0.3,1.9-0.1,2.6,0.5C120.9,96,121.3,97.1,121.5,98.8z M119.8,100.6
		c-0.1-0.8-0.4-1.1-0.9-1c-0.1,0-0.1,0-0.2,0.1l0.2,2.7C119.6,102.1,119.9,101.5,119.8,100.6z"/>
</g>
<g class="st25">
	<path class="st26" d="M124.7,97.8l0.2,3.2c0.1,0.9,0.1,2.3,0.3,4.1c-0.4,0.4-0.9,0.7-1.3,0.8c-0.6,0.2-1,0.1-1.4-0.3
		c-0.3-0.3-0.5-0.8-0.7-1.5c-0.1-0.4-0.2-1.2-0.4-2.3c-0.1-1.1-0.2-2-0.3-2.9l1.7-0.5c0,0.4,0.1,1.1,0.1,2.1c0,0.5,0.1,1.3,0.2,2.3
		c0.1,0.7,0.1,1.2,0.2,1.5c0.1,0.3,0.2,0.4,0.5,0.3c0.1,0,0.1-0.1,0.2-0.2c-0.1-0.7-0.1-1.7-0.3-3.2c-0.1-0.7-0.2-1.7-0.3-3
		L124.7,97.8z"/>
</g>
<g class="st25">
	<path class="st28" d="M124.7,97.8l0.2,3.2c0.1,0.9,0.1,2.3,0.3,4.1c-0.4,0.4-0.9,0.7-1.3,0.8c-0.6,0.2-1,0.1-1.4-0.3
		c-0.3-0.3-0.5-0.8-0.7-1.5c-0.1-0.4-0.2-1.2-0.4-2.3c-0.1-1.1-0.2-2-0.3-2.9l1.7-0.5c0,0.4,0.1,1.1,0.1,2.1c0,0.5,0.1,1.3,0.2,2.3
		c0.1,0.7,0.1,1.2,0.2,1.5c0.1,0.3,0.2,0.4,0.5,0.3c0.1,0,0.1-0.1,0.2-0.2c-0.1-0.7-0.1-1.7-0.3-3.2c-0.1-0.7-0.2-1.7-0.3-3
		L124.7,97.8z"/>
</g>
<g class="st25">
	<path class="st26" d="M127.7,101.5c0,0.3,0,0.8,0,1.6c0,0.5,0,1,0.1,1.6c-0.2,0.2-0.6,0.3-1,0.5c-0.7,0.2-1.2,0-1.7-0.4
		c-0.5-0.5-0.9-1.5-1-2.8c-0.1-1.3,0-2.3,0.4-3.1c0.4-0.8,0.9-1.2,1.5-1.4c0.2-0.1,0.5-0.1,0.8-0.1l0.4,3c-0.1-0.1-0.3,0-0.5,0
		c-0.3,0.1-0.5,0.3-0.7,0.7c-0.2,0.4-0.3,0.9-0.3,1.4c0,0.5,0.2,0.9,0.4,1.1c0.2,0.2,0.4,0.2,0.6,0.2l-0.1-1c0-0.2-0.1-0.5-0.1-1
		L127.7,101.5z"/>
</g>
<g class="st25">
	<path class="st28" d="M127.7,101.5c0,0.3,0,0.8,0,1.6c0,0.5,0,1,0.1,1.6c-0.2,0.2-0.6,0.3-1,0.5c-0.7,0.2-1.2,0-1.7-0.4
		c-0.5-0.5-0.9-1.5-1-2.8c-0.1-1.3,0-2.3,0.4-3.1c0.4-0.8,0.9-1.2,1.5-1.4c0.2-0.1,0.5-0.1,0.8-0.1l0.4,3c-0.1-0.1-0.3,0-0.5,0
		c-0.3,0.1-0.5,0.3-0.7,0.7c-0.2,0.4-0.3,0.9-0.3,1.4c0,0.5,0.2,0.9,0.4,1.1c0.2,0.2,0.4,0.2,0.6,0.2l-0.1-1c0-0.2-0.1-0.5-0.1-1
		L127.7,101.5z"/>
</g>
<g class="st25">
	<path class="st26" d="M132,95c0.1,0.9,0,1.8-0.2,2.5c-0.2,0.6-0.4,1.1-0.7,1.4c0.2,0.1,0.4,0.3,0.5,0.6c0.1,0.3,0.2,0.7,0.3,1.1
		c0.1,1-0.2,1.8-0.7,2.4c-0.4,0.5-1,0.8-1.7,1c-0.6,0.2-1.3,0.2-2,0.3c-0.1-1.2-0.3-3.2-0.6-5.9c-0.2-1.5-0.4-3.4-0.7-6
		c0.5-0.3,1.2-0.6,2-0.8C130.5,91,131.8,92.1,132,95z M130.4,96.9c0-0.4-0.1-0.7-0.3-0.8c-0.2-0.1-0.4-0.2-0.6-0.1l0.1,2.4
		C130.2,98.1,130.5,97.7,130.4,96.9z M130.6,100.6c0-0.6-0.3-0.8-0.8-0.7c0,0-0.1,0-0.1,0.1l0.1,1.9
		C130.4,101.7,130.6,101.3,130.6,100.6z"/>
</g>
<g class="st25">
	<path class="st28" d="M132,95c0.1,0.9,0,1.8-0.2,2.5c-0.2,0.6-0.4,1.1-0.7,1.4c0.2,0.1,0.4,0.3,0.5,0.6c0.1,0.3,0.2,0.7,0.3,1.1
		c0.1,1-0.2,1.8-0.7,2.4c-0.4,0.5-1,0.8-1.7,1c-0.6,0.2-1.3,0.2-2,0.3c-0.1-1.2-0.3-3.2-0.6-5.9c-0.2-1.5-0.4-3.4-0.7-6
		c0.5-0.3,1.2-0.6,2-0.8C130.5,91,131.8,92.1,132,95z M130.4,96.9c0-0.4-0.1-0.7-0.3-0.8c-0.2-0.1-0.4-0.2-0.6-0.1l0.1,2.4
		C130.2,98.1,130.5,97.7,130.4,96.9z M130.6,100.6c0-0.6-0.3-0.8-0.8-0.7c0,0-0.1,0-0.1,0.1l0.1,1.9
		C130.4,101.7,130.6,101.3,130.6,100.6z"/>
</g>
<g class="st25">
	<path class="st26" d="M134.5,98.8c0.1,1.1,0,2.1-0.3,3c-0.3,0.9-0.7,1.4-1.2,1.6c-0.5,0.1-1-0.2-1.4-0.9c-0.4-0.7-0.6-1.6-0.7-2.8
		c-0.1-1.2,0-2.2,0.3-3c0.3-0.7,0.7-1.2,1.2-1.3c0.5-0.1,1,0.1,1.3,0.7C134.1,96.7,134.4,97.6,134.5,98.8z M133.3,100
		c-0.1-0.9-0.3-1.3-0.6-1.2c-0.3,0.1-0.4,0.6-0.4,1.5c0,0.4,0.1,0.7,0.2,1c0.1,0.3,0.3,0.5,0.4,0.4c0.1,0,0.2-0.2,0.3-0.6
		C133.3,100.7,133.3,100.4,133.3,100z"/>
</g>
<g class="st25">
	<path class="st28" d="M134.5,98.8c0.1,1.1,0,2.1-0.3,3c-0.3,0.9-0.7,1.4-1.2,1.6c-0.5,0.1-1-0.2-1.4-0.9c-0.4-0.7-0.6-1.6-0.7-2.8
		c-0.1-1.2,0-2.2,0.3-3c0.3-0.7,0.7-1.2,1.2-1.3c0.5-0.1,1,0.1,1.3,0.7C134.1,96.7,134.4,97.6,134.5,98.8z M133.3,100
		c-0.1-0.9-0.3-1.3-0.6-1.2c-0.3,0.1-0.4,0.6-0.4,1.5c0,0.4,0.1,0.7,0.2,1c0.1,0.3,0.3,0.5,0.4,0.4c0.1,0,0.2-0.2,0.3-0.6
		C133.3,100.7,133.3,100.4,133.3,100z"/>
</g>
<g class="st25">
	<path class="st26" d="M136.4,97.6c-0.1,0-0.2,0-0.3,0c-0.1,0-0.2,0.1-0.2,0.2c-0.1,0.1-0.1,0.3-0.1,0.5c0,0.2,0.1,0.4,0.3,0.8
		c0.2,0.4,0.3,0.8,0.3,1.2c0,0.5,0,1-0.2,1.4c-0.2,0.4-0.4,0.6-0.7,0.7c-0.3,0.1-0.5,0.1-0.6,0.1c0-0.1-0.1-0.4-0.1-0.7
		c0-0.2-0.1-0.4-0.2-0.7c0.2,0,0.3,0,0.4,0c0.3-0.1,0.4-0.3,0.3-0.7c0-0.3-0.1-0.5-0.2-0.7c-0.2-0.2-0.4-0.5-0.6-0.7
		c-0.4-0.5-0.6-1.1-0.6-1.8c-0.1-0.8,0.1-1.4,0.3-1.9c0.2-0.4,0.6-0.7,1.1-0.8c0.3-0.1,0.6-0.1,0.9,0L136.4,97.6z"/>
</g>
<g class="st25">
	<path class="st28" d="M136.4,97.6c-0.1,0-0.2,0-0.3,0c-0.1,0-0.2,0.1-0.2,0.2c-0.1,0.1-0.1,0.3-0.1,0.5c0,0.2,0.1,0.4,0.3,0.8
		c0.2,0.4,0.3,0.8,0.3,1.2c0,0.5,0,1-0.2,1.4c-0.2,0.4-0.4,0.6-0.7,0.7c-0.3,0.1-0.5,0.1-0.6,0.1c0-0.1-0.1-0.4-0.1-0.7
		c0-0.2-0.1-0.4-0.2-0.7c0.2,0,0.3,0,0.4,0c0.3-0.1,0.4-0.3,0.3-0.7c0-0.3-0.1-0.5-0.2-0.7c-0.2-0.2-0.4-0.5-0.6-0.7
		c-0.4-0.5-0.6-1.1-0.6-1.8c-0.1-0.8,0.1-1.4,0.3-1.9c0.2-0.4,0.6-0.7,1.1-0.8c0.3-0.1,0.6-0.1,0.9,0L136.4,97.6z"/>
</g>
<g class="st25">
	<path class="st26" d="M138.7,96.7c-0.1,0-0.2,0-0.3,0c-0.1,0-0.2,0.1-0.2,0.2c-0.1,0.1-0.1,0.3-0.1,0.5c0,0.2,0.1,0.4,0.3,0.8
		c0.2,0.4,0.3,0.8,0.3,1.2c0,0.5,0,1-0.2,1.4c-0.2,0.4-0.4,0.6-0.7,0.7c-0.3,0.1-0.5,0.1-0.6,0.1c0-0.1-0.1-0.4-0.1-0.7
		c0-0.2-0.1-0.4-0.2-0.7c0.2,0,0.3,0,0.4,0c0.3-0.1,0.4-0.3,0.3-0.7c0-0.3-0.1-0.5-0.2-0.7c-0.2-0.2-0.4-0.5-0.6-0.7
		c-0.4-0.5-0.6-1.1-0.6-1.8c-0.1-0.8,0.1-1.4,0.3-1.9c0.2-0.4,0.6-0.7,1.1-0.8c0.3-0.1,0.6-0.1,0.9,0L138.7,96.7z"/>
</g>
<g class="st25">
	<path class="st28" d="M138.7,96.7c-0.1,0-0.2,0-0.3,0c-0.1,0-0.2,0.1-0.2,0.2c-0.1,0.1-0.1,0.3-0.1,0.5c0,0.2,0.1,0.4,0.3,0.8
		c0.2,0.4,0.3,0.8,0.3,1.2c0,0.5,0,1-0.2,1.4c-0.2,0.4-0.4,0.6-0.7,0.7c-0.3,0.1-0.5,0.1-0.6,0.1c0-0.1-0.1-0.4-0.1-0.7
		c0-0.2-0.1-0.4-0.2-0.7c0.2,0,0.3,0,0.4,0c0.3-0.1,0.4-0.3,0.3-0.7c0-0.3-0.1-0.5-0.2-0.7c-0.2-0.2-0.4-0.5-0.6-0.7
		c-0.4-0.5-0.6-1.1-0.6-1.8c-0.1-0.8,0.1-1.4,0.3-1.9c0.2-0.4,0.6-0.7,1.1-0.8c0.3-0.1,0.6-0.1,0.9,0L138.7,96.7z"/>
</g>
<path id="path1481" class="st12" d="M129,85.9c-1.1-0.7-2-0.4-2.4,0c1.1,1.7,0.8,3.5,0.6,4.3c-0.1,0.2-0.5,0.3-0.5,0.3
	s1,0.3,2.1-0.1C129,89.8,129.9,88,129,85.9L129,85.9z"/>
<path id="path1499" class="st12" d="M127.9,90.3c0.1-0.4,0.6-0.1,0.6,0c0,0,0.3,0.7,0.3,1.2c0,0.3-0.4,1.1-0.4,1.1s-0.4,0.3-0.4-0.2
	c0.1-0.6,0.3-0.8,0.3-1.3C128.3,90.8,128.2,90.7,127.9,90.3L127.9,90.3z"/>
<path id="path4473" class="st29" d="M85.1,70.1c-7.9-8.3-10.3-9.8-10.3-9.8l-18,11.5l-29.1,33.8c0,0,8.9-7,8.6-5.5s-0.1,0.4,2,6.2
	c0.8-6.2,9.5-17.1,9.5-17.1s2.9,6.3,6.1,6.5c0.8-3.8,5.3-12.4,5.3-12.4l3.8,4.4c0,0,4.7-10.7,9.8-12.6c-0.3,3.1,0.9,8.3,0.9,8.3
	s5.7-11.9,6.9-8.1c0.7,2.4,2.2,4.7,5.9,8C84,76.8,85.1,74.6,85.1,70.1L85.1,70.1z"/>
<path id="path3778" class="st7" d="M68.8,50.3c-1.9,5.7-6,12.5-10.7,18.5c-3.1,4-4.8,5.9-6.9,8.6c-1.9,2.4-12.1,15.9-26.1,30.7
	c0,0,17.6-19.4,16.4-13.8c-0.1,0.4-1.4,4-1.4,4l7.2-12c0,0,5.5,4.6,5.6,3.6s4.6-13.1,4.6-13.1s2.9,6.3,3.7,6S66,68.5,71.4,63.9
	c2.1,4,4,12.2,4,12.2s1.1-6.3,1.6-6.5c0.9-0.5,3.4,1.1,4.5,0.2c-1.3-2.1-1.6-5.1-1.6-5.1C77.7,62.1,76.9,61.4,68.8,50.3L68.8,50.3z"
	/>
<ellipse id="path4542" class="st30" cx="142.1" cy="53.2" rx="0.9" ry="0.8"/>
<path id="path4134" class="st31" d="M142.3,63.1c0,0-5.9-9.1-12.3-11.1c-4.7-1.5-11.6,7.7-13.2,13.6c-1.5,5.5-3.7-13.2,11.8-15.8
	C139.1,50.6,144,63.5,142.3,63.1z"/>
<path id="path4582" class="st32" d="M11.4,125l-2.6,3.4l-1.1,1.4l-0.3,0.5L7,130.9l-1-0.6L5.5,130l-0.4-0.4l-0.4-0.5l-0.4-0.5
	l-0.2-0.3l-0.3-0.6c0,0,3.8-3.1,6.9-3.1c0.3,0.2,0.9,0.2,0.9,0.2L11.4,125z"/>
<path id="path5559" class="st33" d="M80.9,21.1c2-3.5-4.9-5.2-5.3-5.2c-0.3,0-4.5-0.9-3.1,3.9s0,6.4-1.2,6s-5.4-2.4-3.4,2
	s2.6,4.2,2.4,6.3s-0.7,4-0.7,4l-0.3,0.2l2.5,1.8c0,0,4.4-13.5,5.4-14.4C78.2,24.8,79.9,22.8,80.9,21.1L80.9,21.1z"/>
<path id="path5549" class="st20" d="M84.3,20.6c-2,0.9-5,3.8-6.7,8.4c-1.1,3.1-1.2,8-2.3,11.1c-1.1,3.1-2,2.9-2,2.9l-3.8-3.9
	C74.6,34.4,75.9,20.3,84.3,20.6z"/>
<path id="path5644" class="st6" d="M142,13.4c4,2.9,4.6,4.4,4.3,5.1c-1.6-0.6-4.4-1.2-4.4-1.2C145.6,16.9,143.4,15.2,142,13.4
	L142,13.4z"/>
<path id="path5646" class="st34" d="M141.9,17.3c18.4,8.9,13.2,16.3,9.4,25.7C165.3,26.4,145.9,16.9,141.9,17.3z"/>
<path id="path5704" class="st8" d="M25.8,137.4c0.6,0,12.5-6.3,24.2,9.5c4.1,5.1,4,9.5,2.5,11c0,0-1.6,1.2,2.5,2.3
	c4.6,1.7,3.4,4.1,3.4,4.1c-0.6,1.2,0.3,3,0.1,3c-0.9,0.1-33.6-2.9-32.5-2.9c0.2,0-2.3-2,0.8-3c4.3-1.3,14.5-2.2,16.2-5.4
	c1.3-2.4,1-7.1,0.9-7.4C41.8,145.6,41.4,141.2,25.8,137.4L25.8,137.4z"/>
<path id="path5706" class="st8" d="M92.5,161.6c-6.4-1.2-5.4,0.7-7.5,1.3c0,0,11-35.1,0.2-52.2s10.8-9,10.8-9
	c11.6,11.7,7.8,28.1,3.9,37.2C94.4,151.4,90.6,158.1,92.5,161.6z"/>
<path id="path1721" class="st35" d="M142.1,37.7c3.1,3.8,5.2,7.7,5.6,11.4c0,0.1,1.3-0.2,1.3-0.2C149.2,46.4,147.4,38.9,142.1,37.7z
	"/>
<path id="path1721-2" class="st35" d="M104.8,35.1c3.6,3.6,6.5,6.6,7.8,13.2c0,0.1,2.2-0.2,2.8-0.2
	C114.8,45.6,109.9,37.3,104.8,35.1L104.8,35.1z"/>
<path id="path1950" class="st36" d="M118.2,95.9c-0.3,0.2-1.3,0.1-1.6,0.6c-0.4,1.4,0.5,5.4,0.5,5.4s-0.7-3.6-0.1-5.2
	C117.2,96.3,118.2,96.5,118.2,95.9L118.2,95.9z"/>
<path id="path1950-8" class="st36" d="M129.9,93.2c-0.8,0.7-2.3,0-2.6,0.4c-0.4,1.4,0.5,5.4,0.5,5.4s-0.7-3.6-0.1-5.2
	C127.9,93.5,129.4,94.3,129.9,93.2L129.9,93.2z"/>
<path id="rect4692-4-7" class="st15" d="M129.8,51.2c-2-1.3-4.5,1.7-6.3,3.2c-2.5,2.1-4.6,5.9-5.6,8.1c-1.7,3.6-2.1,6.4-1.5,8.8
	c0.5,2,1.5,3.8,2.9,5s3.8,1.8,5.4,2.9c3.5,2.4,3.5,1.2,6.6,1.2c1.9,0,5.4-2.2,7.1-4.3c2.8-3.4,4-6.5,4.5-9.2c0.7-4-2.9-7.6-4.2-8.8
	C134.4,54,134.9,54.6,129.8,51.2L129.8,51.2z"/>
<path id="path4974" class="st19" d="M131.6,56.2c0,2.5,1,4.7,0.3,7c0,0,0.9,0,1.3,0.1c0.3,0.1,0.8,0.2,1,0.4
	c0.6,0.3,1.6,1.3,1.6,1.3s0.3,0.2,0.5,0.3c0.3,0.1,0.6,0.2,0.9,0.2c0.3,0.1,0.6,0.1,1.1,0.1c0.3,0,1-0.2,1-0.2l-0.1-0.3l-0.3-0.8
	c0,0,0.8,0.3,0.9,0.8c0.1,0.2,0.1,0.4,0.1,0.6s-0.1,0.4-0.1,0.8c-0.1,0.1-0.2,0.4-0.2,0.4l0.1-0.8l-0.1-0.1l-0.2,0.1
	c0,0-0.5,0-0.9,0c-0.4,0-1,0-1.4-0.1c-0.3-0.1-0.8-0.2-1.1-0.3c-0.2-0.1-0.4-0.3-0.6-0.4c-0.5-0.3-1.1-0.9-1.7-1.1
	c-0.3-0.1-0.8-0.1-1.2-0.2c-0.3,0-0.6-0.1-0.9-0.1c-0.5,0-1,0.1-1.5,0.3c-0.3,0.1-0.8,0.2-1.1,0.3s-0.4,0.4-0.8,0.6
	c-0.3,0.2-0.9,0.3-1.2,0.4c-0.3,0.1-0.8,0.2-1.1,0.2c-0.4,0.1-0.9,0.1-1.3,0.1c-0.3,0-0.8-0.1-1.1-0.2c-0.2,0-0.4-0.1-0.8-0.2
	c-0.3-0.1-1.1-0.2-1.1-0.2s-0.3,0.3-0.4,0.4c-0.2,0.2-0.3,0.9-0.3,0.9v0.7c0,0-0.4-1.1-0.3-1.6c0.1-0.4,0.3-0.8,0.5-1.1
	c0.1-0.2,0.3-0.4,0.5-0.6c0.2-0.1,0.5-0.3,0.5-0.3c-0.2,0.8-0.4,0.9-0.1,1.2c0,0,1,0.2,1.5,0.3c0.5,0.1,1.1,0.1,1.6,0
	c0.5,0,1-0.1,1.5-0.2c0.4-0.1,0.8-0.2,1.2-0.4c0.4-0.2,0.8-0.5,1.2-0.8c0.3-0.1,0.8-0.2,1.1-0.3c0.3-0.1,0.6-0.2,1-0.2
	c0.1,0,0.4,0,0.4,0c0.5-2.4-0.3-4.6-0.3-7L131.6,56.2z"/>
<path id="path910" class="st19" d="M139,62.3c-0.1-0.9-0.9-2.3-1.6-3c-0.8-0.8-1.8-1.4-2.1-1.2c-0.3,0.1-0.9,1-1.1,1.7
	c-0.2,0.8-0.1,2,0.2,2.2c0.6,0.4,1.9,0.8,3.2,0.9L139,63L139,62.3z"/>
<path id="path912" class="st19" d="M126.2,62.1c0.6-0.1,1.4-0.2,1.8-0.3c0.8-0.2,0.8-0.2,1-0.8c0.2-0.8,0-1.8-0.4-2.6
	c-0.3-0.6-0.3-0.7-1-0.7s-2.7,0.6-2.8,0.9c0,0.1-0.1,0.1-0.2,0.1c-0.7,0-2.6,2.1-2.8,3l-0.1,0.5h1.7
	C124.4,62.2,125.6,62.1,126.2,62.1L126.2,62.1z"/>
<path id="path1180" class="st19" d="M132.2,70.2c0.4-0.3,1.1-1.1,1.4-1.8c0.3-0.7,0.4-1.4,0.2-1.8s-0.9-1-1.5-1.3
	c-0.7-0.3-1.5-0.4-2.1-0.1s-1.2,0.9-1.5,1.4c-0.2,0.4-0.2,0.4-0.1,0.8c0.6,1.4,1.9,2.8,2.9,2.9C131.8,70.4,131.9,70.4,132.2,70.2
	L132.2,70.2z"/>
<path id="path1182" class="st37" d="M131.9,84.4c1-0.1,2.7-0.4,3.7-0.8c1.6-0.6,3-1.3,3.5-2.1c0.4-0.6,0.4-1,0.4-3.4
	c0-2.6,0-2.6,1-3.6c0.3-0.4,0.7-0.8,0.7-0.9c0.1-0.3-0.6-1.4-1.2-2.1l-0.3-0.3l-0.2,0.3c-0.6,0.8-1.9,1.8-2.8,2.2
	c-0.2,0.1-0.7,0.2-1.2,0.2c-1.3,0.1-5.9,0.3-9.2,0.3h-3l-0.4-0.2c-0.4-0.2-1.3-1-1.4-1.3s-1.1,0.9-1.7,2.1l-0.3,0.7l0.2,0.4
	c0.2,0.6,0.8,1.6,1.7,2.9c0.9,1.4,1.1,1.9,1.3,3c0.2,1,0.2,1.2,0.9,1.8c0.5,0.4,1.1,0.7,1.9,0.9C125.9,84.4,130.7,84.5,131.9,84.4
	L131.9,84.4z"/>
<path id="path5702" class="st38" d="M140.2,73.8c-1,1.8-1.3,0.2-1.1,6.2c0.1,1.7-3.4,3.5-4.5,3.4c0-1.5,3-1.7,3.5-2.9
	c0.8-1.8-0.4-4.6,0.9-6.1C139.4,74,140.8,72.8,140.2,73.8z"/>
<path id="path5606" class="st39" d="M133.7,53.8c1.6,1.4,14.6,8.2,6.6,19.2C142,65.3,144.2,64,133.7,53.8z"/>
<path id="rect4692-42" class="st37" d="M129.6,50.6c-1.8,0-3.8,0.5-5.2,1.6c-1.2,0.9-0.5,1.7,1,3c0.9,0.8,2.7,1.8,4.9,2
	c1.1,0.1,2-0.7,2.8-1.2s0.6-0.5,1.4-1.4c0.5-0.5,1.1-1.4,0.3-2C133.4,51.5,131.5,50.7,129.6,50.6L129.6,50.6z"/>
</svg>
