<?xml version="1.0" encoding="UTF-8" standalone="no"?>
<!-- Created with Inkscape (http://www.inkscape.org/) -->

<svg
   xmlns:dc="http://purl.org/dc/elements/1.1/"
   xmlns:cc="http://creativecommons.org/ns#"
   xmlns:rdf="http://www.w3.org/1999/02/22-rdf-syntax-ns#"
   xmlns:svg="http://www.w3.org/2000/svg"
   xmlns="http://www.w3.org/2000/svg"
   xmlns:sodipodi="http://sodipodi.sourceforge.net/DTD/sodipodi-0.dtd"
   xmlns:inkscape="http://www.inkscape.org/namespaces/inkscape"
   width="133.98412mm"
   height="95.291916mm"
   viewBox="0 0 133.98412 95.291916"
   version="1.1"
   id="svg2043"
   sodipodi:docname="logoaba2.svg"
   inkscape:version="0.92.4 (5da689c313, 2019-01-14)">
  <defs
     id="defs2037">
    <clipPath
       clipPathUnits="userSpaceOnUse"
       id="clipPath5288-2">
      <g
         id="use5290-4"
         inkscape:label="Clip">
        <path
           style="fill:#3e0800;fill-opacity:1;stroke:none;stroke-width:0.26458332px;stroke-linecap:butt;stroke-linejoin:miter;stroke-opacity:1"
           d="m 246.95668,118.60771 c 0,0 -5.77171,-3.5675 -10.15624,-4.67723 -5.46247,-1.38256 -13.36348,0.53454 -13.36348,0.53454 l -5.87993,-1.06908 c -6.99531,1.08597 -2.63777,7.17086 -1.46997,9.62171 0.93438,1.96099 -1.73724,6.28083 -1.73724,6.28083 0,0 5.77103,2.57225 15.23434,18.70887 6.0338,0.73197 11.12882,-4.28738 14.78343,-9.19115 2.76042,-3.70393 3.3371,-5.58795 5.20807,-9.81152 0.50796,-4.22763 -0.0259,-5.84325 -2.61898,-10.39697 z"
           id="path6608"
           inkscape:connector-curvature="0"
           sodipodi:nodetypes="csccsccscc" />
        <path
           style="fill:#3e0800;fill-opacity:1;stroke:none;stroke-width:0.26458332px;stroke-linecap:butt;stroke-linejoin:miter;stroke-opacity:1"
           d="m 165.06374,119.61317 c 0,0 5.77171,-3.56749 10.15624,-4.67722 5.46247,-1.38256 13.36348,0.53454 13.36348,0.53454 l 5.87993,-1.06907 c 6.99534,1.08596 2.63778,7.17085 1.46998,9.6217 -0.93439,1.96099 1.73726,6.28084 1.73726,6.28084 0,0 -5.77106,2.57224 -15.23437,18.70887 -6.0338,0.73195 -11.12882,-4.28739 -14.78343,-9.19116 -2.76042,-3.70393 -3.3371,-5.58795 -5.20807,-9.81152 -0.50796,-4.22762 0.0259,-5.84326 2.61898,-10.39698 z"
           id="path6610"
           inkscape:connector-curvature="0"
           sodipodi:nodetypes="csccsccscc" />
        <path
           style="fill:#ffffff;fill-opacity:1;stroke:none;stroke-width:0.26458332px;stroke-linecap:butt;stroke-linejoin:miter;stroke-opacity:1"
           d="m 163.55298,124.369 c 0,0 20.36989,-18.06277 30.04911,3.40178 -3.92793,19.95265 -23.19829,16.78058 -27.78125,6.04763 -3.81613,-8.9371 -2.26786,-9.44941 -2.26786,-9.44941 z"
           id="path6612"
           inkscape:connector-curvature="0"
           sodipodi:nodetypes="ccsc" />
        <ellipse
           id="ellipse6614"
           cx="178.05782"
           cy="-128.3849"
           rx="9.4021578"
           ry="8.6462059"
           style="fill:#3e0800;fill-opacity:1;stroke-width:0.25705269"
           inkscape:transform-center-x="0.56696429"
           inkscape:transform-center-y="4.5357143"
           transform="scale(1,-1)" />
        <path
           style="fill:#ffffff;fill-opacity:1;stroke:none;stroke-width:0.26458332px;stroke-linecap:butt;stroke-linejoin:miter;stroke-opacity:1"
           d="m 248.29821,124.42673 c 0,0 -20.36988,-18.06278 -30.04913,3.40177 3.92794,19.95265 23.19831,16.7806 27.78127,6.04762 3.81613,-8.93708 2.26786,-9.44939 2.26786,-9.44939 z"
           id="path6616"
           inkscape:connector-curvature="0"
           sodipodi:nodetypes="ccsc" />
        <ellipse
           id="ellipse6618"
           cx="-233.79333"
           cy="128.44246"
           rx="9.4021578"
           ry="8.6462059"
           style="fill:#3e0800;fill-opacity:1;stroke:none;stroke-width:0.25705269;stroke-opacity:1"
           inkscape:transform-center-x="-0.5669605"
           inkscape:transform-center-y="-4.5357143"
           transform="scale(-1,1)" />
        <path
           style="opacity:0;fill:none;stroke:#000000;stroke-width:0.26458332px;stroke-linecap:butt;stroke-linejoin:miter;stroke-opacity:1"
           d="m 172.7945,150.41155 27.78125,-25.32441 28.3482,25.32441 -28.15922,11.90625 z"
           id="path6620"
           inkscape:connector-curvature="0" />
        <path
           style="fill:#3e0800;fill-opacity:1;stroke:none;stroke-width:0.26613161px;stroke-linecap:butt;stroke-linejoin:miter;stroke-opacity:1"
           d="m 176.80933,153.33162 c 0,0 13.3224,-25.78553 29.22822,-25.78553 15.90583,0 28.122,21.27261 29.22816,25.78553 -1.62775,4.17903 -16.92132,17.75023 -29.22816,17.62654 -11.92612,-0.11992 -27.01338,-13.79121 -29.22822,-17.62654 z"
           id="path6622"
           inkscape:connector-curvature="0"
           sodipodi:nodetypes="sacss" />
        <ellipse
           id="ellipse6624"
           cx="177.99167"
           cy="-128.67793"
           rx="2.3151042"
           ry="2.0316226"
           style="fill:#ffffff;fill-opacity:1;stroke:none;stroke-width:0.06183045"
           inkscape:transform-center-x="0.1396018"
           inkscape:transform-center-y="1.065763"
           transform="scale(1,-1)" />
        <rect
           style="opacity:0;stroke-width:0.26458332"
           id="rect6626"
           width="125.61668"
           height="24.455177"
           x="139.00496"
           y="114.53506" />
        <path
           style="fill:#3e0800;fill-opacity:1;stroke:none;stroke-width:0.26458332px;stroke-linecap:butt;stroke-linejoin:miter;stroke-opacity:1"
           d="m 163.64747,126.14548 c 18.84346,3.89047 29.62053,2.03694 29.62053,2.03694 0,0 0.43968,-0.97871 0.33409,-1.46998 -0.72025,-3.35092 -5.07384,-7.55076 -6.19747,-8.20476 -1.12363,-0.65399 -6.0609,-4.13912 -13.83075,-1.05159 -7.76985,3.08752 -10.02089,5.85457 -10.02089,5.85457 -0.92918,0.17475 0.0945,2.83482 0.0945,2.83482 z"
           id="path6628"
           inkscape:connector-curvature="0"
           sodipodi:nodetypes="ccassscc" />
        <rect
           y="114.53506"
           x="139.00496"
           height="24.455177"
           width="125.61668"
           id="rect6630"
           style="opacity:0;fill:#000080;stroke-width:0.26458332" />
        <path
           style="fill:#3e0800;fill-opacity:1;stroke:none;stroke-width:0.29527661px;stroke-linecap:butt;stroke-linejoin:miter;stroke-opacity:1"
           d="m 186.94199,88.018194 c 0,0 -14.96868,1.79525 -26.2365,21.519716 -1.5835,2.77194 0.39848,10.77807 -6.71528,10.6959 -7.14347,-0.0826 -10.18904,-8.92599 -10.18904,-8.92599 0,0 -6.79413,-10.57901 -4.11897,-15.697416 2.58001,-4.93633 9.94599,-9.39466 18.42698,-12.51689 5.66772,-2.08654 13.1129,-4.24002 20.16129,-3.59091 3.66453,0.33747 6.66791,1.98794 8.23795,3.59091 1.46,1.49062 0.43357,4.92468 0.43357,4.92468 z"
           id="path6632"
           inkscape:connector-curvature="0"
           sodipodi:nodetypes="csscssssc" />
        <path
           style="fill:#440000;fill-opacity:1;stroke:#ffffff;stroke-width:0.67200005;stroke-linecap:butt;stroke-linejoin:miter;stroke-miterlimit:4;stroke-dasharray:none;stroke-opacity:1"
           d="m 214.28785,133.79302 c 0,0 -3.76565,6.7139 -8.26152,6.7139 -4.49588,0 -7.94883,-5.53888 -8.26153,-6.7139 0.46012,-1.08812 4.78292,-4.62172 8.26153,-4.58951 3.37098,0.0312 7.63548,3.59089 8.26152,4.58951 z"
           id="path6634"
           inkscape:connector-curvature="0"
           sodipodi:nodetypes="sacss" />
        <path
           style="fill:#ffffff;fill-opacity:1;stroke:none;stroke-width:0.26813835;stroke-linecap:butt;stroke-linejoin:miter;stroke-miterlimit:4;stroke-dasharray:none;stroke-opacity:1"
           d="m 211.82594,137.54495 c 0,0 -2.58432,-0.38507 -3.03128,-2.61652 -0.29714,-2.39283 1.87951,-1.41242 2.26847,-0.43855 0.25793,0.64582 -1.29025,0.59032 -1.24967,1.1564 0.0678,0.94622 2.01248,1.89867 2.01248,1.89867 z"
           id="path6636"
           inkscape:connector-curvature="0"
           sodipodi:nodetypes="ccssc" />
        <path
           style="fill:none;stroke:#ffffff;stroke-width:0.76499999;stroke-linecap:butt;stroke-linejoin:miter;stroke-miterlimit:4;stroke-dasharray:none;stroke-opacity:1"
           d="m 218.57587,153.51319 c 0,0 -15.0339,2.2718 -25.52423,-1.33634 0.73499,-1.1359 -0.46773,0.20045 0.26726,-2.47224 -0.44006,2.10882 -2.72264,4.49363 -2.80633,4.40994 0,0 1.67044,-1.26953 0,0 l 2.07134,-1.73725 c 9.12429,4.12513 25.99196,1.13589 25.99196,1.13589 z"
           id="path6638"
           inkscape:connector-curvature="0"
           sodipodi:nodetypes="ccccccc" />
        <path
           style="fill:#fffffb;fill-opacity:1;stroke:none;stroke-width:0.26458332px;stroke-linecap:butt;stroke-linejoin:miter;stroke-opacity:1"
           d="m 192.31449,142.99389 9.6217,2.40542 11.35896,-1.46998 5.87993,-1.60363 3.87541,5.7463 -4.54359,0.53454 0.93544,1.33634 -8.01808,-2.00452 0.66818,1.33636 -8.419,-0.80182 0.53454,0.93545 -3.34087,-1.73726 -2.93996,1.87089 0.66817,-1.87089 -4.54358,1.20272 0.53454,-2.2718 -3.87541,3.14043 -0.4009,-3.54133 -2.53906,2.80633 2.00452,-4.14268 z"
           id="path6640"
           inkscape:connector-curvature="0" />
        <path
           style="fill:#3e0800;fill-opacity:1;stroke:none;stroke-width:0.286899px;stroke-linecap:butt;stroke-linejoin:miter;stroke-opacity:1"
           d="m 176.56052,152.7185 2.28077,8.23696 -0.15089,-3.20564 4.08104,5.74343 0.79236,-2.27067 5.19411,7.07911 0.62251,-2.13709 8.96075,5.60986 3.30133,-0.66784 4.87339,3.07208 7.70311,-3.33922 6.28823,-4.67488 -0.15721,2.80493 7.8603,-6.01056 -0.94324,2.93849 3.77296,-6.6784 1.72926,3.60634 2.43194,-9.04911 c -13.27218,14.8564 -34.35743,27.38171 -58.64072,-1.05779 z"
           id="path6642"
           inkscape:connector-curvature="0"
           sodipodi:nodetypes="ccccccccccccccccccc" />
        <path
           style="fill:#3e0800;fill-opacity:1;stroke:none;stroke-width:0.29527661px;stroke-linecap:butt;stroke-linejoin:miter;stroke-opacity:1"
           d="m 225.10542,87.520034 c 0,0 14.96869,1.79525 26.23651,21.519696 1.5835,2.77196 -0.39848,10.77808 6.71527,10.6959 7.14348,-0.0826 10.18904,-8.92597 10.18904,-8.92597 0,0 6.79414,-10.57901 4.11898,-15.697416 -2.58001,-4.93633 -9.946,-9.39466 -18.42699,-12.51689 -5.66772,-2.08654 -13.11289,-4.24002 -20.16128,-3.59091 -3.66453,0.33747 -6.6679,1.98794 -8.23794,3.59091 -1.46002,1.49062 -0.43359,4.92468 -0.43359,4.92468 z"
           id="path6644"
           inkscape:connector-curvature="0"
           sodipodi:nodetypes="csscssssc" />
        <ellipse
           id="ellipse6646"
           cx="233.64867"
           cy="-128.11096"
           rx="2.3151042"
           ry="2.0316226"
           style="fill:#ffffff;fill-opacity:1;stroke:none;stroke-width:0.06183045"
           inkscape:transform-center-x="0.1396018"
           inkscape:transform-center-y="1.065763"
           transform="scale(1,-1)" />
        <path
           style="fill:#3e0800;fill-opacity:1;stroke:none;stroke-width:0.26458332px;stroke-linecap:butt;stroke-linejoin:miter;stroke-opacity:1"
           d="m 248.39876,125.79156 c -18.84345,3.89047 -29.62051,2.03694 -29.62051,2.03694 0,0 -0.43968,-0.97871 -0.33409,-1.46998 0.72024,-3.35092 5.07383,-7.55076 6.19746,-8.20476 1.12363,-0.65399 6.0609,-4.13912 13.83076,-1.05159 7.76984,3.08752 10.02088,5.85457 10.02088,5.85457 0.92918,0.17475 -0.0945,2.83482 -0.0945,2.83482 z"
           id="path6648"
           inkscape:connector-curvature="0"
           sodipodi:nodetypes="ccassscc" />
        <path
           style="fill:#ffffff;fill-opacity:1;stroke:none;stroke-width:0.26813835;stroke-linecap:butt;stroke-linejoin:miter;stroke-miterlimit:4;stroke-dasharray:none;stroke-opacity:1"
           d="m 199.92126,137.37541 c 0,0 2.58432,-0.38507 3.03128,-2.61652 0.29715,-2.39282 -1.87951,-1.41242 -2.26846,-0.43855 -0.25794,0.64583 1.29025,0.59031 1.24966,1.1564 -0.0678,0.94622 -2.01248,1.89867 -2.01248,1.89867 z"
           id="path6650"
           inkscape:connector-curvature="0"
           sodipodi:nodetypes="ccssc" />
      </g>
    </clipPath>
    <clipPath
       clipPathUnits="userSpaceOnUse"
       id="clipPath6684">
      <g
         inkscape:label="Clip"
         id="use6686">
        <g
           transform="translate(-113.01488,-1.8898833)"
           clip-path="none"
           id="g7624">
          <g
             id="g7622"
             inkscape:label="Clip">
            <path
               style="fill:#3e0800;fill-opacity:1;stroke:none;stroke-width:0.26458332px;stroke-linecap:butt;stroke-linejoin:miter;stroke-opacity:1"
               d="m 246.95668,118.60771 c 0,0 -5.77171,-3.5675 -10.15624,-4.67723 -5.46247,-1.38256 -13.36348,0.53454 -13.36348,0.53454 l -5.87993,-1.06908 c -6.99531,1.08597 -2.63777,7.17086 -1.46997,9.62171 0.93438,1.96099 -1.73724,6.28083 -1.73724,6.28083 0,0 5.77103,2.57225 15.23434,18.70887 6.0338,0.73197 11.12882,-4.28738 14.78343,-9.19115 2.76042,-3.70393 3.3371,-5.58795 5.20807,-9.81152 0.50796,-4.22763 -0.0259,-5.84325 -2.61898,-10.39697 z"
               id="path7578"
               inkscape:connector-curvature="0"
               sodipodi:nodetypes="csccsccscc" />
            <path
               style="fill:#3e0800;fill-opacity:1;stroke:none;stroke-width:0.26458332px;stroke-linecap:butt;stroke-linejoin:miter;stroke-opacity:1"
               d="m 165.06374,119.61317 c 0,0 5.77171,-3.56749 10.15624,-4.67722 5.46247,-1.38256 13.36348,0.53454 13.36348,0.53454 l 5.87993,-1.06907 c 6.99534,1.08596 2.63778,7.17085 1.46998,9.6217 -0.93439,1.96099 1.73726,6.28084 1.73726,6.28084 0,0 -5.77106,2.57224 -15.23437,18.70887 -6.0338,0.73195 -11.12882,-4.28739 -14.78343,-9.19116 -2.76042,-3.70393 -3.3371,-5.58795 -5.20807,-9.81152 -0.50796,-4.22762 0.0259,-5.84326 2.61898,-10.39698 z"
               id="path7580"
               inkscape:connector-curvature="0"
               sodipodi:nodetypes="csccsccscc" />
            <path
               style="fill:#ffffff;fill-opacity:1;stroke:none;stroke-width:0.26458332px;stroke-linecap:butt;stroke-linejoin:miter;stroke-opacity:1"
               d="m 163.55298,124.369 c 0,0 20.36989,-18.06277 30.04911,3.40178 -3.92793,19.95265 -23.19829,16.78058 -27.78125,6.04763 -3.81613,-8.9371 -2.26786,-9.44941 -2.26786,-9.44941 z"
               id="path7582"
               inkscape:connector-curvature="0"
               sodipodi:nodetypes="ccsc" />
            <ellipse
               id="ellipse7584"
               cx="178.05782"
               cy="-128.3849"
               rx="9.4021578"
               ry="8.6462059"
               style="fill:#3e0800;fill-opacity:1;stroke-width:0.25705269"
               inkscape:transform-center-x="0.56696429"
               inkscape:transform-center-y="4.5357143"
               transform="scale(1,-1)" />
            <path
               style="fill:#ffffff;fill-opacity:1;stroke:none;stroke-width:0.26458332px;stroke-linecap:butt;stroke-linejoin:miter;stroke-opacity:1"
               d="m 248.29821,124.42673 c 0,0 -20.36988,-18.06278 -30.04913,3.40177 3.92794,19.95265 23.19831,16.7806 27.78127,6.04762 3.81613,-8.93708 2.26786,-9.44939 2.26786,-9.44939 z"
               id="path7586"
               inkscape:connector-curvature="0"
               sodipodi:nodetypes="ccsc" />
            <ellipse
               id="ellipse7588"
               cx="-233.79333"
               cy="128.44246"
               rx="9.4021578"
               ry="8.6462059"
               style="fill:#3e0800;fill-opacity:1;stroke:none;stroke-width:0.25705269;stroke-opacity:1"
               inkscape:transform-center-x="-0.5669605"
               inkscape:transform-center-y="-4.5357143"
               transform="scale(-1,1)" />
            <path
               style="opacity:0;fill:none;stroke:#000000;stroke-width:0.26458332px;stroke-linecap:butt;stroke-linejoin:miter;stroke-opacity:1"
               d="m 172.7945,150.41155 27.78125,-25.32441 28.3482,25.32441 -28.15922,11.90625 z"
               id="path7590"
               inkscape:connector-curvature="0" />
            <path
               style="fill:#3e0800;fill-opacity:1;stroke:none;stroke-width:0.26613161px;stroke-linecap:butt;stroke-linejoin:miter;stroke-opacity:1"
               d="m 176.80933,153.33162 c 0,0 13.3224,-25.78553 29.22822,-25.78553 15.90583,0 28.122,21.27261 29.22816,25.78553 -1.62775,4.17903 -16.92132,17.75023 -29.22816,17.62654 -11.92612,-0.11992 -27.01338,-13.79121 -29.22822,-17.62654 z"
               id="path7592"
               inkscape:connector-curvature="0"
               sodipodi:nodetypes="sacss" />
            <ellipse
               id="ellipse7594"
               cx="177.99167"
               cy="-128.67793"
               rx="2.3151042"
               ry="2.0316226"
               style="fill:#ffffff;fill-opacity:1;stroke:none;stroke-width:0.06183045"
               inkscape:transform-center-x="0.1396018"
               inkscape:transform-center-y="1.065763"
               transform="scale(1,-1)" />
            <rect
               style="opacity:0;stroke-width:0.26458332"
               id="rect7596"
               width="125.61668"
               height="24.455177"
               x="139.00496"
               y="114.53506" />
            <path
               style="fill:#3e0800;fill-opacity:1;stroke:none;stroke-width:0.26458332px;stroke-linecap:butt;stroke-linejoin:miter;stroke-opacity:1"
               d="m 163.64747,126.14548 c 18.84346,3.89047 29.62053,2.03694 29.62053,2.03694 0,0 0.43968,-0.97871 0.33409,-1.46998 -0.72025,-3.35092 -5.07384,-7.55076 -6.19747,-8.20476 -1.12363,-0.65399 -6.0609,-4.13912 -13.83075,-1.05159 -7.76985,3.08752 -10.02089,5.85457 -10.02089,5.85457 -0.92918,0.17475 0.0945,2.83482 0.0945,2.83482 z"
               id="path7598"
               inkscape:connector-curvature="0"
               sodipodi:nodetypes="ccassscc" />
            <rect
               y="114.53506"
               x="139.00496"
               height="24.455177"
               width="125.61668"
               id="rect7600"
               style="opacity:0;fill:#000080;stroke-width:0.26458332" />
            <path
               style="fill:#3e0800;fill-opacity:1;stroke:none;stroke-width:0.29527661px;stroke-linecap:butt;stroke-linejoin:miter;stroke-opacity:1"
               d="m 186.94199,88.018194 c 0,0 -14.96868,1.79525 -26.2365,21.519716 -1.5835,2.77194 0.39848,10.77807 -6.71528,10.6959 -7.14347,-0.0826 -10.18904,-8.92599 -10.18904,-8.92599 0,0 -6.79413,-10.57901 -4.11897,-15.697416 2.58001,-4.93633 9.94599,-9.39466 18.42698,-12.51689 5.66772,-2.08654 13.1129,-4.24002 20.16129,-3.59091 3.66453,0.33747 6.66791,1.98794 8.23795,3.59091 1.46,1.49062 0.43357,4.92468 0.43357,4.92468 z"
               id="path7602"
               inkscape:connector-curvature="0"
               sodipodi:nodetypes="csscssssc" />
            <path
               style="fill:#440000;fill-opacity:1;stroke:#ffffff;stroke-width:0.67200005;stroke-linecap:butt;stroke-linejoin:miter;stroke-miterlimit:4;stroke-dasharray:none;stroke-opacity:1"
               d="m 214.28785,133.79302 c 0,0 -3.76565,6.7139 -8.26152,6.7139 -4.49588,0 -7.94883,-5.53888 -8.26153,-6.7139 0.46012,-1.08812 4.78292,-4.62172 8.26153,-4.58951 3.37098,0.0312 7.63548,3.59089 8.26152,4.58951 z"
               id="path7604"
               inkscape:connector-curvature="0"
               sodipodi:nodetypes="sacss" />
            <path
               style="fill:#ffffff;fill-opacity:1;stroke:none;stroke-width:0.26813835;stroke-linecap:butt;stroke-linejoin:miter;stroke-miterlimit:4;stroke-dasharray:none;stroke-opacity:1"
               d="m 211.82594,137.54495 c 0,0 -2.58432,-0.38507 -3.03128,-2.61652 -0.29714,-2.39283 1.87951,-1.41242 2.26847,-0.43855 0.25793,0.64582 -1.29025,0.59032 -1.24967,1.1564 0.0678,0.94622 2.01248,1.89867 2.01248,1.89867 z"
               id="path7606"
               inkscape:connector-curvature="0"
               sodipodi:nodetypes="ccssc" />
            <path
               style="fill:none;stroke:#ffffff;stroke-width:0.76499999;stroke-linecap:butt;stroke-linejoin:miter;stroke-miterlimit:4;stroke-dasharray:none;stroke-opacity:1"
               d="m 218.57587,153.51319 c 0,0 -15.0339,2.2718 -25.52423,-1.33634 0.73499,-1.1359 -0.46773,0.20045 0.26726,-2.47224 -0.44006,2.10882 -2.72264,4.49363 -2.80633,4.40994 0,0 1.67044,-1.26953 0,0 l 2.07134,-1.73725 c 9.12429,4.12513 25.99196,1.13589 25.99196,1.13589 z"
               id="path7608"
               inkscape:connector-curvature="0"
               sodipodi:nodetypes="ccccccc" />
            <path
               style="fill:#fffffb;fill-opacity:1;stroke:none;stroke-width:0.26458332px;stroke-linecap:butt;stroke-linejoin:miter;stroke-opacity:1"
               d="m 192.31449,142.99389 9.6217,2.40542 11.35896,-1.46998 5.87993,-1.60363 3.87541,5.7463 -4.54359,0.53454 0.93544,1.33634 -8.01808,-2.00452 0.66818,1.33636 -8.419,-0.80182 0.53454,0.93545 -3.34087,-1.73726 -2.93996,1.87089 0.66817,-1.87089 -4.54358,1.20272 0.53454,-2.2718 -3.87541,3.14043 -0.4009,-3.54133 -2.53906,2.80633 2.00452,-4.14268 z"
               id="path7610"
               inkscape:connector-curvature="0" />
            <path
               style="fill:#3e0800;fill-opacity:1;stroke:none;stroke-width:0.286899px;stroke-linecap:butt;stroke-linejoin:miter;stroke-opacity:1"
               d="m 176.56052,152.7185 2.28077,8.23696 -0.15089,-3.20564 4.08104,5.74343 0.79236,-2.27067 5.19411,7.07911 0.62251,-2.13709 8.96075,5.60986 3.30133,-0.66784 4.87339,3.07208 7.70311,-3.33922 6.28823,-4.67488 -0.15721,2.80493 7.8603,-6.01056 -0.94324,2.93849 3.77296,-6.6784 1.72926,3.60634 2.43194,-9.04911 c -13.27218,14.8564 -34.35743,27.38171 -58.64072,-1.05779 z"
               id="path7612"
               inkscape:connector-curvature="0"
               sodipodi:nodetypes="ccccccccccccccccccc" />
            <path
               style="fill:#3e0800;fill-opacity:1;stroke:none;stroke-width:0.29527661px;stroke-linecap:butt;stroke-linejoin:miter;stroke-opacity:1"
               d="m 225.10542,87.520034 c 0,0 14.96869,1.79525 26.23651,21.519696 1.5835,2.77196 -0.39848,10.77808 6.71527,10.6959 7.14348,-0.0826 10.18904,-8.92597 10.18904,-8.92597 0,0 6.79414,-10.57901 4.11898,-15.697416 -2.58001,-4.93633 -9.946,-9.39466 -18.42699,-12.51689 -5.66772,-2.08654 -13.11289,-4.24002 -20.16128,-3.59091 -3.66453,0.33747 -6.6679,1.98794 -8.23794,3.59091 -1.46002,1.49062 -0.43359,4.92468 -0.43359,4.92468 z"
               id="path7614"
               inkscape:connector-curvature="0"
               sodipodi:nodetypes="csscssssc" />
            <ellipse
               id="ellipse7616"
               cx="233.64867"
               cy="-128.11096"
               rx="2.3151042"
               ry="2.0316226"
               style="fill:#ffffff;fill-opacity:1;stroke:none;stroke-width:0.06183045"
               inkscape:transform-center-x="0.1396018"
               inkscape:transform-center-y="1.065763"
               transform="scale(1,-1)" />
            <path
               style="fill:#3e0800;fill-opacity:1;stroke:none;stroke-width:0.26458332px;stroke-linecap:butt;stroke-linejoin:miter;stroke-opacity:1"
               d="m 248.39876,125.79156 c -18.84345,3.89047 -29.62051,2.03694 -29.62051,2.03694 0,0 -0.43968,-0.97871 -0.33409,-1.46998 0.72024,-3.35092 5.07383,-7.55076 6.19746,-8.20476 1.12363,-0.65399 6.0609,-4.13912 13.83076,-1.05159 7.76984,3.08752 10.02088,5.85457 10.02088,5.85457 0.92918,0.17475 -0.0945,2.83482 -0.0945,2.83482 z"
               id="path7618"
               inkscape:connector-curvature="0"
               sodipodi:nodetypes="ccassscc" />
            <path
               style="fill:#ffffff;fill-opacity:1;stroke:none;stroke-width:0.26813835;stroke-linecap:butt;stroke-linejoin:miter;stroke-miterlimit:4;stroke-dasharray:none;stroke-opacity:1"
               d="m 199.92126,137.37541 c 0,0 2.58432,-0.38507 3.03128,-2.61652 0.29715,-2.39282 -1.87951,-1.41242 -2.26846,-0.43855 -0.25794,0.64583 1.29025,0.59031 1.24966,1.1564 -0.0678,0.94622 -2.01248,1.89867 -2.01248,1.89867 z"
               id="path7620"
               inkscape:connector-curvature="0"
               sodipodi:nodetypes="ccssc" />
          </g>
        </g>
        <g
           transform="translate(-113.01488,-1.8898833)"
           id="use7626"
           inkscape:label="Clip">
          <path
             style="fill:#3e0800;fill-opacity:1;stroke:none;stroke-width:0.26458332px;stroke-linecap:butt;stroke-linejoin:miter;stroke-opacity:1"
             d="m 246.95668,118.60771 c 0,0 -5.77171,-3.5675 -10.15624,-4.67723 -5.46247,-1.38256 -13.36348,0.53454 -13.36348,0.53454 l -5.87993,-1.06908 c -6.99531,1.08597 -2.63777,7.17086 -1.46997,9.62171 0.93438,1.96099 -1.73724,6.28083 -1.73724,6.28083 0,0 5.77103,2.57225 15.23434,18.70887 6.0338,0.73197 11.12882,-4.28738 14.78343,-9.19115 2.76042,-3.70393 3.3371,-5.58795 5.20807,-9.81152 0.50796,-4.22763 -0.0259,-5.84325 -2.61898,-10.39697 z"
             id="path7678"
             inkscape:connector-curvature="0"
             sodipodi:nodetypes="csccsccscc" />
          <path
             style="fill:#3e0800;fill-opacity:1;stroke:none;stroke-width:0.26458332px;stroke-linecap:butt;stroke-linejoin:miter;stroke-opacity:1"
             d="m 165.06374,119.61317 c 0,0 5.77171,-3.56749 10.15624,-4.67722 5.46247,-1.38256 13.36348,0.53454 13.36348,0.53454 l 5.87993,-1.06907 c 6.99534,1.08596 2.63778,7.17085 1.46998,9.6217 -0.93439,1.96099 1.73726,6.28084 1.73726,6.28084 0,0 -5.77106,2.57224 -15.23437,18.70887 -6.0338,0.73195 -11.12882,-4.28739 -14.78343,-9.19116 -2.76042,-3.70393 -3.3371,-5.58795 -5.20807,-9.81152 -0.50796,-4.22762 0.0259,-5.84326 2.61898,-10.39698 z"
             id="path7680"
             inkscape:connector-curvature="0"
             sodipodi:nodetypes="csccsccscc" />
          <path
             style="fill:#ffffff;fill-opacity:1;stroke:none;stroke-width:0.26458332px;stroke-linecap:butt;stroke-linejoin:miter;stroke-opacity:1"
             d="m 163.55298,124.369 c 0,0 20.36989,-18.06277 30.04911,3.40178 -3.92793,19.95265 -23.19829,16.78058 -27.78125,6.04763 -3.81613,-8.9371 -2.26786,-9.44941 -2.26786,-9.44941 z"
             id="path7682"
             inkscape:connector-curvature="0"
             sodipodi:nodetypes="ccsc" />
          <ellipse
             id="ellipse7684"
             cx="178.05782"
             cy="-128.3849"
             rx="9.4021578"
             ry="8.6462059"
             style="fill:#3e0800;fill-opacity:1;stroke-width:0.25705269"
             inkscape:transform-center-x="0.56696429"
             inkscape:transform-center-y="4.5357143"
             transform="scale(1,-1)" />
          <path
             style="fill:#ffffff;fill-opacity:1;stroke:none;stroke-width:0.26458332px;stroke-linecap:butt;stroke-linejoin:miter;stroke-opacity:1"
             d="m 248.29821,124.42673 c 0,0 -20.36988,-18.06278 -30.04913,3.40177 3.92794,19.95265 23.19831,16.7806 27.78127,6.04762 3.81613,-8.93708 2.26786,-9.44939 2.26786,-9.44939 z"
             id="path7686"
             inkscape:connector-curvature="0"
             sodipodi:nodetypes="ccsc" />
          <ellipse
             id="ellipse7688"
             cx="-233.79333"
             cy="128.44246"
             rx="9.4021578"
             ry="8.6462059"
             style="fill:#3e0800;fill-opacity:1;stroke:none;stroke-width:0.25705269;stroke-opacity:1"
             inkscape:transform-center-x="-0.5669605"
             inkscape:transform-center-y="-4.5357143"
             transform="scale(-1,1)" />
          <path
             style="opacity:0;fill:none;stroke:#000000;stroke-width:0.26458332px;stroke-linecap:butt;stroke-linejoin:miter;stroke-opacity:1"
             d="m 172.7945,150.41155 27.78125,-25.32441 28.3482,25.32441 -28.15922,11.90625 z"
             id="path7690"
             inkscape:connector-curvature="0" />
          <path
             style="fill:#3e0800;fill-opacity:1;stroke:none;stroke-width:0.26613161px;stroke-linecap:butt;stroke-linejoin:miter;stroke-opacity:1"
             d="m 176.80933,153.33162 c 0,0 13.3224,-25.78553 29.22822,-25.78553 15.90583,0 28.122,21.27261 29.22816,25.78553 -1.62775,4.17903 -16.92132,17.75023 -29.22816,17.62654 -11.92612,-0.11992 -27.01338,-13.79121 -29.22822,-17.62654 z"
             id="path7692"
             inkscape:connector-curvature="0"
             sodipodi:nodetypes="sacss" />
          <ellipse
             id="ellipse7694"
             cx="177.99167"
             cy="-128.67793"
             rx="2.3151042"
             ry="2.0316226"
             style="fill:#ffffff;fill-opacity:1;stroke:none;stroke-width:0.06183045"
             inkscape:transform-center-x="0.1396018"
             inkscape:transform-center-y="1.065763"
             transform="scale(1,-1)" />
          <rect
             style="opacity:0;stroke-width:0.26458332"
             id="rect7696"
             width="125.61668"
             height="24.455177"
             x="139.00496"
             y="114.53506" />
          <path
             style="fill:#3e0800;fill-opacity:1;stroke:none;stroke-width:0.26458332px;stroke-linecap:butt;stroke-linejoin:miter;stroke-opacity:1"
             d="m 163.64747,126.14548 c 18.84346,3.89047 29.62053,2.03694 29.62053,2.03694 0,0 0.43968,-0.97871 0.33409,-1.46998 -0.72025,-3.35092 -5.07384,-7.55076 -6.19747,-8.20476 -1.12363,-0.65399 -6.0609,-4.13912 -13.83075,-1.05159 -7.76985,3.08752 -10.02089,5.85457 -10.02089,5.85457 -0.92918,0.17475 0.0945,2.83482 0.0945,2.83482 z"
             id="path7698"
             inkscape:connector-curvature="0"
             sodipodi:nodetypes="ccassscc" />
          <rect
             y="114.53506"
             x="139.00496"
             height="24.455177"
             width="125.61668"
             id="rect7700"
             style="opacity:0;fill:#000080;stroke-width:0.26458332" />
          <path
             style="fill:#3e0800;fill-opacity:1;stroke:none;stroke-width:0.29527661px;stroke-linecap:butt;stroke-linejoin:miter;stroke-opacity:1"
             d="m 186.94199,88.018194 c 0,0 -14.96868,1.79525 -26.2365,21.519716 -1.5835,2.77194 0.39848,10.77807 -6.71528,10.6959 -7.14347,-0.0826 -10.18904,-8.92599 -10.18904,-8.92599 0,0 -6.79413,-10.57901 -4.11897,-15.697416 2.58001,-4.93633 9.94599,-9.39466 18.42698,-12.51689 5.66772,-2.08654 13.1129,-4.24002 20.16129,-3.59091 3.66453,0.33747 6.66791,1.98794 8.23795,3.59091 1.46,1.49062 0.43357,4.92468 0.43357,4.92468 z"
             id="path7702"
             inkscape:connector-curvature="0"
             sodipodi:nodetypes="csscssssc" />
          <path
             style="fill:#440000;fill-opacity:1;stroke:#ffffff;stroke-width:0.67200005;stroke-linecap:butt;stroke-linejoin:miter;stroke-miterlimit:4;stroke-dasharray:none;stroke-opacity:1"
             d="m 214.28785,133.79302 c 0,0 -3.76565,6.7139 -8.26152,6.7139 -4.49588,0 -7.94883,-5.53888 -8.26153,-6.7139 0.46012,-1.08812 4.78292,-4.62172 8.26153,-4.58951 3.37098,0.0312 7.63548,3.59089 8.26152,4.58951 z"
             id="path7704"
             inkscape:connector-curvature="0"
             sodipodi:nodetypes="sacss" />
          <path
             style="fill:#ffffff;fill-opacity:1;stroke:none;stroke-width:0.26813835;stroke-linecap:butt;stroke-linejoin:miter;stroke-miterlimit:4;stroke-dasharray:none;stroke-opacity:1"
             d="m 211.82594,137.54495 c 0,0 -2.58432,-0.38507 -3.03128,-2.61652 -0.29714,-2.39283 1.87951,-1.41242 2.26847,-0.43855 0.25793,0.64582 -1.29025,0.59032 -1.24967,1.1564 0.0678,0.94622 2.01248,1.89867 2.01248,1.89867 z"
             id="path7706"
             inkscape:connector-curvature="0"
             sodipodi:nodetypes="ccssc" />
          <path
             style="fill:none;stroke:#ffffff;stroke-width:0.76499999;stroke-linecap:butt;stroke-linejoin:miter;stroke-miterlimit:4;stroke-dasharray:none;stroke-opacity:1"
             d="m 218.57587,153.51319 c 0,0 -15.0339,2.2718 -25.52423,-1.33634 0.73499,-1.1359 -0.46773,0.20045 0.26726,-2.47224 -0.44006,2.10882 -2.72264,4.49363 -2.80633,4.40994 0,0 1.67044,-1.26953 0,0 l 2.07134,-1.73725 c 9.12429,4.12513 25.99196,1.13589 25.99196,1.13589 z"
             id="path7708"
             inkscape:connector-curvature="0"
             sodipodi:nodetypes="ccccccc" />
          <path
             style="fill:#fffffb;fill-opacity:1;stroke:none;stroke-width:0.26458332px;stroke-linecap:butt;stroke-linejoin:miter;stroke-opacity:1"
             d="m 192.31449,142.99389 9.6217,2.40542 11.35896,-1.46998 5.87993,-1.60363 3.87541,5.7463 -4.54359,0.53454 0.93544,1.33634 -8.01808,-2.00452 0.66818,1.33636 -8.419,-0.80182 0.53454,0.93545 -3.34087,-1.73726 -2.93996,1.87089 0.66817,-1.87089 -4.54358,1.20272 0.53454,-2.2718 -3.87541,3.14043 -0.4009,-3.54133 -2.53906,2.80633 2.00452,-4.14268 z"
             id="path7710"
             inkscape:connector-curvature="0" />
          <path
             style="fill:#3e0800;fill-opacity:1;stroke:none;stroke-width:0.286899px;stroke-linecap:butt;stroke-linejoin:miter;stroke-opacity:1"
             d="m 176.56052,152.7185 2.28077,8.23696 -0.15089,-3.20564 4.08104,5.74343 0.79236,-2.27067 5.19411,7.07911 0.62251,-2.13709 8.96075,5.60986 3.30133,-0.66784 4.87339,3.07208 7.70311,-3.33922 6.28823,-4.67488 -0.15721,2.80493 7.8603,-6.01056 -0.94324,2.93849 3.77296,-6.6784 1.72926,3.60634 2.43194,-9.04911 c -13.27218,14.8564 -34.35743,27.38171 -58.64072,-1.05779 z"
             id="path7712"
             inkscape:connector-curvature="0"
             sodipodi:nodetypes="ccccccccccccccccccc" />
          <path
             style="fill:#3e0800;fill-opacity:1;stroke:none;stroke-width:0.29527661px;stroke-linecap:butt;stroke-linejoin:miter;stroke-opacity:1"
             d="m 225.10542,87.520034 c 0,0 14.96869,1.79525 26.23651,21.519696 1.5835,2.77196 -0.39848,10.77808 6.71527,10.6959 7.14348,-0.0826 10.18904,-8.92597 10.18904,-8.92597 0,0 6.79414,-10.57901 4.11898,-15.697416 -2.58001,-4.93633 -9.946,-9.39466 -18.42699,-12.51689 -5.66772,-2.08654 -13.11289,-4.24002 -20.16128,-3.59091 -3.66453,0.33747 -6.6679,1.98794 -8.23794,3.59091 -1.46002,1.49062 -0.43359,4.92468 -0.43359,4.92468 z"
             id="path7714"
             inkscape:connector-curvature="0"
             sodipodi:nodetypes="csscssssc" />
          <ellipse
             id="ellipse7716"
             cx="233.64867"
             cy="-128.11096"
             rx="2.3151042"
             ry="2.0316226"
             style="fill:#ffffff;fill-opacity:1;stroke:none;stroke-width:0.06183045"
             inkscape:transform-center-x="0.1396018"
             inkscape:transform-center-y="1.065763"
             transform="scale(1,-1)" />
          <path
             style="fill:#3e0800;fill-opacity:1;stroke:none;stroke-width:0.26458332px;stroke-linecap:butt;stroke-linejoin:miter;stroke-opacity:1"
             d="m 248.39876,125.79156 c -18.84345,3.89047 -29.62051,2.03694 -29.62051,2.03694 0,0 -0.43968,-0.97871 -0.33409,-1.46998 0.72024,-3.35092 5.07383,-7.55076 6.19746,-8.20476 1.12363,-0.65399 6.0609,-4.13912 13.83076,-1.05159 7.76984,3.08752 10.02088,5.85457 10.02088,5.85457 0.92918,0.17475 -0.0945,2.83482 -0.0945,2.83482 z"
             id="path7718"
             inkscape:connector-curvature="0"
             sodipodi:nodetypes="ccassscc" />
          <path
             style="fill:#ffffff;fill-opacity:1;stroke:none;stroke-width:0.26813835;stroke-linecap:butt;stroke-linejoin:miter;stroke-miterlimit:4;stroke-dasharray:none;stroke-opacity:1"
             d="m 199.92126,137.37541 c 0,0 2.58432,-0.38507 3.03128,-2.61652 0.29715,-2.39282 -1.87951,-1.41242 -2.26846,-0.43855 -0.25794,0.64583 1.29025,0.59031 1.24966,1.1564 -0.0678,0.94622 -2.01248,1.89867 -2.01248,1.89867 z"
             id="path7720"
             inkscape:connector-curvature="0"
             sodipodi:nodetypes="ccssc" />
        </g>
      </g>
    </clipPath>
  </defs>
  <sodipodi:namedview
     id="base"
     pagecolor="#ffffff"
     bordercolor="#666666"
     borderopacity="1.0"
     inkscape:pageopacity="0.0"
     inkscape:pageshadow="2"
     inkscape:zoom="0.5"
     inkscape:cx="154.96812"
     inkscape:cy="56.947505"
     inkscape:document-units="mm"
     inkscape:current-layer="layer1"
     showgrid="false"
     inkscape:window-width="1366"
     inkscape:window-height="705"
     inkscape:window-x="-8"
     inkscape:window-y="-8"
     inkscape:window-maximized="1"
     fit-margin-top="0"
     fit-margin-left="0"
     fit-margin-right="0"
     fit-margin-bottom="0" />
  <metadata
     id="metadata2040">
    <rdf:RDF>
      <cc:Work
         rdf:about="">
        <dc:format>image/svg+xml</dc:format>
        <dc:type
           rdf:resource="http://purl.org/dc/dcmitype/StillImage" />
        <dc:title></dc:title>
      </cc:Work>
    </rdf:RDF>
  </metadata>
  <g
     inkscape:label="Camada 1"
     inkscape:groupmode="layer"
     id="layer1"
     transform="translate(-25.990079,-76.996898)">
    <g
       transform="translate(-112.48571,-0.83155)"
       id="use5290"
       inkscape:label="Clip">
      <path
         style="fill:#3e0800;fill-opacity:1;stroke:none;stroke-width:0.26458332px;stroke-linecap:butt;stroke-linejoin:miter;stroke-opacity:1"
         d="m 246.95668,118.60771 c 0,0 -5.77171,-3.5675 -10.15624,-4.67723 -5.46247,-1.38256 -13.36348,0.53454 -13.36348,0.53454 l -5.87993,-1.06908 c -6.99531,1.08597 -2.63777,7.17086 -1.46997,9.62171 0.93438,1.96099 -1.73724,6.28083 -1.73724,6.28083 0,0 5.77103,2.57225 15.23434,18.70887 6.0338,0.73197 11.12882,-4.28738 14.78343,-9.19115 2.76042,-3.70393 3.3371,-5.58795 5.20807,-9.81152 0.50796,-4.22763 -0.0259,-5.84325 -2.61898,-10.39697 z"
         id="path7724"
         inkscape:connector-curvature="0"
         sodipodi:nodetypes="csccsccscc" />
      <path
         style="fill:#3e0800;fill-opacity:1;stroke:none;stroke-width:0.26458332px;stroke-linecap:butt;stroke-linejoin:miter;stroke-opacity:1"
         d="m 165.06374,119.61317 c 0,0 5.77171,-3.56749 10.15624,-4.67722 5.46247,-1.38256 13.36348,0.53454 13.36348,0.53454 l 5.87993,-1.06907 c 6.99534,1.08596 2.63778,7.17085 1.46998,9.6217 -0.93439,1.96099 1.73726,6.28084 1.73726,6.28084 0,0 -5.77106,2.57224 -15.23437,18.70887 -6.0338,0.73195 -11.12882,-4.28739 -14.78343,-9.19116 -2.76042,-3.70393 -3.3371,-5.58795 -5.20807,-9.81152 -0.50796,-4.22762 0.0259,-5.84326 2.61898,-10.39698 z"
         id="path7726"
         inkscape:connector-curvature="0"
         sodipodi:nodetypes="csccsccscc" />
      <path
         style="fill:#ffffff;fill-opacity:1;stroke:none;stroke-width:0.26458332px;stroke-linecap:butt;stroke-linejoin:miter;stroke-opacity:1"
         d="m 163.55298,124.369 c 0,0 20.36989,-18.06277 30.04911,3.40178 -3.92793,19.95265 -23.19829,16.78058 -27.78125,6.04763 -3.81613,-8.9371 -2.26786,-9.44941 -2.26786,-9.44941 z"
         id="path7728"
         inkscape:connector-curvature="0"
         sodipodi:nodetypes="ccsc" />
      <ellipse
         id="ellipse7730"
         cx="178.05782"
         cy="-128.3849"
         rx="9.4021578"
         ry="8.6462059"
         style="fill:#3e0800;fill-opacity:1;stroke-width:0.25705269"
         inkscape:transform-center-x="0.56696429"
         inkscape:transform-center-y="4.5357143"
         transform="scale(1,-1)" />
      <path
         style="fill:#ffffff;fill-opacity:1;stroke:none;stroke-width:0.26458332px;stroke-linecap:butt;stroke-linejoin:miter;stroke-opacity:1"
         d="m 248.29821,124.42673 c 0,0 -20.36988,-18.06278 -30.04913,3.40177 3.92794,19.95265 23.19831,16.7806 27.78127,6.04762 3.81613,-8.93708 2.26786,-9.44939 2.26786,-9.44939 z"
         id="path7732"
         inkscape:connector-curvature="0"
         sodipodi:nodetypes="ccsc" />
      <ellipse
         id="ellipse7734"
         cx="-233.79333"
         cy="128.44246"
         rx="9.4021578"
         ry="8.6462059"
         style="fill:#3e0800;fill-opacity:1;stroke:none;stroke-width:0.25705269;stroke-opacity:1"
         inkscape:transform-center-x="-0.5669605"
         inkscape:transform-center-y="-4.5357143"
         transform="scale(-1,1)" />
      <path
         style="opacity:0;fill:none;stroke:#000000;stroke-width:0.26458332px;stroke-linecap:butt;stroke-linejoin:miter;stroke-opacity:1"
         d="m 172.7945,150.41155 27.78125,-25.32441 28.3482,25.32441 -28.15922,11.90625 z"
         id="path7736"
         inkscape:connector-curvature="0" />
      <path
         style="fill:#3e0800;fill-opacity:1;stroke:none;stroke-width:0.26613161px;stroke-linecap:butt;stroke-linejoin:miter;stroke-opacity:1"
         d="m 176.80933,153.33162 c 0,0 13.3224,-25.78553 29.22822,-25.78553 15.90583,0 28.122,21.27261 29.22816,25.78553 -1.62775,4.17903 -16.92132,17.75023 -29.22816,17.62654 -11.92612,-0.11992 -27.01338,-13.79121 -29.22822,-17.62654 z"
         id="path7738"
         inkscape:connector-curvature="0"
         sodipodi:nodetypes="sacss" />
      <ellipse
         id="ellipse7740"
         cx="177.99167"
         cy="-128.67793"
         rx="2.3151042"
         ry="2.0316226"
         style="fill:#ffffff;fill-opacity:1;stroke:none;stroke-width:0.06183045"
         inkscape:transform-center-x="0.1396018"
         inkscape:transform-center-y="1.065763"
         transform="scale(1,-1)" />
      <rect
         style="opacity:0;stroke-width:0.26458332"
         id="rect7742"
         width="125.61668"
         height="24.455177"
         x="139.00496"
         y="114.53506" />
      <path
         style="fill:#3e0800;fill-opacity:1;stroke:none;stroke-width:0.26458332px;stroke-linecap:butt;stroke-linejoin:miter;stroke-opacity:1"
         d="m 163.64747,126.14548 c 18.84346,3.89047 29.62053,2.03694 29.62053,2.03694 0,0 0.43968,-0.97871 0.33409,-1.46998 -0.72025,-3.35092 -5.07384,-7.55076 -6.19747,-8.20476 -1.12363,-0.65399 -6.0609,-4.13912 -13.83075,-1.05159 -7.76985,3.08752 -10.02089,5.85457 -10.02089,5.85457 -0.92918,0.17475 0.0945,2.83482 0.0945,2.83482 z"
         id="path7744"
         inkscape:connector-curvature="0"
         sodipodi:nodetypes="ccassscc" />
      <rect
         y="114.53506"
         x="139.00496"
         height="24.455177"
         width="125.61668"
         id="rect7746"
         style="opacity:0;fill:#000080;stroke-width:0.26458332" />
      <path
         style="fill:#3e0800;fill-opacity:1;stroke:none;stroke-width:0.29527661px;stroke-linecap:butt;stroke-linejoin:miter;stroke-opacity:1"
         d="m 186.94199,88.018194 c 0,0 -14.96868,1.79525 -26.2365,21.519716 -1.5835,2.77194 0.39848,10.77807 -6.71528,10.6959 -7.14347,-0.0826 -10.18904,-8.92599 -10.18904,-8.92599 0,0 -6.79413,-10.57901 -4.11897,-15.697416 2.58001,-4.93633 9.94599,-9.39466 18.42698,-12.51689 5.66772,-2.08654 13.1129,-4.24002 20.16129,-3.59091 3.66453,0.33747 6.66791,1.98794 8.23795,3.59091 1.46,1.49062 0.43357,4.92468 0.43357,4.92468 z"
         id="path7748"
         inkscape:connector-curvature="0"
         sodipodi:nodetypes="csscssssc" />
      <path
         style="fill:#440000;fill-opacity:1;stroke:#ffffff;stroke-width:0.67200005;stroke-linecap:butt;stroke-linejoin:miter;stroke-miterlimit:4;stroke-dasharray:none;stroke-opacity:1"
         d="m 214.28785,133.79302 c 0,0 -3.76565,6.7139 -8.26152,6.7139 -4.49588,0 -7.94883,-5.53888 -8.26153,-6.7139 0.46012,-1.08812 4.78292,-4.62172 8.26153,-4.58951 3.37098,0.0312 7.63548,3.59089 8.26152,4.58951 z"
         id="path7750"
         inkscape:connector-curvature="0"
         sodipodi:nodetypes="sacss" />
      <path
         style="fill:#ffffff;fill-opacity:1;stroke:none;stroke-width:0.26813835;stroke-linecap:butt;stroke-linejoin:miter;stroke-miterlimit:4;stroke-dasharray:none;stroke-opacity:1"
         d="m 211.82594,137.54495 c 0,0 -2.58432,-0.38507 -3.03128,-2.61652 -0.29714,-2.39283 1.87951,-1.41242 2.26847,-0.43855 0.25793,0.64582 -1.29025,0.59032 -1.24967,1.1564 0.0678,0.94622 2.01248,1.89867 2.01248,1.89867 z"
         id="path7752"
         inkscape:connector-curvature="0"
         sodipodi:nodetypes="ccssc" />
      <path
         style="fill:none;stroke:#ffffff;stroke-width:0.76499999;stroke-linecap:butt;stroke-linejoin:miter;stroke-miterlimit:4;stroke-dasharray:none;stroke-opacity:1"
         d="m 218.57587,153.51319 c 0,0 -15.0339,2.2718 -25.52423,-1.33634 0.73499,-1.1359 -0.46773,0.20045 0.26726,-2.47224 -0.44006,2.10882 -2.72264,4.49363 -2.80633,4.40994 0,0 1.67044,-1.26953 0,0 l 2.07134,-1.73725 c 9.12429,4.12513 25.99196,1.13589 25.99196,1.13589 z"
         id="path7754"
         inkscape:connector-curvature="0"
         sodipodi:nodetypes="ccccccc" />
      <path
         style="fill:#fffffb;fill-opacity:1;stroke:none;stroke-width:0.26458332px;stroke-linecap:butt;stroke-linejoin:miter;stroke-opacity:1"
         d="m 192.31449,142.99389 9.6217,2.40542 11.35896,-1.46998 5.87993,-1.60363 3.87541,5.7463 -4.54359,0.53454 0.93544,1.33634 -8.01808,-2.00452 0.66818,1.33636 -8.419,-0.80182 0.53454,0.93545 -3.34087,-1.73726 -2.93996,1.87089 0.66817,-1.87089 -4.54358,1.20272 0.53454,-2.2718 -3.87541,3.14043 -0.4009,-3.54133 -2.53906,2.80633 2.00452,-4.14268 z"
         id="path7756"
         inkscape:connector-curvature="0" />
      <path
         style="fill:#3e0800;fill-opacity:1;stroke:none;stroke-width:0.286899px;stroke-linecap:butt;stroke-linejoin:miter;stroke-opacity:1"
         d="m 176.56052,152.7185 2.28077,8.23696 -0.15089,-3.20564 4.08104,5.74343 0.79236,-2.27067 5.19411,7.07911 0.62251,-2.13709 8.96075,5.60986 3.30133,-0.66784 4.87339,3.07208 7.70311,-3.33922 6.28823,-4.67488 -0.15721,2.80493 7.8603,-6.01056 -0.94324,2.93849 3.77296,-6.6784 1.72926,3.60634 2.43194,-9.04911 c -13.27218,14.8564 -34.35743,27.38171 -58.64072,-1.05779 z"
         id="path7758"
         inkscape:connector-curvature="0"
         sodipodi:nodetypes="ccccccccccccccccccc" />
      <path
         style="fill:#3e0800;fill-opacity:1;stroke:none;stroke-width:0.29527661px;stroke-linecap:butt;stroke-linejoin:miter;stroke-opacity:1"
         d="m 225.10542,87.520034 c 0,0 14.96869,1.79525 26.23651,21.519696 1.5835,2.77196 -0.39848,10.77808 6.71527,10.6959 7.14348,-0.0826 10.18904,-8.92597 10.18904,-8.92597 0,0 6.79414,-10.57901 4.11898,-15.697416 -2.58001,-4.93633 -9.946,-9.39466 -18.42699,-12.51689 -5.66772,-2.08654 -13.11289,-4.24002 -20.16128,-3.59091 -3.66453,0.33747 -6.6679,1.98794 -8.23794,3.59091 -1.46002,1.49062 -0.43359,4.92468 -0.43359,4.92468 z"
         id="path7760"
         inkscape:connector-curvature="0"
         sodipodi:nodetypes="csscssssc" />
      <ellipse
         id="ellipse7762"
         cx="233.64867"
         cy="-128.11096"
         rx="2.3151042"
         ry="2.0316226"
         style="fill:#ffffff;fill-opacity:1;stroke:none;stroke-width:0.06183045"
         inkscape:transform-center-x="0.1396018"
         inkscape:transform-center-y="1.065763"
         transform="scale(1,-1)" />
      <path
         style="fill:#3e0800;fill-opacity:1;stroke:none;stroke-width:0.26458332px;stroke-linecap:butt;stroke-linejoin:miter;stroke-opacity:1"
         d="m 248.39876,125.79156 c -18.84345,3.89047 -29.62051,2.03694 -29.62051,2.03694 0,0 -0.43968,-0.97871 -0.33409,-1.46998 0.72024,-3.35092 5.07383,-7.55076 6.19746,-8.20476 1.12363,-0.65399 6.0609,-4.13912 13.83076,-1.05159 7.76984,3.08752 10.02088,5.85457 10.02088,5.85457 0.92918,0.17475 -0.0945,2.83482 -0.0945,2.83482 z"
         id="path7764"
         inkscape:connector-curvature="0"
         sodipodi:nodetypes="ccassscc" />
      <path
         style="fill:#ffffff;fill-opacity:1;stroke:none;stroke-width:0.26813835;stroke-linecap:butt;stroke-linejoin:miter;stroke-miterlimit:4;stroke-dasharray:none;stroke-opacity:1"
         d="m 199.92126,137.37541 c 0,0 2.58432,-0.38507 3.03128,-2.61652 0.29715,-2.39282 -1.87951,-1.41242 -2.26846,-0.43855 -0.25794,0.64583 1.29025,0.59031 1.24966,1.1564 -0.0678,0.94622 -2.01248,1.89867 -2.01248,1.89867 z"
         id="path7766"
         inkscape:connector-curvature="0"
         sodipodi:nodetypes="ccssc" />
    </g>
  </g>
</svg>
