<?xml version="1.0" encoding="UTF-8" standalone="no"?>
<!-- Created with Inkscape (http://www.inkscape.org/) -->

<svg
   xmlns:dc="http://purl.org/dc/elements/1.1/"
   xmlns:cc="http://creativecommons.org/ns#"
   xmlns:rdf="http://www.w3.org/1999/02/22-rdf-syntax-ns#"
   xmlns:svg="http://www.w3.org/2000/svg"
   xmlns="http://www.w3.org/2000/svg"
   xmlns:sodipodi="http://sodipodi.sourceforge.net/DTD/sodipodi-0.dtd"
   xmlns:inkscape="http://www.inkscape.org/namespaces/inkscape"
   width="121mm"
   height="149mm"
   viewBox="0 0 121 149"
   version="1.1"
   id="svg1675"
   inkscape:version="0.92.4 (5da689c313, 2019-01-14)"
   sodipodi:docname="logo.svg">
  <defs
     id="defs1669">
    <clipPath
       clipPathUnits="userSpaceOnUse"
       id="clipPath2809-2">
      <g
         inkscape:label="Clip"
         id="use2811-2">
        <ellipse
           ry="5.729712"
           rx="4.113481"
           cy="18.302164"
           cx="49.572952"
           id="ellipse2254"
           style="opacity:1;fill:none;fill-opacity:1;stroke:#27210a;stroke-width:1.40229058;stroke-miterlimit:4;stroke-dasharray:none;stroke-opacity:1" />
        <path
           inkscape:connector-curvature="0"
           d="m 16.832703,35.021222 c 0.540942,0.02201 1.082532,0.02442 1.623828,0.0309 1.182067,0.01382 2.364196,0.01392 3.546314,0.0095 0.839526,-0.0032 1.678994,-0.01344 2.518476,-0.0218 0.451968,-0.0054 0.903959,-0.0065 1.355952,-0.0057 0.474952,0.0021 0.949905,0.0021 1.424861,0.0021 0.49058,-0.0048 0.980444,-0.0016 1.469976,0.03192 0.49046,0.04075 0.982252,0.05755 1.474112,0.06886 0.582683,0.01012 1.16547,0.01178 1.748227,0.01291 0.667498,0.0021 1.335003,0.0021 2.002493,-0.0016 0.402027,-0.0027 0.804018,-0.009 1.206037,-0.01264 0.273979,-0.0016 0.547956,5.36e-4 0.821939,3.27e-4 0.297636,-2.41e-4 0.595269,5.35e-4 0.892903,0.0016 0.368407,0.0016 0.736819,0.0021 1.105231,0.0021 0.347971,0.0048 0.695013,0.0032 1.041337,-0.03245 0.115532,-0.01162 0.229965,-0.02329 0.340976,-0.05803 0,0 -0.413469,0.317 -0.413469,0.317 v 0 c -0.109325,0.02351 -0.220334,0.03192 -0.331763,0.04022 -0.343735,0.02528 -0.687694,0.02254 -1.032201,0.0203 -0.370509,1.01e-4 -0.741017,5.35e-4 -1.111523,0.0021 -0.299004,0.0011 -0.598006,0.0016 -0.897011,0.0016 -0.274282,-4.39e-4 -0.548559,0.0016 -0.822839,3.27e-4 -0.390587,-0.0037 -0.781145,-0.0096 -1.171741,-0.01226 -0.666564,-0.0037 -1.333138,-0.0027 -1.999706,-4.66e-4 -0.58757,0.0011 -1.175185,0.0043 -1.762722,-0.0037 -0.492905,-0.0094 -0.985465,-0.03042 -1.476996,-0.06944 -0.488943,-0.03154 -0.978182,-0.03443 -1.468042,-0.0294 -0.476967,2.7e-5 -0.953933,3.11e-4 -1.430897,0.0021 -0.446737,5.36e-4 -0.893472,-4.39e-4 -1.340183,-0.0057 -0.819499,-0.0084 -1.638984,-0.01885 -2.458529,-0.02179 -1.190881,-0.0043 -2.38177,-0.0043 -3.572602,0.0095 -0.569643,0.0066 -1.139522,0.0096 -1.708855,0.0309 0,0 0.426417,-0.309814 0.426417,-0.309814 z"
           id="path2256"
           style="opacity:0;stroke-width:0.14168434" />
        <path
           inkscape:connector-curvature="0"
           id="path2258"
           d="M 52.981536,18.762108 A 3.4004242,3.8254771 0 0 1 49.589695,22.394152 3.4004242,3.8254771 0 0 1 46.195911,18.782309 36.908064,42.058402 0 0 0 12.681754,60.627066 36.908064,42.058402 0 0 0 49.589695,102.68545 36.908064,42.058402 0 0 0 86.497906,60.627066 36.908064,42.058402 0 0 0 52.981536,18.762108 Z"
           style="opacity:1;fill:#28220b;fill-opacity:0.99534882;stroke:none;stroke-width:2.12162256;stroke-miterlimit:4;stroke-dasharray:none;stroke-opacity:1" />
        <path
           style="opacity:1;fill:#d3bc5f;fill-opacity:1;stroke:none;stroke-width:1.8159095;stroke-miterlimit:4;stroke-dasharray:none;stroke-opacity:1"
           d="m 52.981536,18.762108 c -0.324298,2.308617 -1.829061,3.630814 -3.391841,3.632044 -1.498507,-0.0022 -3.200415,-1.278879 -3.393784,-3.611843 C 29.91237,21.303102 17.593573,39.655952 17.57313,60.716972 17.573256,83.72643 31.6709,102.68554 49.589695,102.68545 67.508286,102.68517 82.462578,83.72617 82.462704,60.716972 82.447288,38.945144 69.887894,20.409863 52.981536,18.762108 Z m -17.590372,9.139667 c 2.391868,0 4.308149,0.79649 5.748486,2.389748 1.635855,1.810016 2.453597,4.465664 2.453597,7.966484 0,3.078135 -0.593061,5.543282 -1.77922,7.396651 -1.179642,1.842542 -2.747351,2.764508 -4.702555,2.764508 l -0.116788,4.958655 H 31.607932 L 31.324227,41.26534 c -0.08473,-3.121478 -0.218522,-7.408204 -0.401008,-12.859947 1.016707,-0.335996 2.506218,-0.503618 4.467945,-0.503618 z m 31.23427,0.178654 c 0.93198,0 1.93252,0.119371 3.00137,0.35782 l 0.53743,10.258697 c -0.43015,-0.270959 -1.0425,-0.406592 -1.83761,-0.406592 -1.0102,0 -1.92264,0.515075 -2.73731,1.54473 -0.91242,1.159714 -1.36839,2.633324 -1.36839,4.421674 0,1.690804 0.38767,2.997279 1.16324,3.91856 0.65173,0.780372 1.40448,1.148618 2.25826,1.105284 L 67.485844,46.013 c -0.0391,-0.671979 -0.1272,-1.777829 -0.26407,-3.316897 h 4.14549 c -0.0652,0.921271 -0.16369,2.661052 -0.29404,5.218935 -0.0652,1.528229 -0.12686,3.338097 -0.18552,5.429921 -0.87332,0.422706 -2.14703,0.634019 -3.82199,0.634019 -2.48963,0 -4.51381,-0.932119 -6.071461,-2.796337 -1.837894,-2.221895 -2.756422,-5.527724 -2.756422,-9.917301 0,-4.205324 0.805053,-7.488802 2.414839,-9.851595 1.512024,-2.221882 3.502684,-3.333316 5.972764,-3.333316 z m -22.445658,0.324964 h 6.305557 c -0.03259,1.430676 -0.0722,3.761226 -0.117824,6.991088 -0.01955,1.799188 -0.01295,4.351707 0.01964,7.657447 0.0065,2.51451 0.137531,4.21062 0.391708,5.088527 0.267213,0.932109 0.801368,1.398427 1.603005,1.398427 0.228105,0 0.482497,-0.108711 0.762743,-0.325479 0,-2.232722 -0.03961,-5.78239 -0.117821,-10.648855 -0.06518,-2.438661 -0.185251,-5.825764 -0.36122,-10.161155 h 4.829162 l -0.225312,10.51897 c -0.06517,3.002256 -0.09715,7.543471 -0.09715,13.623852 -1.668442,0.997139 -3.369435,1.495962 -5.103046,1.495962 -2.137695,0 -3.764306,-0.710136 -4.878773,-2.129982 -0.945018,-1.203058 -1.612453,-3.077965 -2.003494,-5.625011 -0.228108,-1.463188 -0.443399,-4.140165 -0.64544,-8.031177 -0.195522,-3.598366 -0.316114,-6.882876 -0.361733,-9.852614 z m -6.45232,10.047695 c -0.143383,0 -0.28987,0.01629 -0.439767,0.04878 l -0.09767,5.6902 c 1.564166,-0.08673 2.346108,-1.15445 2.346108,-3.20292 0,-1.690805 -0.602964,-2.536058 -1.808673,-2.536058 z m 27.071728,15.819539 c 2.99427,0.003 6.0345,0.871917 8.42016,1.71722 4.0798,1.445605 7.62346,3.509404 8.86458,5.794938 1.28689,2.369826 -1.98179,7.268295 -1.98179,7.268295 0,0 -1.46513,4.09439 -4.90151,4.13264 -3.42209,0.038 -2.46855,-3.66856 -3.2303,-4.95198 -5.42041,-9.132468 -12.621449,-9.963496 -12.621449,-9.963496 0,0 -0.493054,-1.590229 0.209288,-2.280397 0.755269,-0.742175 2.199721,-1.506552 3.962551,-1.66281 0.42383,-0.03755 0.85072,-0.05484 1.27847,-0.05444 z m -29.258676,0.08414 c 0.427755,-4.07e-4 0.854647,0.01689 1.278475,0.05444 1.762834,0.156257 3.207276,0.920645 3.96255,1.66281 0.702339,0.690168 0.209288,2.280397 0.209288,2.280397 0,0 -7.201037,0.831007 -12.62145,9.963496 -0.761741,1.28343 0.191797,4.99003 -3.230295,4.95198 -3.436386,-0.0382 -4.901509,-4.13263 -4.901509,-4.13263 0,0 -3.268687,-4.898469 -1.981791,-7.268306 1.241116,-2.285523 4.784774,-4.349342 8.864574,-5.794937 2.38566,-0.845313 5.425887,-1.714141 8.420158,-1.71722 z m 9.330179,16.621413 c 1.828462,0.073 0.828974,3.422 0.302308,4.48583 -0.277998,0.56155 0.107696,1.53941 0.442351,2.20492 1.102141,-0.35522 2.31761,-0.55803 3.676261,-0.55803 1.73286,0 3.224623,0.32429 4.53874,0.88043 0.349284,-0.64202 0.891151,-1.81405 0.574127,-2.45442 -0.561785,-1.13474 -1.660689,-4.86946 0.707451,-4.45504 -3e-6,0 1.873599,0.43042 2.828766,0.49489 2.139524,0.14436 3.800293,-0.88758 6.428033,-0.24744 2.10918,0.5138 3.67794,1.0656 4.88549,2.16539 1.81458,1.65266 1.81433,2.92032 1.26039,4.8144 -0.6039,2.06486 -0.87609,3.03682 -2.204,4.75177 -1.43488,1.85307 -3.53204,3.60094 -5.83272,3.99711 0.29024,0.44158 0.58063,0.87995 0.87385,1.30704 2.93547,4.27574 -8.139887,7.74742 -14.060127,7.69338 -5.737092,-0.0524 -16.893187,-3.35716 -14.06064,-7.69338 0.337756,-0.51705 0.67705,-1.05404 1.019058,-1.59248 -1.962809,-0.62527 -3.726876,-2.16229 -4.982641,-3.78406 -1.327907,-1.71493 -1.600105,-2.68793 -2.204,-4.75279 -0.553948,-1.89406 -0.554715,-3.16071 1.259871,-4.81337 1.207554,-1.0998 2.776302,-1.65158 4.885492,-2.16539 2.627733,-0.64013 4.289541,0.39128 6.429063,0.24692 0.955169,-0.0645 2.828253,-0.49437 2.828253,-0.49437 0.148005,-0.026 0.282728,-0.0363 0.404624,-0.0313 z"
           id="path2260"
           inkscape:connector-curvature="0"
           sodipodi:nodetypes="cccccccscsccccccssccscscccccccscscscccccsccccccsccccccccscccccccscccccccccccccscccccsccccccccccccccccscccc" />
        <path
           style="opacity:0;fill:#ff8dff;fill-opacity:1;stroke:#000000;stroke-width:0.12236253px;stroke-linecap:butt;stroke-linejoin:miter;stroke-opacity:1"
           d="M 35.576244,87.05799 48.629286,75.53006 61.948717,87.05799 48.718083,92.47784 Z"
           id="path2262"
           inkscape:connector-curvature="0" />
        <rect
           style="opacity:0;fill:#ff8dff;fill-opacity:1;stroke-width:0.12236253"
           id="rect2264"
           width="59.021095"
           height="11.132247"
           x="19.700209"
           y="70.726624" />
        <rect
           y="70.726624"
           x="19.700209"
           height="11.132247"
           width="59.021095"
           id="rect2266"
           style="opacity:0;fill:#ff8dff;fill-opacity:1;stroke-width:0.12236253" />
      </g>
    </clipPath>
  </defs>
  <sodipodi:namedview
     id="base"
     pagecolor="#ffffff"
     bordercolor="#666666"
     borderopacity="1.0"
     inkscape:pageopacity="0.0"
     inkscape:pageshadow="2"
     inkscape:zoom="0.5"
     inkscape:cx="252.21477"
     inkscape:cy="427.3485"
     inkscape:document-units="mm"
     inkscape:current-layer="layer1"
     showgrid="false"
     inkscape:window-width="1366"
     inkscape:window-height="705"
     inkscape:window-x="-8"
     inkscape:window-y="-8"
     inkscape:window-maximized="1" />
  <metadata
     id="metadata1672">
    <rdf:RDF>
      <cc:Work
         rdf:about="">
        <dc:format>image/svg+xml</dc:format>
        <dc:type
           rdf:resource="http://purl.org/dc/dcmitype/StillImage" />
        <dc:title></dc:title>
      </cc:Work>
    </rdf:RDF>
  </metadata>
  <g
     inkscape:label="Camada 1"
     inkscape:groupmode="layer"
     id="layer1"
     transform="translate(0,-148)">
    <g
       id="g2280"
       transform="translate(-25.4,107.95)">
      <ellipse
         style="opacity:1;fill:none;fill-opacity:1;stroke:#27210a;stroke-width:2.28895712;stroke-miterlimit:4;stroke-dasharray:none;stroke-opacity:1"
         id="path1309"
         cx="86.528999"
         cy="51.378365"
         rx="6.7144299"
         ry="9.3526011" />
      <path
         style="opacity:1;fill:#28220b;fill-opacity:0.99534882;stroke:none;stroke-width:3.46312165;stroke-miterlimit:4;stroke-dasharray:none;stroke-opacity:1"
         d="M 92.092828,52.12913 A 5.550508,6.2443213 0 0 1 86.55633,58.057711 5.550508,6.2443213 0 0 1 81.016661,52.162105 60.244985,68.651875 0 0 0 26.311546,120.46525 60.244985,68.651875 0 0 0 86.55633,189.11709 60.244985,68.651875 0 0 0 146.80156,120.46525 60.244985,68.651875 0 0 0 92.092828,52.12913 Z"
         id="path1107"
         inkscape:connector-curvature="0" />
      <path
         sodipodi:nodetypes="cccccccscsccccccssccscscccccccscscscccccsccccccsccccccccscccccccscccccccccccccscccccsccccccccccccccccscccc"
         inkscape:connector-curvature="0"
         id="path5399"
         d="m 92.092828,52.12913 c -0.529351,3.768353 -2.985574,5.926573 -5.536498,5.928581 -2.446011,-0.0036 -5.224033,-2.087512 -5.539669,-5.895606 -26.579603,4.114687 -46.687559,34.07202 -46.720928,68.449895 2.06e-4,37.55831 23.011772,68.50524 52.260597,68.50509 29.24849,-4.5e-4 53.65836,-30.94721 53.65857,-68.50509 C 140.18974,85.073874 119.68905,54.818759 92.092828,52.12913 Z M 63.380087,67.047797 c 3.904243,0 7.032186,1.30011 9.383246,3.900783 2.670204,2.954486 4.005003,7.289297 4.005003,13.003681 0,5.024436 -0.968053,9.048292 -2.904218,12.073544 -1.925528,3.007579 -4.484498,4.512505 -7.675975,4.512505 l -0.190633,8.094 H 57.204722 L 56.741631,88.861127 c -0.138305,-5.095185 -0.356693,-12.092402 -0.654565,-20.991275 1.659569,-0.548446 4.090896,-0.822055 7.293021,-0.822055 z m 50.983663,0.291617 c 1.52126,0 3.15444,0.194849 4.89913,0.584069 l 0.87724,16.745258 c -0.70213,-0.442286 -1.70167,-0.66368 -2.99952,-0.66368 -1.64895,0 -3.13833,0.840756 -4.46811,2.521461 -1.48934,1.892999 -2.23362,4.298371 -2.23362,7.217493 0,2.759897 0.63279,4.892454 1.89875,6.396255 1.06382,1.27381 2.29253,1.87489 3.68616,1.80416 l -0.25559,-5.333704 c -0.0638,-1.09687 -0.20763,-2.901948 -0.43104,-5.414167 h 6.76668 c -0.10643,1.50379 -0.26719,4.343632 -0.47996,8.518861 -0.10643,2.49453 -0.20708,5.44877 -0.30283,8.86325 -1.42552,0.68999 -3.50459,1.03491 -6.23863,1.03491 -4.06382,0 -7.36788,-1.5215 -9.91043,-4.56446 -3,-3.62679 -4.49931,-9.022892 -4.49931,-16.187993 0,-6.864345 1.31409,-12.223962 3.94174,-16.080746 2.46807,-3.626775 5.71743,-5.440967 9.74934,-5.440967 z m -36.638023,0.530438 h 10.292552 c -0.0532,2.335291 -0.117852,6.139444 -0.192324,11.411544 -0.03191,2.936812 -0.02114,7.103286 0.03206,12.499241 0.01061,4.104431 0.224491,6.872989 0.639384,8.305993 0.436171,1.52148 1.308072,2.28265 2.616583,2.28265 0.372335,0 0.787579,-0.17745 1.245024,-0.53128 0,-3.644465 -0.06466,-9.438583 -0.192319,-17.382108 -0.106393,-3.980623 -0.302385,-9.509387 -0.589619,-16.58604 h 7.882635 l -0.367776,17.170101 c -0.106377,4.900579 -0.158578,12.313198 -0.158578,22.238197 -2.723396,1.62763 -5.499924,2.44186 -8.329695,2.44186 -3.489357,0 -6.144472,-1.15916 -7.963615,-3.47677 -1.542552,-1.96375 -2.632005,-5.02416 -3.270301,-9.181699 -0.37234,-2.38836 -0.72376,-6.757986 -1.053551,-13.10928 -0.31915,-5.873608 -0.515992,-11.234909 -0.590456,-16.082409 z m -10.532114,16.40084 c -0.234044,0 -0.473154,0.02659 -0.717831,0.07962 l -0.159427,9.288106 c 2.553186,-0.141569 3.829549,-1.884407 3.829549,-5.228122 0,-2.759899 -0.984217,-4.139604 -2.952294,-4.139604 z M 111.38276,110.0929 c 4.88754,0.005 9.85011,1.42323 13.74422,2.80302 6.65945,2.35966 12.44376,5.7284 14.46964,9.45907 2.10059,3.86826 -3.23488,11.86403 -3.23488,11.86403 0,0 -2.39152,6.68327 -8.00072,6.7457 -5.58588,0.062 -4.02941,-5.98818 -5.27282,-8.08311 -8.84773,-14.90691 -20.60197,-16.2634 -20.60197,-16.2634 0,0 -0.80481,-2.59573 0.34162,-3.72229 1.23282,-1.21145 3.5906,-2.45914 6.46806,-2.7142 0.69182,-0.0613 1.38863,-0.0895 2.08685,-0.0889 z m -47.758899,0.13735 c 0.698224,-6.7e-4 1.395039,0.0276 2.086853,0.0889 2.877471,0.25506 5.235232,1.50277 6.468065,2.7142 1.146427,1.12656 0.341621,3.72229 0.341621,3.72229 0,0 -11.754244,1.35645 -20.601977,16.2634 -1.243389,2.09494 0.31307,8.14522 -5.272806,8.08311 -5.609209,-0.0624 -8.000727,-6.74568 -8.000727,-6.74568 0,0 -5.335474,-7.99577 -3.234875,-11.86405 2.025872,-3.73066 7.810181,-7.09943 14.469633,-9.45907 3.894109,-1.3798 8.856668,-2.79799 13.744213,-2.80301 z M 78.8535,137.36136 c 2.984596,0.11915 1.353133,5.58572 0.493457,7.32221 -0.453776,0.91662 0.175792,2.51278 0.722049,3.59909 1.799023,-0.57983 3.783031,-0.91087 6.000756,-0.91087 2.828545,0 5.263548,0.52934 7.408579,1.43712 0.570136,-1.04797 1.454625,-2.96107 0.937147,-4.00634 -0.917001,-1.85224 -2.710741,-7.94842 1.154771,-7.27196 -5e-6,0 3.058273,0.70257 4.617391,0.80781 3.49234,0.23564 6.20321,-1.4488 10.49247,-0.4039 3.44281,0.83868 6.0035,1.73938 7.97458,3.53457 2.96194,2.69763 2.96153,4.76683 2.05733,7.85853 -0.98574,3.37047 -1.43004,4.957 -3.59758,7.75631 -2.34216,3.02477 -5.76535,5.87781 -9.52075,6.52448 0.47376,0.72079 0.94777,1.43634 1.42639,2.13348 4.79156,6.97928 -13.286728,12.6461 -22.950328,12.55789 -9.364648,-0.0855 -27.574727,-5.47988 -22.951165,-12.55789 0.551319,-0.84398 1.105148,-1.72051 1.663407,-2.5994 -3.20389,-1.02063 -6.083374,-3.52951 -8.133158,-6.17672 -2.167541,-2.79928 -2.611849,-4.3875 -3.597586,-7.75797 -0.904209,-3.09167 -0.905461,-5.15923 2.056485,-7.85686 1.971089,-1.7952 4.531755,-2.69587 7.974583,-3.53456 4.289245,-1.04489 7.001812,0.63868 10.494151,0.40304 1.559121,-0.10528 4.616554,-0.80696 4.616554,-0.80696 0.241588,-0.0424 0.461496,-0.0593 0.660467,-0.0511 z"
         style="opacity:1;fill:#d3bc5f;fill-opacity:1;stroke:none;stroke-width:2.9641068;stroke-miterlimit:4;stroke-dasharray:none;stroke-opacity:1" />
    </g>
  </g>
</svg>
