<?xml version="1.0" encoding="utf-8"?>
<!-- Generator: Adobe Illustrator 23.0.0, SVG Export Plug-In . SVG Version: 6.00 Build 0)  -->
<svg version="1.1"
	 id="svg1675" inkscape:version="0.92.4 (5da689c313, 2019-01-14)" sodipodi:docname="logo.svg" xmlns:cc="http://creativecommons.org/ns#" xmlns:dc="http://purl.org/dc/elements/1.1/" xmlns:inkscape="http://www.inkscape.org/namespaces/inkscape" xmlns:rdf="http://www.w3.org/1999/02/22-rdf-syntax-ns#" xmlns:sodipodi="http://sodipodi.sourceforge.net/DTD/sodipodi-0.dtd" xmlns:svg="http://www.w3.org/2000/svg"
	 xmlns="http://www.w3.org/2000/svg" xmlns:xlink="http://www.w3.org/1999/xlink" x="0px" y="0px" viewBox="0 0 343 422.4"
	 style="enable-background:new 0 0 343 422.4;" xml:space="preserve">
<style type="text/css">
	.st0{fill:none;stroke:#27210A;stroke-width:2.289;}
	.st1{fill:#28220B;fill-opacity:0.9953;}
	.st2{fill:#D3C176;}
	.st3{fill:#28220B;}
</style>
<sodipodi:namedview  bordercolor="#666666" borderopacity="1.0" id="base" inkscape:current-layer="layer1" inkscape:cx="252.21477" inkscape:cy="427.3485" inkscape:document-units="mm" inkscape:pageopacity="0.0" inkscape:pageshadow="2" inkscape:window-height="705" inkscape:window-maximized="1" inkscape:window-width="1366" inkscape:window-x="-8" inkscape:window-y="-8" inkscape:zoom="0.5" pagecolor="#ffffff" showgrid="false">
	</sodipodi:namedview>
<ellipse id="path1309" class="st0" cx="173.3" cy="32.1" rx="19" ry="26.5"/>
<path id="path1107" inkscape:connector-curvature="0" class="st1" d="M189.1,34.2c-0.4,9.4-7.3,16.8-15.7,16.8
	c-8.3,0-15.2-7.3-15.7-16.7C69.9,43.6,2.7,127.5,2.6,227.9c0,107.5,76.5,194.6,170.8,194.6c94.3,0,170.8-87.1,170.8-194.6
	c0,0,0,0,0,0C344.1,127.4,276.9,43.5,189.1,34.2z"/>
<path id="path5399" inkscape:connector-curvature="0" sodipodi:nodetypes="cccccccscsccccccssccscscccccccscscscccccsccccccsccccccccscccccccscccccccccccccscccccsccccccccccccccccscccc" class="st2" d="
	M189.1,34.2c-1.5,10.7-8.5,16.8-15.7,16.8c-6.9,0-14.8-5.9-15.7-16.7C82.3,46,25.3,130.9,25.2,228.4c0,106.5,65.2,194.2,148.1,194.2
	c82.9,0,152.1-87.7,152.1-194.2C325.4,127.6,267.3,41.9,189.1,34.2z M107.7,76.5c11.1,0,19.9,3.7,26.6,11.1
	c7.6,8.4,11.4,20.7,11.4,36.9c0,14.2-2.7,25.6-8.2,34.2c-5.5,8.5-12.7,12.8-21.8,12.8l-0.5,22.9H90.2l-1.3-56
	c-0.4-14.4-1-34.3-1.9-59.5C91.7,77.3,98.6,76.5,107.7,76.5L107.7,76.5z M252.2,77.4c4.3,0,8.9,0.6,13.9,1.7l2.5,47.5
	c-2-1.3-4.8-1.9-8.5-1.9c-4.7,0-8.9,2.4-12.7,7.1c-4.2,5.4-6.3,12.2-6.3,20.5c0,7.8,1.8,13.9,5.4,18.1c3,3.6,6.5,5.3,10.4,5.1
	l-0.7-15.1c-0.2-3.1-0.6-8.2-1.2-15.3h19.2c-0.3,4.3-0.8,12.3-1.4,24.1c-0.3,7.1-0.6,15.4-0.9,25.1c-4,2-9.9,2.9-17.7,2.9
	c-11.5,0-20.9-4.3-28.1-12.9c-8.5-10.3-12.8-25.6-12.8-45.9c0-19.5,3.7-34.7,11.2-45.6C231.5,82.5,240.8,77.4,252.2,77.4z
	 M148.3,78.9h29.2c-0.2,6.6-0.3,17.4-0.5,32.3c-0.1,8.3-0.1,20.1,0.1,35.4c0,11.6,0.6,19.5,1.8,23.5c1.2,4.3,3.7,6.5,7.4,6.5
	c1.1,0,2.2-0.5,3.5-1.5c0-10.3-0.2-26.8-0.5-49.3c-0.3-11.3-0.9-27-1.7-47h22.3l-1,48.7c-0.3,13.9-0.4,34.9-0.4,63
	c-7.7,4.6-15.6,6.9-23.6,6.9c-9.9,0-17.4-3.3-22.6-9.9c-4.4-5.6-7.5-14.2-9.3-26c-1.1-6.8-2.1-19.2-3-37.2
	C149.1,107.8,148.5,92.6,148.3,78.9L148.3,78.9z M118.5,125.4c-0.7,0-1.3,0.1-2,0.2l-0.5,26.3c7.2-0.4,10.9-5.3,10.9-14.8
	C126.8,129.3,124,125.4,118.5,125.4L118.5,125.4z M243.7,198.5c13.9,0,27.9,4,39,7.9c18.9,6.7,35.3,16.2,41,26.8
	c6,11-9.2,33.6-9.2,33.6s-6.8,18.9-22.7,19.1c-15.8,0.2-11.4-17-14.9-22.9c-25.1-42.3-58.4-46.1-58.4-46.1s-2.3-7.4,1-10.6
	c3.5-3.4,10.2-7,18.3-7.7C239.8,198.6,241.8,198.5,243.7,198.5L243.7,198.5z M108.4,198.9c2,0,4,0.1,5.9,0.3
	c8.2,0.7,14.8,4.3,18.3,7.7c3.2,3.2,1,10.6,1,10.6s-33.3,3.8-58.4,46.1c-3.5,5.9,0.9,23.1-14.9,22.9c-15.9-0.2-22.7-19.1-22.7-19.1
	s-15.1-22.7-9.2-33.6c5.7-10.6,22.1-20.1,41-26.8C80.4,203,94.5,199,108.4,198.9L108.4,198.9z M151.5,275.8
	c8.5,0.3,3.8,15.8,1.4,20.8c-1.3,2.6,0.5,7.1,2,10.2c5.1-1.6,10.7-2.6,17-2.6c8,0,14.9,1.5,21,4.1c1.6-3,4.1-8.4,2.7-11.4
	c-2.6-5.3-7.7-22.5,3.3-20.6c0,0,8.7,2,13.1,2.3c9.9,0.7,17.6-4.1,29.7-1.1c9.8,2.4,17,4.9,22.6,10c8.4,7.6,8.4,13.5,5.8,22.3
	c-2.8,9.6-4.1,14.1-10.2,22c-6.6,8.6-16.3,16.7-27,18.5c3.8,3.1,4.6,5,5.6,11.4c-1,23.4-25.6,30.3-66.6,30.3
	c-32.5,0-64.9-3.3-66.6-30.3c0.2-3.3,0.4-7.6,6.3-12.7c-9.1-2.9-17.2-10-23.1-17.5c-6.1-7.9-7.4-12.4-10.2-22
	c-2.6-8.8-2.6-14.6,5.8-22.3c5.6-5.1,12.8-7.6,22.6-10c12.2-3,19.8,1.8,29.7,1.1c4.4-0.3,13.1-2.3,13.1-2.3
	C150.3,275.9,151,275.8,151.5,275.8L151.5,275.8z"/>
<path class="st3" d="M124.3,366.2"/>
<circle class="st2" cx="119.9" cy="311.8" r="25.7"/>
<circle class="st2" cx="229.2" cy="311.8" r="25.7"/>
</svg>
