<?xml version="1.0" encoding="utf-8"?>
<!-- Generator: Adobe Illustrator 23.0.0, SVG Export Plug-In . SVG Version: 6.00 Build 0)  -->
<svg version="1.0"
	 id="svg5190" inkscape:version="0.92.4 (5da689c313, 2019-01-14)" sodipodi:docname="opug_persona3.svg" xmlns:cc="http://creativecommons.org/ns#" xmlns:dc="http://purl.org/dc/elements/1.1/" xmlns:inkscape="http://www.inkscape.org/namespaces/inkscape" xmlns:osb="http://www.openswatchbook.org/uri/2009/osb" xmlns:rdf="http://www.w3.org/1999/02/22-rdf-syntax-ns#" xmlns:sodipodi="http://sodipodi.sourceforge.net/DTD/sodipodi-0.dtd" xmlns:svg="http://www.w3.org/2000/svg"
	 xmlns="http://www.w3.org/2000/svg" xmlns:xlink="http://www.w3.org/1999/xlink" x="0px" y="0px" viewBox="0 0 498.9 498.9"
	 style="enable-background:new 0 0 498.9 498.9;" xml:space="preserve">
<style type="text/css">
	.st0{fill:#784421;}
	.st1{fill:#855331;}
	.st2{fill-rule:evenodd;clip-rule:evenodd;fill:#D38D5F;}
	.st3{opacity:0.64;fill:#B8623A;enable-background:new    ;}
	.st4{fill:#D38D5F;}
	.st5{opacity:0.885;fill:#C87137;enable-background:new    ;}
	.st6{opacity:0.885;fill:#C87E57;enable-background:new    ;}
	.st7{fill:#B8623A;}
	.st8{opacity:0.885;fill:#CE8351;enable-background:new    ;}
	.st9{fill:#CE9067;}
	.st10{fill:#A05A2C;}
	.st11{opacity:0.885;fill:#B8623A;enable-background:new    ;}
	.st12{fill:#502D0C;stroke:#000000;stroke-width:0.2317;}
	.st13{fill:#AA0000;}
	.st14{opacity:0.885;fill:#502D16;enable-background:new    ;}
	.st15{opacity:0.885;fill:#A05A2C;enable-background:new    ;}
	.st16{opacity:0.885;fill:#FFFFFF;enable-background:new    ;}
	.st17{opacity:0.885;fill:#00FFCC;enable-background:new    ;}
	.st18{fill:#FFFFFF;}
	.st19{opacity:0.885;enable-background:new    ;}
	.st20{fill:#502D16;}
	.st21{opacity:0.885;fill:#010100;enable-background:new    ;}
	.st22{opacity:0.885;fill:#2B1100;enable-background:new    ;}
	.st23{fill:#8B3E1A;}
	.st24{opacity:0.885;fill:#8B3E1A;enable-background:new    ;}
	.st25{opacity:0.885;fill:#8B3E16;enable-background:new    ;}
	.st26{fill:#502D0C;}
	.st27{font-family:'ShowcardGothic-Reg';}
	.st28{font-size:46.3034px;}
	.st29{fill:none;stroke:#000000;stroke-width:0.1793;}
	.st30{font-size:28.9396px;}
	.st31{fill:none;stroke:#000000;stroke-width:0.2646;}
	.st32{opacity:0.885;fill:#C87E58;enable-background:new    ;}
	.st33{fill:#B86239;}
	.st34{fill:#D5D5FF;fill-opacity:0;}
	.st35{opacity:0.885;fill:#2D1100;enable-background:new    ;}
	.st36{opacity:0.885;fill:#8E4C2C;enable-background:new    ;}
	.st37{fill:#8B3E16;}
	.st38{opacity:0.885;fill:#AA6B41;enable-background:new    ;}
	.st39{opacity:0.885;fill:#83441B;enable-background:new    ;}
	.st40{opacity:0.885;fill:#515137;enable-background:new    ;}
	.st41{opacity:0.885;fill:#532F17;enable-background:new    ;}
</style>
<sodipodi:namedview  bordercolor="#666666" borderopacity="1.0" height="176mm" id="base" inkscape:current-layer="layer1" inkscape:cx="333.83819" inkscape:cy="281.83758" inkscape:document-units="mm" inkscape:pagecheckerboard="true" inkscape:pageopacity="0.0" inkscape:pageshadow="2" inkscape:window-height="705" inkscape:window-maximized="1" inkscape:window-width="1366" inkscape:window-x="-8" inkscape:window-y="-8" inkscape:zoom="0.70910507" pagecolor="#ffffff" showgrid="false">
	</sodipodi:namedview>
<g id="layer1" transform="translate(0,-121)" inkscape:groupmode="layer" inkscape:label="Camada 1">
	<path id="path1170" inkscape:connector-curvature="0" sodipodi:nodetypes="ccccc" class="st0" d="M473.5,251.5
		c-4.8,3.2-4.5-24.7-27.9-33c-8.9-17.4-58.6-62.6-58.6-62.6s88-30.9,103.2,24C493,213.3,476.8,253.6,473.5,251.5L473.5,251.5z"/>
	<path id="path1742" inkscape:connector-curvature="0" sodipodi:nodetypes="cszzscc" class="st1" d="M392.2,158.1
		c72.1-13.1,81.9,2.8,90.4,19c5.9,11.3,2.2,23.2,0.9,30.1s-2.4,15.1-6.4,13c-4-2.1-0.1-37.2-20.5-41c-15-2.8-45.1-3.9-45.1-3.9
		L392.2,158.1z"/>
	<path id="path4698" inkscape:connector-curvature="0" sodipodi:nodetypes="csssszzsccccsszc" class="st2" d="M211.6,255.3
		c-4.2,15.2,27.8,49.8,39.1,62.8c19.9,22.8,30.7,28.4,68.8,49.3c26,14.3,70,15.6,98.9,0.2c24.1-12.9,43.6-41.2,39.5-69.4
		c-1.4-9.9-11.2-17-14.2-24.1c-3-7.1-0.6-22.6-0.9-24.8c-0.3-2.1,8.7-9.1,13.8-28.1c5.3-19.4-18-43.9-36.6-47.2
		c-2.4-0.2-4.9-1.2-7.4-1.1c1.9-0.3,10.9,1.8,15.9,3.9c4.9-9.4-61.2-47.5-103.8-53.8c-29.5,0.6-38,10.8-68.4,30.3
		c-15.5,10-36.4,54.5-40.6,86.3C214.9,246.4,215.8,240.1,211.6,255.3L211.6,255.3z"/>
	<path id="path5509-1" inkscape:connector-curvature="0" sodipodi:nodetypes="cccc" class="st3" d="M256.2,152.7
		c15.6-4.5,27.9-19.8,41.1-24.6c-2.9,3.7-27.1,21.4-29.7,31.5L256.2,152.7z"/>
	<path id="path4994" inkscape:connector-curvature="0" sodipodi:nodetypes="caaaaaaaaaaaaaaaaaacaaaaacaaaaaacccc" class="st4" d="
		M407.2,473.9c0,0,3.3,4.9,4.4,7.6c1.5,3.7,2.2,7.8,2.9,11.7c0.7,4.6,0.8,9.3,1,13.9c0.1,2.9,0.1,5.7,0,8.6c-0.2,3.4-0.4,6.8-1,10.1
		c-0.8,5.1-2,10.2-3.5,15.2c-0.9,3-2.1,5.9-3.2,8.9c-0.9,2.4-1.6,4.9-2.5,7.3c-1.1,3-2.3,5.9-3.5,8.9c-1.5,3.6-3.3,7.1-4.8,10.8
		c-0.7,1.9-1.3,3.8-1.9,5.7c-0.5,1.7-1.2,3.3-1.6,5.1c-0.3,1.5-0.9,3-0.6,4.5c0.1,0.6,0.5,1.1,0.9,1.5c1.7,2,3.9,3.5,6,5.1
		c1.5,1.1,3.6,1.7,4.8,3.2c0.8,1,1.1,2.3,1.3,3.5c0.2,1.5-0.3,3.1-0.6,4.6c-0.3,1.5-1.4,4.3-1.4,4.3s-1.4,0.5-2.1,0.7
		c-1.9,0.5-3.8,1-5.7,1.3c-3.9,0.5-7.8,0.6-11.7,0.6c-3.8,0-7.7,0-11.4-0.6c-3.1-0.5-6.2-1.5-9.2-2.5c-2.2-0.8-6.5-2.8-6.5-2.8
		s-1.6-6.3-1.7-9.5c-0.1-2.8,0.5-5.5,0.8-8.3c0.3-2.7,1.1-5.5,1-8.2c-0.2-3.2-1.4-6.2-2.4-9.2c-1.3-3.7-3.3-7.1-4.8-10.8
		c-1.4-3.7-2.8-7.4-3.7-11.2c-1.1-4.4-2.3-13.3-2.3-13.3l0.6-5.4l17.4-12.8L407.2,473.9z"/>
	<path id="path4996" inkscape:connector-curvature="0" sodipodi:nodetypes="caacccc" class="st5" d="M194.3,586.4c0,1,2.3,1.8,3,3.1
		c0.9,1.7,1.2,3.8,1.3,5.7c0.1,2.3-0.8,6.8-0.8,6.8c-21.1-2.5-27.3-1.2-46-8l-0.8-6.3L194.3,586.4z"/>
	<path id="path5608-7" inkscape:connector-curvature="0" class="st6" d="M240.7,186.2c0,0-19.7,78.5,10.2,121.2
		c29.9,42.7-41.1-47-41.1-47l13.1-29.9l12.5-40.1l3.9-4.3L240.7,186.2z"/>
	<path id="path5608" inkscape:connector-curvature="0" class="st7" d="M236.6,190.8c0,0-19.7,78.5,10.2,121.2
		c29.9,42.7-41.1-47-41.1-47l13.1-29.9l12.5-40.1l3.9-4.3H236.6z"/>
	<path id="path5708" inkscape:connector-curvature="0" sodipodi:nodetypes="ccccsc" class="st8" d="M405,473.3
		c1-0.9,12.7,5.4,10.1,42.1c-68.6,13.9-55.9,59.6-57.8,68.6c-0.8-3.9-1-7-5.6-15.7c0,0-10.4-22.7-6.3-33.5
		C349.5,524,405,473.3,405,473.3z"/>
	<path id="rect4708" inkscape:connector-curvature="0" sodipodi:nodetypes="ccscscaacaaacsc" class="st9" d="M420.2,372.1
		c-123,36.9-203.4-84.4-212-114.1c0,0-9.4,35.5-43,74.7c0,0-20.1,25.6-54.7,68.1c-15.7,19.7-31.2,32.8-47.4,54.2
		c-14.7,19.3-42,48-57.4,81.4c-2.1,13.1,2.8,28.3,12.1,37.8c9,9.3,23.9,11.2,36.7,12.9c75.5,9.9,130.3,22.6,227.8-17.8
		c24.1-9.4,48.2-19.8,69.7-34.2c15.6-10.4,30.4-22.7,42.1-37.3c8.5-10.6,15.7-22.7,19.8-35.6c3.4-10.5,3.8-32.8,3.8-32.8
		c0.8-3.6-0.1-19.1-1.3-28.5C414.6,388,422.9,367,420.2,372.1L420.2,372.1z"/>
	<path id="path5000" inkscape:connector-curvature="0" sodipodi:nodetypes="ccaaaaaaaaaaaaaaacaaaaaaaac" class="st10" d="
		M28.7,498.6c-1.1,1.5-3.1,4.6-3.1,4.6s-3.5-1.7-4.9-3c-1.6-1.5-3-3.3-4-5.3c-1-1.9-1.5-4-1.8-6c-0.4-2.9-0.4-5.9,0.1-8.8
		c0.5-2.6,1.4-5.1,2.7-7.4c2.2-3.8,5-7.4,8.5-10c3.6-2.8,8-4.7,12.5-5.8c3.9-0.9,8.1-1,12.1-0.3c3.8,0.7,7.6,2.1,10.9,4.2
		c2.8,1.8,5.1,4.4,6.9,7.1c1.2,1.8,2.4,3.8,2.8,6c0.8,4.1,0.7,8.7-0.7,12.7c-1.1,3.2-3.1,6.4-5.9,8.3c-1.8,1.2-4.1,1.5-6.3,1.4
		c-2.1-0.1-4.2-0.9-6-2.1c-1.1-0.8-2.5-3.1-2.5-3.1s4.9-1,6.4-2.9c1.5-1.9,1.7-4.7,1.4-7.1c-0.2-1.5-0.8-2.9-1.7-4.1
		c-1.7-2.2-4-4-6.6-5c-2.3-0.9-4.9-1.2-7.2-0.6c-2,0.5-3.8,1.7-5.3,3.2c-1.2,1.2-2.4,2.7-2.7,4.3c-0.4,1.6-0.4,3.6,0.6,5
		c0.8,1.1,3.8,1.7,3.8,1.7L28.7,498.6z"/>
	<path id="path4584" inkscape:connector-curvature="0" sodipodi:nodetypes="cccccccsscc" class="st11" d="M419.9,375.5
		c-6.6,20.5-2.4,26-2.4,36.1c11.1,98.6-74.4,130.5-151,166.1c-3.2,1.3-63.2,18.3-93.3,19c-30-2.7-46-7.3-44.3-7c0,0,4.1-1.2,4.8-1.2
		L114,551.9c0,0,48,3.9,70.9-1.9c67.4-17.1,110.4-29.5,141.4-71.8c18-24.5,20.3-82.1,14.7-97.4C367.7,376.3,420.5,370.6,419.9,375.5
		L419.9,375.5z"/>
	<path id="path4980" inkscape:connector-curvature="0" sodipodi:nodetypes="csaaaaaaccaaaaacaccsaaaaaaaaaacc" class="st4" d="
		M283.2,418.3c0.6,0,11,11.7,14.1,19.3c2.7,6.6,5.2,14.2,6.6,21.6c1,5.1,1.2,10.4,1.2,15.6c0,6.3-0.7,12.6-1.6,18.8
		c-0.8,5.5-1.7,10.9-3.2,16.2c-1.7,5.9-4.1,11.5-6.4,17.1c-2.5,6.3-5.2,12.5-8.1,18.7c-2.3,4.9-7.2,14.7-7.2,14.7
		c-4.3,9.4-7.2,15.8-7.2,26c0,0,0.2,4.2,1.6,5.6c1.3,1.2,3.5,0.8,5.2,1.3c1.9,0.7,4,1.1,5.5,2.5c1.7,1.5,2.8,3.7,3.2,5.9
		c0.6,2.9,0.1,6-1,8.7c-0.8,2-2,4-4,5.2c-6,1.7-12.4,1.8-18.7,1.8c-6.5,0-11.2-0.7-19.3-2.1c-2.5-1.1-4.8-1.4-6.8-4.4
		c-0.6-2.2-0.9-4.5-0.9-6.7c0-3-0.5-6.2-0.8-9.3c-0.4-4.1-0.8-8.2-1.3-12.3c-0.9-6.1-1.7-12.3-3.2-18.3c-1.5-6-3.7-11.8-5.9-17.6
		c-2-5.2-4.5-10.3-6.7-15.5c-1.7-4-3.6-7.9-5.2-11.9c-2-4.9-3.9-9.9-5.4-15c-1.8-6.2-3-12.5-4.3-18.8c-0.8-4.2-2-8.3-2-12.6
		c-0.1-4,0.2-8.1,1.6-11.9c0.5-1.5,2.5-4,2.5-4l-0.4,0.7"/>
	<path id="path4998" inkscape:connector-curvature="0" sodipodi:nodetypes="ccaccaaaazaaaacccccccccacac" class="st4" d="
		M81.5,522.3l13.7-2.5c0,0,10.4-0.6,15.1,0.8c12.4,3.8,18.9,7.3,31.3,19.5c4,4.6,7.6,9.1,11.3,14.2c0,0,2.9,5.1,4.1,7.7
		c1.1,2.6,2.4,5.1,2.8,7.8c0.4,2.7,0.4,5.5-0.2,8.1c-0.6,2.3-3.7,4.3-3.2,6.6c0.2,1,0.6,1.3,2.3,2.3c1.6,1,5.6,1.6,8.1,2.8
		c2.5,1.3,5,2.7,6.5,4.7c0.9,1.2,1.1,2.7,1.2,4.1c0.1,1.7-0.8,3.4-0.8,5.1c0,1.8,0.6,3.5,0.8,5.4c-3.5-0.6-11.7-1.3-11.7-1.3
		l-15.7-1.3l-18.2-1.3l-16.5-1.6l-30.7-2.8l-16.5-0.6L49.6,599c0,0-8.3-1-10.5-1.9c-0.9-1.9-2.4-3.7-2.8-5.7c-0.5-2.3,0.4-7,0.4-7
		s-2.9-1.7-4.4-2.5c-3.7-1.9-11.3-5.4-11.3-5.4"/>
	<path id="path1481-7" inkscape:connector-curvature="0" sodipodi:nodetypes="ccscccc" class="st12" d="M371.4,372.6
		c3.1-2,4.8-0.8,5.7,0.2c-3.1,4.9-1.3,10-0.6,12.2c0.2,0.7,1.4,0.8,1.4,0.8s-3,1-6.1-0.2C371.2,384,368.6,378.6,371.4,372.6
		L371.4,372.6z"/>
	
		<path id="path4976" inkscape:connector-curvature="0" sodipodi:nodetypes="caaaaaaaaaaaaacaaaacaaaaaaaaaaaacsscc" class="st13" d="
		M418.3,364.7c-5.4,1.1-10,2.4-15.1,3.4c-7.2,1.4-14.5,2.8-21.9,3.5c-5.1,0.5-10.3,0.8-15.4,0.6c-7.3-0.4-14.7-1.3-21.8-3.2
		c-10.8-2.8-21.2-7-31.2-11.9c-8.8-4.3-17-9.8-25-15.4c-7.4-5.2-14.4-10.8-21.1-16.8c-4.8-4.2-9.2-8.8-13.6-13.4
		c-4.5-4.8-8.8-9.7-13-14.8c-3.9-4.6-7.7-9.3-11.3-14.1c-4.9-6.5-10.8-12.6-14.3-19.9c-1.1-2.3-1.9-4.9-2.1-7.4
		c-0.1-1.5,0.3-3.1,0.5-4.6c0.1-1.1,0.3-3.2,0.3-3.2s-2.4,2-3.2,3.4c-0.7,1.2-0.9,2.7-1.4,4c-0.6,1.7-1.3,3.3-1.9,5
		c-0.6,1.6-1.4,3.2-1.9,4.9c-0.5,1.5-1.1,4.7-1.1,4.7s1.9,2.7,2.9,4.1c2.7,4,5.1,8.1,7.9,12c3.4,4.7,7,9.2,10.8,13.6
		c4.7,5.5,9.6,10.7,14.6,15.9c4.9,5.2,9.8,10.4,15,15.2c6.8,6.3,14,12.3,21.4,18c6.2,4.7,12.6,9.1,19.2,13.2
		c7.1,4.3,14.3,8.6,22,11.8c6.8,2.9,13.9,5.3,21.2,6.8c8.8,1.9,17.8,2.6,26.8,2.9c5.9,0.2,11.8-0.1,17.6-0.7
		c9.1-0.9,18.2-2.5,27.2-4.3c3.3-0.7,9.8-2.4,9.8-2.4c-0.9,0.4,2.2-2.3,2.7-4.4c0.4-1.9,2.4-3,3.4-5.8c0.6-1.6,0.5-3.1,0.5-3.1
		C423.1,363.2,422.3,363.9,418.3,364.7z"/>
	<path id="path5509" inkscape:connector-curvature="0" sodipodi:nodetypes="cccc" class="st11" d="M256.7,152.1
		c8.8-5.5,31.7-20.3,36.8-22.3c-2.9,3.7-30.4,20.1-27.7,29.6L256.7,152.1z"/>
	<path id="path1153" inkscape:connector-curvature="0" sodipodi:nodetypes="cscsssc" class="st10" d="M249.3,182
		c-0.3,3.1-20.1-0.6-25.7,55c-0.4,3.9-4.9,11.2-4.9,11.2s-20.6-18-27.7-28.3c-5.8-8.5-9.9-16.9-14.1-26.3
		c-7.6-17,6.3-25.8,16.4-32.5c45.5-30.3,74.5-0.3,74.5-0.3"/>
	<path id="path1153-6" inkscape:connector-curvature="0" sodipodi:nodetypes="ccsc" class="st14" d="M263.3,165
		c-36.9-26.7-70.3-0.6-87.6,12.6c2.7-8,11-13.3,17.7-17.7c45.5-30.3,74.5-0.3,74.5-0.3"/>
	<path id="rect4692" inkscape:connector-curvature="0" sodipodi:nodetypes="sccssssss" class="st15" d="M416.9,223.7
		c-3.8-0.4-12.1-3.2-15.6-2.3c-2,4.4-1.3,9.2-3.2,15.8c-9.3,16.5-7.8,28.3-7.6,39.3c0.2,9.3,10.5,5.3,11.7,13
		c0.7,4.2,17.3,1.3,27.6-5.3c3.3-2.1,7.7-8,9.8-15c2-6.7,0.9-15.2-0.6-21.2C436.5,237.5,427.9,224.9,416.9,223.7L416.9,223.7z"/>
	<path id="rect4692-4" inkscape:connector-curvature="0" sodipodi:nodetypes="cssssssccsc" class="st15" d="M305.9,214.8
		c-9.4,2.1-18.5,7.3-25.8,13.1c-9.8,7.8-15.9,12.6-22.6,23.8c-8.3,13.8,12.8,21.5,20,26c11.1,6.7,30.1,11.9,45.4,11.6
		c0,0,20.5,1.7,37.3-11.6c6.4-5-14.4-29.5-19.2-34.6c-3.2-3.5-10.5-15.9-21.5-22.7c3.5-2.2,4.7-3,11.9-3.9
		C326.6,212.2,307.8,214.4,305.9,214.8L305.9,214.8z"/>
	<path id="rect4692-4-0" inkscape:connector-curvature="0" sodipodi:nodetypes="assssssa" class="st16" d="M308.1,224
		c-7.4-0.9-14.6,4.9-20.2,9.3c-7.6,6-12.2,9.7-17.4,18.3c-6.4,10.6,9.8,16.5,15.4,19.9c8.5,5.2,23.1,9.1,34.8,8.9
		c0,0,15.7,1.3,28.7-8.9c4.9-3.9-11-22.6-14.7-26.6C331.5,241.6,319.4,225.3,308.1,224L308.1,224z"/>
	<path id="rect4692-4-0-9" inkscape:connector-curvature="0" sodipodi:nodetypes="cscc" class="st17" d="M317.8,280.5
		c0,0,18.6,1.1,31.5-9.1c4.9-3.9-11-22.6-14.7-26.6C317.1,247.1,302.1,268.7,317.8,280.5L317.8,280.5z"/>
	<ellipse id="path5589-4" class="st18" cx="315.9" cy="267.5" rx="3" ry="2.8"/>
	<path id="rect4692-4-0-9-0" inkscape:connector-curvature="0" sodipodi:nodetypes="cccccccc" class="st19" d="M325.2,280.5
		c3.1-0.2,15.1-1,24.1-8.5c5.3-4.5-9.4-21.3-13.1-25.2c-11.1,1.4-20.5,11.9-22.1,18.9c5.5-1.4,3.6,6.4-0.1,3.2
		c0.2,2.5,2.4,8.4,6.8,11.7C320.7,280.6,323.6,280.7,325.2,280.5L325.2,280.5z"/>
	<path id="rect4692-4-0-8" inkscape:connector-curvature="0" sodipodi:nodetypes="scccss" class="st20" d="M308.2,224
		c-6.1-0.8-11.4,2.3-17,6.7c-7.6,6-12.5,9.3-18.3,17.4c27.3,16.9,49,17.2,74.9,13.3c-4.4-7.3-10.9-14.6-12.6-16.6
		C333,242.1,319.3,225.4,308.2,224L308.2,224z"/>
	<path id="rect4692-9" inkscape:connector-curvature="0" sodipodi:nodetypes="cssasssac" class="st16" d="M417,231.8
		c-6.3-0.7-12.1,5.3-15.3,11c-7.6,13.5-6.4,23.1-6.2,32.1c0.2,7.6-1,7.6,1.6,9.6c8.1,6.2,26.3,1.3,30.5-3.3c2.1-2.3,6.3-6.6,8-12.2
		c1.6-5.5,0.7-12.4-0.5-17.3C432.9,243,425.9,232.7,417,231.8z"/>
	<path id="rect4692-9-5" inkscape:connector-curvature="0" sodipodi:nodetypes="csscc" class="st17" d="M420,286.5
		c3.1-2.3,6.5-4.9,8-6.6c2.1-2.3,7.3-5.3,8.9-11c1.6-5.5,0.7-12.4-0.5-17.3C405.5,253.3,407.3,283.4,420,286.5z"/>
	<ellipse id="path5589" class="st18" cx="417.8" cy="277.9" rx="3" ry="2.8"/>
	<path id="rect4692-9-5-9" inkscape:connector-curvature="0" sodipodi:nodetypes="ccscccc" class="st19" d="M421.4,285.7
		c2.7-1.6,3.1-2,5.5-3.7c2.4-1.7,8.2-6.6,9.9-12.3c1.3-4.5,1.1-10.6,0.3-15c-17.1-1.2-23.5,11.8-21.8,21.6c2.5-1.5,6.3,2.3,1.2,4
		C418.2,283.4,418.8,283.9,421.4,285.7z"/>
	<path id="rect4692-9-7" inkscape:connector-curvature="0" sodipodi:nodetypes="asccsa" class="st20" d="M417.5,231.6
		c-6.6-0.7-12.7,5.3-16.1,11c-3.9,6.5-5.8,15.7-6.5,20.8c15.9,4,23.3,5.4,43,1.4c0.5-4.6-0.3-9.6-1.3-13.3
		C434.3,242.9,426.9,232.6,417.5,231.6z"/>
	<ellipse id="path4951" class="st21" cx="389" cy="314" rx="0.1" ry="0.1"/>
	<path id="path904" inkscape:connector-curvature="0" class="st22" d="M389.1,325.9c3-3.2,4.4-6.9,3.5-9.1c-1.2-2.9-5.9-5.5-8.9-5
		c-2.3,0.3-5.2,2.5-6.2,4.6c-0.8,1.6-0.8,1.6,0.3,3.9c1.9,4.1,5.7,7.5,8.6,7.5C387.1,327.7,388,327.2,389.1,325.9L389.1,325.9z"/>
	<path id="path5563-2" inkscape:connector-curvature="0" sodipodi:nodetypes="csscc" class="st23" d="M386,239.6
		c0,0,3.4,1.7,3.3,0.4c-0.4-4.2-6.7-11,3.9-21.8c3.6-3.7-3.3-0.3-1.9-1.6C385.6,219.8,383.7,233.4,386,239.6z"/>
	<path id="path5563-2-3" inkscape:connector-curvature="0" sodipodi:nodetypes="csscc" class="st23" d="M361.2,234.4
		c0,0-3.4,1.7-3.3,0.4c0.4-4.2,6.7-11-3.9-21.8c-3.6-3.7,3.3-0.3,1.9-1.6C361.7,214.7,363.6,228.2,361.2,234.4z"/>
	<path id="path5563" inkscape:connector-curvature="0" sodipodi:nodetypes="csscc" class="st24" d="M387,199.7c0,0,2-4.7,0.7-4.3
		c-4.6,1.5-10.6,11.9-25.3-0.3c-5-4.2,0.5,4.7-1.3,3C372.4,208.1,380.7,204.3,387,199.7z"/>
	<path id="path5563-5" inkscape:connector-curvature="0" sodipodi:nodetypes="ccsccc" class="st23" d="M371.4,185.4
		c0,0-1.5-6.4-13.5-16.6c-1,1.5,15.1,18.9,6.9,16.8c-4.2-1-3,2.5-2.2,1.4C370.3,188.4,372,186,371.4,185.4z"/>
	<path id="path5561" inkscape:connector-curvature="0" sodipodi:nodetypes="ssscsssssss" class="st25" d="M329.1,185.9
		c-6-5.7-11.3-8.7-23.9-7.4c-11.3,1.1-10.9,0.8-25.9,11.4c-15.2,10.7-21.4,26-22.7,29c-0.1,1.9-1.3,13.4,3,1.7
		c4.4-11.7,7-4,10.4-8.9c3.4-4.9,11.2-18.4,14-20.6c2.8-2.3,8.8-4.7,14.3-6.1c5.5-1.3,13.2-1.2,16.8-0.7c4.6,0.7,11.7,6,15.3,5.7
		C331.9,189.9,330.1,186.9,329.1,185.9L329.1,185.9z"/>
	<path id="path5563-2-3-1" inkscape:connector-curvature="0" sodipodi:nodetypes="csscc" class="st23" d="M446.9,222.2
		c0,0-1.8,6.1-3.1,4.3c-4.2-5.9-4.8-22-28.3-23.9c-8-0.6,3.3-4.2,0.3-4.2C425.6,196,442.6,211.4,446.9,222.2L446.9,222.2z"/>
	<path id="path1174" inkscape:connector-curvature="0" class="st15" d="M332,288.9c9.1-1.2,17.8-4.2,24.6-8.7c3.2-2.1,4.2-3,4.6-4
		c0.6-1.8-0.4-5.4-2.5-9.4c-3-5.6-9.4-14.3-16-21.8c-1.5-1.7-3.8-4.6-5.1-6.3c-5.6-7.5-10.3-12.6-14.8-16c-1.4-1-2.6-1.9-2.8-2
		c-0.2-0.1-0.3-0.2-0.3-0.3c0-0.3,3.3-2.1,4.5-2.5c1.3-0.5,5.3-1.3,6.2-1.3c1.9,0-0.5-1.3-3.9-2c-2-0.4-3-0.5-8.6-0.5
		c-7.5,0-11.1,0.4-15.2,1.7c-8.4,2.6-15.6,6.6-25.2,14.3c-9.4,7.5-14.4,12.8-18.9,20c-2.3,3.7-2.7,4.8-2.7,7.8c0,2.4,0,2.6,0.9,4.3
		c2,4.1,6.1,7.4,14.5,11.9c1.8,1,4.7,2.6,6.6,3.6c9.9,5.5,21.4,9.2,34.5,10.9C316.5,289.2,328.5,289.4,332,288.9L332,288.9z
		 M312.2,280.1c-8.5-1.1-16.8-3.6-23.2-6.8c-5.1-2.6-11.1-5.9-13.3-7.4c-2.6-1.8-4.7-3.9-5.7-5.8c-0.8-1.4-0.8-1.6-0.8-3.8
		c0-2.1,0.1-2.4,0.8-3.8c1.9-3.7,5.5-8.3,9.4-12.1c2.9-2.9,3.8-3.5,9.5-8c5.3-4.1,7.1-5.4,9.8-6.6c6.3-3,11.6-2.5,18.5,2
		c6.7,4.3,15,12.8,24.4,24.9c4.2,5.4,7.4,10.7,8.5,14.3c0.4,1.4,0.3,3.4-0.2,4.3c-1,1.7-7,5.2-11.6,6.8c-2.8,1-7.1,1.9-10.6,2.3
		C324.2,280.7,316.3,280.6,312.2,280.1L312.2,280.1z"/>
	<path id="path1499-0" inkscape:connector-curvature="0" sodipodi:nodetypes="ccsccsc" class="st12" d="M376.2,386
		c-0.6,0-1.7-0.1-1.7-0.1s-1,2.1-0.9,3.6c0.1,0.9,1.1,3.2,1.1,3.2s0.9-0.2,1.1-0.5c-0.4-1.6-0.9-2.4-0.8-3.7
		C375.1,387.6,375.5,387.1,376.2,386L376.2,386z"/>
	<g id="g1479" transform="matrix(-1.0522304,-0.2770188,-0.15155223,1.9233478,207.33929,-99.876873)">
		<text transform="matrix(0.5183 0 0 0.5183 -228.9881 245.6871)" class="st26 st27 st28">P</text>
		<text transform="matrix(0.5183 0 0 0.5183 -228.9881 245.6871)" class="st29 st27 st28">P</text>
		<text transform="matrix(0.5183 0 0 0.5183 -214.391 245.8551)" class="st26 st27 st30">u</text>
		<text transform="matrix(0.5183 0 0 0.5183 -214.391 245.8551)" class="st31 st27 st30">u</text>
		<text transform="matrix(0.5183 0 0 0.5183 -206.9669 246.1204)" class="st26 st27 st30">g</text>
		<text transform="matrix(0.5183 0 0 0.5183 -206.9669 246.1204)" class="st31 st27 st30">g</text>
		<text transform="matrix(0.5183 0 0 0.5183 -199.2806 245.3247)" class="st26 st27 st28">B</text>
		<text transform="matrix(0.5183 0 0 0.5183 -199.2806 245.3247)" class="st31 st27 st28">B</text>
		<text transform="matrix(0.5183 0 0 0.5183 -187.8787 245.8551)" class="st26 st27 st30">o</text>
		<text transform="matrix(0.5183 0 0 0.5183 -187.8787 245.8551)" class="st31 st27 st30">o</text>
		<text transform="matrix(0.5183 0 0 0.5183 -179.3883 245.5899)" class="st26 st27 st30">s</text>
		<text transform="matrix(0.5183 0 0 0.5183 -179.3883 245.5899)" class="st31 st27 st30">s</text>
		<text transform="matrix(0.5183 0 0 0.5183 -173.0268 245.0594)" class="st26 st27 st30">s</text>
		<text transform="matrix(0.5183 0 0 0.5183 -173.0268 245.0594)" class="st31 st27 st30">s</text>
	</g>
	<path id="path1481" inkscape:connector-curvature="0" sodipodi:nodetypes="ccscccc" class="st12" d="M378.4,372.5
		c-3.1-2-5.9-1.1-6.8-0.1c3.1,4.9,2.4,10.3,1.7,12.5c-0.2,0.7-1.4,0.8-1.4,0.8s3,1,6.1-0.2C378.6,383.9,381.2,378.5,378.4,372.5
		L378.4,372.5z"/>
	<path id="path1499" inkscape:connector-curvature="0" sodipodi:nodetypes="ccsccscc" class="st12" d="M375.4,385.3
		c0.3-1.3,1.6-0.3,1.7-0.1c0,0,1,2.1,0.9,3.6c-0.1,0.9-1.1,3.2-1.1,3.2c0,0.1-1.2,0.9-1.1-0.5c0.4-1.6,0.9-2.4,0.8-3.7
		C376.5,386.9,376.1,386.4,375.4,385.3L375.4,385.3z"/>
	<path id="path4473" inkscape:connector-curvature="0" sodipodi:nodetypes="ccccscccccccscc" class="st32" d="M251.6,326.5
		c-22.9-24.2-29.7-28.6-29.7-28.6l-52.3,33.7l-84.2,98.3c0,0,25.7-20.4,24.8-15.9c-0.9,4.4-0.3,1.2,5.9,17.9
		c2.3-18.1,27.4-49.7,27.4-49.7s8.3,18.2,17.6,18.8c2.2-11.1,15.3-36,15.3-36l11,12.8c0,0,13.6-31.1,28.4-36.5
		c-1,9.1,2.7,24.1,2.7,24.1s16.6-34.7,19.9-23.4c2,7.1,6.4,13.7,17.1,23.1C248.2,346,251.4,339.6,251.6,326.5L251.6,326.5z"/>
	<path id="path3778" inkscape:connector-curvature="0" sodipodi:nodetypes="csscscccccccsccc" class="st33" d="M204.2,269.2
		c-5.6,16.5-17.4,36.3-31,53.8c-9.1,11.6-13.9,17.2-19.9,25c-5.4,6.9-35.1,46.2-75.4,89.1c0,0,50.9-56.5,47.5-40.2
		c-0.3,1.3-4,11.5-4,11.5l20.9-34.9c0,0,16,13.5,16.3,10.5c0.3-3,13.3-38.1,13.3-38.1s8.3,18.3,10.6,17.3c2.3-1,13.9-41.6,29.4-54.8
		c6,11.5,11.7,35.4,11.7,35.4s3.3-18.3,4.5-19c2.5-1.5,9.9,3.3,13,0.7c-3.8-6.2-4.7-14.9-4.7-14.9
		C230.1,303.3,227.8,301.4,204.2,269.2L204.2,269.2z"/>
	<ellipse id="path4542" class="st34" cx="416.3" cy="277.5" rx="2.6" ry="2.2"/>
	<path id="path4134" inkscape:connector-curvature="0" sodipodi:nodetypes="csscc" class="st35" d="M416.9,306.2
		c0,0-17.2-26.4-35.5-32.2c-13.7-4.4-33.6,22.3-38.3,39.6c-4.4,15.9-10.8-38.3,34-46C407.7,270.1,422,307.5,416.9,306.2z"/>
	<path id="path4582" inkscape:connector-curvature="0" sodipodi:nodetypes="ccccccccccccccc" class="st36" d="M38.3,486l-7.6,10
		l-3.1,4.2l-1,1.5l-1,1.5l-3-1.7l-1.4-1l-1.2-1.1l-1.1-1.4l-1.1-1.5l-0.7-1l-0.8-1.8c0,0,11-8.9,19.9-9c0.9,0.5,2.5,0.7,2.5,0.7
		L38.3,486z"/>
	<path id="path5559" inkscape:connector-curvature="0" sodipodi:nodetypes="sssccsccccs" class="st37" d="M239.4,184.2
		c5.9-10.2-14.2-15.2-15.2-15.2c-0.9,0-13.1-2.7-9.1,11.4c4,14,0,18.7-3.4,17.4c-3.4-1.3-15.7-7-9.8,5.7c5.9,12.7,7.6,12.3,7,18.2
		c-0.6,5.9-2.1,11.6-2.1,11.6l-0.9,0.6l7.2,5.3c0,0,12.7-39.2,15.5-41.7C231.4,195,236.5,189.1,239.4,184.2L239.4,184.2z"/>
	<path id="path5549" inkscape:connector-curvature="0" sodipodi:nodetypes="cscccc" class="st20" d="M249.1,182.8
		c-5.7,2.5-14.5,10.9-19.5,24.4c-3.3,8.9-3.4,23.3-6.6,32.2c-3.2,8.9-5.7,8.5-5.7,8.5l-11-11.2C221,222.9,224.9,182,249.1,182.8z"/>
	<path id="path5644" inkscape:connector-curvature="0" sodipodi:nodetypes="ccccc" class="st6" d="M416.2,162
		c11.5,8.5,13.4,12.7,12.5,14.8c-4.7-1.7-12.7-3.6-12.7-3.6C426.6,172.1,420.2,167.2,416.2,162L416.2,162z"/>
	<path id="path5646" inkscape:connector-curvature="0" sodipodi:nodetypes="ccc" class="st38" d="M415.7,173.2
		c53.1,25.9,38.3,47.3,27.1,74.8C483.5,199.7,427.4,172.2,415.7,173.2z"/>
	<path id="path5704" inkscape:connector-curvature="0" sodipodi:nodetypes="cccccsssssc" class="st8" d="M79.9,522.1
		c1.8,0,36.1-18.2,70.1,27.7c11.9,14.8,11.6,27.7,7.2,32c0,0-4.6,3.4,7.1,6.7c13.2,4.9,9.9,12,9.9,12c-1.8,3.5,0.9,8.8,0.2,8.8
		c-2.5,0.2-97.1-8.3-94.1-8.5c0.7,0-6.6-5.8,2.4-8.6c12.4-3.8,41.9-6.3,46.8-15.8c3.7-7.1,3-20.7,2.5-21.5
		C126.2,546.1,125,533.2,79.9,522.1L79.9,522.1z"/>
	<path id="path5706" inkscape:connector-curvature="0" sodipodi:nodetypes="ccsccc" class="st8" d="M272.9,592.3
		c-18.4-3.6-15.6,2-21.6,3.7c0,0,31.7-102.1,0.7-151.7s31.3-26.1,31.3-26.1c33.7,34,22.5,81.6,11.2,108.1
		C278.3,562.9,267.4,582.3,272.9,592.3z"/>
	<path id="path1721" inkscape:connector-curvature="0" sodipodi:nodetypes="cccc" class="st39" d="M416.4,232.5
		c8.9,11.1,15.1,22.3,16.2,33.2c-0.1,0.4,3.9-0.6,3.8-0.5C436.8,257.7,431.7,235.9,416.4,232.5z"/>
	<path id="path1721-2" inkscape:connector-curvature="0" sodipodi:nodetypes="cccc" class="st39" d="M308.5,225.1
		c10.3,10.6,18.8,19.3,22.6,38.2c-0.1,0.4,6.3-0.7,8.1-0.7C337.5,255.5,323.3,231.3,308.5,225.1L308.5,225.1z"/>
	<path id="path1950" inkscape:connector-curvature="0" sodipodi:nodetypes="ccccc" class="st26" d="M406.9,400.1
		c1,0.5,3.9,0.3,4.8,1.7c1.1,4.1-1.6,15.6-1.6,15.6s2.1-10.6,0.2-15C409.8,401.2,406.9,401.8,406.9,400.1L406.9,400.1z"/>
	<path id="path1950-8" inkscape:connector-curvature="0" sodipodi:nodetypes="ccccc" class="st26" d="M372.3,392.2
		c2.5,1.9,6.9-0.1,7.8,1.3c1.1,4.1-1.6,15.6-1.6,15.6s2.1-10.6,0.2-15C378.2,392.9,374,395.3,372.3,392.2L372.3,392.2z"/>
	<path id="rect4692-4-7" inkscape:connector-curvature="0" sodipodi:nodetypes="sssssssssss" class="st15" d="M380.7,271.8
		c-5.7-3.8-12.9,4.9-18.3,9.4c-7.2,6-13.3,17.1-16.2,23.4c-5,10.5-6,18.5-4.4,25.5c1.4,5.9,4.3,10.9,8.5,14.4
		c4.1,3.4,11,5.1,15.7,8.3c10.1,7,10,3.6,19.2,3.5c5.6-0.1,15.6-6.5,20.5-12.4c8.2-9.9,11.5-18.9,12.9-26.7
		c2.1-11.5-8.3-22.1-12.2-25.7C394.1,280,395.5,281.7,380.7,271.8L380.7,271.8z"/>
	
		<path id="path4974" inkscape:connector-curvature="0" sodipodi:nodetypes="ccaacaaacccaaaccccaaaaaaaaaaaaaaacaccaaaccaaaaaaaccc" class="st19" d="
		M384.8,287.8c-0.1,6.6,2.7,12.9,1,18.9c0,0,2.3,0,3.4,0.3c1,0.2,1.9,0.6,2.7,1.1c1.6,1,4.4,3.6,4.4,3.6s0.9,0.6,1.4,0.8
		c0.8,0.3,1.6,0.5,2.4,0.7c0.9,0.2,1.8,0.3,2.8,0.2c0.9,0,2.6-0.5,2.6-0.5l-0.2-0.8l-1-1.9c0,0,1.9,1,2.4,1.9
		c0.3,0.5,0.4,1.2,0.4,1.8c0,0.6-0.2,1.3-0.4,1.9c-0.2,0.4-0.7,1.1-0.7,1.1l0.2-2.1l-0.4-0.3l-0.6,0.3c0,0-1.5-0.1-2.3-0.1
		c-1.3-0.1-2.6,0-3.8-0.3c-1-0.2-2-0.6-2.9-1c-0.7-0.4-1.2-0.9-1.8-1.3c-1.5-1-2.9-2.3-4.6-3c-1-0.4-2.1-0.4-3.1-0.5
		c-0.8-0.1-1.6-0.2-2.4-0.2c-1.4,0.1-2.7,0.4-4.1,0.8c-1,0.3-2,0.5-2.9,1c-0.8,0.4-1.3,1.2-2.1,1.6c-1,0.6-2.2,0.9-3.3,1.2
		c-1,0.3-2,0.5-3,0.7c-1.2,0.2-2.4,0.3-3.5,0.3c-1,0-2-0.3-2.9-0.5c-0.7-0.1-1.3-0.3-2-0.5c-1-0.2-2.9-0.6-2.9-0.6s-0.9,0.8-1.2,1.3
		c-0.5,0.7-1,2.2-1,2.2l0,1.8c0,0-1.1-2.9-0.9-4.4c0.2-1.1,0.8-2.1,1.5-3c0.4-0.6,1-1.1,1.5-1.6c0.5-0.4,1.5-1,1.5-1
		c-0.7,1.9-1.1,2.4-0.4,3.2c0,0,2.6,0.7,4,0.9c1.5,0.2,2.9,0.2,4.4,0.1c1.4-0.1,2.7-0.3,4.1-0.7c1.1-0.3,2.1-0.6,3.1-1.1
		c1.1-0.5,2-1.4,3.1-1.9c1-0.4,2-0.7,3-0.9c0.9-0.2,1.7-0.5,2.6-0.5c0.4,0,1.2,0.1,1.2,0.1c1.5-6.3-0.9-12.5-1-19L384.8,287.8z"/>
	<path id="path910" inkscape:connector-curvature="0" class="st19" d="M406.6,304c-0.4-2.7-2.5-6.7-4.5-8.8c-2.2-2.2-5.1-4-6-3.6
		c-0.9,0.3-2.6,3-3.3,5c-0.7,2.2-0.3,5.7,0.7,6.5c1.8,1.3,5.6,2.4,9.4,2.6l4,0.2L406.6,304z"/>
	<path id="path912" inkscape:connector-curvature="0" class="st19" d="M370.3,303.9c1.6-0.2,4-0.6,5.3-0.9c2.2-0.5,2.4-0.7,2.8-2.2
		c0.5-2.2,0.1-5.2-1.1-7.6c-0.9-1.8-1-1.9-3-1.9c-2.1,0-7.7,1.8-8,2.5c-0.1,0.2-0.4,0.4-0.7,0.4c-2,0-7.5,6-8,8.7l-0.3,1.5l5-0.1
		C365.2,304.3,368.7,304.1,370.3,303.9L370.3,303.9z"/>
	<path id="path1180" inkscape:connector-curvature="0" class="st19" d="M387.7,326.9c1.2-0.8,3.1-3.2,4-5.1c0.9-1.9,1.2-4.1,0.6-5.2
		c-0.6-1.2-2.7-2.9-4.4-3.8c-2.1-1-4.3-1.1-6.1-0.2c-1.6,0.8-3.5,2.6-4.2,4.1c-0.5,1.2-0.5,1.2-0.2,2.2c1.6,4.1,5.4,8,8.4,8.4
		C386.6,327.5,386.9,327.4,387.7,326.9L387.7,326.9z"/>
	<path id="path1182" inkscape:connector-curvature="0" class="st19" d="M386.8,367.5c3-0.3,7.9-1.3,10.8-2.3c4.7-1.6,8.6-3.9,10-6
		c1.1-1.6,1.2-2.9,1.2-10c-0.1-7.6-0.1-7.5,2.8-10.6c1-1.1,1.9-2.2,2-2.5c0.3-1-1.6-4.2-3.6-6.1l-0.9-0.8l-0.6,0.8
		c-1.7,2.3-5.6,5.3-8.1,6.3c-0.5,0.2-2.1,0.5-3.5,0.6c-3.8,0.4-17.1,0.8-26.6,0.8l-8.6,0l-1.3-0.7c-1.3-0.6-3.8-3-4.1-3.8
		c-0.3-0.9-3.1,2.7-4.8,6.1l-0.9,2l0.5,1.1c0.7,1.6,2.4,4.6,4.9,8.4c2.7,4.2,3.3,5.4,3.8,8.6c0.5,2.9,0.7,3.4,2.7,5.1
		c1.5,1.3,3.1,2.1,5.4,2.6C369.5,367.6,383.4,367.9,386.8,367.5L386.8,367.5z"/>
	<path id="path5702" inkscape:connector-curvature="0" sodipodi:nodetypes="sscsss" class="st40" d="M410.9,337.3
		c-3,5.2-3.7,0.6-3.2,18.1c0.2,4.9-9.8,10.2-13,9.8c0.1-4.3,8.7-4.9,10.2-8.3c2.3-5.1-1.1-13.4,2.5-17.8
		C408.5,337.9,412.7,334.4,410.9,337.3z"/>
	<path id="path5606" inkscape:connector-curvature="0" sodipodi:nodetypes="ccc" class="st41" d="M392.1,279.4
		c4.6,4.1,42.3,23.9,19.2,55.7C416,312.6,422.4,308.9,392.1,279.4z"/>
	
		<path id="rect4692-42" inkscape:connector-curvature="0" inkscape:transform-center-x="-1.4313192e-06" inkscape:transform-center-y="0.59928847" sodipodi:nodetypes="sssszsss" class="st19" d="
		M380.3,270.1c-5.2-0.1-11,1.5-15,4.6c-3.4,2.7-1.5,4.9,2.9,8.7c2.7,2.4,7.9,5.2,14.3,5.9c3.1,0.3,5.8-2,8.1-3.5
		c2.3-1.5,1.6-1.4,4-4.1c1.4-1.5,3.1-4.2,0.9-5.8C391.3,272.6,385.8,270.2,380.3,270.1L380.3,270.1z"/>
</g>
</svg>
