<?xml version="1.0" encoding="utf-8"?>
<!-- Generator: Adobe Illustrator 23.0.0, SVG Export Plug-In . SVG Version: 6.00 Build 0)  -->
<svg version="1.1" id="Camada_1" xmlns="http://www.w3.org/2000/svg" xmlns:xlink="http://www.w3.org/1999/xlink" x="0px" y="0px"
	 viewBox="0 0 214.5 204.8" style="enable-background:new 0 0 214.5 204.8;" xml:space="preserve">
<style type="text/css">
	.st0{fill:#6D4703;}
</style>
<g id="g927" transform="matrix(0.28892226,0,0,0.28892226,-6.3125644,-24.438914)">
	<g id="g913" transform="translate(21.082089,-0.37313434)">
		<path id="path817-0_2_" class="st0" d="M486.1,607.7"/>
		<path id="path817-8" class="st0" d="M371,439.4c47.8,0,137.1,123.9,137.1,171.9c0,48.1-93-4.7-140.8-4.7S234,663.1,234,615
			C233.9,567,323.2,439.4,371,439.4z"/>
		
			<ellipse id="path817-8-0" transform="matrix(0.9635 -0.2676 0.2676 0.9635 -109.4729 56.5179)" class="st0" cx="152.6" cy="429.9" rx="81.2" ry="126.1"/>
		
			<ellipse id="path817-8-0-3" transform="matrix(0.503 -0.8643 0.8643 0.503 -73.1764 732.6306)" class="st0" cx="600.4" cy="429.9" rx="126.1" ry="81.2"/>
		
			<ellipse id="path817-8-0-1" transform="matrix(0.9751 -0.2216 0.2216 0.9751 -51.8313 70.8423)" class="st0" cx="289.8" cy="266.4" rx="81.2" ry="126.1"/>
		
			<ellipse id="path817-8-0-1-3" transform="matrix(0.1042 -0.9946 0.9946 0.1042 158.8215 706.6805)" class="st0" cx="471.7" cy="265.2" rx="126.1" ry="81.2"/>
	</g>
</g>
</svg>
