<?xml version="1.0" encoding="utf-8"?>
<!-- Generator: Adobe Illustrator 23.0.0, SVG Export Plug-In . SVG Version: 6.00 Build 0)  -->
<svg version="1.1" id="Camada_1" xmlns="http://www.w3.org/2000/svg" xmlns:xlink="http://www.w3.org/1999/xlink" x="0px" y="0px"
	 viewBox="0 0 167.7 170.2" style="enable-background:new 0 0 167.7 170.2;" xml:space="preserve">
<style type="text/css">
	.st0{opacity:0.885;fill:#DAD8D6;enable-background:new    ;}
	.st1{fill-rule:evenodd;clip-rule:evenodd;fill:#C6C6C5;}
	.st2{fill:#928E8E;}
	.st3{fill:#F0EFEF;}
	.st4{fill:#C6C6C5;}
	.st5{opacity:0.885;fill:#606060;enable-background:new    ;}
	.st6{fill:#727272;}
	.st7{fill:#4F2D12;stroke:#070308;stroke-width:0.2317;}
	.st8{opacity:0.885;fill:#C6C6C5;enable-background:new    ;}
	.st9{opacity:0.885;fill:#655631;enable-background:new    ;}
	.st10{fill:#FFFFFF;}
	.st11{opacity:0.885;fill:#070308;enable-background:new    ;}
	.st12{opacity:0.885;fill:#FAFAEA;enable-background:new    ;}
	.st13{opacity:0.885;fill:#2A130E;enable-background:new    ;}
	.st14{fill:#606060;}
	.st15{enable-background:new    ;}
	.st16{fill:#4F2D12;}
	.st17{fill:none;stroke:#070308;stroke-width:0.1793;}
	.st18{fill:none;stroke:#070308;stroke-width:0.2646;}
	.st19{fill:#AEABAA;}
	.st20{fill:#D0CDE5;fill-opacity:0;}
	.st21{opacity:0.885;fill:#727272;enable-background:new    ;}
	.st22{opacity:0.885;fill:#F5E7E2;enable-background:new    ;}
	.st23{fill:#070308;}
	.st24{opacity:0.885;fill:#505137;enable-background:new    ;}
	.st25{opacity:0.885;fill:#050007;enable-background:new    ;}
	.st26{fill:#C85964;}
	.st27{fill:#393939;}
</style>
<g>
	<path id="path1170_5_" class="st0" d="M161.8,44.2c-1.7,1.1-1.6-8.5-9.6-11.4c-3.1-6-20.3-21.5-20.3-21.5s30.4-10.6,35.7,8.3
		C168.6,31.1,163,45,161.8,44.2L161.8,44.2z"/>
	<path id="path1742_5_" class="st0" d="M133.7,12.1c24.9-4.5,28.3,1,31.2,6.5c2,3.9,0.8,8,0.3,10.4c-0.4,2.4-0.8,5.2-2.2,4.5
		s0-12.8-7.1-14.1c-5.2-1-15.6-1.3-15.6-1.3L133.7,12.1z"/>
	<path id="path4698_5_" class="st1" d="M71.3,45.5c-1.5,5.2,9.6,17.1,13.5,21.6c6.9,7.8,10.6,9.8,23.8,17c9,4.9,24.2,5.4,34.2,0.1
		c8.3-4.4,15.1-14.2,13.7-23.9c-0.5-3.4-3.9-5.9-4.9-8.3c-1-2.4-0.2-7.8-0.3-8.5s3-3.1,4.8-9.7c1.8-6.7-6.2-15.1-12.6-16.2
		c-0.8-0.1-1.7-0.4-2.6-0.4c0.7-0.1,3.8,0.6,5.5,1.3c1.6-3.2-21.3-16.3-36-18.5c-10.2,0.2-13.1,3.7-23.6,10.4
		c-5.4,3.4-12.6,18.8-14,29.7C72.4,42.5,72.8,40.3,71.3,45.5L71.3,45.5z"/>
	<path class="st2" d="M101.5,18.8c0,0-0.5-4.9,3.3-5.4c3.8-0.4,4.6-3.8,5.3-4.1c0.7-0.3,4.7-1.7,7.3,0c2.6,1.7,4.1-0.2,7,1.6
		c3,1.8,5.1,1.4,8.4,2.5c3.3,1.1,4.7,2.6,6,4.4s4.4,4.1,4.9,5.5c0.6,1.4,0.4,2.5,0.4,2.5l-2.3,0.2c0,0-0.7,1.3-1.1,1.9
		c-0.4,0.6-4.2,1.8-3.3,3.1c0.9,1.3,0,2.6,0,2.6c-0.4,1.2-1,3-1.6,5.3c-0.9,3.4-1.2,5.3-2.2,5.5c-0.8,0.2-1.1-0.9-2.6-1.6
		c-1.8-0.8-3.5-0.3-5.5,0.2c-3,0.8-5.8,2.4-5.8,2.4l0,0l-13-13.5c0,0-0.2-3.5,0-3.8s0.8-1.2-2.3-3.6C101.4,22,101.5,18.8,101.5,18.8
		z"/>
	<path id="path5509-1_5_" class="st3" d="M86.7,10.2c5.4-1.5,9.6-6.8,14.2-8.5c-1,1.3-9.4,7.4-10.3,10.8L86.7,10.2z"/>
	<path id="path4994_5_" class="st4" d="M138.9,120.8c0,0,1.1,1.7,1.5,2.6c0.5,1.3,0.8,2.7,1,4c0.2,1.6,0.3,3.2,0.3,4.8c0,1,0,2,0,3
		c-0.1,1.2-0.1,2.3-0.3,3.5c-0.3,1.8-0.7,3.5-1.2,5.2c-0.3,1-0.7,2-1.1,3.1c-0.3,0.8-0.6,1.7-0.9,2.5c-0.4,1-0.8,2-1.2,3.1
		c-0.5,1.2-1.1,2.4-1.7,3.7c-0.2,0.7-0.4,1.3-0.7,2c-0.2,0.6-0.4,1.1-0.6,1.8c-0.1,0.5-0.3,1-0.2,1.5c0,0.2,0.2,0.4,0.3,0.5
		c0.6,0.7,1.3,1.2,2.1,1.8c0.5,0.4,1.2,0.6,1.7,1.1c0.3,0.3,0.4,0.8,0.4,1.2c0.1,0.5-0.1,1.1-0.2,1.6c-0.1,0.5-0.5,1.5-0.5,1.5
		s-0.5,0.2-0.7,0.2c-0.7,0.2-1.3,0.3-2,0.4c-1.3,0.2-2.7,0.2-4,0.2s-2.7,0-3.9-0.2c-1.1-0.2-2.1-0.5-3.2-0.9c-0.8-0.3-2.2-1-2.2-1
		s-0.6-2.2-0.6-3.3c0-1,0.2-1.9,0.3-2.9c0.1-0.9,0.4-1.9,0.3-2.8c-0.1-1.1-0.5-2.1-0.8-3.2c-0.4-1.3-1.1-2.4-1.7-3.7
		c-0.5-1.3-1-2.5-1.3-3.9c-0.4-1.5-0.8-4.6-0.8-4.6l0.2-1.9l6-4.4L138.9,120.8z"/>
	<path id="path4996_5_" class="st5" d="M65.3,159.5c0,0.3,0.8,0.6,1,1.1c0.3,0.6,0.4,1.3,0.4,2c0,0.8-0.3,2.3-0.3,2.3
		c-7.3-0.9-9.4-0.4-15.9-2.8l-0.3-2.2L65.3,159.5z"/>
	<path id="path5608-7_5_" class="st3" d="M81.4,21.8c0,0-6.8,27,3.5,41.7S70.7,47.3,70.7,47.3L75.2,37l4.3-13.8l1.3-1.5L81.4,21.8z"
		/>
	<path id="path5608_5_" class="st0" d="M79.9,23.3c0,0-6.8,27,3.5,41.7S69.3,48.9,69.3,48.9l4.5-10.3l4.3-13.8l1.3-1.5L79.9,23.3
		L79.9,23.3z"/>
	<path id="path5708_5_" class="st6" d="M138.1,120.6c0.3-0.3,4.4,1.9,3.5,14.5c-23.7,4.8-19.3,20.5-20,23.6
		c-0.3-1.3-0.3-2.4-1.9-5.4c0,0-3.6-7.8-2.2-11.5C119,138,138.1,120.6,138.1,120.6z"/>
	<path id="rect4708_5_" class="st4" d="M143.4,85.8c-42.5,12.7-70.3-29.1-73.3-39.3c0,0-3.2,12.2-14.9,25.7c0,0-6.9,8.8-18.9,23.4
		c-5.4,6.8-10.8,11.3-16.4,18.7c-5.1,6.6-14.5,16.5-19.8,28c-0.7,4.5,1,9.7,4.2,13c3.1,3.2,8.3,3.9,12.7,4.4
		c26.1,3.4,45,7.8,78.7-6.1c8.3-3.2,16.7-6.8,24.1-11.8c5.4-3.6,10.5-7.8,14.5-12.8c2.9-3.6,5.4-7.8,6.8-12.3
		c1.2-3.6,1.3-11.3,1.3-11.3c0.3-1.2,0-6.6-0.4-9.8C141.5,91.2,144.3,84,143.4,85.8L143.4,85.8z"/>
	<path id="path4584_5_" class="st2" d="M143.3,86.9c0.1,2.4,0.1,5-0.2,7.9c-0.2,1.6-0.4,3.1-0.6,4.5c3.8,33.9-25.7,44.9-52.2,57.2
		c-1.1,0.4-21.8,6.3-32.2,6.5c-10.4-0.9-15.9-2.5-15.3-2.4c0.5-0.1,1.2-0.3,1.7-0.4c39.4-9.8,47.4-10.6,53.1-12.8
		c10.9-4.2,23.8-17.6,30.7-58.9c2.2-1,5.8-2.2,10.3-2.1C140.3,86.4,141.9,86.6,143.3,86.9z"/>
	<path id="path4980_5_" class="st4" d="M96,101.7c0.2,0,3.8,4,4.9,6.6c0.9,2.3,1.8,4.9,2.3,7.4c0.3,1.8,0.4,3.6,0.4,5.4
		c0,2.2-0.2,4.3-0.6,6.5c-0.3,1.9-0.6,3.8-1.1,5.6c-0.6,2-1.4,4-2.2,5.9c-0.9,2.2-1.8,4.3-2.8,6.4c-0.8,1.7-2.5,5.1-2.5,5.1
		c-1.5,3.2-2.5,5.4-2.5,9c0,0,0.1,1.4,0.6,1.9c0.4,0.4,1.2,0.3,1.8,0.4c0.7,0.2,1.4,0.4,1.9,0.9c0.6,0.5,1,1.3,1.1,2
		c0.2,1,0,2.1-0.3,3c-0.3,0.7-0.7,1.4-1.4,1.8c-2.1,0.6-4.3,0.6-6.5,0.6s-3.9-0.2-6.7-0.7c-0.9-0.4-1.7-0.5-2.4-1.5
		c-0.2-0.8-0.3-1.5-0.3-2.3c0-1-0.2-2.1-0.3-3.2c-0.1-1.4-0.3-2.8-0.4-4.2c-0.3-2.1-0.6-4.2-1.1-6.3s-1.3-4.1-2-6.1
		c-0.7-1.8-1.6-3.5-2.3-5.3c-0.6-1.4-1.2-2.7-1.8-4.1c-0.7-1.7-1.3-3.4-1.9-5.2c-0.6-2.1-1-4.3-1.5-6.5c-0.3-1.4-0.7-2.9-0.7-4.3
		s0.1-2.8,0.6-4.1c0.2-0.5,0.9-1.4,0.9-1.4l-0.1,0.2"/>
	<path id="path4998_5_" class="st4" d="M26.3,137.5l4.7-0.9c0,0,3.6-0.2,5.2,0.3c4.3,1.3,6.5,2.5,10.8,6.7c1.4,1.6,2.6,3.1,3.9,4.9
		c0,0,1,1.8,1.4,2.7s0.8,1.8,1,2.7c0.1,0.9,0.1,1.9-0.1,2.8c-0.2,0.8-1.3,1.5-1.1,2.3c0.1,0.3,0.2,0.4,0.8,0.8
		c0.6,0.3,1.9,0.6,2.8,1c0.9,0.4,1.7,0.9,2.2,1.6c0.3,0.4,0.4,0.9,0.4,1.4c0,0.6-0.3,1.2-0.3,1.8s0.2,1.2,0.3,1.9
		c-1.2-0.2-4-0.4-4-0.4l-5.4-0.4l-6.3-0.4l-5.7-0.6l-10.6-1l-5.7-0.2l-5.4-0.3c0,0-2.9-0.3-3.6-0.7c-0.3-0.7-0.8-1.3-1-2
		c-0.2-0.8,0.1-2.4,0.1-2.4s-1-0.6-1.5-0.9c-1.3-0.7-3.9-1.9-3.9-1.9"/>
	<path id="path1481-7_5_" class="st7" d="M126.5,85.9c1.1-0.7,1.7-0.3,2,0.1c-1.1,1.7-0.4,3.4-0.2,4.2c0.1,0.2,0.5,0.3,0.5,0.3
		s-1,0.3-2.1-0.1C126.5,89.8,125.6,88,126.5,85.9L126.5,85.9z"/>
	<path id="path5509_5_" class="st0" d="M86.9,10c3-1.9,11-7,12.7-7.7c-1,1.3-10.5,6.9-9.6,10.2L86.9,10z"/>
	<path id="path1153_5_" class="st0" d="M84.3,20.3c-0.1,1.1-6.9-0.2-8.9,18.9c-0.1,1.3-1.7,3.9-1.7,3.9s-7.1-6.2-9.6-9.7
		c-2-2.9-3.4-5.8-4.9-9.1c-2.6-5.9,2.2-8.9,5.7-11.2C80.7,2.7,90.7,13,90.7,13"/>
	<path id="path1153-6_5_" class="st8" d="M89.2,14.5c-12.8-9.2-24.3-0.2-30.3,4.3c0.9-2.8,3.8-4.6,6.1-6.1
		c15.7-10.4,25.7-0.1,25.7-0.1"/>
	<path id="rect4692_5_" class="st2" d="M142.3,34.7c-1.3-0.1-4.2-1.1-5.4-0.8c-0.7,1.5-0.4,3.2-1.1,5.4c-3.2,5.7-2.7,9.7-2.6,13.5
		c0.1,3.2,3.6,1.8,4,4.5c0.2,1.4,6,0.4,9.5-1.8c1.1-0.7,2.7-2.8,3.4-5.2c0.7-2.3,0.3-5.2-0.2-7.3C149,39.4,146.1,35.1,142.3,34.7
		L142.3,34.7z"/>
	<path id="rect4692-4_5_" class="st2" d="M103.9,31.6c-3.2,0.7-6.4,2.5-8.9,4.5c-3.4,2.7-5.5,4.3-7.8,8.2c-2.9,4.8,4.4,7.4,6.9,9
		c3.8,2.3,10.4,4.1,15.7,4c0,0,7.1,0.6,12.9-4c2.2-1.7-5-10.2-6.6-11.9c-1.1-1.2-3.6-5.5-7.4-7.8c1.2-0.8,1.6-1,4.1-1.3
		C111,30.7,104.5,31.5,103.9,31.6L103.9,31.6z"/>
	<path id="rect4692-4-0_5_" class="st8" d="M104.7,34.8c-2.6-0.3-5,1.7-7,3.2c-2.6,2.1-4.2,3.3-6,6.3c-2.2,3.6,3.4,5.7,5.3,6.9
		c2.9,1.8,8,3.1,12,3.1c0,0,5.4,0.4,9.9-3.1c1.7-1.3-3.8-7.8-5.1-9.2C112.7,40.8,108.6,35.2,104.7,34.8L104.7,34.8z"/>
	<path id="rect4692-4-0-9_5_" class="st9" d="M108,54.2c0,0,6.4,0.4,10.9-3.1c1.7-1.3-3.8-7.8-5.1-9.2
		C107.8,42.7,102.6,50.2,108,54.2L108,54.2z"/>
	<ellipse id="path5589-4_5_" class="st10" cx="107.3" cy="49.7" rx="1" ry="1"/>
	<path id="rect4692-4-0-9-0_5_" class="st11" d="M110.6,54.2c1.1-0.1,5.2-0.3,8.3-2.9c1.8-1.5-3.2-7.3-4.5-8.7
		c-3.8,0.5-7.1,4.1-7.6,6.5c1.9-0.5,1.2,2.2,0,1.1c0.1,0.9,0.8,2.9,2.4,4C109,54.3,110,54.3,110.6,54.2L110.6,54.2z"/>
	<path id="rect4692-4-0-8_5_" class="st3" d="M104.7,34.8c-2.1-0.3-3.9,0.8-5.9,2.3c-2.6,2.1-4.3,3.2-6.3,6
		c9.4,5.8,16.9,5.9,25.9,4.6c-1.5-2.5-3.8-5-4.4-5.7C113.3,41,108.5,35.3,104.7,34.8L104.7,34.8z"/>
	<path id="rect4692-9_5_" class="st12" d="M142.3,37.5c-2.2-0.2-4.2,1.8-5.3,3.8c-2.6,4.6-2.2,8-2.1,11.1c0.1,2.6-0.3,2.6,0.6,3.3
		c2.8,2.1,9.1,0.4,10.5-1.1c0.7-0.8,2.2-2.3,2.8-4.2s0.2-4.3-0.2-6C147.8,41.3,145.4,37.8,142.3,37.5z"/>
	<path id="rect4692-9-5_5_" class="st9" d="M143.3,56.3c1.1-0.8,2.2-1.7,2.8-2.3c0.7-0.8,2.5-1.8,3.1-3.8c0.6-1.9,0.2-4.3-0.2-6
		C138.3,44.9,138.9,55.2,143.3,56.3z"/>
	<ellipse id="path5589_5_" class="st10" cx="142.6" cy="53.3" rx="1" ry="1"/>
	<path id="rect4692-9-5-9_5_" class="st11" d="M143.8,56c0.9-0.6,1.1-0.7,1.9-1.3c0.8-0.6,2.8-2.3,3.4-4.2c0.4-1.5,0.4-3.6,0.1-5.2
		c-5.9-0.4-8.1,4.1-7.5,7.4c0.9-0.5,2.2,0.8,0.4,1.4C142.7,55.2,142.9,55.4,143.8,56z"/>
	<path id="rect4692-9-7_5_" class="st3" d="M142.5,37.4c-2.3-0.2-4.4,1.8-5.6,3.8c-1.3,2.2-2,5.4-2.2,7.2c5.5,1.4,8.1,1.9,14.9,0.5
		c0.2-1.6-0.1-3.3-0.4-4.6C148.3,41.3,145.7,37.7,142.5,37.4z"/>
	<polygon id="path4951_5_" class="st11" points="132.6,65.8 132.6,65.8 132.6,65.8 132.6,65.8 	"/>
	<path id="path904_5_" class="st13" d="M132.6,69.8c1-1.1,1.5-2.4,1.2-3.1c-0.4-1-2-1.9-3.1-1.7c-0.8,0.1-1.8,0.9-2.1,1.6
		c-0.3,0.6-0.3,0.6,0.1,1.3c0.7,1.4,2,2.6,3,2.6C132,70.5,132.3,70.3,132.6,69.8L132.6,69.8z"/>
	<path id="path5563-2_5_" class="st0" d="M131.6,40.1c0,0,1.2,0.6,1.1,0.1c-0.1-1.4-2.3-3.8,1.3-7.5c1.2-1.3-1.1-0.1-0.7-0.6
		C131.4,33.3,130.8,38,131.6,40.1z"/>
	<path id="path5563-2-3_5_" class="st0" d="M123,38.3c0,0-1.2,0.6-1.1,0.1c0.1-1.4,2.3-3.8-1.3-7.5c-1.2-1.3,1.1-0.1,0.7-0.6
		C123.2,31.6,123.8,36.2,123,38.3z"/>
	<path id="path5563_5_" class="st0" d="M131.9,26.4c0,0,0.7-1.6,0.2-1.5c-1.6,0.5-3.7,4.1-8.7-0.1c-1.7-1.4,0.2,1.6-0.4,1
		C126.9,29.3,129.7,28,131.9,26.4z"/>
	<path id="path5563-5_5_" class="st0" d="M126.5,21.5c0,0-0.5-2.2-4.7-5.7c-0.3,0.5,5.2,6.5,2.4,5.8c-1.5-0.3-1,0.9-0.8,0.5
		C126.1,22.5,126.7,21.7,126.5,21.5z"/>
	<path id="path5561_5_" class="st0" d="M111.9,21.7c-2.1-2-3.9-3-8.3-2.5c-3.9,0.4-3.8,0.3-9,3.9c-5.3,3.7-7.4,9-7.8,10
		c0,0.7-0.4,4.6,1,0.6c1.5-4,2.4-1.4,3.6-3.1c1.2-1.7,3.9-6.3,4.8-7.1c1-0.8,3-1.6,4.9-2.1c1.9-0.4,4.6-0.4,5.8-0.2
		c1.6,0.2,4,2.1,5.3,2C112.9,23,112.3,22,111.9,21.7L111.9,21.7z"/>
	<path id="path5563-2-3-1_5_" class="st0" d="M152.6,34.1c0,0-0.6,2.1-1.1,1.5c-1.5-2-1.7-7.6-9.8-8.2c-2.8-0.2,1.1-1.4,0.1-1.4
		C145.3,25.1,151.1,30.4,152.6,34.1L152.6,34.1z"/>
	<path id="path1174_5_" class="st2" d="M113,56.7c3.1-0.4,6.2-1.4,8.5-3c1.1-0.7,1.5-1,1.6-1.4c0.2-0.6-0.1-1.9-0.9-3.2
		c-1-1.9-3.2-4.9-5.5-7.5c-0.5-0.6-1.3-1.6-1.8-2.2c-1.9-2.6-3.6-4.3-5.1-5.5c-0.5-0.3-0.9-0.7-1-0.7s-0.1-0.1-0.1-0.1
		c0-0.1,1.1-0.7,1.6-0.9c0.4-0.2,1.8-0.4,2.1-0.4c0.7,0-0.2-0.4-1.3-0.7c-0.7-0.1-1-0.2-3-0.2c-2.6,0-3.8,0.1-5.3,0.6
		c-2.9,0.9-5.4,2.3-8.7,4.9c-3.2,2.6-5,4.4-6.5,6.9c-0.8,1.3-0.9,1.7-0.9,2.7c0,0.8,0,0.9,0.3,1.5c0.7,1.4,2.1,2.5,5,4.1
		c0.6,0.3,1.6,0.9,2.3,1.2c3.4,1.9,7.4,3.2,11.9,3.8C107.7,56.8,111.8,56.9,113,56.7L113,56.7z M106.2,53.7c-2.9-0.4-5.8-1.2-8-2.3
		c-1.8-0.9-3.8-2-4.6-2.5c-0.9-0.6-1.6-1.3-2-2c-0.3-0.5-0.3-0.6-0.3-1.3s0-0.8,0.3-1.3c0.7-1.3,1.9-2.9,3.2-4.2
		c1-1,1.3-1.2,3.3-2.8c1.8-1.4,2.5-1.9,3.4-2.3c2.2-1,4-0.9,6.4,0.7c2.3,1.5,5.2,4.4,8.4,8.6c1.5,1.9,2.6,3.7,2.9,4.9
		c0.1,0.5,0.1,1.2-0.1,1.5c-0.3,0.6-2.4,1.8-4,2.3c-1,0.3-2.5,0.7-3.7,0.8C110.3,53.9,107.6,53.9,106.2,53.7L106.2,53.7z"/>
	<path id="path4584_3_" class="st14" d="M143.4,85.8c0.4,3.5,0.4,6.3,0.2,8.1c-0.1,1.1-0.2,1.8-0.4,4c-0.3,3.1-0.4,5.3-0.4,5.8
		c-1,15-8.3,21.6-8.3,21.6c-1.7,1.4-5.2,4-10.9,4.9c2.7-3.3,5.3-6.5,8-9.8c-1.2,0.3-2.6,0.6-4,0.8c-3.8,0.6-7.3,0.7-10.3,0.6
		c1.1-0.6,2.3-1.5,3.6-2.8c2.7-2.7,4-5.7,4.5-7.5c-2.5,0.6-5.1,1.2-7.6,1.8c1.9-6.3,1.1-8.8-0.1-9.9c-1.9-1.6-4.6,0-6.4-1.8
		c-1.7-1.7-0.3-4.2-0.9-8.7c-0.5-3.2-1.8-5.7-2.8-7.3c3.6,1.5,9.5,3.4,17,3.5C133.1,89.3,139.6,87.3,143.4,85.8z"/>
	<path id="path1499-0_5_" class="st7" d="M128.2,90.5c-0.2,0-0.6,0-0.6,0s-0.3,0.7-0.3,1.2c0,0.3,0.4,1.1,0.4,1.1s0.3-0.1,0.4-0.2
		c-0.1-0.6-0.3-0.8-0.3-1.3C127.8,91.1,127.9,90.9,128.2,90.5L128.2,90.5z"/>
	<g>
		<g class="st15">
			<path class="st16" d="M121.5,98.3c0.1,1.5,0,2.7-0.5,3.7s-1.1,1.6-2,1.9l0.1,2.4l-2.4,0.6l-0.6-5.7c-0.2-1.5-0.4-3.5-0.7-6.1
				c0.4-0.3,1.1-0.5,2-0.8c1.1-0.3,1.9-0.1,2.6,0.5C120.9,95.5,121.3,96.6,121.5,98.3z M119.8,100.1c-0.1-0.8-0.4-1.1-0.9-1
				c-0.1,0-0.1,0-0.2,0.1l0.2,2.7C119.6,101.6,119.9,101,119.8,100.1z"/>
		</g>
		<g class="st15">
			<path class="st17" d="M121.5,98.3c0.1,1.5,0,2.7-0.5,3.7s-1.1,1.6-2,1.9l0.1,2.4l-2.4,0.6l-0.6-5.7c-0.2-1.5-0.4-3.5-0.7-6.1
				c0.4-0.3,1.1-0.5,2-0.8c1.1-0.3,1.9-0.1,2.6,0.5C120.9,95.5,121.3,96.6,121.5,98.3z M119.8,100.1c-0.1-0.8-0.4-1.1-0.9-1
				c-0.1,0-0.1,0-0.2,0.1l0.2,2.7C119.6,101.6,119.9,101,119.8,100.1z"/>
		</g>
		<g class="st15">
			<path class="st16" d="M124.9,97.3l0.2,3.2c0.1,0.9,0.2,2.3,0.3,4.1c-0.4,0.4-0.9,0.7-1.4,0.8c-0.6,0.2-1.1,0.1-1.4-0.3
				c-0.3-0.3-0.5-0.8-0.7-1.5c-0.1-0.4-0.2-1.2-0.4-2.3c-0.1-1.1-0.3-2-0.3-2.9l1.7-0.5c0,0.4,0.1,1.1,0.1,2.1
				c0,0.5,0.1,1.3,0.2,2.3c0.1,0.7,0.1,1.2,0.2,1.5c0.1,0.3,0.3,0.4,0.5,0.3c0.1,0,0.1-0.1,0.2-0.2c-0.1-0.7-0.1-1.7-0.3-3.2
				c-0.1-0.7-0.2-1.7-0.3-3L124.9,97.3z"/>
		</g>
		<g class="st15">
			<path class="st18" d="M124.9,97.3l0.2,3.2c0.1,0.9,0.2,2.3,0.3,4.1c-0.4,0.4-0.9,0.7-1.4,0.8c-0.6,0.2-1.1,0.1-1.4-0.3
				c-0.3-0.3-0.5-0.8-0.7-1.5c-0.1-0.4-0.2-1.2-0.4-2.3c-0.1-1.1-0.3-2-0.3-2.9l1.7-0.5c0,0.4,0.1,1.1,0.1,2.1
				c0,0.5,0.1,1.3,0.2,2.3c0.1,0.7,0.1,1.2,0.2,1.5c0.1,0.3,0.3,0.4,0.5,0.3c0.1,0,0.1-0.1,0.2-0.2c-0.1-0.7-0.1-1.7-0.3-3.2
				c-0.1-0.7-0.2-1.7-0.3-3L124.9,97.3z"/>
		</g>
		<g class="st15">
			<path class="st16" d="M127.9,101c0,0.3,0,0.8,0,1.6c0,0.5,0,1,0.1,1.6c-0.2,0.2-0.6,0.3-1,0.5c-0.7,0.2-1.3,0-1.8-0.4
				c-0.6-0.5-0.9-1.5-1-2.8c-0.1-1.3,0-2.3,0.4-3.1c0.4-0.8,0.9-1.2,1.6-1.4c0.3-0.1,0.5-0.1,0.8-0.1l0.4,3c-0.1-0.1-0.3,0-0.5,0
				c-0.3,0.1-0.5,0.3-0.7,0.7c-0.2,0.4-0.3,0.9-0.3,1.4c0,0.5,0.2,0.9,0.4,1.1c0.2,0.2,0.4,0.2,0.7,0.2l-0.1-1c0-0.2-0.1-0.5-0.2-1
				L127.9,101z"/>
		</g>
		<g class="st15">
			<path class="st18" d="M127.9,101c0,0.3,0,0.8,0,1.6c0,0.5,0,1,0.1,1.6c-0.2,0.2-0.6,0.3-1,0.5c-0.7,0.2-1.3,0-1.8-0.4
				c-0.6-0.5-0.9-1.5-1-2.8c-0.1-1.3,0-2.3,0.4-3.1c0.4-0.8,0.9-1.2,1.6-1.4c0.3-0.1,0.5-0.1,0.8-0.1l0.4,3c-0.1-0.1-0.3,0-0.5,0
				c-0.3,0.1-0.5,0.3-0.7,0.7c-0.2,0.4-0.3,0.9-0.3,1.4c0,0.5,0.2,0.9,0.4,1.1c0.2,0.2,0.4,0.2,0.7,0.2l-0.1-1c0-0.2-0.1-0.5-0.2-1
				L127.9,101z"/>
		</g>
		<g class="st15">
			<path class="st16" d="M132.4,94.5c0.1,0.9,0,1.8-0.2,2.5c-0.2,0.6-0.4,1.1-0.7,1.4c0.2,0.1,0.4,0.3,0.6,0.6
				c0.2,0.3,0.3,0.7,0.3,1.1c0.1,1-0.2,1.8-0.7,2.4c-0.4,0.5-1,0.8-1.8,1c-0.6,0.2-1.4,0.3-2.1,0.3c-0.1-1.2-0.3-3.2-0.6-5.9
				c-0.2-1.5-0.4-3.4-0.7-6c0.5-0.3,1.2-0.6,2.1-0.8C130.9,90.5,132.1,91.6,132.4,94.5z M130.7,96.4c0-0.4-0.1-0.7-0.3-0.8
				c-0.2-0.2-0.4-0.2-0.7-0.1l0.1,2.4C130.5,97.6,130.8,97.2,130.7,96.4z M130.9,100.1c0-0.6-0.3-0.8-0.8-0.7c0,0-0.1,0-0.2,0.1
				l0.1,1.9C130.7,101.2,130.9,100.8,130.9,100.1z"/>
		</g>
		<g class="st15">
			<path class="st18" d="M132.4,94.5c0.1,0.9,0,1.8-0.2,2.5c-0.2,0.6-0.4,1.1-0.7,1.4c0.2,0.1,0.4,0.3,0.6,0.6
				c0.2,0.3,0.3,0.7,0.3,1.1c0.1,1-0.2,1.8-0.7,2.4c-0.4,0.5-1,0.8-1.8,1c-0.6,0.2-1.4,0.3-2.1,0.3c-0.1-1.2-0.3-3.2-0.6-5.9
				c-0.2-1.5-0.4-3.4-0.7-6c0.5-0.3,1.2-0.6,2.1-0.8C130.9,90.5,132.1,91.6,132.4,94.5z M130.7,96.4c0-0.4-0.1-0.7-0.3-0.8
				c-0.2-0.2-0.4-0.2-0.7-0.1l0.1,2.4C130.5,97.6,130.8,97.2,130.7,96.4z M130.9,100.1c0-0.6-0.3-0.8-0.8-0.7c0,0-0.1,0-0.2,0.1
				l0.1,1.9C130.7,101.2,130.9,100.8,130.9,100.1z"/>
		</g>
		<g class="st15">
			<path class="st16" d="M134.9,98.4c0.1,1.1,0,2.1-0.3,3c-0.3,0.9-0.7,1.4-1.2,1.6c-0.6,0.1-1-0.2-1.4-0.9
				c-0.4-0.7-0.6-1.6-0.7-2.8c-0.1-1.2,0-2.2,0.3-3c0.3-0.7,0.7-1.2,1.2-1.3c0.5-0.1,1,0.1,1.4,0.7
				C134.6,96.2,134.8,97.1,134.9,98.4z M133.7,99.5c-0.1-0.9-0.3-1.3-0.6-1.2c-0.3,0.1-0.5,0.6-0.4,1.5c0,0.4,0.1,0.7,0.2,1
				c0.1,0.3,0.3,0.5,0.4,0.4c0.1,0,0.2-0.2,0.3-0.6C133.7,100.2,133.7,99.9,133.7,99.5z"/>
		</g>
		<g class="st15">
			<path class="st18" d="M134.9,98.4c0.1,1.1,0,2.1-0.3,3c-0.3,0.9-0.7,1.4-1.2,1.6c-0.6,0.1-1-0.2-1.4-0.9
				c-0.4-0.7-0.6-1.6-0.7-2.8c-0.1-1.2,0-2.2,0.3-3c0.3-0.7,0.7-1.2,1.2-1.3c0.5-0.1,1,0.1,1.4,0.7
				C134.6,96.2,134.8,97.1,134.9,98.4z M133.7,99.5c-0.1-0.9-0.3-1.3-0.6-1.2c-0.3,0.1-0.5,0.6-0.4,1.5c0,0.4,0.1,0.7,0.2,1
				c0.1,0.3,0.3,0.5,0.4,0.4c0.1,0,0.2-0.2,0.3-0.6C133.7,100.2,133.7,99.9,133.7,99.5z"/>
		</g>
		<g class="st15">
			<path class="st16" d="M137,97.1c-0.1,0-0.2,0-0.3,0c-0.1,0-0.2,0.1-0.2,0.2c-0.1,0.1-0.1,0.3-0.1,0.5c0,0.2,0.1,0.4,0.3,0.8
				s0.3,0.8,0.3,1.2c0,0.5,0,1-0.2,1.4c-0.2,0.4-0.4,0.6-0.8,0.7c-0.3,0.1-0.5,0.1-0.7,0.1c0-0.1-0.1-0.4-0.1-0.7
				c0-0.2-0.1-0.4-0.2-0.7c0.2,0,0.3,0,0.4,0c0.3-0.1,0.4-0.3,0.4-0.7c0-0.3-0.1-0.5-0.2-0.7c-0.2-0.2-0.4-0.5-0.6-0.7
				c-0.4-0.5-0.6-1.1-0.7-1.8c-0.1-0.8,0.1-1.4,0.3-1.9c0.3-0.4,0.6-0.7,1.1-0.8c0.3-0.1,0.6-0.1,0.9,0L137,97.1z"/>
		</g>
		<g class="st15">
			<path class="st18" d="M137,97.1c-0.1,0-0.2,0-0.3,0c-0.1,0-0.2,0.1-0.2,0.2c-0.1,0.1-0.1,0.3-0.1,0.5c0,0.2,0.1,0.4,0.3,0.8
				s0.3,0.8,0.3,1.2c0,0.5,0,1-0.2,1.4c-0.2,0.4-0.4,0.6-0.8,0.7c-0.3,0.1-0.5,0.1-0.7,0.1c0-0.1-0.1-0.4-0.1-0.7
				c0-0.2-0.1-0.4-0.2-0.7c0.2,0,0.3,0,0.4,0c0.3-0.1,0.4-0.3,0.4-0.7c0-0.3-0.1-0.5-0.2-0.7c-0.2-0.2-0.4-0.5-0.6-0.7
				c-0.4-0.5-0.6-1.1-0.7-1.8c-0.1-0.8,0.1-1.4,0.3-1.9c0.3-0.4,0.6-0.7,1.1-0.8c0.3-0.1,0.6-0.1,0.9,0L137,97.1z"/>
		</g>
		<g class="st15">
			<path class="st16" d="M139.3,96.2c-0.1,0-0.2,0-0.3,0c-0.1,0-0.2,0.1-0.2,0.2c-0.1,0.1-0.1,0.3-0.1,0.5c0,0.2,0.1,0.4,0.3,0.8
				c0.2,0.4,0.3,0.8,0.3,1.2c0,0.5,0,1-0.2,1.4c-0.2,0.4-0.4,0.6-0.8,0.7c-0.3,0.1-0.5,0.1-0.7,0.1c0-0.1-0.1-0.4-0.1-0.7
				c0-0.2-0.1-0.4-0.2-0.7c0.2,0,0.3,0,0.4,0c0.3-0.1,0.4-0.3,0.4-0.7c0-0.3-0.1-0.5-0.2-0.7c-0.2-0.2-0.4-0.5-0.6-0.7
				c-0.4-0.5-0.6-1.1-0.7-1.8c-0.1-0.8,0.1-1.4,0.3-1.9c0.3-0.4,0.6-0.7,1.1-0.8c0.3-0.1,0.6-0.1,0.9,0L139.3,96.2z"/>
		</g>
		<g class="st15">
			<path class="st18" d="M139.3,96.2c-0.1,0-0.2,0-0.3,0c-0.1,0-0.2,0.1-0.2,0.2c-0.1,0.1-0.1,0.3-0.1,0.5c0,0.2,0.1,0.4,0.3,0.8
				c0.2,0.4,0.3,0.8,0.3,1.2c0,0.5,0,1-0.2,1.4c-0.2,0.4-0.4,0.6-0.8,0.7c-0.3,0.1-0.5,0.1-0.7,0.1c0-0.1-0.1-0.4-0.1-0.7
				c0-0.2-0.1-0.4-0.2-0.7c0.2,0,0.3,0,0.4,0c0.3-0.1,0.4-0.3,0.4-0.7c0-0.3-0.1-0.5-0.2-0.7c-0.2-0.2-0.4-0.5-0.6-0.7
				c-0.4-0.5-0.6-1.1-0.7-1.8c-0.1-0.8,0.1-1.4,0.3-1.9c0.3-0.4,0.6-0.7,1.1-0.8c0.3-0.1,0.6-0.1,0.9,0L139.3,96.2z"/>
		</g>
	</g>
	<path id="path1499_5_" class="st7" d="M127.3,91.4c0.1-0.3,0.3-0.1,0.3,0c0,0,0.2,0.4,0.2,0.7c0,0.2-0.2,0.6-0.2,0.6
		s-0.2,0.2-0.2-0.1c0.1-0.3,0.2-0.5,0.1-0.7C127.5,91.8,127.5,91.7,127.3,91.4L127.3,91.4z"/>
	<path id="path4473_5_" class="st2" d="M90.6,75.9c-9.3-14.3-12.2-17.1-12.2-17.1L52.9,75.4l-43.4,51c0,0,12.8-10.3,12.1-7.8
		c-0.6,2.4-0.2,0.7,1.8,10.2c1.9-9.9,15-26.4,15-26.4s2.9,10.4,7.1,11.1c1.6-6.1,8.8-19.3,8.8-19.3l4.4,7.5c0,0,7.8-16.7,14.8-19.1
		c-0.9,5,0,13.5,0,13.5s9.3-18.6,10.3-12.2c0.6,4,2.3,7.9,6.7,13.5C88.1,86.6,89.9,83.1,90.6,75.9L90.6,75.9z"/>
	<path id="path3778_5_" class="st19" d="M68.7,49.3c-1.9,5.7-6,12.5-10.7,18.5c-3.1,4-4.8,5.9-6.9,8.6C49.2,78.8,39,92.3,25,107.1
		c0,0,17.6-19.4,16.4-13.8c-0.1,0.4-1.4,4-1.4,4l7.2-12c0,0,5.5,4.6,5.6,3.6s4.6-13.1,4.6-13.1s2.9,6.3,3.7,6s4.9-14.4,10.3-19
		c2.1,4,4,12.2,4,12.2s1.1-6.3,1.6-6.5c0.9-0.5,3.4,1.1,4.5,0.2c-1.3-2.1-1.6-5.1-1.6-5.1C77.7,61.1,76.9,60.4,68.7,49.3L68.7,49.3z
		"/>
	<ellipse id="path4542_2_" class="st20" cx="142" cy="53.2" rx="0.9" ry="0.8"/>
	<path id="path4134_5_" class="st0" d="M142.3,63.1c0,0-5.9-9.1-12.3-11.1c-4.7-1.5-11.6,7.7-13.2,13.6c-1.5,5.5-3.7-13.2,11.8-15.8
		C139.1,50.6,144,63.5,142.3,63.1z"/>
	<path id="path4582_5_" class="st5" d="M11.4,125l-2.6,3.4l-1.1,1.4l-0.3,0.5L7,130.9l-1-0.6L5.5,130l-0.4-0.4l-0.4-0.5l-0.4-0.5
		l-0.2-0.3l-0.3-0.6c0,0,3.8-3.1,6.9-3.1c0.3,0.2,0.9,0.2,0.9,0.2L11.4,125z"/>
	<path id="path5559_5_" class="st0" d="M80.9,21.1c2-3.5-4.9-5.2-5.3-5.2c-0.3,0-4.5-0.9-3.1,3.9s0,6.4-1.2,6s-5.4-2.4-3.4,2
		s2.6,4.2,2.4,6.3c-0.2,2-0.7,4-0.7,4l-0.3,0.2l2.5,1.8c0,0,4.4-13.5,5.4-14.4C78.1,24.8,79.9,22.8,80.9,21.1L80.9,21.1z"/>
	<path id="path5549_5_" class="st8" d="M84.3,20.6c-2,0.9-5,3.8-6.7,8.4c-1.1,3.1-1.2,8-2.3,11.1c-1.1,3.1-2,2.9-2,2.9l-3.8-3.9
		C74.6,34.4,75.9,20.3,84.3,20.6z"/>
	<path id="path5644_5_" class="st3" d="M142,13.4c4,2.9,4.6,4.4,4.3,5.1c-1.6-0.6-4.4-1.2-4.4-1.2C145.6,16.9,143.4,15.2,142,13.4
		L142,13.4z"/>
	<path id="path5646_5_" class="st3" d="M141.8,17.3c18.4,8.9,13.2,16.3,9.4,25.7C165.3,26.4,145.9,16.9,141.8,17.3z"/>
	<path id="path5704_5_" class="st21" d="M25.8,137.4c0.6,0,12.5-6.3,24.2,9.5c4.1,5.1,4,9.5,2.5,11c0,0-1.6,1.2,2.5,2.3
		c4.6,1.7,3.4,4.1,3.4,4.1c-0.6,1.2,0.3,3,0.1,3c-0.9,0.1-33.6-2.9-32.5-2.9c0.2,0-2.3-2,0.8-3c4.3-1.3,14.5-2.2,16.2-5.4
		c1.3-2.4,1-7.1,0.9-7.4C41.8,145.6,41.4,141.2,25.8,137.4L25.8,137.4z"/>
	<path id="path5706_5_" class="st21" d="M92.5,161.6c-6.4-1.2-5.4,0.7-7.5,1.3c0,0,11-35.1,0.2-52.2s10.8-9,10.8-9
		c11.6,11.7,7.8,28.1,3.9,37.2C94.4,151.4,90.6,158.1,92.5,161.6z"/>
	<path id="path1721_5_" class="st0" d="M142.1,37.7c3.1,3.8,5.2,7.7,5.6,11.4c0,0.1,1.3-0.2,1.3-0.2
		C149.1,46.4,147.4,38.9,142.1,37.7z"/>
	<path id="path1721-2_5_" class="st0" d="M104.8,35.1c3.6,3.6,6.5,6.6,7.8,13.2c0,0.1,2.2-0.2,2.8-0.2
		C114.8,45.6,109.9,37.3,104.8,35.1L104.8,35.1z"/>
	<path id="path1950_5_" class="st16" d="M117.6,95.6c-0.4,0.2-1.4,0.1-1.7,0.6c-0.4,1.4,0.6,5.4,0.6,5.4s-0.7-3.6-0.1-5.2
		C116.5,95.9,117.6,96.1,117.6,95.6L117.6,95.6z"/>
	<path id="path1950-8_5_" class="st16" d="M129.7,92.8c-0.9,0.7-2.4,0-2.7,0.4c-0.4,1.4,0.6,5.4,0.6,5.4s-0.7-3.6-0.1-5.2
		C127.7,93.1,129.1,93.9,129.7,92.8L129.7,92.8z"/>
	<path id="rect4692-4-7_5_" class="st22" d="M129.7,51.2c-2-1.3-4.5,1.7-6.3,3.2c-2.5,2.1-4.6,5.9-5.6,8.1c-1.7,3.6-2.1,6.4-1.5,8.8
		c0.5,2,1.5,3.8,2.9,5s3.8,1.8,5.4,2.9c3.5,2.4,3.5,1.2,6.6,1.2c1.9,0,5.4-2.2,7.1-4.3c2.8-3.4,4-6.5,4.5-9.2c0.7-4-2.9-7.6-4.2-8.8
		C134.4,54,134.9,54.6,129.7,51.2L129.7,51.2z"/>
	<path id="path4974_5_" class="st11" d="M131.2,56.7c0,2.3,0.9,4.4,0.3,6.5c0,0,0.8,0,1.2,0.1c0.3,0.1,0.7,0.2,0.9,0.4
		c0.6,0.3,1.5,1.2,1.5,1.2s0.3,0.2,0.5,0.3c0.3,0.1,0.6,0.2,0.8,0.2c0.3,0.1,0.6,0.1,1,0.1c0.3,0,0.9-0.2,0.9-0.2l-0.1-0.3l-0.3-0.7
		c0,0,0.7,0.3,0.8,0.7c0.1,0.2,0.1,0.4,0.1,0.6s-0.1,0.4-0.1,0.7c-0.1,0.1-0.2,0.4-0.2,0.4l0.1-0.7l-0.1-0.1l-0.2,0.1
		c0,0-0.5,0-0.8,0c-0.4,0-0.9,0-1.3-0.1c-0.3-0.1-0.7-0.2-1-0.3c-0.2-0.1-0.4-0.3-0.6-0.4c-0.5-0.3-1-0.8-1.6-1
		c-0.3-0.1-0.7-0.1-1.1-0.2c-0.3,0-0.6-0.1-0.8-0.1c-0.5,0-0.9,0.1-1.4,0.3c-0.3,0.1-0.7,0.2-1,0.3c-0.3,0.1-0.4,0.4-0.7,0.6
		s-0.8,0.3-1.1,0.4c-0.3,0.1-0.7,0.2-1,0.2c-0.4,0.1-0.8,0.1-1.2,0.1c-0.3,0-0.7-0.1-1-0.2c-0.2,0-0.4-0.1-0.7-0.2
		c-0.3-0.1-1-0.2-1-0.2s-0.3,0.3-0.4,0.4c-0.2,0.2-0.3,0.8-0.3,0.8V67c0,0-0.4-1-0.3-1.5c0.1-0.4,0.3-0.7,0.5-1
		c0.1-0.2,0.3-0.4,0.5-0.6c0.2-0.1,0.5-0.3,0.5-0.3c-0.2,0.7-0.4,0.8-0.1,1.1c0,0,0.9,0.2,1.4,0.3c0.5,0.1,1,0.1,1.5,0
		c0.5,0,0.9-0.1,1.4-0.2c0.4-0.1,0.7-0.2,1.1-0.4c0.4-0.2,0.7-0.5,1.1-0.7c0.3-0.1,0.7-0.2,1-0.3s0.6-0.2,0.9-0.2c0.1,0,0.4,0,0.4,0
		c0.5-2.2-0.3-4.3-0.3-6.5L131.2,56.7z"/>
	<path id="path910_5_" class="st11" d="M138.7,62.3c-0.1-0.9-0.9-2.3-1.6-3c-0.8-0.8-1.8-1.4-2.1-1.2c-0.3,0.1-0.9,1-1.1,1.7
		c-0.2,0.8-0.1,2,0.2,2.2c0.6,0.4,1.9,0.8,3.2,0.9l1.4,0.1L138.7,62.3z"/>
	<path id="path912_5_" class="st11" d="M126.1,62.3c0.6-0.1,1.4-0.2,1.8-0.3c0.8-0.2,0.8-0.2,1-0.8c0.2-0.8,0-1.8-0.4-2.6
		c-0.3-0.6-0.3-0.7-1-0.7s-2.7,0.6-2.8,0.9c0,0.1-0.1,0.1-0.2,0.1c-0.7,0-2.6,2.1-2.8,3l-0.1,0.5h1.7
		C124.4,62.4,125.6,62.3,126.1,62.3L126.1,62.3z"/>
	<path id="path1180_5_" class="st11" d="M132.2,70.2c0.4-0.3,1.1-1.1,1.4-1.8c0.3-0.7,0.4-1.4,0.2-1.8s-0.9-1-1.5-1.3
		c-0.7-0.3-1.5-0.4-2.1-0.1s-1.2,0.9-1.5,1.4c-0.2,0.4-0.2,0.4-0.1,0.8c0.6,1.4,1.9,2.8,2.9,2.9C131.8,70.4,131.9,70.4,132.2,70.2
		L132.2,70.2z"/>
	<path id="path1182_5_" class="st23" d="M131.9,84.2c1-0.1,2.7-0.4,3.7-0.8c1.6-0.6,3-1.3,3.5-2.1c0.4-0.6,0.4-1,0.4-3.4
		c0-2.6,0-2.6,1-3.6c0.3-0.4,0.7-0.8,0.7-0.9c0.1-0.3-0.6-1.4-1.2-2.1l-0.3-0.3l-0.2,0.3c-0.6,0.8-1.9,1.8-2.8,2.2
		c-0.2,0.1-0.7,0.2-1.2,0.2c-1.3,0.1-5.9,0.3-9.2,0.3h-3l-0.4-0.2c-0.4-0.2-1.3-1-1.4-1.3s-1.1,0.9-1.7,2.1l-0.3,0.7l0.2,0.4
		c0.2,0.6,0.8,1.6,1.7,2.9c0.9,1.4,1.1,1.9,1.3,3c0.2,1,0.2,1.2,0.9,1.8c0.5,0.4,1.1,0.7,1.9,0.9C125.9,84.2,130.7,84.3,131.9,84.2
		L131.9,84.2z"/>
	<path id="path5702_5_" class="st24" d="M140.2,73.8c-1,1.8-1.3,0.2-1.1,6.2c0.1,1.7-3.4,3.5-4.5,3.4c0-1.5,3-1.7,3.5-2.9
		c0.8-1.8-0.4-4.6,0.9-6.1C139.4,74,140.8,72.8,140.2,73.8z"/>
	<path id="path5606_5_" class="st0" d="M133.7,53.8c1.6,1.4,14.6,8.2,6.6,19.2C141.9,65.3,144.2,64,133.7,53.8z"/>
	<path id="rect4692-42_5_" class="st25" d="M129.6,50.6c-1.8,0-3.8,0.5-5.2,1.6c-1.2,0.9-0.5,1.7,1,3c0.9,0.8,2.7,1.8,4.9,2
		c1.1,0.1,2-0.7,2.8-1.2s0.6-0.5,1.4-1.4c0.5-0.5,1.1-1.4,0.3-2C133.4,51.5,131.5,50.7,129.6,50.6L129.6,50.6z"/>
	<path id="path4976_5_" class="st26" d="M142.3,83c-1.9,0.4-3.5,0.8-5.2,1.2c-2.5,0.5-5,1-7.6,1.2c-1.8,0.2-3.6,0.3-5.3,0.2
		c-2.5-0.1-5.1-0.4-7.5-1.1c-3.7-1-7.3-2.4-10.8-4.1c-3-1.5-5.9-3.4-8.6-5.3c-2.6-1.8-5-3.7-7.3-5.8c-1.7-1.4-3.2-3-4.7-4.6
		c-1.6-1.7-3-3.3-4.5-5.1c-1.3-1.6-2.7-3.2-3.9-4.9c-1.7-2.2-3.7-4.3-4.9-6.9c-0.4-0.8-0.7-1.7-0.7-2.5c0-0.5,0.1-1.1,0.2-1.6
		c0-0.4,0.1-1.1,0.1-1.1s-0.8,0.7-1.1,1.2c-0.2,0.4-0.3,0.9-0.5,1.4c-0.2,0.6-0.4,1.1-0.7,1.7c-0.2,0.6-0.5,1.1-0.7,1.7
		c-0.2,0.5-0.4,1.6-0.4,1.6s0.7,0.9,1,1.4c0.9,1.4,1.8,2.8,2.7,4.1c1.2,1.6,2.4,3.2,3.7,4.7c1.6,1.9,3.3,3.7,5,5.5s3.4,3.6,5.2,5.2
		c2.4,2.2,4.8,4.2,7.4,6.2c2.1,1.6,4.4,3.1,6.6,4.5c2.5,1.5,4.9,3,7.6,4.1c2.4,1,4.8,1.8,7.3,2.3c3,0.7,6.2,0.9,9.3,1
		c2,0.1,4.1,0,6.1-0.2c3.1-0.3,6.3-0.9,9.4-1.5c1.1-0.2,3.4-0.8,3.4-0.8c-0.3,0.1,0.8-0.8,0.9-1.5c0.1-0.7,0.8-1,1.2-2
		c0.2-0.6,0.2-1.1,0.2-1.1C144,82.5,143.7,82.8,142.3,83z"/>
	<path id="path1481_5_" class="st7" d="M128.9,85.9c-1.1-0.7-2-0.4-2.4,0c1.1,1.7,0.8,3.5,0.6,4.3c-0.1,0.2-0.5,0.3-0.5,0.3
		s1,0.3,2.1-0.1C129,89.8,129.9,88,128.9,85.9L128.9,85.9z"/>
	<path id="path5000_5_" class="st27" d="M8.1,129.3c-0.4,0.5-1.1,1.6-1.1,1.6s-1.2-0.6-1.7-1c-0.6-0.5-1-1.1-1.4-1.8
		c-0.3-0.7-0.5-1.4-0.6-2.1c-0.1-1-0.1-2,0-3c0.2-0.9,0.5-1.8,0.9-2.5c0.8-1.3,1.7-2.5,2.9-3.4c1.2-1,2.8-1.6,4.3-2
		c1.3-0.3,2.8-0.3,4.2-0.1c1.3,0.2,2.6,0.7,3.8,1.4c1,0.6,1.8,1.5,2.4,2.4c0.4,0.6,0.8,1.3,1,2.1c0.3,1.4,0.2,3-0.2,4.4
		c-0.4,1.1-1.1,2.2-2,2.9c-0.6,0.4-1.4,0.5-2.2,0.5c-0.7,0-1.5-0.3-2.1-0.7c-0.4-0.3-0.9-1.1-0.9-1.1s1.7-0.3,2.2-1s0.6-1.6,0.5-2.4
		c-0.1-0.5-0.3-1-0.6-1.4c-0.6-0.8-1.4-1.4-2.3-1.7c-0.8-0.3-1.7-0.4-2.5-0.2c-0.7,0.2-1.3,0.6-1.8,1.1c-0.4,0.4-0.8,0.9-0.9,1.5
		c-0.1,0.6-0.1,1.2,0.2,1.7c0.3,0.4,1.3,0.6,1.3,0.6L8.1,129.3z"/>
	<path class="st2" d="M167.7,98.9"/>
</g>
</svg>
