<?xml version="1.0" encoding="utf-8"?>
<!-- Generator: Adobe Illustrator 23.0.0, SVG Export Plug-In . SVG Version: 6.00 Build 0)  -->
<svg version="1.1" id="Camada_1" xmlns="http://www.w3.org/2000/svg" xmlns:xlink="http://www.w3.org/1999/xlink" x="0px" y="0px"
	 viewBox="0 0 167.7 170.2" style="enable-background:new 0 0 167.7 170.2;" xml:space="preserve">
<style type="text/css">
	.st0{fill:#2A2A2A;}
	.st1{fill:#343431;}
	.st2{fill-rule:evenodd;clip-rule:evenodd;fill:#43403D;}
	.st3{fill:#43403D;}
	.st4{fill:#4F2D12;stroke:#070308;stroke-width:0.2317;}
	.st5{fill:#70191C;}
	.st6{opacity:0.885;fill:#FFFFFF;enable-background:new    ;}
	.st7{opacity:0.885;fill:#96641F;enable-background:new    ;}
	.st8{fill:#FFFFFF;}
	.st9{opacity:0.885;fill:#070308;enable-background:new    ;}
	.st10{opacity:0.885;fill:#2A130E;enable-background:new    ;}
	.st11{enable-background:new    ;}
	.st12{fill:#4F2D12;}
	.st13{fill:none;stroke:#070308;stroke-width:0.1793;}
	.st14{fill:none;stroke:#070308;stroke-width:0.2646;}
	.st15{fill:#D0CDE5;fill-opacity:0;}
	.st16{fill:#1D1C1D;}
	.st17{fill:#606060;}
	.st18{fill:#C0A593;}
	.st19{opacity:0.885;fill:#5A5A5A;enable-background:new    ;}
</style>
<g>
	<path id="path1170_1_" class="st0" d="M161.7,44c-1.7,1.1-1.6-8.5-9.6-11.4c-3.1-6-20.3-21.5-20.3-21.5s30.4-10.6,35.7,8.3
		C168.5,30.9,162.9,44.7,161.7,44L161.7,44z"/>
	<path id="path1742_1_" class="st1" d="M133.6,11.9c24.9-4.5,28.3,1,31.2,6.5c2,3.9,0.8,8,0.3,10.4c-0.4,2.4-0.8,5.2-2.2,4.5
		s0-12.8-7.1-14.1c-5.2-1-15.6-1.3-15.6-1.3L133.6,11.9z"/>
	<path id="path4698_1_" class="st2" d="M71.2,45.3c-1.5,5.2,9.6,17.1,13.5,21.6c6.9,7.8,10.6,9.8,23.8,17c9,4.9,24.2,5.4,34.2,0.1
		c8.3-4.4,15.1-14.2,13.7-23.9c-0.5-3.4-3.9-5.9-4.9-8.3c-1-2.4-0.2-7.8-0.3-8.5s3-3.1,4.8-9.7c1.8-6.7-6.2-15.1-12.6-16.2
		c-0.8-0.1-1.7-0.4-2.6-0.4c0.7-0.1,3.8,0.6,5.5,1.3c1.7-3.2-21.2-16.4-35.9-18.5C100.1,0,97.2,3.5,86.7,10.2
		c-5.4,3.4-12.6,18.8-14,29.7C72.4,42.3,72.7,40.1,71.2,45.3L71.2,45.3z"/>
	<path id="path5509-1_1_" class="st0" d="M86.6,10c5.4-1.5,9.6-6.8,14.2-8.5c-1,1.3-9.4,7.4-10.3,10.8L86.6,10z"/>
	<path id="path4994_1_" class="st3" d="M138.8,120.6c0,0,1.1,1.7,1.5,2.6c0.5,1.3,0.8,2.7,1,4c0.2,1.6,0.3,3.2,0.3,4.8c0,1,0,2,0,3
		c-0.1,1.2-0.1,2.3-0.3,3.5c-0.3,1.8-0.7,3.5-1.2,5.2c-0.3,1-0.7,2-1.1,3.1c-0.3,0.8-0.6,1.7-0.9,2.5c-0.4,1-0.8,2-1.2,3.1
		c-0.5,1.2-1.1,2.4-1.7,3.7c-0.2,0.7-0.4,1.3-0.7,2c-0.2,0.6-0.4,1.1-0.6,1.8c-0.1,0.5-0.3,1-0.2,1.5c0,0.2,0.2,0.4,0.3,0.5
		c0.6,0.7,1.3,1.2,2.1,1.8c0.5,0.4,1.2,0.6,1.7,1.1c0.3,0.3,0.4,0.8,0.4,1.2c0.1,0.5-0.1,1.1-0.2,1.6c-0.1,0.5-0.5,1.5-0.5,1.5
		s-0.5,0.2-0.7,0.2c-0.7,0.2-1.3,0.3-2,0.4c-1.3,0.2-2.7,0.2-4,0.2s-2.7,0-3.9-0.2c-1.1-0.2-2.1-0.5-3.2-0.9c-0.8-0.3-2.2-1-2.2-1
		s-0.6-2.2-0.6-3.3c0-1,0.2-1.9,0.3-2.9c0.1-0.9,0.4-1.9,0.3-2.8c-0.1-1.1-0.5-2.1-0.8-3.2c-0.4-1.3-1.1-2.4-1.7-3.7
		c-0.5-1.3-1-2.5-1.3-3.9c-0.4-1.5-0.8-4.6-0.8-4.6l0.2-1.9l6-4.4L138.8,120.6z"/>
	<path id="path4996_1_" class="st1" d="M65.2,159.3c0,0.3,0.8,0.6,1,1.1c0.3,0.6,0.4,1.3,0.4,2c0,0.8-0.3,2.3-0.3,2.3
		c-7.3-0.9-9.4-0.4-15.9-2.8l-0.3-2.2L65.2,159.3z"/>
	<path id="path5608-7_1_" class="st1" d="M81.3,21.5c0,0-6.8,27,3.5,41.7S70.6,47,70.6,47l4.5-10.3L79.4,23l1.3-1.5H81.3z"/>
	<path id="path5608_1_" class="st0" d="M79.9,23.1c0,0-6.8,27,3.5,41.7S69.2,48.7,69.2,48.7l4.5-10.3L78,24.6l1.3-1.5H79.9
		L79.9,23.1z"/>
	<path id="path5708_1_" class="st1" d="M138.1,120.4c0.3-0.3,4.4,1.9,3.5,14.5c-23.7,4.8-19.3,20.5-20,23.6
		c-0.3-1.3-0.3-2.4-1.9-5.4c0,0-3.6-7.8-2.2-11.5C118.9,137.8,138.1,120.4,138.1,120.4z"/>
	<path id="rect4708_1_" class="st3" d="M143.3,85.5C100.8,98.2,73,56.5,70,46.2c0,0-3.2,12.2-14.9,25.7c0,0-6.9,8.8-18.9,23.4
		c-5.4,6.8-10.8,11.3-16.4,18.7c-5.1,6.6-14.5,16.5-19.8,28c-0.7,4.5,1,9.7,4.2,13c3.1,3.2,8.3,3.9,12.7,4.4
		c26.1,3.4,45,7.8,78.7-6.1c8.3-3.2,16.7-6.8,24.1-11.8c5.4-3.6,10.5-7.8,14.5-12.8c2.9-3.6,5.4-7.8,6.8-12.3
		c1.2-3.6,1.3-11.3,1.3-11.3c0.3-1.2,0-6.6-0.4-9.8C141.4,91,144.2,83.8,143.3,85.5L143.3,85.5z"/>
	<path id="path5000_1_" class="st1" d="M8,129.1c-0.4,0.5-1.1,1.6-1.1,1.6s-1.2-0.6-1.7-1c-0.6-0.5-1-1.1-1.4-1.8
		c-0.3-0.7-0.5-1.4-0.6-2.1c-0.1-1-0.1-2,0-3c0.2-0.9,0.5-1.8,0.9-2.5c0.8-1.3,1.7-2.5,2.9-3.4c1.2-1,2.8-1.6,4.3-2
		c1.3-0.3,2.8-0.3,4.2-0.1c1.3,0.2,2.6,0.7,3.8,1.4c1,0.6,1.8,1.5,2.4,2.4c0.4,0.6,0.8,1.3,1,2.1c0.3,1.4,0.2,3-0.2,4.4
		c-0.4,1.1-1.1,2.2-2,2.9c-0.6,0.4-1.4,0.5-2.2,0.5c-0.7,0-1.5-0.3-2.1-0.7c-0.4-0.3-0.9-1.1-0.9-1.1s1.7-0.3,2.2-1s0.6-1.6,0.5-2.4
		c-0.1-0.5-0.3-1-0.6-1.4c-0.6-0.8-1.4-1.4-2.3-1.7c-0.8-0.3-1.7-0.4-2.5-0.2c-0.7,0.2-1.3,0.6-1.8,1.1c-0.4,0.4-0.8,0.9-0.9,1.5
		c-0.1,0.6-0.1,1.2,0.2,1.7c0.3,0.4,1.3,0.6,1.3,0.6L8,129.1z"/>
	<path id="path4584_1_" class="st0" d="M143.2,86.7c-2.3,7.1-0.8,9-0.8,12.4c3.8,33.9-25.7,44.9-52.2,57.2
		c-1.1,0.4-21.8,6.3-32.2,6.5c-10.4-0.9-15.9-2.5-15.3-2.4c0,0,1.4-0.4,1.7-0.4l-6.8-12.6c0,0,16.6,1.3,24.5-0.7
		c23.3-5.9,38.2-10.2,48.9-24.7c6.2-8.4,7-28.3,5.1-33.5C125.2,87,143.4,85,143.2,86.7L143.2,86.7z"/>
	<path id="path4980_1_" class="st3" d="M96,101.4c0.2,0,3.8,4,4.9,6.6c0.9,2.3,1.8,4.9,2.3,7.4c0.3,1.8,0.4,3.6,0.4,5.4
		c0,2.2-0.2,4.3-0.6,6.5c-0.3,1.9-0.6,3.8-1.1,5.6c-0.6,2-1.4,4-2.2,5.9c-0.9,2.2-1.8,4.3-2.8,6.4c-0.8,1.7-2.5,5.1-2.5,5.1
		c-1.5,3.2-2.5,5.4-2.5,9c0,0,0.1,1.4,0.6,1.9c0.4,0.4,1.2,0.3,1.8,0.4c0.7,0.2,1.4,0.4,1.9,0.9c0.6,0.5,1,1.3,1.1,2
		c0.2,1,0,2.1-0.3,3c-0.3,0.7-0.7,1.4-1.4,1.8c-2.1,0.6-4.3,0.6-6.5,0.6s-3.9-0.2-6.7-0.7c-0.9-0.4-1.7-0.5-2.4-1.5
		c-0.2-0.8-0.3-1.5-0.3-2.3c0-1-0.2-2.1-0.3-3.2c-0.1-1.4-0.3-2.8-0.4-4.2c-0.3-2.1-0.6-4.2-1.1-6.3s-1.3-4.1-2-6.1
		c-0.7-1.8-1.6-3.5-2.3-5.3c-0.6-1.4-1.2-2.7-1.8-4.1c-0.7-1.7-1.3-3.4-1.9-5.2c-0.6-2.1-1-4.3-1.5-6.5c-0.3-1.4-0.7-2.9-0.7-4.3
		s0.1-2.8,0.6-4.1c0.2-0.5,0.9-1.4,0.9-1.4L69,115"/>
	<path id="path4998_1_" class="st3" d="M26.3,137.2l4.7-0.9c0,0,3.6-0.2,5.2,0.3c4.3,1.3,6.5,2.5,10.8,6.7c1.4,1.6,2.6,3.1,3.9,4.9
		c0,0,1,1.8,1.4,2.7s0.8,1.8,1,2.7c0.1,0.9,0.1,1.9-0.1,2.8c-0.2,0.8-1.3,1.5-1.1,2.3c0.1,0.3,0.2,0.4,0.8,0.8
		c0.6,0.3,1.9,0.6,2.8,1c0.9,0.4,1.7,0.9,2.2,1.6c0.3,0.4,0.4,0.9,0.4,1.4c0,0.6-0.3,1.2-0.3,1.8s0.2,1.2,0.3,1.9
		c-1.2-0.2-4-0.4-4-0.4l-5.4-0.4l-6.3-0.4l-5.7-0.6l-10.6-1l-5.7-0.2l-5.4-0.3c0,0-2.9-0.3-3.6-0.7c-0.3-0.7-0.8-1.3-1-2
		c-0.2-0.8,0.1-2.4,0.1-2.4s-1-0.6-1.5-0.9c-1.3-0.7-3.9-1.9-3.9-1.9"/>
	<path id="path1481-7_1_" class="st4" d="M126.4,85.7c1.1-0.7,1.7-0.3,2,0.1c-1.1,1.7-0.4,3.4-0.2,4.2c0.1,0.2,0.5,0.3,0.5,0.3
		s-1,0.3-2.1-0.1C126.4,89.6,125.5,87.8,126.4,85.7L126.4,85.7z"/>
	<path id="path4976_1_" class="st5" d="M142.7,83c-1.9,0.4-3.5,0.8-5.2,1.2c-2.5,0.5-5,1-7.6,1.2c-1.8,0.2-3.6,0.3-5.3,0.2
		c-2.5-0.1-5.1-0.4-7.5-1.1c-3.7-1-7.3-2.4-10.8-4.1c-3-1.5-5.9-3.4-8.6-5.3c-2.6-1.8-5-3.7-7.3-5.8c-1.7-1.4-3.2-3-4.7-4.6
		c-1.6-1.7-3-3.3-4.5-5.1c-1.3-1.6-2.7-3.2-3.9-4.9c-1.7-2.2-3.7-4.3-4.9-6.9c-0.4-0.8-0.7-1.7-0.7-2.5c0-0.5,0.1-1.1,0.2-1.6
		c0-0.4,0.1-1.1,0.1-1.1s-0.8,0.7-1.1,1.2c-0.2,0.4-0.3,0.9-0.5,1.4c-0.2,0.6-0.4,1.1-0.7,1.7c-0.2,0.6-0.5,1.1-0.7,1.7
		c-0.2,0.5-0.4,1.6-0.4,1.6s0.7,0.9,1,1.4c0.9,1.4,1.8,2.8,2.7,4.1c1.2,1.6,2.4,3.2,3.7,4.7c1.6,1.9,3.3,3.7,5,5.5s3.4,3.6,5.2,5.2
		c2.4,2.2,4.8,4.2,7.4,6.2c2.1,1.6,4.4,3.1,6.6,4.5c2.5,1.5,4.9,3,7.6,4.1c2.4,1,4.8,1.8,7.3,2.3c3,0.7,6.2,0.9,9.3,1
		c2,0.1,4.1,0,6.1-0.2c3.1-0.3,6.3-0.9,9.4-1.5c1.1-0.2,3.4-0.8,3.4-0.8c-0.3,0.1,0.8-0.8,0.9-1.5c0.1-0.7,0.8-1,1.2-2
		c0.2-0.6,0.2-1.1,0.2-1.1C144.3,82.5,144,82.7,142.7,83z"/>
	<path id="path5509_1_" class="st3" d="M86.8,9.8c3-1.9,11-7,12.7-7.7C98.5,3.4,89,9,89.9,12.3L86.8,9.8z"/>
	<path id="path1153_1_" class="st3" d="M84.2,20.1c-0.1,1.1-6.9-0.2-8.9,18.9c-0.1,1.3-1.7,3.9-1.7,3.9s-7.1-6.2-9.6-9.7
		c-2-2.9-3.4-5.8-4.9-9.1c-2.6-5.9,2.2-8.9,5.7-11.2c15.7-10.4,25.7-0.1,25.7-0.1"/>
	<path id="path1153-6_1_" class="st0" d="M89.1,14.2C76.3,5,64.8,14,58.8,18.6c0.9-2.8,3.8-4.6,6.1-6.1C80.7,2,90.7,12.4,90.7,12.4"
		/>
	<path id="rect4692_1_" class="st1" d="M142.2,34.4c-1.3-0.1-4.2-1.1-5.4-0.8c-0.7,1.5-0.4,3.2-1.1,5.4c-3.2,5.7-2.7,9.7-2.6,13.5
		c0.1,3.2,3.6,1.8,4,4.5c0.2,1.4,6,0.4,9.5-1.8c1.1-0.7,2.7-2.8,3.4-5.2c0.7-2.3,0.3-5.2-0.2-7.3C148.9,39.2,146,34.9,142.2,34.4
		L142.2,34.4z"/>
	<path id="rect4692-4_1_" class="st0" d="M103.8,31.4c-3.2,0.7-6.4,2.5-8.9,4.5c-3.4,2.7-5.5,4.3-7.8,8.2c-2.9,4.8,4.4,7.4,6.9,9
		c3.8,2.3,10.4,4.1,15.7,4c0,0,7.1,0.6,12.9-4c2.2-1.7-5-10.2-6.6-11.9c-1.1-1.2-3.6-5.5-7.4-7.8c1.2-0.8,1.6-1,4.1-1.3
		C111,30.5,104.5,31.2,103.8,31.4L103.8,31.4z"/>
	<path id="rect4692-4-0_1_" class="st6" d="M104.6,34.5c-2.6-0.3-5,1.7-7,3.2c-2.6,2.1-4.2,3.3-6,6.3c-2.2,3.6,3.4,5.7,5.3,6.9
		c2.9,1.8,8,3.1,12,3.1c0,0,5.4,0.4,9.9-3.1c1.7-1.3-3.8-7.8-5.1-9.2C112.7,40.6,108.5,35,104.6,34.5L104.6,34.5z"/>
	<path id="rect4692-4-0-9_1_" class="st7" d="M107.9,54c0,0,6.4,0.4,10.9-3.1c1.7-1.3-3.8-7.8-5.1-9.2
		C107.7,42.5,102.5,49.9,107.9,54L107.9,54z"/>
	<ellipse id="path5589-4_1_" class="st8" cx="107.3" cy="49.5" rx="1" ry="1"/>
	<path id="rect4692-4-0-9-0_1_" class="st9" d="M110.5,54c1.1-0.1,5.2-0.3,8.3-2.9c1.8-1.5-3.2-7.3-4.5-8.7
		c-3.8,0.5-7.1,4.1-7.6,6.5c1.9-0.5,1.2,2.2,0,1.1c0.1,0.9,0.8,2.9,2.4,4C108.9,54,109.9,54.1,110.5,54L110.5,54z"/>
	<path id="rect4692-4-0-8_1_" class="st0" d="M104.6,34.5c-2.1-0.3-3.9,0.8-5.9,2.3c-2.6,2.1-4.3,3.2-6.3,6
		c9.4,5.8,16.9,5.9,25.9,4.6c-1.5-2.5-3.8-5-4.4-5.7C113.2,40.8,108.4,35,104.6,34.5L104.6,34.5z"/>
	<path id="rect4692-9_1_" class="st6" d="M142.2,37.2C140,37,138,39,136.9,41c-2.6,4.6-2.2,8-2.1,11.1c0.1,2.6-0.3,2.6,0.6,3.3
		c2.8,2.1,9.1,0.4,10.5-1.1c0.7-0.8,2.2-2.3,2.8-4.2s0.2-4.3-0.2-6C147.7,41.1,145.3,37.5,142.2,37.2z"/>
	<path id="rect4692-9-5_1_" class="st7" d="M143.2,56.1c1.1-0.8,2.2-1.7,2.8-2.3c0.7-0.8,2.5-1.8,3.1-3.8c0.6-1.9,0.2-4.3-0.2-6
		C138.2,44.6,138.8,55,143.2,56.1z"/>
	<ellipse id="path5589_1_" class="st8" cx="142.5" cy="53.1" rx="1" ry="1"/>
	<path id="rect4692-9-5-9_1_" class="st9" d="M143.7,55.8c0.9-0.6,1.1-0.7,1.9-1.3c0.8-0.6,2.8-2.3,3.4-4.2c0.4-1.5,0.4-3.6,0.1-5.2
		c-5.9-0.4-8.1,4.1-7.5,7.4c0.9-0.5,2.2,0.8,0.4,1.4C142.6,55,142.8,55.2,143.7,55.8z"/>
	<path id="rect4692-9-7_1_" class="st0" d="M142.4,37.2c-2.3-0.2-4.4,1.8-5.6,3.8c-1.3,2.2-2,5.4-2.2,7.2c5.5,1.4,8.1,1.9,14.9,0.5
		c0.2-1.6-0.1-3.3-0.4-4.6C148.2,41,145.6,37.5,142.4,37.2z"/>
	<polygon id="path4951_1_" class="st9" points="132.5,65.5 132.5,65.5 132.5,65.5 132.5,65.5 	"/>
	<path id="path904_1_" class="st10" d="M132.6,69.6c1-1.1,1.5-2.4,1.2-3.1c-0.4-1-2-1.9-3.1-1.7c-0.8,0.1-1.8,0.9-2.1,1.6
		c-0.3,0.6-0.3,0.6,0.1,1.3c0.7,1.4,2,2.6,3,2.6C131.9,70.2,132.2,70.1,132.6,69.6L132.6,69.6z"/>
	<path id="path5563-2_1_" class="st1" d="M131.5,39.9c0,0,1.2,0.6,1.1,0.1c-0.1-1.4-2.3-3.8,1.3-7.5c1.2-1.3-1.1-0.1-0.7-0.6
		C131.4,33.1,130.7,37.8,131.5,39.9z"/>
	<path id="path5563-2-3_1_" class="st1" d="M122.9,38.1c0,0-1.2,0.6-1.1,0.1c0.1-1.4,2.3-3.8-1.3-7.5c-1.2-1.3,1.1-0.1,0.7-0.6
		C123.1,31.3,123.7,36,122.9,38.1z"/>
	<path id="path5563_1_" class="st1" d="M131.8,26.2c0,0,0.7-1.6,0.2-1.5c-1.6,0.5-3.7,4.1-8.7-0.1c-1.7-1.4,0.2,1.6-0.4,1
		C126.8,29.1,129.7,27.8,131.8,26.2z"/>
	<path id="path5563-5_1_" class="st1" d="M126.4,21.3c0,0-0.5-2.2-4.7-5.7c-0.3,0.5,5.2,6.5,2.4,5.8c-1.5-0.3-1,0.9-0.8,0.5
		C126.1,22.3,126.7,21.5,126.4,21.3z"/>
	<path id="path5561_1_" class="st1" d="M111.8,21.4c-2.1-2-3.9-3-8.3-2.5c-3.9,0.4-3.8,0.3-9,3.9c-5.3,3.7-7.4,9-7.8,10
		c0,0.7-0.4,4.6,1,0.6c1.5-4,2.4-1.4,3.6-3.1s3.9-6.3,4.8-7.1c1-0.8,3-1.6,4.9-2.1c1.9-0.4,4.6-0.4,5.8-0.2c1.6,0.2,4,2.1,5.3,2
		C112.8,22.8,112.2,21.8,111.8,21.4L111.8,21.4z"/>
	<path id="path5563-2-3-1_1_" class="st1" d="M152.5,33.9c0,0-0.6,2.1-1.1,1.5c-1.5-2-1.7-7.6-9.8-8.2c-2.8-0.2,1.1-1.4,0.1-1.4
		C145.2,24.9,151,30.2,152.5,33.9L152.5,33.9z"/>
	<path id="path1174_1_" class="st1" d="M112.9,56.6c3.1-0.4,6.1-1.4,8.4-3c1.1-0.7,1.4-1,1.6-1.4c0.2-0.6-0.1-1.8-0.8-3.2
		c-1-1.9-3.2-4.9-5.4-7.4c-0.5-0.6-1.3-1.6-1.7-2.1c-1.9-2.5-3.5-4.3-5-5.4c-0.5-0.3-0.9-0.6-1-0.7c-0.1,0-0.1-0.1-0.1-0.1
		c0-0.1,1.1-0.7,1.5-0.8c0.4-0.2,1.8-0.4,2.1-0.4c0.6,0-0.2-0.4-1.3-0.7c-0.7-0.1-1-0.2-2.9-0.2c-2.5,0-3.8,0.1-5.2,0.6
		c-2.9,0.9-5.3,2.2-8.6,4.9c-3.2,2.5-4.9,4.3-6.4,6.8c-0.8,1.3-0.9,1.6-0.9,2.6c0,0.8,0,0.9,0.3,1.5c0.7,1.4,2.1,2.5,4.9,4
		c0.6,0.3,1.6,0.9,2.2,1.2c3.4,1.9,7.3,3.1,11.7,3.7C107.7,56.7,111.8,56.8,112.9,56.6L112.9,56.6z M106.2,53.6
		c-2.9-0.4-5.7-1.2-7.9-2.3c-1.7-0.9-3.8-2-4.5-2.5c-0.9-0.6-1.6-1.3-1.9-2c-0.3-0.5-0.3-0.5-0.3-1.3c0-0.7,0-0.8,0.3-1.3
		c0.6-1.3,1.9-2.8,3.2-4.1c1-1,1.3-1.2,3.2-2.7c1.8-1.4,2.4-1.8,3.3-2.2c2.1-1,3.9-0.8,6.3,0.7c2.3,1.5,5.1,4.3,8.3,8.4
		c1.4,1.8,2.5,3.6,2.9,4.9c0.1,0.5,0.1,1.2-0.1,1.5c-0.3,0.6-2.4,1.8-3.9,2.3c-1,0.3-2.4,0.6-3.6,0.8
		C110.3,53.8,107.6,53.8,106.2,53.6L106.2,53.6z"/>
	<path id="path1499-0_1_" class="st4" d="M128.1,90.3c-0.2,0-0.6,0-0.6,0s-0.3,0.7-0.3,1.2c0,0.3,0.4,1.1,0.4,1.1s0.3-0.1,0.4-0.2
		c-0.1-0.6-0.3-0.8-0.3-1.3C127.7,90.9,127.9,90.7,128.1,90.3L128.1,90.3z"/>
	<g>
		<g class="st11">
			<path class="st12" d="M120.3,99.1c0.1,1.5-0.1,2.7-0.6,3.7c-0.5,1-1.2,1.6-2.2,1.9l0.2,2.4l-2.7,0.6l-0.7-5.7
				c-0.2-1.5-0.4-3.5-0.7-6.1c0.5-0.3,1.2-0.5,2.2-0.8c1.2-0.3,2.2-0.1,2.9,0.5C119.7,96.2,120.2,97.4,120.3,99.1z M118.5,100.8
				c-0.1-0.8-0.4-1.1-1-1c-0.1,0-0.1,0-0.2,0.1l0.2,2.7C118.2,102.4,118.5,101.8,118.5,100.8z"/>
		</g>
		<g class="st11">
			<path class="st13" d="M120.3,99.1c0.1,1.5-0.1,2.7-0.6,3.7c-0.5,1-1.2,1.6-2.2,1.9l0.2,2.4l-2.7,0.6l-0.7-5.7
				c-0.2-1.5-0.4-3.5-0.7-6.1c0.5-0.3,1.2-0.5,2.2-0.8c1.2-0.3,2.2-0.1,2.9,0.5C119.7,96.2,120.2,97.4,120.3,99.1z M118.5,100.8
				c-0.1-0.8-0.4-1.1-1-1c-0.1,0-0.1,0-0.2,0.1l0.2,2.7C118.2,102.4,118.5,101.8,118.5,100.8z"/>
		</g>
		<g class="st11">
			<path class="st12" d="M124.1,98.1l0.2,3.2c0.1,0.9,0.2,2.3,0.3,4.1c-0.5,0.4-1,0.7-1.5,0.8c-0.7,0.2-1.2,0.1-1.6-0.3
				c-0.3-0.3-0.6-0.8-0.8-1.5c-0.1-0.4-0.2-1.2-0.4-2.3c-0.2-1.1-0.3-2-0.4-2.9l1.9-0.4c0,0.4,0.1,1.1,0.2,2.1
				c0,0.5,0.1,1.3,0.2,2.3c0.1,0.8,0.2,1.2,0.3,1.5c0.1,0.3,0.3,0.4,0.5,0.3c0.1,0,0.1-0.1,0.2-0.2c-0.1-0.7-0.2-1.7-0.3-3.2
				c-0.1-0.7-0.2-1.7-0.4-3L124.1,98.1z"/>
		</g>
		<g class="st11">
			<path class="st14" d="M124.1,98.1l0.2,3.2c0.1,0.9,0.2,2.3,0.3,4.1c-0.5,0.4-1,0.7-1.5,0.8c-0.7,0.2-1.2,0.1-1.6-0.3
				c-0.3-0.3-0.6-0.8-0.8-1.5c-0.1-0.4-0.2-1.2-0.4-2.3c-0.2-1.1-0.3-2-0.4-2.9l1.9-0.4c0,0.4,0.1,1.1,0.2,2.1
				c0,0.5,0.1,1.3,0.2,2.3c0.1,0.8,0.2,1.2,0.3,1.5c0.1,0.3,0.3,0.4,0.5,0.3c0.1,0,0.1-0.1,0.2-0.2c-0.1-0.7-0.2-1.7-0.3-3.2
				c-0.1-0.7-0.2-1.7-0.4-3L124.1,98.1z"/>
		</g>
		<g class="st11">
			<path class="st12" d="M127.5,101.8c0,0.3,0,0.8,0,1.6c0,0.5,0.1,1,0.1,1.6c-0.3,0.2-0.6,0.3-1.2,0.5c-0.8,0.2-1.4,0-1.9-0.4
				c-0.6-0.5-1-1.5-1.1-2.8c-0.1-1.3,0-2.3,0.5-3.1c0.4-0.8,1-1.2,1.8-1.4c0.3-0.1,0.6-0.1,0.9-0.1l0.4,3c-0.1,0-0.3,0-0.6,0
				c-0.3,0.1-0.6,0.3-0.8,0.7c-0.3,0.4-0.4,0.9-0.3,1.4c0,0.5,0.2,0.9,0.5,1.1c0.2,0.2,0.5,0.2,0.7,0.2l-0.1-1c0-0.2-0.1-0.5-0.2-1
				L127.5,101.8z"/>
		</g>
		<g class="st11">
			<path class="st14" d="M127.5,101.8c0,0.3,0,0.8,0,1.6c0,0.5,0.1,1,0.1,1.6c-0.3,0.2-0.6,0.3-1.2,0.5c-0.8,0.2-1.4,0-1.9-0.4
				c-0.6-0.5-1-1.5-1.1-2.8c-0.1-1.3,0-2.3,0.5-3.1c0.4-0.8,1-1.2,1.8-1.4c0.3-0.1,0.6-0.1,0.9-0.1l0.4,3c-0.1,0-0.3,0-0.6,0
				c-0.3,0.1-0.6,0.3-0.8,0.7c-0.3,0.4-0.4,0.9-0.3,1.4c0,0.5,0.2,0.9,0.5,1.1c0.2,0.2,0.5,0.2,0.7,0.2l-0.1-1c0-0.2-0.1-0.5-0.2-1
				L127.5,101.8z"/>
		</g>
		<g class="st11">
			<path class="st12" d="M132.5,95.2c0.1,0.9,0,1.8-0.2,2.5c-0.2,0.6-0.4,1.1-0.8,1.4c0.2,0.1,0.4,0.3,0.6,0.6
				c0.2,0.3,0.3,0.7,0.3,1.1c0.1,1-0.2,1.8-0.8,2.4c-0.5,0.5-1.1,0.8-2,1c-0.7,0.2-1.5,0.3-2.3,0.3c-0.1-1.2-0.4-3.2-0.7-5.9
				c-0.2-1.5-0.4-3.4-0.8-6c0.6-0.3,1.4-0.6,2.3-0.8C130.8,91.3,132.2,92.4,132.5,95.2z M130.6,97.1c0-0.4-0.2-0.7-0.4-0.8
				c-0.2-0.1-0.4-0.2-0.7-0.1l0.1,2.4C130.4,98.4,130.7,97.9,130.6,97.1z M130.8,100.8c-0.1-0.6-0.3-0.8-0.9-0.7
				c-0.1,0-0.1,0-0.2,0.1l0.1,1.9C130.6,102,130.9,101.6,130.8,100.8z"/>
		</g>
		<g class="st11">
			<path class="st14" d="M132.5,95.2c0.1,0.9,0,1.8-0.2,2.5c-0.2,0.6-0.4,1.1-0.8,1.4c0.2,0.1,0.4,0.3,0.6,0.6
				c0.2,0.3,0.3,0.7,0.3,1.1c0.1,1-0.2,1.8-0.8,2.4c-0.5,0.5-1.1,0.8-2,1c-0.7,0.2-1.5,0.3-2.3,0.3c-0.1-1.2-0.4-3.2-0.7-5.9
				c-0.2-1.5-0.4-3.4-0.8-6c0.6-0.3,1.4-0.6,2.3-0.8C130.8,91.3,132.2,92.4,132.5,95.2z M130.6,97.1c0-0.4-0.2-0.7-0.4-0.8
				c-0.2-0.1-0.4-0.2-0.7-0.1l0.1,2.4C130.4,98.4,130.7,97.9,130.6,97.1z M130.8,100.8c-0.1-0.6-0.3-0.8-0.9-0.7
				c-0.1,0-0.1,0-0.2,0.1l0.1,1.9C130.6,102,130.9,101.6,130.8,100.8z"/>
		</g>
		<g class="st11">
			<path class="st12" d="M135.3,99.1c0.1,1.1,0,2.1-0.3,3c-0.3,0.9-0.8,1.4-1.4,1.6c-0.6,0.1-1.2-0.2-1.6-0.9
				c-0.4-0.7-0.7-1.6-0.8-2.8c-0.1-1.2,0-2.2,0.3-3c0.3-0.7,0.8-1.2,1.4-1.3c0.6-0.1,1.1,0.1,1.5,0.7
				C134.9,97,135.2,97.9,135.3,99.1z M133.9,100.3c-0.1-0.9-0.3-1.3-0.7-1.2c-0.4,0.1-0.5,0.6-0.4,1.5c0,0.4,0.1,0.7,0.2,1
				c0.1,0.3,0.3,0.5,0.4,0.4c0.2,0,0.3-0.2,0.4-0.6C133.9,101,133.9,100.6,133.9,100.3z"/>
		</g>
		<g class="st11">
			<path class="st14" d="M135.3,99.1c0.1,1.1,0,2.1-0.3,3c-0.3,0.9-0.8,1.4-1.4,1.6c-0.6,0.1-1.2-0.2-1.6-0.9
				c-0.4-0.7-0.7-1.6-0.8-2.8c-0.1-1.2,0-2.2,0.3-3c0.3-0.7,0.8-1.2,1.4-1.3c0.6-0.1,1.1,0.1,1.5,0.7
				C134.9,97,135.2,97.9,135.3,99.1z M133.9,100.3c-0.1-0.9-0.3-1.3-0.7-1.2c-0.4,0.1-0.5,0.6-0.4,1.5c0,0.4,0.1,0.7,0.2,1
				c0.1,0.3,0.3,0.5,0.4,0.4c0.2,0,0.3-0.2,0.4-0.6C133.9,101,133.9,100.6,133.9,100.3z"/>
		</g>
		<g class="st11">
			<path class="st12" d="M137.5,97.9c-0.2,0-0.3,0-0.3,0c-0.1,0-0.2,0.1-0.2,0.2c-0.1,0.1-0.1,0.3-0.1,0.5c0,0.2,0.1,0.4,0.3,0.8
				c0.2,0.4,0.3,0.8,0.4,1.2c0,0.5,0,1-0.3,1.4c-0.2,0.4-0.5,0.6-0.9,0.7c-0.3,0.1-0.6,0.1-0.7,0.1c0-0.1-0.1-0.4-0.2-0.7
				c0-0.2-0.1-0.4-0.2-0.7c0.2,0,0.4,0,0.5,0c0.3-0.1,0.4-0.3,0.4-0.7c0-0.3-0.1-0.5-0.2-0.7c-0.2-0.2-0.4-0.5-0.7-0.7
				c-0.4-0.5-0.7-1.1-0.7-1.8c-0.1-0.8,0.1-1.4,0.4-1.9c0.3-0.4,0.7-0.7,1.2-0.8c0.3-0.1,0.6-0.1,1,0L137.5,97.9z"/>
		</g>
		<g class="st11">
			<path class="st14" d="M137.5,97.9c-0.2,0-0.3,0-0.3,0c-0.1,0-0.2,0.1-0.2,0.2c-0.1,0.1-0.1,0.3-0.1,0.5c0,0.2,0.1,0.4,0.3,0.8
				c0.2,0.4,0.3,0.8,0.4,1.2c0,0.5,0,1-0.3,1.4c-0.2,0.4-0.5,0.6-0.9,0.7c-0.3,0.1-0.6,0.1-0.7,0.1c0-0.1-0.1-0.4-0.2-0.7
				c0-0.2-0.1-0.4-0.2-0.7c0.2,0,0.4,0,0.5,0c0.3-0.1,0.4-0.3,0.4-0.7c0-0.3-0.1-0.5-0.2-0.7c-0.2-0.2-0.4-0.5-0.7-0.7
				c-0.4-0.5-0.7-1.1-0.7-1.8c-0.1-0.8,0.1-1.4,0.4-1.9c0.3-0.4,0.7-0.7,1.2-0.8c0.3-0.1,0.6-0.1,1,0L137.5,97.9z"/>
		</g>
		<g class="st11">
			<path class="st12" d="M140.1,96.9c-0.2,0-0.3,0-0.3,0c-0.1,0-0.2,0.1-0.2,0.2c-0.1,0.1-0.1,0.3-0.1,0.5c0,0.2,0.1,0.4,0.3,0.8
				s0.3,0.8,0.4,1.2c0,0.5,0,1-0.3,1.4c-0.2,0.4-0.5,0.6-0.9,0.7c-0.3,0.1-0.6,0.1-0.7,0.1c0-0.1-0.1-0.4-0.2-0.7
				c0-0.2-0.1-0.4-0.2-0.7c0.2,0,0.4,0,0.5,0c0.3-0.1,0.4-0.3,0.4-0.7c0-0.3-0.1-0.5-0.2-0.7c-0.2-0.2-0.4-0.5-0.7-0.7
				c-0.4-0.5-0.7-1.1-0.7-1.8c-0.1-0.8,0.1-1.4,0.4-1.9c0.3-0.4,0.7-0.7,1.2-0.8c0.3-0.1,0.6-0.1,1,0L140.1,96.9z"/>
		</g>
		<g class="st11">
			<path class="st14" d="M140.1,96.9c-0.2,0-0.3,0-0.3,0c-0.1,0-0.2,0.1-0.2,0.2c-0.1,0.1-0.1,0.3-0.1,0.5c0,0.2,0.1,0.4,0.3,0.8
				s0.3,0.8,0.4,1.2c0,0.5,0,1-0.3,1.4c-0.2,0.4-0.5,0.6-0.9,0.7c-0.3,0.1-0.6,0.1-0.7,0.1c0-0.1-0.1-0.4-0.2-0.7
				c0-0.2-0.1-0.4-0.2-0.7c0.2,0,0.4,0,0.5,0c0.3-0.1,0.4-0.3,0.4-0.7c0-0.3-0.1-0.5-0.2-0.7c-0.2-0.2-0.4-0.5-0.7-0.7
				c-0.4-0.5-0.7-1.1-0.7-1.8c-0.1-0.8,0.1-1.4,0.4-1.9c0.3-0.4,0.7-0.7,1.2-0.8c0.3-0.1,0.6-0.1,1,0L140.1,96.9z"/>
		</g>
	</g>
	<path id="path1481_1_" class="st4" d="M128.9,85.7c-1.1-0.7-2-0.4-2.4,0c1.1,1.7,0.8,3.5,0.6,4.3c-0.1,0.2-0.5,0.3-0.5,0.3
		s1,0.3,2.1-0.1C128.9,89.6,129.8,87.7,128.9,85.7L128.9,85.7z"/>
	<path id="path1499_1_" class="st4" d="M127.8,90.1c0.1-0.4,0.6-0.1,0.6,0c0,0,0.3,0.7,0.3,1.2c0,0.3-0.4,1.1-0.4,1.1
		s-0.4,0.3-0.4-0.2c0.1-0.6,0.3-0.8,0.3-1.3C128.2,90.6,128.1,90.4,127.8,90.1L127.8,90.1z"/>
	<path id="path4473_1_" class="st1" d="M85,69.8C77.1,61.5,74.8,60,74.8,60L56.7,71.6l-29.1,33.8c0,0,8.9-7,8.6-5.5s-0.1,0.4,2,6.2
		C39,99.9,47.7,89,47.7,89s2.9,6.3,6.1,6.5c0.8-3.8,5.3-12.4,5.3-12.4l3.8,4.4c0,0,4.7-10.7,9.8-12.6c-0.3,3.1,0.9,8.3,0.9,8.3
		s5.7-11.9,6.9-8.1c0.7,2.4,2.2,4.7,5.9,8C83.9,76.5,85,74.3,85,69.8L85,69.8z"/>
	<path id="path3778_1_" class="st0" d="M68.7,50.1c-1.9,5.7-6,12.5-10.7,18.5c-3.1,4-4.8,5.9-6.9,8.6C49.2,79.6,39,93.1,25,107.9
		c0,0,17.6-19.4,16.4-13.8c-0.1,0.4-1.4,4-1.4,4l7.2-12c0,0,5.5,4.6,5.6,3.6s4.6-13.1,4.6-13.1s2.9,6.3,3.7,6
		c0.9-0.5,4.9-14.5,10.2-19c2.1,4,4,12.2,4,12.2s1.1-6.3,1.6-6.5c0.9-0.5,3.4,1.1,4.5,0.2c-1.3-2.1-1.6-5.1-1.6-5.1
		C77.6,61.8,76.8,61.2,68.7,50.1L68.7,50.1z"/>
	<ellipse id="path4542_1_" class="st15" cx="142" cy="53" rx="0.9" ry="0.8"/>
	<path id="path4134_1_" class="st16" d="M142.2,62.8c0,0-5.9-9.1-12.3-11.1c-4.7-1.5-11.6,7.7-13.2,13.6
		c-1.5,5.5-3.7-13.2,11.8-15.8C139,50.4,143.9,63.3,142.2,62.8z"/>
	<path id="path4582_1_" class="st0" d="M11.3,124.7l-2.6,3.4l-1.1,1.4L7.3,130L7,130.5l-1-0.6l-0.5-0.3L5,129.3l-0.4-0.5l-0.4-0.5
		L4,128l-0.3-0.6c0,0,3.8-3.1,6.9-3.1c0.3,0.2,0.9,0.2,0.9,0.2L11.3,124.7z"/>
	<path id="path5559_1_" class="st1" d="M80.8,20.8c2-3.5-4.9-5.2-5.3-5.2c-0.3,0-4.5-0.9-3.1,3.9s0,6.4-1.2,6s-5.4-2.4-3.4,2
		s2.6,4.2,2.4,6.3s-0.7,4-0.7,4L69.2,38l2.5,1.8c0,0,4.4-13.5,5.4-14.4S79.8,22.5,80.8,20.8L80.8,20.8z"/>
	<path id="path5549_1_" class="st0" d="M84.2,20.4c-2,0.9-5,3.8-6.7,8.4c-1.1,3.1-1.2,8-2.3,11.1c-1.1,3.1-2,2.9-2,2.9l-3.8-3.9
		C74.5,34.2,75.8,20.1,84.2,20.4z"/>
	<path id="path5644_1_" class="st17" d="M141.9,13.2c4,2.9,4.6,4.4,4.3,5.1c-1.6-0.6-4.4-1.2-4.4-1.2
		C145.5,16.7,143.3,15,141.9,13.2L141.9,13.2z"/>
	<path id="path5646_1_" class="st0" d="M141.8,17.1c18.4,8.9,13.2,16.3,9.4,25.7C165.2,26.2,145.8,16.7,141.8,17.1z"/>
	<path id="path5704_1_" class="st1" d="M25.7,137.2c0.6,0,12.5-6.3,24.2,9.5c4.1,5.1,4,9.5,2.5,11c0,0-1.6,1.2,2.5,2.3
		c4.6,1.7,3.4,4.1,3.4,4.1c-0.6,1.2,0.3,3,0.1,3c-0.9,0.1-33.6-2.9-32.5-2.9c0.2,0-2.3-2,0.8-3c4.3-1.3,14.5-2.2,16.2-5.4
		c1.3-2.4,1-7.1,0.9-7.4C41.7,145.4,41.3,141,25.7,137.2L25.7,137.2z"/>
	<path id="path5706_1_" class="st1" d="M92.4,161.3c-6.4-1.2-5.4,0.7-7.5,1.3c0,0,11-35.1,0.2-52.2s10.8-9,10.8-9
		c11.6,11.7,7.8,28.1,3.9,37.2C94.3,151.2,90.5,157.9,92.4,161.3z"/>
	<path id="path1721_1_" class="st3" d="M142,37.5c3.1,3.8,5.2,7.7,5.6,11.4c0,0.1,1.3-0.2,1.3-0.2C149,46.1,147.3,38.6,142,37.5z"/>
	<path id="path1721-2_1_" class="st3" d="M104.7,34.9c3.6,3.6,6.5,6.6,7.8,13.2c0,0.1,2.2-0.2,2.8-0.2
		C114.7,45.4,109.8,37.1,104.7,34.9L104.7,34.9z"/>
	<path id="path1950_1_" class="st18" d="M116.1,95.4c-0.4,0.2-1.5,0.1-1.9,0.6c-0.4,1.4,0.6,5.4,0.6,5.4s-0.8-3.6-0.1-5.2
		C115,95.7,116.1,95.9,116.1,95.4L116.1,95.4z"/>
	<path id="path1950-8_1_" class="st18" d="M129.7,92.6c-1,0.7-2.7,0-3.1,0.4c-0.4,1.4,0.6,5.4,0.6,5.4s-0.8-3.6-0.1-5.2
		C127.4,92.9,129,93.7,129.7,92.6L129.7,92.6z"/>
	<path id="rect4692-4-7_1_" class="st1" d="M129.7,51c-2-1.3-4.5,1.7-6.3,3.2c-2.5,2.1-4.6,5.9-5.6,8.1c-1.7,3.6-2.1,6.4-1.5,8.8
		c0.5,2,1.5,3.8,2.9,5s3.8,1.8,5.4,2.9c3.5,2.4,3.5,1.2,6.6,1.2c1.9,0,5.4-2.2,7.1-4.3c2.8-3.4,4-6.5,4.5-9.2c0.7-4-2.9-7.6-4.2-8.8
		C134.3,53.8,134.8,54.4,129.7,51L129.7,51z"/>
	<path id="path4974_1_" class="st9" d="M131.1,56.5c0,2.3,0.9,4.4,0.3,6.5c0,0,0.8,0,1.2,0.1c0.3,0.1,0.7,0.2,0.9,0.4
		c0.6,0.3,1.5,1.2,1.5,1.2s0.3,0.2,0.5,0.3c0.3,0.1,0.6,0.2,0.8,0.2c0.3,0.1,0.6,0.1,1,0.1c0.3,0,0.9-0.2,0.9-0.2l-0.1-0.3l-0.3-0.7
		c0,0,0.7,0.3,0.8,0.7c0.1,0.2,0.1,0.4,0.1,0.6s-0.1,0.4-0.1,0.7c-0.1,0.1-0.2,0.4-0.2,0.4l0.1-0.7l-0.1-0.1l-0.2,0.1
		c0,0-0.5,0-0.8,0c-0.4,0-0.9,0-1.3-0.1c-0.3-0.1-0.7-0.2-1-0.3c-0.2-0.1-0.4-0.3-0.6-0.4c-0.5-0.3-1-0.8-1.6-1
		c-0.3-0.1-0.7-0.1-1.1-0.2c-0.3,0-0.6-0.1-0.8-0.1c-0.5,0-0.9,0.1-1.4,0.3c-0.3,0.1-0.7,0.2-1,0.3c-0.3,0.1-0.4,0.4-0.7,0.6
		s-0.8,0.3-1.1,0.4c-0.3,0.1-0.7,0.2-1,0.2c-0.4,0.1-0.8,0.1-1.2,0.1c-0.3,0-0.7-0.1-1-0.2c-0.2,0-0.4-0.1-0.7-0.2
		c-0.3-0.1-1-0.2-1-0.2s-0.3,0.3-0.4,0.4c-0.2,0.2-0.3,0.8-0.3,0.8v0.6c0,0-0.4-1-0.3-1.5c0.1-0.4,0.3-0.7,0.5-1
		c0.1-0.2,0.3-0.4,0.5-0.6c0.2-0.1,0.5-0.3,0.5-0.3c-0.2,0.7-0.4,0.8-0.1,1.1c0,0,0.9,0.2,1.4,0.3c0.5,0.1,1,0.1,1.5,0
		c0.5,0,0.9-0.1,1.4-0.2c0.4-0.1,0.7-0.2,1.1-0.4c0.4-0.2,0.7-0.5,1.1-0.7c0.3-0.1,0.7-0.2,1-0.3s0.6-0.2,0.9-0.2c0.1,0,0.4,0,0.4,0
		c0.5-2.2-0.3-4.3-0.3-6.5L131.1,56.5z"/>
	<path id="path910_1_" class="st9" d="M138.6,62.1c-0.1-0.9-0.9-2.3-1.6-3c-0.8-0.8-1.8-1.4-2.1-1.2c-0.3,0.1-0.9,1-1.1,1.7
		c-0.2,0.8-0.1,2,0.2,2.2c0.6,0.4,1.9,0.8,3.2,0.9l1.4,0.1L138.6,62.1z"/>
	<path id="path912_1_" class="st9" d="M126.1,62c0.6-0.1,1.4-0.2,1.8-0.3c0.8-0.2,0.8-0.2,1-0.8c0.2-0.8,0-1.8-0.4-2.6
		c-0.3-0.6-0.3-0.7-1-0.7s-2.7,0.6-2.8,0.9c0,0.1-0.1,0.1-0.2,0.1c-0.7,0-2.6,2.1-2.8,3l-0.1,0.5h1.7
		C124.3,62.2,125.5,62.1,126.1,62L126.1,62z"/>
	<path id="path1180_1_" class="st9" d="M132.1,70c0.4-0.3,1.1-1.1,1.4-1.8c0.3-0.7,0.4-1.4,0.2-1.8s-0.9-1-1.5-1.3
		c-0.7-0.3-1.5-0.4-2.1-0.1s-1.2,0.9-1.5,1.4c-0.2,0.4-0.2,0.4-0.1,0.8c0.6,1.4,1.9,2.8,2.9,2.9C131.7,70.2,131.8,70.1,132.1,70
		L132.1,70z"/>
	<path id="path1182_1_" class="st9" d="M131.8,83.9c1-0.1,2.7-0.4,3.7-0.8c1.6-0.6,3-1.3,3.5-2.1c0.4-0.6,0.4-1,0.4-3.4
		c0-2.6,0-2.6,1-3.6c0.3-0.4,0.7-0.8,0.7-0.9c0.1-0.3-0.6-1.4-1.2-2.1l-0.3-0.3l-0.2,0.3c-0.6,0.8-1.9,1.8-2.8,2.2
		c-0.2,0.1-0.7,0.2-1.2,0.2c-1.3,0.1-5.9,0.3-9.2,0.3h-3l-0.4-0.2c-0.4-0.2-1.3-1-1.4-1.3s-1.1,0.9-1.7,2.1l-0.3,0.7l0.2,0.4
		c0.2,0.6,0.8,1.6,1.7,2.9c0.9,1.4,1.1,1.9,1.3,3c0.2,1,0.2,1.2,0.9,1.8c0.5,0.4,1.1,0.7,1.9,0.9C125.8,84,130.6,84.1,131.8,83.9
		L131.8,83.9z"/>
	<path id="path5702_1_" class="st19" d="M140.1,73.5c-1,1.8-1.3,0.2-1.1,6.2c0.1,1.7-3.4,3.5-4.5,3.4c0-1.5,3-1.7,3.5-2.9
		c0.8-1.8-0.4-4.6,0.9-6.1C139.3,73.8,140.7,72.5,140.1,73.5z"/>
	<path id="path5606_1_" class="st16" d="M133.6,53.6c1.6,1.4,14.6,8.2,6.6,19.2C141.9,65,144.1,63.8,133.6,53.6z"/>
	<path id="rect4692-42_1_" class="st9" d="M129.5,50.4c-1.8,0-3.8,0.5-5.2,1.6c-1.2,0.9-0.5,1.7,1,3c0.9,0.8,2.7,1.8,4.9,2
		c1.1,0.1,2-0.7,2.8-1.2s0.6-0.5,1.4-1.4c0.5-0.5,1.1-1.4,0.3-2C133.3,51.3,131.4,50.4,129.5,50.4L129.5,50.4z"/>
</g>
</svg>
