<?xml version="1.0" encoding="UTF-8" standalone="no"?>
<!-- Created with Inkscape (http://www.inkscape.org/) -->

<svg
   xmlns:osb="http://www.openswatchbook.org/uri/2009/osb"
   xmlns:dc="http://purl.org/dc/elements/1.1/"
   xmlns:cc="http://creativecommons.org/ns#"
   xmlns:rdf="http://www.w3.org/1999/02/22-rdf-syntax-ns#"
   xmlns:svg="http://www.w3.org/2000/svg"
   xmlns="http://www.w3.org/2000/svg"
   xmlns:xlink="http://www.w3.org/1999/xlink"
   xmlns:sodipodi="http://sodipodi.sourceforge.net/DTD/sodipodi-0.dtd"
   xmlns:inkscape="http://www.inkscape.org/namespaces/inkscape"
   width="210mm"
   height="297mm"
   viewBox="0 0 210 297"
   version="1.1"
   id="svg1657"
   inkscape:version="0.92.4 (5da689c313, 2019-01-14)"
   sodipodi:docname="pug.svg">
  <defs
     id="defs1651">
    <linearGradient
       inkscape:collect="always"
       id="linearGradient4596">
      <stop
         style="stop-color:#c87137;stop-opacity:1;"
         offset="0"
         id="stop4592" />
      <stop
         style="stop-color:#c87137;stop-opacity:0;"
         offset="1"
         id="stop4594" />
    </linearGradient>
    <linearGradient
       inkscape:collect="always"
       id="linearGradient4518">
      <stop
         style="stop-color:#28170b;stop-opacity:1;"
         offset="0"
         id="stop4514" />
      <stop
         style="stop-color:#28170b;stop-opacity:0;"
         offset="1"
         id="stop4516" />
    </linearGradient>
    <linearGradient
       inkscape:collect="always"
       id="linearGradient4495">
      <stop
         style="stop-color:#28220b;stop-opacity:1;"
         offset="0"
         id="stop4491" />
      <stop
         style="stop-color:#28220b;stop-opacity:0;"
         offset="1"
         id="stop4493" />
    </linearGradient>
    <linearGradient
       id="linearGradient4461"
       osb:paint="solid">
      <stop
         style="stop-color:#784421;stop-opacity:1;"
         offset="0"
         id="stop4459" />
    </linearGradient>
    <linearGradient
       inkscape:collect="always"
       id="linearGradient2794">
      <stop
         style="stop-color:#784421;stop-opacity:1;"
         offset="0"
         id="stop2790" />
      <stop
         style="stop-color:#784421;stop-opacity:0;"
         offset="1"
         id="stop2792" />
    </linearGradient>
    <linearGradient
       inkscape:collect="always"
       xlink:href="#linearGradient2794"
       id="linearGradient2798"
       x1="18.509274"
       y1="99.925797"
       x2="118.29127"
       y2="99.925797"
       gradientUnits="userSpaceOnUse" />
    <linearGradient
       inkscape:collect="always"
       xlink:href="#linearGradient4495"
       id="linearGradient4497"
       x1="-17.488808"
       y1="80.109209"
       x2="24.579755"
       y2="80.109209"
       gradientUnits="userSpaceOnUse"
       gradientTransform="translate(23.488965,-0.192533)" />
    <linearGradient
       inkscape:collect="always"
       xlink:href="#linearGradient4518"
       id="linearGradient4520"
       x1="34.866582"
       y1="126.03304"
       x2="66.502634"
       y2="126.03304"
       gradientUnits="userSpaceOnUse" />
    <linearGradient
       inkscape:collect="always"
       xlink:href="#linearGradient2794"
       id="linearGradient4567"
       x1="34.09684"
       y1="171.59258"
       x2="201.73557"
       y2="171.59258"
       gradientUnits="userSpaceOnUse"
       gradientTransform="translate(-9e-6,-5.9e-6)" />
    <linearGradient
       inkscape:collect="always"
       xlink:href="#linearGradient4596"
       id="linearGradient4598"
       x1="80.644788"
       y1="208.13462"
       x2="122.70377"
       y2="208.13462"
       gradientUnits="userSpaceOnUse" />
  </defs>
  <sodipodi:namedview
     id="base"
     pagecolor="#ffffff"
     bordercolor="#666666"
     borderopacity="1.0"
     inkscape:pageopacity="0.0"
     inkscape:pageshadow="2"
     inkscape:zoom="0.5"
     inkscape:cx="411.34102"
     inkscape:cy="529.79363"
     inkscape:document-units="mm"
     inkscape:current-layer="layer1"
     showgrid="false"
     inkscape:window-width="1366"
     inkscape:window-height="705"
     inkscape:window-x="-8"
     inkscape:window-y="-8"
     inkscape:window-maximized="1" />
  <metadata
     id="metadata1654">
    <rdf:RDF>
      <cc:Work
         rdf:about="">
        <dc:format>image/svg+xml</dc:format>
        <dc:type
           rdf:resource="http://purl.org/dc/dcmitype/StillImage" />
        <dc:title></dc:title>
      </cc:Work>
    </rdf:RDF>
  </metadata>
  <g
     inkscape:label="Camada 1"
     inkscape:groupmode="layer"
     id="layer1">
    <g
       id="g4688"
       transform="translate(1.0583333,-10.583333)">
      <path
         sodipodi:nodetypes="caacccc"
         inkscape:connector-curvature="0"
         id="path4996"
         d="m 125.42599,235.75327 c 0,0.38296 -0.9266,0.73578 -1.19908,1.24288 -0.37137,0.69113 -0.4728,1.51404 -0.5106,2.29772 -0.0445,0.92217 0.33782,2.74903 0.33782,2.74903 8.51183,-0.99624 10.97639,-0.47645 18.5249,-3.22865 l 0.32875,-2.51807 z"
         style="fill:#c87137;fill-opacity:1;stroke:#000000;stroke-width:0.26458332px;stroke-linecap:butt;stroke-linejoin:miter;stroke-opacity:1" />
      <path
         sodipodi:nodetypes="caaaaaaaaaaaaaaaaaacaaaaacaaaaaacccc"
         inkscape:connector-curvature="0"
         id="path4994"
         d="m 39.890508,190.51988 c 0,0 -1.34493,1.96718 -1.78712,3.06363 -0.60601,1.50267 -0.90137,3.12183 -1.14886,4.72309 -0.28663,1.85454 -0.31909,3.74117 -0.38295,5.61665 -0.0391,1.14819 -0.0537,2.29897 0,3.44658 0.0639,1.36609 0.16591,2.73458 0.38295,4.08483 0.33254,2.06881 0.81675,4.11592 1.40417,6.12726 0.35466,1.21438 0.85594,2.38107 1.27651,3.57423 0.34445,0.97724 0.6615,1.96424 1.02121,2.93597 0.44437,1.20044 0.91169,2.3927 1.40416,3.57423 0.60835,1.45954 1.34499,2.86511 1.91477,4.34014 0.2909,0.7531 0.51784,1.52944 0.7659,2.29772 0.21917,0.67877 0.48423,1.34597 0.63826,2.04242 0.13146,0.59441 0.36439,1.21417 0.24114,1.81034 -0.0484,0.23409 -0.21379,0.43306 -0.36879,0.61503 -0.68536,0.80461 -1.58011,1.40788 -2.42538,2.04242 -0.61346,0.46053 -1.44095,0.67325 -1.91476,1.27651 -0.30763,0.39167 -0.45702,0.90901 -0.5106,1.40416 -0.0668,0.61781 0.10858,1.24206 0.24755,1.84774 0.13439,0.58567 0.56348,1.71234 0.56348,1.71234 0,0 0.56191,0.19228 0.84843,0.26945 0.75759,0.20405 1.52041,0.40397 2.29772,0.51061 1.56203,0.21429 3.14643,0.25648 4.72309,0.2553 1.53418,-0.001 3.08144,-0.007 4.59544,-0.2553 1.26322,-0.20688 2.49298,-0.6004 3.70188,-1.02121 0.8958,-0.31182 2.62006,-1.11014 2.62006,-1.11014 0,0 0.64742,-2.54337 0.69887,-3.84502 0.0442,-1.11842 -0.21737,-2.22805 -0.33782,-3.34083 -0.11985,-1.10719 -0.46242,-2.20812 -0.38295,-3.31893 0.0911,-1.27331 0.55445,-2.49829 0.97607,-3.70321 0.52226,-1.49251 1.34373,-2.8656 1.91477,-4.34014 0.57182,-1.47655 1.12124,-2.96889 1.50991,-4.50385 0.4437,-1.75224 0.93095,-5.3421 0.93095,-5.3421 l -0.23208,-2.16233 -7.01462,-5.16909 z"
         style="fill:#d38d5f;stroke:#000000;stroke-width:0.26458332px;stroke-linecap:butt;stroke-linejoin:miter;stroke-opacity:1" />
      <path
         sodipodi:nodetypes="caaaaaaaaaaaaaaaaaacaaaaacaaaaaacccc"
         inkscape:connector-curvature="0"
         id="path4994-2"
         d="m 39.890508,190.51988 c 0,0 -1.34493,1.96718 -1.78712,3.06363 -0.60601,1.50267 -0.90137,3.12183 -1.14886,4.72309 -0.28663,1.85454 -0.31909,3.74117 -0.38295,5.61665 -0.0391,1.14819 -0.0537,2.29897 0,3.44658 0.0639,1.36609 0.16591,2.73458 0.38295,4.08483 0.33254,2.06881 0.81675,4.11592 1.40417,6.12726 0.35466,1.21438 0.85594,2.38107 1.27651,3.57423 0.34445,0.97724 0.6615,1.96424 1.02121,2.93597 0.44437,1.20044 0.91169,2.3927 1.40416,3.57423 0.60835,1.45954 1.34499,2.86511 1.91477,4.34014 0.2909,0.7531 0.51784,1.52944 0.7659,2.29772 0.21917,0.67877 0.48423,1.34597 0.63826,2.04242 0.13146,0.59441 0.36439,1.21417 0.24114,1.81034 -0.0484,0.23409 -0.21379,0.43306 -0.36879,0.61503 -0.68536,0.80461 -1.58011,1.40788 -2.42538,2.04242 -0.61346,0.46053 -1.44095,0.67325 -1.91476,1.27651 -0.30763,0.39167 -0.45702,0.90901 -0.5106,1.40416 -0.0668,0.61781 0.10858,1.24206 0.24755,1.84774 0.13439,0.58567 0.56348,1.71234 0.56348,1.71234 0,0 0.56191,0.19228 0.84843,0.26945 0.75759,0.20405 1.52041,0.40397 2.29772,0.51061 1.56203,0.21429 3.14643,0.25648 4.72309,0.2553 1.53418,-0.001 3.08144,-0.007 4.59544,-0.2553 1.26322,-0.20688 2.49298,-0.6004 3.70188,-1.02121 0.8958,-0.31182 2.62006,-1.11014 2.62006,-1.11014 0,0 0.64742,-2.54337 0.69887,-3.84502 0.0442,-1.11842 -0.21737,-2.22805 -0.33782,-3.34083 -0.11985,-1.10719 -0.46242,-2.20812 -0.38295,-3.31893 0.0911,-1.27331 0.55445,-2.49829 0.97607,-3.70321 0.52226,-1.49251 1.34373,-2.8656 1.914769,-4.34014 0.57182,-1.47655 1.12124,-2.96889 1.509911,-4.50385 0.443701,-1.75224 0.930949,-5.3421 0.930949,-5.3421 l -0.232079,-2.16233 -7.01462,-5.16909 z"
         style="opacity:0.34000005;fill:#a05a2c;stroke:none;stroke-width:0.26458332px;stroke-linecap:butt;stroke-linejoin:miter;stroke-opacity:1" />
      <path
         sodipodi:nodetypes="ccscscaacaaacsc"
         inkscape:connector-curvature="0"
         id="rect4708-7"
         d="m 34.448037,149.44607 c 49.545554,14.86697 81.905383,-34.0053 85.379023,-45.96427 0,0 3.79748,14.29323 17.31126,30.08025 0,0 8.1144,10.29706 22.04187,27.4123 6.33046,7.91789 12.57184,13.22872 19.09919,21.83067 5.91148,7.79034 16.92312,19.31613 23.12958,32.78708 0.84829,5.2643 -1.1464,11.41425 -4.8603,15.2404 -3.64139,3.75144 -9.61055,4.52911 -14.79436,5.2081 -30.41042,3.98322 -52.49041,9.08948 -91.730741,-7.16985 -9.71931,-3.78031 -19.417091,-7.98688 -28.078491,-13.79392 -6.26974,-4.20355 -12.226126,-9.12746 -16.95608,-15.01024 -3.426684,-4.26186 -6.304648,-9.12785 -7.983118,-14.3325 -1.362424,-4.22465 -1.537709,-13.22763 -1.537709,-13.22763 -0.333688,-1.45523 0.02687,-7.68218 0.543105,-11.48713 0.703466,-5.18499 -2.645277,-13.62433 -1.563229,-11.57326 z"
         style="fill:#d38d5f;fill-opacity:1;stroke:#000000;stroke-width:0.26458332;stroke-opacity:1" />
      <path
         sodipodi:nodetypes="ccccc"
         inkscape:connector-curvature="0"
         id="path1170"
         d="m 12.995054,100.86096 c 1.924612,1.27665 1.824644,-9.963118 11.23438,-13.279102 3.570196,-7.004132 23.590159,-25.20955 23.590159,-25.20955 0,0 -35.440058,-12.464177 -41.5651677,9.648099 -1.097985,13.454814 5.4292767,29.677813 6.7406287,28.840553 z"
         style="fill:#784421;stroke:#000000;stroke-width:0.26053628px;stroke-linecap:butt;stroke-linejoin:miter;stroke-opacity:1" />
      <path
         sodipodi:nodetypes="ccccc"
         inkscape:connector-curvature="0"
         id="path1170-6"
         d="m 12.995053,100.86096 c 1.924613,1.27665 1.824645,-9.963118 11.234381,-13.279101 3.570196,-7.004133 23.590158,-25.209552 23.590158,-25.209552 0,0 -35.440058,-12.464177 -41.5651667,9.6481 -1.097985,13.454813 5.4292757,29.677813 6.7406277,28.840553 z"
         style="opacity:0.48399999;fill:url(#linearGradient4497);fill-opacity:1;stroke:#000000;stroke-width:0.26053628px;stroke-linecap:butt;stroke-linejoin:miter;stroke-opacity:1" />
      <path
         sodipodi:nodetypes="zsssszzsccccssz"
         inkscape:connector-curvature="0"
         id="path4698"
         d="m 118.02169,101.75448 c 1.68378,6.12473 -11.18508,20.03974 -15.74923,25.28439 -7.995305,9.18737 -12.376012,11.42294 -27.702749,19.83878 -10.47276,5.75054 -28.178353,6.28482 -39.818803,0.068 -9.69475,-5.17769 -17.54928,-16.59857 -15.90487,-27.95113 0.57789,-3.98956 4.50246,-6.8387 5.71193,-9.70867 1.20947,-2.86997 0.23624,-9.12118 0.35246,-9.980408 0.11623,-0.85924 -3.51272,-3.68407 -5.57446,-11.31629 -2.11504,-7.82948 7.26482,-17.674989 14.72495,-19.007279 0.97854,-0.0984 1.97929,-0.50032 2.99421,-0.43547 -0.75106,-0.10436 -4.35358,0.61549 -6.37095,1.44962 -1.98658,-3.79071 24.61755,-19.025969 41.778303,-21.551076 11.898422,0.25471 15.315772,4.339861 27.545459,12.195304 6.25167,4.015602 14.6639,21.958681 16.34639,34.770991 0.36222,2.75839 -0.0164,0.2185 1.66736,6.343238 z"
         style="fill:#d38d5f;fill-opacity:1;stroke:#000000;stroke-width:0.23535071;stroke-opacity:1" />
      <path
         sodipodi:nodetypes="ccscscaacaaacsc"
         inkscape:connector-curvature="0"
         id="rect4708"
         d="m 34.448037,149.44607 c 49.545551,14.86697 81.905373,-34.0053 85.379013,-45.96427 0,0 3.79748,14.29323 17.31127,30.08025 0,0 8.1144,10.29706 22.04186,27.4123 6.33047,7.91789 12.57185,13.22872 19.09919,21.83067 5.91149,7.79034 16.92313,19.31613 23.12958,32.78708 0.84829,5.2643 -1.1464,11.41425 -4.8603,15.2404 -3.64139,3.75144 -9.61054,4.52911 -14.79435,5.2081 -30.41043,3.98322 -52.49042,9.08948 -91.730742,-7.16985 -9.719307,-3.78031 -19.417091,-7.98688 -28.078491,-13.79392 -6.26974,-4.20355 -12.226126,-9.12746 -16.95608,-15.01024 -3.426683,-4.26186 -6.304648,-9.12785 -7.983117,-14.3325 -1.362424,-4.22465 -1.537709,-13.22763 -1.537709,-13.22763 -0.333688,-1.45523 0.02687,-7.68218 0.543105,-11.48713 0.703466,-5.18499 -2.645277,-13.62433 -1.563229,-11.57326 z"
         style="opacity:0.06000001;fill:url(#linearGradient4567);fill-opacity:1;stroke:#000000;stroke-width:0.26458332;stroke-opacity:1" />
      <path
         sodipodi:nodetypes="csaaaaaaccaaaaacaccsaaaaaaaaaacc"
         inkscape:connector-curvature="0"
         id="path4980"
         d="m 89.622976,168.03406 c -0.24048,0 -4.44554,4.72943 -5.68656,7.76263 -1.09322,2.67193 -2.09585,5.72767 -2.66276,8.71037 -0.39167,2.06074 -0.50082,4.17565 -0.49645,6.27327 0.005,2.53612 0.27727,5.07087 0.63184,7.58209 0.31102,2.20271 0.70045,4.40431 1.30882,6.54406 0.67173,2.36262 1.65723,4.62578 2.57249,6.90513 1.01946,2.53883 2.1071,5.05101 3.24947,7.53696 0.91585,1.993 2.888409,5.91222 2.888409,5.91222 1.71343,3.7671 2.89583,6.36022 2.88838,10.4705 0,0 -0.0746,1.70919 -0.63184,2.25658 -0.51019,0.50118 -1.40148,0.30402 -2.07605,0.54157 -0.76216,0.2684 -1.618049,0.44444 -2.211439,0.9929 -0.66745,0.61691 -1.13458,1.49995 -1.30882,2.39196 -0.22644,1.1593 -0.0423,2.42752 0.40619,3.52026 0.33365,0.81294 0.80002,1.61513 1.62473,2.07605 2.411949,0.66969 5.013199,0.74041 7.536959,0.72211 2.603215,-0.0189 4.525385,-0.29084 7.762615,-0.8575 1.00026,-0.43108 1.91691,-0.54931 2.75302,-1.76013 0.25771,-0.90606 0.34762,-1.81039 0.36101,-2.70789 0.018,-1.20212 0.19531,-2.49866 0.31592,-3.74591 0.16022,-1.65691 0.30539,-3.31667 0.54158,-4.96447 0.35339,-2.46545 0.69064,-4.94371 1.30881,-7.35643 0.61872,-2.41483 1.49554,-4.75957 2.39198,-7.08564 0.81407,-2.11235 1.80597,-4.15179 2.70788,-6.22815 0.69257,-1.59441 1.4366,-3.16749 2.07606,-4.78393 0.78769,-1.99116 1.56795,-3.99162 2.1663,-6.04762 0.72408,-2.48799 1.22334,-5.03795 1.715,-7.58209 0.3238,-1.67553 0.78845,-3.34837 0.81237,-5.05473 0.0225,-1.60834 -0.0955,-3.26749 -0.63185,-4.78394 -0.21162,-0.59838 -0.99289,-1.62473 -0.99289,-1.62473 l 0.18053,0.27079"
         style="fill:#d38d5f;fill-opacity:1;stroke:#000000;stroke-width:0.26458332px;stroke-linecap:butt;stroke-linejoin:miter;stroke-opacity:1" />
      <path
         sodipodi:nodetypes="ccaccaaaazaaaacccccccccacac"
         inkscape:connector-curvature="0"
         id="path4998"
         d="m 170.82451,209.94865 -5.52514,-1.02031 c 0,0 -4.19905,-0.25361 -6.09968,0.32338 -4.99577,1.51665 -7.60359,2.94399 -12.58829,7.83905 -1.59971,1.87065 -3.05173,3.64571 -4.55012,5.7392 0,0 -1.17612,2.04658 -1.64307,3.10601 -0.45318,1.02816 -0.94718,2.06384 -1.1195,3.14335 -0.17233,1.07958 -0.16988,2.19549 0.0969,3.26315 0.23423,0.93751 1.47143,1.73247 1.30003,2.6783 -0.071,0.39097 -0.2485,0.53165 -0.90943,0.9456 -0.66091,0.41395 -2.2616,0.63064 -3.25007,1.14784 -0.98846,0.51719 -2.00748,1.10497 -2.60007,1.91307 -0.36048,0.49159 -0.4505,1.09154 -0.48751,1.65799 -0.0447,0.68459 0.32184,1.35512 0.32501,2.0406 0.004,0.7277 -0.2238,1.41989 -0.32501,2.16814 1.41684,-0.2288 4.71262,-0.51015 4.71262,-0.51015 l 6.33766,-0.51015 7.31269,-0.51016 6.66267,-0.63768 12.35031,-1.14784 6.66265,-0.25507 6.17516,-0.51016 c 0,0 3.35559,-0.38966 4.22511,-0.76523 0.3645,-0.76046 0.96804,-1.48547 1.13753,-2.29568 0.19327,-0.92386 -0.1625,-2.80582 -0.1625,-2.80582 0,0 1.1742,-0.69993 1.78754,-1.02031 1.47712,-0.77157 4.55011,-2.16814 4.55011,-2.16814"
         style="fill:#d38d5f;stroke:#000000;stroke-width:0.29839361px;stroke-linecap:butt;stroke-linejoin:miter;stroke-opacity:1" />
      <path
         style="fill:#aa8800;stroke:#000000;stroke-width:0.26458332px;stroke-linecap:butt;stroke-linejoin:miter;stroke-opacity:1"
         d="m 54.124438,149.63104 c -1.229767,-0.82179 -1.952778,-0.34001 -2.300962,0.0687 1.262744,1.98812 0.509995,4.04154 0.250584,4.93202 -0.0847,0.29075 -0.567185,0.30216 -0.567185,0.30216 0,0 1.210676,0.38467 2.468625,-0.0733 0.22829,-0.61885 1.272624,-2.80746 0.148938,-5.22952 z"
         id="path1481-7"
         inkscape:connector-curvature="0"
         sodipodi:nodetypes="ccscccc" />
      <path
         sodipodi:nodetypes="zsssszzsccccssz"
         inkscape:connector-curvature="0"
         id="path4698-4"
         d="m 118.02169,101.75449 c 1.68379,6.12473 -11.18508,20.03974 -15.74923,25.2844 -7.995306,9.18735 -12.376012,11.42292 -27.70275,19.83876 -10.472759,5.75054 -28.178353,6.28482 -39.818802,0.068 -9.69475,-5.1777 -17.54928,-16.59857 -15.90487,-27.95113 0.57789,-3.98956 4.50246,-6.8387 5.71193,-9.70867 1.20947,-2.86997 0.23624,-9.12118 0.35246,-9.980407 0.11623,-0.85924 -3.51272,-3.684072 -5.57446,-11.31629 -2.11504,-7.829482 7.26482,-17.67499 14.72495,-19.00728 0.97854,-0.0984 1.97929,-0.50032 2.99421,-0.43547 -0.75106,-0.10436 -4.35358,0.61549 -6.37095,1.44962 -1.986581,-3.79071 24.61755,-19.025969 41.778303,-21.551076 11.898421,0.25471 15.315771,4.339861 27.545459,12.195304 6.25167,4.015602 14.6639,21.95868 16.3464,34.770991 0.36222,2.758389 -0.0164,0.2185 1.66735,6.343238 z"
         style="opacity:0.15400002;fill:url(#linearGradient2798);fill-opacity:1;stroke:#000000;stroke-width:0.23535071;stroke-opacity:1" />
      <path
         sodipodi:nodetypes="aaaaaaaaaaaaaacaaaacaaaaaaaaaaaacssca"
         inkscape:connector-curvature="0"
         id="path4976"
         d="m 34.62244,146.3421 c 2.097932,0.7266 4.293514,1.14348 6.469905,1.58233 2.914389,0.58767 5.84891,1.11562 8.80792,1.40416 2.06151,0.20103 4.14157,0.33867 6.20978,0.22566 2.94817,-0.1611 5.90742,-0.53795 8.76412,-1.28426 4.33421,-1.13231 8.5363,-2.81681 12.55095,-4.80428 3.53244,-1.74875 6.83309,-3.95175 10.05746,-6.21884 2.96393,-2.08396 5.79424,-4.36426 8.50749,-6.76551 1.92182,-1.70082 3.72459,-3.53513 5.489005,-5.39874 1.81664,-1.91875 3.54237,-3.92312 5.24144,-5.94672 1.56186,-1.86019 3.08232,-3.75629 4.55031,-5.69142 1.99214,-2.6261 4.34361,-5.05816 5.77395,-8.02787 0.4491,-0.93243 0.75493,-1.95746 0.84067,-2.98885 0.0517,-0.62214 -0.13762,-1.24097 -0.20242,-1.86189 -0.0444,-0.42532 -0.12765,-1.276508 -0.12765,-1.276508 0,0 0.97927,0.822438 1.30615,1.359028 0.29437,0.48322 0.35608,1.0743 0.548,1.60658 0.24159,0.67005 0.50486,1.33209 0.75949,1.99729 0.25128,0.65644 0.54812,1.29688 0.75817,1.96765 0.19248,0.61469 0.45772,1.87737 0.45772,1.87737 0,0 -0.77247,1.10183 -1.14886,1.65947 -1.08279,1.60423 -2.0581,3.28169 -3.19127,4.85074 -1.36565,1.89094 -2.82758,3.71339 -4.34015,5.489 -1.88053,2.20755 -3.88041,4.31159 -5.87968,6.4122 -1.98173,2.08218 -3.94772,4.18563 -6.06023,6.135 -2.755955,2.54312 -5.626885,4.96887 -8.611915,7.23873 -2.4935,1.89609 -5.07527,3.68463 -7.74934,5.31621 -2.85934,1.74461 -5.76411,3.45457 -8.84531,4.76822 -2.74811,1.17163 -5.60926,2.12333 -8.53073,2.74771 -3.53834,0.75621 -7.17365,1.06078 -10.78972,1.18625 -2.36568,0.0821 -4.73987,-0.0531 -7.09559,-0.28496 -3.68396,-0.36262 -7.339922,-1.0028 -10.97025,-1.72649 -1.3335,-0.26583 -3.964768,-0.95947 -3.964768,-0.95947 0.373909,0.16025 -0.884313,-0.92033 -1.074761,-1.78958 -0.170344,-0.77749 -0.957021,-2.13281 -1.372671,-3.25696 -0.2379,-0.64341 -0.474272,-1.05946 -0.474272,-1.05946 0,0 2.182294,1.11827 3.337057,1.51821 z"
         style="fill:#aa0000;fill-opacity:1;stroke:#552200;stroke-width:0.26458332px;stroke-linecap:butt;stroke-linejoin:miter;stroke-opacity:1" />
      <path
         sodipodi:nodetypes="cscsssc"
         inkscape:connector-curvature="0"
         id="path1153"
         d="m 103.23408,71.754628 c 0.14085,1.267617 8.11087,-0.234909 10.35572,22.141044 0.15676,1.56251 1.99299,4.52117 1.99299,4.52117 0,0 8.29062,-7.23296 11.15146,-11.394441 2.34323,-3.408546 4.00552,-6.815559 5.6937,-10.591658 C 135.4824,69.598583 129.8797,66.0442 125.80818,63.33205 107.46839,51.115413 95.807935,63.191202 95.807935,63.191202"
         style="fill:#a05a2c;stroke:#000000;stroke-width:0.26458332px;stroke-linecap:butt;stroke-linejoin:miter;stroke-opacity:1" />
      <path
         sodipodi:nodetypes="ccsc"
         inkscape:connector-curvature="0"
         id="path1153-6"
         d="m 97.508915,65.505652 c 14.871245,-10.767244 28.318515,-0.238873 35.298325,5.080695 -1.10007,-3.211436 -4.44483,-5.362418 -7.12573,-7.14824 C 107.34173,51.221456 95.681255,63.297259 95.681255,63.297259"
         style="fill:#502d16;stroke:none;stroke-width:0.26458332px;stroke-linecap:butt;stroke-linejoin:miter;stroke-opacity:1" />
      <path
         sodipodi:nodetypes="sccsassss"
         inkscape:connector-curvature="0"
         id="rect4692"
         d="m 35.778537,89.676102 c 1.517108,-0.1593 4.874003,-1.3071 6.277489,-0.92178 0.82301,1.79843 0.537565,3.72878 1.290019,6.3756 3.738826,6.669358 3.156167,11.429358 3.047306,15.898958 -0.09167,3.76369 -0.269153,7.71785 -3.186563,8.94799 -4.285804,1.80711 -10.605118,-3.56118 -12.679793,-5.82469 -1.0542,-1.15015 -3.115938,-3.24095 -3.9339,-6.05692 -0.791791,-2.7259 -0.367191,-6.15677 0.230929,-8.554728 1.074751,-4.30882 4.537944,-9.40068 8.954513,-9.86443 z"
         style="fill:#a05a2c;fill-opacity:0.98604647;stroke-width:0.37295443" />
      <path
         sodipodi:nodetypes="cssssssccsc"
         inkscape:connector-curvature="0"
         id="rect4692-4"
         d="m 80.490508,86.094038 c 3.793877,0.854846 7.464853,2.942674 10.401287,5.272954 3.96195,3.14412 6.39768,5.08718 9.110815,9.590538 3.34665,5.55491 -5.140015,8.678 -8.074885,10.45959 -4.471877,2.71461 -12.115822,4.79778 -18.267714,4.68517 0,0 -8.257176,0.69304 -15.030208,-4.65312 -2.569497,-2.02818 5.779895,-11.866328 7.728374,-13.946368 1.302287,-1.39022 4.228469,-6.42153 8.670784,-9.15604 -1.41937,-0.867958 -1.904689,-1.226608 -4.809527,-1.569296 1.929072,-1.729898 9.508035,-0.855359 10.271074,-0.683431 z"
         style="fill:#a05a2c;fill-opacity:1;stroke-width:0.4301016" />
      <path
         sodipodi:nodetypes="assssssa"
         inkscape:connector-curvature="0"
         id="rect4692-4-0"
         d="m 79.591793,89.787752 c 2.965161,-0.35251 5.878535,1.96568 8.133182,3.7549 3.04206,2.41412 4.91227,3.90604 6.99546,7.363798 2.56962,4.26516 -3.94661,6.66313 -6.200058,8.03107 -3.433584,2.08433 -9.302748,3.68382 -14.026286,3.59736 0,0 -6.340014,0.53213 -11.540475,-3.57275 -1.972908,-1.55728 4.437918,-9.111178 5.93399,-10.708288 1.309755,-1.39819 6.186829,-7.92905 10.704187,-8.46609 z"
         style="fill:#ffffff;fill-opacity:1;stroke-width:0.33024004" />
      <path
         sodipodi:nodetypes="cscc"
         inkscape:connector-curvature="0"
         id="rect4692-4-0-9"
         d="m 75.723257,112.54818 c 0,0 -7.477282,0.44465 -12.677744,-3.66023 -1.972908,-1.55728 4.437919,-9.111178 5.933991,-10.708288 6.991288,0.90205 13.067464,9.593568 6.743753,14.368518 z"
         style="fill:#c87137;fill-opacity:0.58039216;stroke-width:0.33024004" />
      <path
         sodipodi:nodetypes="cccccccc"
         inkscape:connector-curvature="0"
         id="rect4692-4-0-9-0"
         d="m 72.733399,112.52703 c -1.231866,-0.0835 -6.067058,-0.39364 -9.697057,-3.41536 -2.148969,-1.82138 3.793921,-8.56779 5.289994,-10.164898 4.487897,0.57905 8.25106,4.773778 8.895986,7.605948 -2.199397,-0.57565 -1.456228,2.55818 0.04265,1.29297 -0.08428,1.01562 -0.949614,3.37229 -2.733232,4.71907 0,0 -1.171024,0.0383 -1.798341,-0.0377 z"
         style="fill:#000000;fill-opacity:0.98139535;stroke:none;stroke-width:0.33024004" />
      <path
         sodipodi:nodetypes="scccss"
         inkscape:connector-curvature="0"
         id="rect4692-4-0-8"
         d="m 79.577506,89.770672 c 2.437602,-0.31435 4.599906,0.9277 6.85454,2.71694 3.057093,2.39908 5.042859,3.74057 7.386569,7.00278 -10.997601,6.800858 -19.721571,6.924768 -30.178659,5.358428 1.769876,-2.92553 4.401613,-5.869638 5.060914,-6.681038 0.885564,-1.08986 6.405304,-7.82049 10.876636,-8.39711 z"
         style="fill:#502d16;fill-opacity:0.99534882;stroke:#000000;stroke-width:0.33024004;stroke-opacity:1" />
      <path
         sodipodi:nodetypes="assasssa"
         inkscape:connector-curvature="0"
         id="rect4692-9"
         d="m 35.688671,92.917412 c 2.517536,-0.26435 4.86679,2.13166 6.160885,4.44009 3.043868,5.429678 2.569509,9.304908 2.480883,12.943708 -0.07463,3.06411 -0.219124,6.28328 -2.594255,7.28477 -3.489174,1.47121 -8.633875,-2.89924 -10.322915,-4.74202 -0.858249,-0.93636 -2.536758,-2.63853 -3.20268,-4.93108 -0.644615,-2.21921 -0.298939,-5.01236 0.188004,-6.9646 0.874981,-3.507908 3.694445,-7.653318 7.290078,-8.030868 z"
         style="fill:#ffffff;fill-opacity:1;stroke-width:0.30363092" />
      <path
         sodipodi:nodetypes="csscc"
         inkscape:connector-curvature="0"
         id="rect4692-9-5"
         d="m 34.384636,115.42106 c -1.26667,-0.92874 -2.323807,-1.92081 -2.932358,-2.58475 -0.858247,-0.93636 -2.536759,-2.63853 -3.20268,-4.93108 -0.644615,-2.21921 -0.298939,-5.01236 0.188004,-6.9646 12.468103,0.65914 11.061195,13.20665 5.947034,14.48043 z"
         style="fill:#a05a2c;fill-opacity:1;stroke-width:0.30363092" />
      <path
         sodipodi:nodetypes="cssccccc"
         inkscape:connector-curvature="0"
         id="rect4692-9-5-9"
         d="m 33.531199,114.97154 c -0.984961,-0.77845 -1.797815,-1.55442 -2.302339,-2.10487 -0.858246,-0.93636 -2.536762,-2.63853 -3.20268,-4.93108 -0.521809,-1.79644 -0.394706,-3.96895 -0.06904,-5.76707 6.872072,-0.48982 9.460465,4.74796 8.790663,8.71303 -0.987593,-0.60079 -2.523202,0.94389 -0.491852,1.61908 -0.276468,0.55372 -1.472648,2.11389 -2.724746,2.47091 z"
         style="fill:#000000;fill-opacity:1;stroke-width:0.30363092" />
      <path
         sodipodi:nodetypes="asccsa"
         inkscape:connector-curvature="0"
         id="rect4692-9-7"
         d="m 35.5669,92.864482 c 2.552738,-0.26435 4.934837,2.13166 6.247029,4.44008 1.49157,2.62399 2.149978,4.884938 2.42201,6.931608 -3.241772,3.66199 -8.938217,3.61373 -16.555121,2.00519 -0.179949,-1.85067 0.114802,-3.84643 0.494071,-5.34602 0.887206,-3.507908 3.746103,-7.653318 7.392011,-8.030858 z"
         style="fill:#502d16;fill-opacity:1;stroke:#000000;stroke-width:0.30574629;stroke-opacity:1" />
      <path
         sodipodi:nodetypes="sssssssssss"
         inkscape:connector-curvature="0"
         id="rect4692-4-7"
         d="m 50.38744,109.03668 c 2.305694,-1.54077 5.201974,1.9819 7.361577,3.78591 2.913816,2.43405 5.342212,6.89705 6.529035,9.41039 1.997135,4.22936 2.435606,7.45775 1.778806,10.26372 -0.551617,2.35661 -1.747114,4.3936 -3.434131,5.79597 -1.635688,1.35971 -4.448377,2.05517 -6.313623,3.33714 -4.081165,2.80493 -4.039698,1.46938 -7.742317,1.40474 -2.244846,-0.0392 -6.297426,-2.6309 -8.244562,-4.99912 -3.292808,-4.00489 -4.620194,-7.59931 -5.185566,-10.74918 -0.82818,-4.61405 3.344004,-8.88121 4.91209,-10.3454 4.921544,-4.59547 4.344685,-3.89869 10.338691,-7.90417 z"
         style="fill:#a05a2c;fill-opacity:1;stroke:#000000;stroke-width:0.32453629;stroke-opacity:1" />
      <path
         sodipodi:nodetypes="sssssssssss"
         inkscape:connector-curvature="0"
         id="rect4692-4-7-9"
         d="m 50.38744,109.03668 c 2.305694,-1.54077 5.201974,1.9819 7.361577,3.78591 2.913816,2.43405 5.342213,6.89705 6.529036,9.41039 1.997133,4.22936 2.435606,7.45775 1.778804,10.26372 -0.551617,2.35661 -1.747113,4.3936 -3.43413,5.79597 -1.635688,1.35971 -4.448377,2.05517 -6.313623,3.33714 -4.081165,2.80493 -4.039698,1.46938 -7.742317,1.40474 -2.244846,-0.0392 -6.297427,-2.6309 -8.244563,-4.99912 -3.292808,-4.00489 -4.620194,-7.59931 -5.185566,-10.74918 -0.82818,-4.61405 3.344004,-8.88121 4.91209,-10.3454 4.921545,-4.59547 4.344685,-3.89869 10.338692,-7.90417 z"
         style="opacity:0.16000001;fill:url(#linearGradient4520);fill-opacity:1;stroke:#000000;stroke-width:0.32453629;stroke-opacity:1" />
      <path
         inkscape:transform-center-y="0.59928847"
         sodipodi:nodetypes="sssszsss"
         inkscape:connector-curvature="0"
         id="rect4692-42"
         d="m 49.947474,108.28514 c 1.8771,-0.0587 3.9359,0.60267 5.35707,1.84265 1.22927,1.07254 0.52354,1.97554 -1.02533,3.4907 -0.97482,0.95361 -2.82542,2.10545 -5.12295,2.37313 -1.11835,0.1303 -2.08667,-0.82304 -2.90438,-1.42703 -0.81772,-0.604 -0.56571,-0.57471 -1.43608,-1.63503 -0.50564,-0.616 -1.09505,-1.67539 -0.33541,-2.3284 1.50752,-1.29589 3.48891,-2.25411 5.46708,-2.31602 z"
         style="fill:#000000;fill-opacity:1;stroke-width:0.22400387" />
      <ellipse
         ry="0.022565743"
         rx="0.045131486"
         cy="126.04297"
         cx="47.031239"
         id="path4951"
         style="fill:#010100;fill-opacity:0.98139535;stroke:none;stroke-width:4.80000019;stroke-miterlimit:4;stroke-dasharray:none;stroke-opacity:1" />
      <path
         sodipodi:nodetypes="ccaacaaacccaaaccccaaaaaaaaaaaaaaacaccaaaccaaaaaaaccc"
         inkscape:connector-curvature="0"
         id="path4974"
         d="m 48.053544,115.34991 c -0.16973,2.65358 -0.34058,5.30758 0.15408,7.71201 0,0 -0.92881,0.0115 -1.37811,0.11444 -0.39095,0.0896 -0.77265,0.23702 -1.12281,0.43262 -0.69348,0.38738 -1.89552,1.44421 -1.89552,1.44421 0,0 -0.3806,0.23313 -0.58671,0.31592 -0.32041,0.1287 -0.65821,0.21693 -0.99837,0.27626 -0.36975,0.0645 -0.74798,0.10418 -1.12281,0.0848 -0.34405,-0.0178 -1.01707,-0.18374 -1.01707,-0.18374 l 0.11444,-0.31271 0.45131,-0.76723 c 0,0 -0.78852,0.4167 -1.03802,0.76724 -0.14624,0.20545 -0.20227,0.47101 -0.22566,0.7221 -0.0239,0.2564 0.0165,0.5205 0.0903,0.76723 0.0482,0.16116 0.22566,0.45132 0.22566,0.45132 v -0.8575 l 0.18052,-0.13539 0.22566,0.13539 c 0,0 0.6087,-0.0254 0.91264,-0.0451 0.51572,-0.0335 1.03973,-0.0178 1.54543,-0.12444 0.41362,-0.0872 0.82165,-0.22385 1.19758,-0.41714 0.2784,-0.14314 0.50607,-0.36899 0.76724,-0.54158 0.63505,-0.41965 1.22918,-0.93532 1.94292,-1.19985 0.39915,-0.14794 0.83878,-0.14835 1.26141,-0.19922 0.32973,-0.0397 0.66124,-0.0999 0.99289,-0.0825 0.55049,0.0288 1.09296,0.16301 1.62474,0.30818 0.38561,0.10527 0.78055,0.20906 1.12829,0.40618 0.29534,0.16742 0.49394,0.47572 0.78819,0.64506 0.39973,0.23003 0.85399,0.35253 1.2956,0.48549 0.3818,0.11496 0.77163,0.20754 1.16567,0.26849 0.46856,0.0725 0.94397,0.13189 1.41777,0.11446 0.40371,-0.0148 0.80142,-0.10697 1.19759,-0.18603 0.27414,-0.0547 0.54206,-0.13717 0.81463,-0.19923 0.39705,-0.0904 1.19533,-0.25209 1.19533,-0.25209 0,0 0.31774,0.31301 0.42714,0.50418 0.15833,0.27668 0.31592,0.90263 0.31592,0.90263 l -0.0429,0.74081 c 0,0 0.53193,-1.15156 0.49645,-1.76013 -0.0252,-0.43309 -0.26921,-0.83352 -0.49645,-1.20306 -0.15046,-0.24469 -0.34931,-0.46033 -0.56254,-0.65281 -0.17233,-0.15556 -0.57122,-0.39844 -0.57122,-0.39844 0.2288,0.78452 0.36636,0.97962 0.0506,1.30655 0,0 -1.07422,0.29235 -1.62473,0.36105 -0.59045,0.0737 -1.19064,0.0931 -1.7843,0.0529 -0.54854,-0.0372 -1.09566,-0.12955 -1.627,-0.27079 -0.41861,-0.11128 -0.83151,-0.25687 -1.21855,-0.45132 -0.42352,-0.21278 -0.76322,-0.57328 -1.19212,-0.77498 -0.37081,-0.17439 -0.77698,-0.26281 -1.17342,-0.36653 -0.34218,-0.0895 -0.6848,-0.20169 -1.03802,-0.22018 -0.16174,-0.008 -0.48323,0.0506 -0.48323,0.0506 -0.40692,-2.52623 -0.35675,-5.1096 -0.0848,-7.72069 z"
         style="fill:#000000;fill-opacity:0.76744187;stroke:none;stroke-width:0.26458332px;stroke-linecap:butt;stroke-linejoin:miter;stroke-opacity:1" />
      <path
         inkscape:connector-curvature="0"
         id="path904"
         d="m 46.973797,130.82386 c -1.18853,-1.28157 -1.76963,-2.78655 -1.408,-3.6466 0.48473,-1.15285 2.36673,-2.21239 3.60096,-2.02731 0.93441,0.14012 2.08879,0.98717 2.50785,1.84019 0.30897,0.62892 0.30807,0.64185 -0.10827,1.55125 -0.75702,1.65355 -2.31502,3.00695 -3.46152,3.00695 -0.32113,0 -0.6611,-0.21777 -1.13102,-0.72448 z"
         style="fill:#2b1100;fill-opacity:1;stroke:#000000;stroke-width:0.17073351;stroke-miterlimit:4;stroke-dasharray:none;stroke-opacity:1" />
      <path
         inkscape:connector-curvature="0"
         id="path910"
         d="m 39.932051,122.02376 c 0.16934,-1.09918 0.9927,-2.68938 1.83078,-3.53592 0.89049,-0.89947 2.0435,-1.60254 2.4023,-1.46486 0.3605,0.13834 1.06335,1.21316 1.31653,2.01329 0.28066,0.88696 0.13436,2.31452 -0.2673,2.60822 -0.73552,0.53782 -2.25122,0.95193 -3.80178,1.03868 l -1.59588,0.0893 z"
         style="fill:#28170b;fill-opacity:1;stroke:#000000;stroke-width:0.17073351;stroke-miterlimit:4;stroke-dasharray:none;stroke-opacity:1" />
      <path
         inkscape:connector-curvature="0"
         id="path912"
         d="m 54.551526,121.9774 c -0.640903,-0.0793 -1.599392,-0.24613 -2.129963,-0.37079 -0.899221,-0.21128 -0.975966,-0.27217 -1.131016,-0.89731 -0.220687,-0.88978 -0.05081,-2.11003 0.424773,-3.05161 0.372627,-0.7377 0.417095,-0.76539 1.223017,-0.7615 0.864586,0.004 3.115339,0.7109 3.2309,1.01448 0.036,0.0946 0.154869,0.17205 0.264118,0.17205 0.798141,0 3.004289,2.40152 3.205972,3.48988 l 0.109717,0.59208 -2.01611,-0.0215 c -1.108868,-0.0119 -2.540494,-0.0864 -3.181408,-0.16572 z"
         style="fill:#000000;fill-opacity:1;stroke:#000000;stroke-width:0.18203421;stroke-miterlimit:4;stroke-dasharray:none;stroke-opacity:1" />
      <path
         sodipodi:nodetypes="ccccc"
         inkscape:connector-curvature="0"
         id="path1139"
         d="m 45.827722,87.225004 c 0,0 3.013595,-0.628649 2.385916,8.514268 0.347972,0.15699 0.205503,0.11783 0.205503,0.11783 0.473203,-5.94147 -0.46845,-8.390398 -2.490178,-8.896328 z"
         style="fill:#000000;fill-opacity:1;stroke:#000000;stroke-width:0.26458332px;stroke-linecap:butt;stroke-linejoin:miter;stroke-opacity:1" />
      <path
         sodipodi:nodetypes="ccccc"
         inkscape:connector-curvature="0"
         id="path1141"
         d="m 60.358391,84.664449 c -3.683538,1.004175 -2.46311,9.534613 -2.357168,9.375703 0.105939,-0.15891 0.476729,-0.21188 0.476729,-0.21188 0,0 -1.124719,-8.117104 2.065834,-8.766547 -0.252504,-0.622959 -0.13031,-0.236109 -0.185395,-0.397276 z"
         style="fill:#000000;fill-opacity:1;stroke:none;stroke-width:0.26458332px;stroke-linecap:butt;stroke-linejoin:miter;stroke-opacity:1" />
      <path
         sodipodi:nodetypes="ccccc"
         inkscape:connector-curvature="0"
         id="path1145"
         d="m 47.387851,79.916485 c 3.972717,4.06636 9.127453,1.845749 11.09724,-0.503216 -0.04308,-0.28313 -0.07945,-0.185396 -0.185396,-0.556186 -5.455917,5.455922 -9.965252,1.518829 -10.541053,0.662128 -0.125555,0.07028 -0.291294,0.224218 -0.370791,0.397274 z"
         style="fill:#000000;fill-opacity:1;stroke:none;stroke-width:0.26458332px;stroke-linecap:butt;stroke-linejoin:miter;stroke-opacity:1" />
      <path
         sodipodi:nodetypes="csccssc"
         inkscape:connector-curvature="0"
         id="path1147"
         d="m 59.676918,66.965292 c -4.105184,3.972759 -5.897132,6.899863 -5.959137,7.521758 -0.07856,0.787948 3.327132,0.968432 3.866817,0.900491 0,0 0.900492,-1.032918 -0.185394,-0.450247 -0.783996,0.16744 -3.060623,-0.296582 -3.045783,-0.450244 0.03897,-0.40354 2.118804,-3.893304 5.773743,-7.309877 0.09674,-0.09043 -0.344305,-0.344307 -0.450246,-0.211881 z"
         style="fill:#000000;fill-opacity:1;stroke:none;stroke-width:0.26458332px;stroke-linecap:butt;stroke-linejoin:miter;stroke-opacity:1" />
      <path
         sodipodi:nodetypes="ssccscs"
         inkscape:connector-curvature="0"
         id="path1149"
         d="m 70.46205,74.502258 c 0.145602,0.436803 3.379938,-2.567591 5.393597,-2.84662 16.480278,-2.28364 24.377513,15.818316 24.377513,15.818316 -0.492885,0.709648 -0.10081,0.0948 -0.397695,0.635198 0,0 -7.70318,-17.819593 -23.794786,-15.994378 -1.778813,0.201764 -4.926178,2.908067 -4.926178,2.908067 0,0 -0.802274,-0.970049 -0.652451,-0.520583 z"
         style="fill:#000000;stroke:none;stroke-width:0.26458332px;stroke-linecap:butt;stroke-linejoin:miter;stroke-opacity:1" />
      <path
         sodipodi:nodetypes="csscc"
         inkscape:connector-curvature="0"
         id="path1151"
         d="m 26.031635,91.840492 c 0,0 0.06337,-8.762584 8.628928,-12.821873 0.22717,-0.107658 0.120812,-0.583344 -0.107017,-0.477087 -8.261121,3.852908 -8.892669,12.47942 -8.892669,12.47942 z"
         style="fill:#000000;fill-opacity:1;stroke:none;stroke-width:0.26458332px;stroke-linecap:butt;stroke-linejoin:miter;stroke-opacity:1" />
      <path
         inkscape:connector-curvature="0"
         id="path1174"
         d="m 69.975747,115.93777 c -3.646726,-0.46326 -7.173865,-1.70818 -9.89234,-3.49155 -1.289473,-0.84592 -1.693643,-1.20481 -1.833276,-1.62791 -0.234583,-0.71079 0.161869,-2.17425 1.023223,-3.77711 1.221314,-2.27269 3.774299,-5.74986 6.461103,-8.800038 0.616456,-0.69983 1.539748,-1.83557 2.051767,-2.52387 2.247781,-3.02169 4.15235,-5.07876 5.959504,-6.4367 0.551818,-0.41465 1.060826,-0.77598 1.131129,-0.80295 0.0703,-0.027 0.12782,-0.08 0.12782,-0.11785 0,-0.10162 -1.327574,-0.841793 -1.82906,-1.019781 -0.539609,-0.191516 -2.140296,-0.527349 -2.513517,-0.527349 -0.769933,0 0.211206,-0.508389 1.550855,-0.803592 0.805249,-0.177443 1.219369,-0.200888 3.465586,-0.196202 3.029699,0.0063 4.454404,0.162168 6.132529,0.670832 3.391519,1.028015 6.263084,2.660762 10.138155,5.764482 3.79,3.03556 5.7936,5.15811 7.6134,8.065388 0.940785,1.50296 1.096565,1.95083 1.096815,3.15315 1.9e-4,0.97709 -0.0119,1.03512 -0.36396,1.74005 -0.817935,1.63794 -2.439925,2.97073 -5.845015,4.80283 -0.71478,0.38459 -1.90908,1.04086 -2.654,1.45838 -3.98578,2.234 -8.620463,3.69265 -13.9038,4.37587 -1.66461,0.21526 -6.509298,0.27273 -7.916918,0.0939 z m 7.965051,-3.56572 c 3.403986,-0.44817 6.753828,-1.43221 9.337828,-2.74304 2.04752,-1.03868 4.468099,-2.39483 5.351349,-2.99814 1.06401,-0.72678 1.90654,-1.57343 2.31474,-2.32608 0.30318,-0.55898 0.32401,-0.65621 0.32401,-1.51193 0,-0.84909 -0.0231,-0.95931 -0.32292,-1.54026 -0.76527,-1.482858 -2.20002,-3.328148 -3.78337,-4.865958 -1.185665,-1.15155 -1.514457,-1.42864 -3.838803,-3.23517 -2.135788,-1.65998 -2.879156,-2.16352 -3.95187,-2.67689 -2.556404,-1.22343 -4.683413,-0.99238 -7.452556,0.80953 -2.687944,1.74908 -6.035611,5.1637 -9.822267,10.018698 -1.696386,2.17499 -2.963383,4.30927 -3.412286,5.74805 -0.172821,0.5539 -0.140647,1.37934 0.06774,1.73797 0.402074,0.69196 2.803382,2.11096 4.654814,2.75066 1.125863,0.389 2.873275,0.77017 4.270148,0.93146 1.443392,0.16667 4.62838,0.11638 6.263439,-0.0989 z"
         style="fill:#a05a2c;fill-opacity:1;stroke:none;stroke-width:0.09641787;stroke-miterlimit:4;stroke-dasharray:none;stroke-opacity:1" />
      <path
         inkscape:connector-curvature="0"
         id="path1176"
         d="m 36.835105,118.98317 c -2.041911,-1.06429 -3.766465,-2.37912 -5.825765,-4.44166 -2.349373,-2.35308 -3.544258,-4.04737 -4.212175,-5.97268 -0.461033,-1.32895 -0.55159,-1.98807 -0.54888,-3.99505 0.0051,-3.75841 0.870349,-6.922798 2.677887,-9.793308 1.812221,-2.87795 4.090374,-4.61 6.622005,-5.03464 0.496025,-0.0832 1.703279,-0.32812 2.682788,-0.54426 1.204433,-0.26578 2.110385,-0.40819 2.798704,-0.43995 l 1.017778,-0.047 0.202575,0.66146 c 0.254929,0.8324 0.271733,0.92233 0.510334,2.73118 0.292608,2.21832 0.420748,2.66751 1.248733,4.37746 1.793221,3.703338 2.404509,6.410968 2.404509,10.650518 v 2.08749 l -0.697931,0.44426 c -0.383863,0.24434 -0.837417,0.55661 -1.007898,0.69393 l -0.30997,0.24967 0.01019,-2.68149 c 0.0078,-2.03965 -0.02774,-2.93488 -0.148275,-3.7401 -0.605763,-4.04649 -2.637933,-8.139678 -4.957535,-9.985438 -1.450194,-1.15395 -2.751987,-1.55808 -4.154522,-1.28973 -1.366438,0.26145 -2.548524,0.94802 -3.765809,2.18724 -1.715204,1.74611 -2.919743,4.12247 -3.47295,6.851558 -0.187108,0.92305 -0.217895,1.36195 -0.210865,3.00618 0.0071,1.65184 0.03769,2.03472 0.215646,2.69545 0.599602,2.2263 2.281518,4.49 5.276943,7.10228 0.113398,0.0989 0.266565,0.18867 0.34037,0.1995 0.07381,0.0109 0.500867,0.28185 0.949021,0.60226 1.523349,1.08912 2.614983,1.66278 3.915733,2.05776 l 0.694253,0.21081 -0.63569,0.73781 c -0.349631,0.40579 -0.662046,0.76755 -0.694254,0.80392 -0.03221,0.0364 -0.448439,-0.1371 -0.924957,-0.38547 z"
         style="fill:#a05a2c;fill-opacity:1;stroke:none;stroke-width:0.09641787;stroke-miterlimit:4;stroke-dasharray:none;stroke-opacity:1" />
      <path
         inkscape:connector-curvature="0"
         id="path1178"
         d="m 39.987623,122.32564 c 0.0038,-0.9552 1.043557,-2.96964 2.029069,-3.93098 0.610539,-0.59557 1.65146,-1.25813 1.976596,-1.25813 0.292986,0 0.771565,0.58062 1.169823,1.41923 0.291386,0.61358 0.336365,0.80547 0.339643,1.449 0.0066,1.30039 -0.231391,1.66206 -1.349181,2.05005 -0.892504,0.3098 -1.802527,0.47134 -3.025688,0.53711 l -1.14155,0.0614 z"
         style="fill:#000000;fill-opacity:1;stroke:#000000;stroke-width:0.09641787;stroke-miterlimit:4;stroke-dasharray:none;stroke-opacity:1" />
      <path
         inkscape:connector-curvature="0"
         id="path1180"
         d="m 47.570772,131.24388 c -0.490741,-0.33935 -1.254368,-1.30609 -1.622756,-2.05439 -0.373163,-0.758 -0.482036,-1.65757 -0.253986,-2.09857 0.241355,-0.46673 1.086905,-1.18523 1.779574,-1.51218 0.854152,-0.40317 1.746962,-0.42914 2.476288,-0.072 0.655352,0.32089 1.40952,1.05408 1.681456,1.63467 0.217752,0.46492 0.21989,0.49342 0.06704,0.89365 -0.637926,1.67039 -2.18327,3.21526 -3.401134,3.40008 -0.296584,0.045 -0.439081,0.008 -0.726482,-0.19123 z"
         style="fill:#000000;fill-opacity:1;stroke:#000000;stroke-width:0.09641787;stroke-miterlimit:4;stroke-dasharray:none;stroke-opacity:1" />
      <path
         inkscape:connector-curvature="0"
         id="path1182"
         d="m 48.554034,147.26916 c -1.196412,-0.11764 -3.174296,-0.53964 -4.331983,-0.92428 -1.901677,-0.63184 -3.466981,-1.57242 -4.042236,-2.42895 -0.434903,-0.64756 -0.495477,-1.17188 -0.465394,-4.02848 0.03226,-3.06284 0.04614,-3.00965 -1.114986,-4.27062 -0.40428,-0.43905 -0.758946,-0.89345 -0.788146,-1.00978 -0.103912,-0.41402 0.656254,-1.69768 1.452629,-2.45299 l 0.355248,-0.33693 0.251605,0.33693 c 0.692616,0.9275 2.256108,2.14166 3.259918,2.53154 0.22042,0.0856 0.848559,0.19992 1.39586,0.25401 1.539976,0.1522 6.884368,0.31713 10.71799,0.33077 l 3.465584,0.0123 0.538718,-0.26456 c 0.507699,-0.24933 1.530012,-1.19059 1.647111,-1.51652 0.131225,-0.36524 1.257819,1.07091 1.915824,2.44223 l 0.382439,0.79703 -0.190553,0.44454 c -0.277042,0.64631 -0.981461,1.85863 -1.956106,3.36649 -1.103009,1.70644 -1.310323,2.17587 -1.525083,3.4533 -0.196619,1.16952 -0.295079,1.35824 -1.077645,2.06561 -0.59254,0.53561 -1.245917,0.85768 -2.157264,1.06339 -0.76807,0.17337 -6.351762,0.27079 -7.73353,0.13494 z"
         style="fill:#000000;fill-opacity:1;stroke:#000000;stroke-width:0.09641787;stroke-miterlimit:4;stroke-dasharray:none;stroke-opacity:1" />
      <g
         transform="translate(-9.8130907,-14.079314)"
         id="g1534">
        <path
           style="fill:#aa8800;stroke:#000000;stroke-width:0.26458332px;stroke-linecap:butt;stroke-linejoin:miter;stroke-opacity:1"
           d="m 62.013515,169.09881 c 0.226215,-0.008 0.669604,-0.0406 0.669604,-0.0406 0,0 0.421146,0.85136 0.354656,1.44746 -0.04083,0.36601 -0.445076,1.29602 -0.445076,1.29602 0,0 -0.368969,-0.0891 -0.441786,-0.2196 0.173329,-0.65113 0.355118,-0.96366 0.313079,-1.48577 -0.02791,-0.34667 -0.173569,-0.55723 -0.450477,-0.99748 z"
           id="path1499-0"
           inkscape:connector-curvature="0"
           sodipodi:nodetypes="ccsccsc" />
        <g
           id="g1479"
           style="fill:#aa8800;fill-opacity:1;stroke:#000000;stroke-opacity:1"
           transform="matrix(1.2013233,-0.31627023,0.173026,2.1958713,-23.201596,-189.7934)">
          <text
             id="text1435"
             y="177.48508"
             x="33.67263"
             style="font-style:normal;font-variant:normal;font-weight:normal;font-stretch:normal;font-size:8.46666622px;line-height:1.25;font-family:'Showcard Gothic';-inkscape-font-specification:'Showcard Gothic';letter-spacing:0px;word-spacing:0px;fill:#aa8800;fill-opacity:1;stroke:#000000;stroke-width:0.1792527;stroke-opacity:1"
             xml:space="preserve"><tspan
               style="font-style:normal;font-variant:normal;font-weight:normal;font-stretch:normal;font-size:8.46666622px;font-family:'Showcard Gothic';-inkscape-font-specification:'Showcard Gothic';fill:#aa8800;fill-opacity:1;stroke:#000000;stroke-width:0.1792527;stroke-opacity:1"
               y="177.48508"
               x="33.67263"
               id="tspan1433"
               sodipodi:role="line">P</tspan></text>
          <text
             id="text1439"
             y="177.54388"
             x="38.8209"
             style="font-style:normal;font-variant:normal;font-weight:normal;font-stretch:normal;font-size:5.29166651px;line-height:1.25;font-family:'Showcard Gothic';-inkscape-font-specification:'Showcard Gothic';letter-spacing:0px;word-spacing:0px;fill:#aa8800;fill-opacity:1;stroke:#000000;stroke-width:0.26458332;stroke-opacity:1"
             xml:space="preserve"><tspan
               style="font-style:normal;font-variant:normal;font-weight:normal;font-stretch:normal;font-size:5.29166651px;font-family:'Showcard Gothic';-inkscape-font-specification:'Showcard Gothic';fill:#aa8800;fill-opacity:1;stroke:#000000;stroke-width:0.26458332;stroke-opacity:1"
               y="177.54388"
               x="38.8209"
               id="tspan1437"
               sodipodi:role="line">u</tspan></text>
          <text
             id="text1447"
             y="177.63741"
             x="41.440144"
             style="font-style:normal;font-variant:normal;font-weight:normal;font-stretch:normal;font-size:5.29166651px;line-height:1.25;font-family:'Showcard Gothic';-inkscape-font-specification:'Showcard Gothic';letter-spacing:0px;word-spacing:0px;fill:#aa8800;fill-opacity:1;stroke:#000000;stroke-width:0.26458332;stroke-opacity:1"
             xml:space="preserve"><tspan
               style="font-style:normal;font-variant:normal;font-weight:normal;font-stretch:normal;font-size:5.29166651px;font-family:'Showcard Gothic';-inkscape-font-specification:'Showcard Gothic';fill:#aa8800;fill-opacity:1;stroke:#000000;stroke-width:0.26458332;stroke-opacity:1"
               y="177.63741"
               x="41.440144"
               id="tspan1445"
               sodipodi:role="line">g</tspan></text>
          <text
             id="text1451"
             y="177.35681"
             x="44.152924"
             style="font-style:normal;font-variant:normal;font-weight:normal;font-stretch:normal;font-size:8.46666622px;line-height:1.25;font-family:'Showcard Gothic';-inkscape-font-specification:'Showcard Gothic';letter-spacing:0px;word-spacing:0px;fill:#aa8800;fill-opacity:1;stroke:#000000;stroke-width:0.26458332;stroke-opacity:1"
             xml:space="preserve"><tspan
               style="font-style:normal;font-variant:normal;font-weight:normal;font-stretch:normal;font-size:8.46666622px;font-family:'Showcard Gothic';-inkscape-font-specification:'Showcard Gothic';fill:#aa8800;fill-opacity:1;stroke:#000000;stroke-width:0.26458332;stroke-opacity:1"
               y="177.35681"
               x="44.152924"
               id="tspan1449"
               sodipodi:role="line">B</tspan></text>
          <text
             id="text1455"
             y="177.54388"
             x="48.175331"
             style="font-style:normal;font-variant:normal;font-weight:normal;font-stretch:normal;font-size:5.29166651px;line-height:1.25;font-family:'Showcard Gothic';-inkscape-font-specification:'Showcard Gothic';letter-spacing:0px;word-spacing:0px;fill:#aa8800;fill-opacity:1;stroke:#000000;stroke-width:0.26458332;stroke-opacity:1"
             xml:space="preserve"><tspan
               style="font-style:normal;font-variant:normal;font-weight:normal;font-stretch:normal;font-size:5.29166651px;font-family:'Showcard Gothic';-inkscape-font-specification:'Showcard Gothic';fill:#aa8800;fill-opacity:1;stroke:#000000;stroke-width:0.26458332;stroke-opacity:1"
               y="177.54388"
               x="48.175331"
               id="tspan1453"
               sodipodi:role="line">o</tspan></text>
          <text
             id="text1459"
             y="177.45035"
             x="51.168755"
             style="font-style:normal;font-variant:normal;font-weight:normal;font-stretch:normal;font-size:5.29166651px;line-height:1.25;font-family:'Showcard Gothic';-inkscape-font-specification:'Showcard Gothic';letter-spacing:0px;word-spacing:0px;fill:#aa8800;fill-opacity:1;stroke:#000000;stroke-width:0.26458332;stroke-opacity:1"
             xml:space="preserve"><tspan
               style="font-style:normal;font-variant:normal;font-weight:normal;font-stretch:normal;font-size:5.29166651px;font-family:'Showcard Gothic';-inkscape-font-specification:'Showcard Gothic';fill:#aa8800;fill-opacity:1;stroke:#000000;stroke-width:0.26458332;stroke-opacity:1"
               y="177.45035"
               x="51.168755"
               id="tspan1457"
               sodipodi:role="line">s</tspan></text>
          <text
             id="text1463"
             y="177.26326"
             x="53.413811"
             style="font-style:normal;font-variant:normal;font-weight:normal;font-stretch:normal;font-size:5.29166651px;line-height:1.25;font-family:'Showcard Gothic';-inkscape-font-specification:'Showcard Gothic';letter-spacing:0px;word-spacing:0px;fill:#aa8800;fill-opacity:1;stroke:#000000;stroke-width:0.26458332;stroke-opacity:1"
             xml:space="preserve"><tspan
               style="font-style:normal;font-variant:normal;font-weight:normal;font-stretch:normal;font-size:5.29166651px;font-family:'Showcard Gothic';-inkscape-font-specification:'Showcard Gothic';fill:#aa8800;fill-opacity:1;stroke:#000000;stroke-width:0.26458332;stroke-opacity:1"
               y="177.26326"
               x="53.413811"
               id="tspan1461"
               sodipodi:role="line">s</tspan></text>
        </g>
        <path
           style="fill:#aa8800;stroke:#000000;stroke-width:0.26458332px;stroke-linecap:butt;stroke-linejoin:miter;stroke-opacity:1"
           d="m 61.1226,163.66715 c 1.229767,-0.82179 1.952778,-0.34001 2.300961,0.0687 -1.262743,1.98812 -0.509994,4.04154 -0.250583,4.93202 0.0847,0.29075 0.567184,0.30216 0.567184,0.30216 0,0 -1.210675,0.38467 -2.468624,-0.0733 -0.22829,-0.61885 -1.272624,-2.80746 -0.148938,-5.22952 z"
           id="path1481"
           inkscape:connector-curvature="0"
           sodipodi:nodetypes="ccscccc" />
        <path
           style="fill:#aa8800;stroke:#000000;stroke-width:0.26458332px;stroke-linecap:butt;stroke-linejoin:miter;stroke-opacity:1"
           d="m 62.311715,168.83874 c -0.104214,-0.5326 -0.650204,-0.12402 -0.669604,-0.0406 0,0 -0.421146,0.85136 -0.354656,1.44746 0.04083,0.36601 0.445076,1.29602 0.445076,1.29602 0.01223,0.0358 0.495743,0.34748 0.441786,-0.2196 -0.173329,-0.65113 -0.355118,-0.96366 -0.313079,-1.48577 0.02791,-0.34667 0.173569,-0.55723 0.450477,-0.99748 z"
           id="path1499"
           inkscape:connector-curvature="0"
           sodipodi:nodetypes="ccsccscc" />
      </g>
      <path
         sodipodi:nodetypes="ccaaaaaaaaaaaaaaacaaaaaaaac"
         inkscape:connector-curvature="0"
         id="path5000"
         d="m 192.33985,200.34237 c 0.4359,0.59824 1.25082,1.83483 1.25082,1.83483 0,0 1.40706,-0.69987 1.98149,-1.22147 0.65493,-0.5947 1.20211,-1.32642 1.60349,-2.11478 0.3836,-0.75345 0.61421,-1.59116 0.73284,-2.42828 0.16543,-1.16744 0.17293,-2.37751 -0.0409,-3.53706 -0.19215,-1.04193 -0.56579,-2.06698 -1.09934,-2.98233 -0.89011,-1.52704 -2.02025,-2.97552 -3.42549,-4.04764 -1.4656,-1.11817 -3.22027,-1.91065 -5.01524,-2.33058 -1.5801,-0.36966 -3.26842,-0.40007 -4.8668,-0.11984 -1.54429,0.27074 -3.07415,0.84418 -4.38227,1.70844 -1.11229,0.73489 -2.0399,1.76111 -2.79792,2.85776 -0.50251,0.727 -0.94937,1.53686 -1.11679,2.40462 -0.32232,1.67062 -0.28653,3.49031 0.27349,5.09693 0.44987,1.2906 1.23526,2.58651 2.37303,3.34381 0.71608,0.47662 1.65903,0.61362 2.51789,0.56549 0.84446,-0.0473 1.70238,-0.34808 2.39808,-0.82907 0.43868,-0.30331 1.02312,-1.23008 1.02312,-1.23008 0,0 -1.97977,-0.41821 -2.5637,-1.15061 -0.60539,-0.75931 -0.66985,-1.89078 -0.57091,-2.85683 0.0606,-0.59186 0.3327,-1.17286 0.69729,-1.64302 0.68059,-0.87769 1.61111,-1.62248 2.6465,-2.02438 0.90644,-0.35184 1.95785,-0.47126 2.90581,-0.25498 0.80835,0.18443 1.54388,0.69266 2.13834,1.27064 0.49379,0.48011 0.95589,1.07348 1.10494,1.74587 0.14591,0.65819 0.14725,1.46726 -0.2581,2.00594 -0.33727,0.44822 -1.54428,0.66861 -1.54428,0.66861"
         style="fill:#a05a2c;fill-opacity:0.9906977;stroke:#000000;stroke-width:0.22357167px;stroke-linecap:butt;stroke-linejoin:miter;stroke-opacity:1" />
      <path
         sodipodi:nodetypes="csaaaaaaccaaaaacaccsaaaaaaaaaacc"
         inkscape:connector-curvature="0"
         id="path4980-8"
         d="m 89.622975,168.03406 c -0.24048,0 -4.44554,4.72943 -5.68656,7.76263 -1.09322,2.67193 -2.09585,5.72767 -2.66276,8.71037 -0.39167,2.06074 -0.50082,4.17565 -0.49645,6.27327 0.005,2.53612 0.27727,5.07087 0.63184,7.58209 0.31102,2.20272 0.70045,4.40431 1.30882,6.54406 0.67173,2.36263 1.65723,4.62578 2.57249,6.90514 1.01946,2.53883 2.1071,5.051 3.24947,7.53696 0.91585,1.993 2.888409,5.91222 2.888409,5.91222 1.71343,3.76709 2.89583,6.36021 2.88838,10.4705 0,0 -0.0746,1.70918 -0.63184,2.25658 -0.51019,0.50118 -1.40148,0.30402 -2.07605,0.54156 -0.76216,0.26841 -1.618049,0.44445 -2.211439,0.99291 -0.66745,0.61691 -1.13458,1.49995 -1.30882,2.39196 -0.22644,1.15929 -0.0423,2.42751 0.40619,3.52026 0.33365,0.81294 0.80002,1.61512 1.62473,2.07604 2.411949,0.6697 5.013199,0.74041 7.536959,0.72212 2.603216,-0.0189 4.525386,-0.29085 7.762616,-0.85751 1.00026,-0.43107 1.91691,-0.54931 2.75302,-1.76013 0.25771,-0.90605 0.34762,-1.81038 0.36101,-2.70788 0.018,-1.20213 0.19531,-2.49867 0.31592,-3.74591 0.16022,-1.65692 0.30539,-3.31668 0.54158,-4.96447 0.35339,-2.46546 0.69064,-4.94371 1.30881,-7.35643 0.61872,-2.41484 1.49554,-4.75958 2.39198,-7.08564 0.81407,-2.11236 1.80597,-4.1518 2.70788,-6.22816 0.69257,-1.59441 1.4366,-3.16749 2.07606,-4.78392 0.78769,-1.99117 1.56795,-3.99162 2.1663,-6.04763 0.72408,-2.48799 1.22334,-5.03794 1.715,-7.58209 0.3238,-1.67553 0.78845,-3.34837 0.81237,-5.05473 0.0225,-1.60834 -0.0955,-3.26749 -0.63185,-4.78394 -0.21162,-0.59838 -0.99289,-1.62473 -0.99289,-1.62473 l 0.18053,0.27079"
         style="opacity:0.23999999;fill:url(#linearGradient4598);fill-opacity:1;stroke:none;stroke-width:0.26458332px;stroke-linecap:butt;stroke-linejoin:miter;stroke-opacity:1" />
    </g>
  </g>
</svg>
