<?xml version="1.0" encoding="utf-8"?>
<!-- Generator: Adobe Illustrator 23.0.0, SVG Export Plug-In . SVG Version: 6.00 Build 0)  -->
<svg version="1.1" id="Camada_1" xmlns="http://www.w3.org/2000/svg" xmlns:xlink="http://www.w3.org/1999/xlink" x="0px" y="0px"
	 viewBox="0 0 300 300" style="enable-background:new 0 0 300 300;" xml:space="preserve">
<style type="text/css">
	.st0{fill:#0029A2;}
	.st1{fill:#C4865E;}
	.st2{opacity:0.885;fill:#BF7D4F;enable-background:new    ;}
	.st3{fill:#724320;}
	.st4{fill:#7F5130;}
	.st5{fill-rule:evenodd;clip-rule:evenodd;fill:#C4865E;}
	.st6{opacity:0.64;fill:#A95F3A;enable-background:new    ;}
	.st7{opacity:0.885;fill:#B76D3B;enable-background:new    ;}
	.st8{opacity:0.885;fill:#B97755;enable-background:new    ;}
	.st9{fill:#A95F3A;}
	.st10{fill:#C08A63;}
	.st11{fill:#95572E;}
	.st12{opacity:0.885;fill:#A95F3A;enable-background:new    ;}
	.st13{fill:#4E2D12;stroke:#0B090C;stroke-width:0.2317;}
	.st14{fill:#0D0D2B;}
	.st15{opacity:0.885;fill:#95572E;enable-background:new    ;}
	.st16{opacity:0.885;fill:#FFFFFF;enable-background:new    ;}
	.st17{opacity:0.885;fill:#997A4A;enable-background:new    ;}
	.st18{fill:#FFFFFF;}
	.st19{opacity:0.885;fill:#0B090C;enable-background:new    ;}
	.st20{fill:#4E2D14;}
	.st21{fill:#833E1D;}
	.st22{opacity:0.885;fill:#833E1D;enable-background:new    ;}
	.st23{opacity:0.885;fill:#833F1D;enable-background:new    ;}
	.st24{enable-background:new    ;}
	.st25{fill:none;stroke:#0B090C;stroke-width:0.1793;}
	.st26{fill:none;stroke:#0B090C;stroke-width:0.2646;}
	.st27{fill:#4E2D12;}
	.st28{fill:none;}
	.st29{opacity:0.885;fill:#B87856;enable-background:new    ;}
	.st30{fill:#CECBE2;fill-opacity:0;}
	.st31{fill:#2B1310;}
	.st32{opacity:0.885;fill:#864A2C;enable-background:new    ;}
	.st33{opacity:0.885;fill:#A06741;enable-background:new    ;}
	.st34{opacity:0.885;fill:#7D421D;enable-background:new    ;}
	.st35{fill:#A15321;}
	.st36{fill:#512F15;}
	.st37{fill:#0B090C;}
	.st38{opacity:0.35;fill:url(#SVGID_1_);enable-background:new    ;}
	.st39{opacity:0.35;fill:url(#SVGID_2_);enable-background:new    ;}
	.st40{opacity:0.22;fill:#FFFFFF;enable-background:new    ;}
	.st41{fill:#515137;}
	.st42{opacity:0.885;fill:#4E2D14;enable-background:new    ;}
	.st43{fill:#833F1D;}
</style>
<path class="st0" d="M24.4,94.3c0.1,0.3,3.4,0.2,3.4,0.2L38,89.9v3l-9,5.9l-6,7.5L24.4,94.3z"/>
<path id="patade" class="st1" d="M54.7,214.1c0,0-2.1,2.9-2.8,4.4c-0.9,2.1-1.4,4.5-1.8,6.8c-0.5,2.6-0.5,5.4-0.6,8
	c0,1.6,0,3.3,0,4.9c0.1,2,0.2,4,0.6,5.8c0.5,3,1.3,5.9,2.2,8.8c0.6,1.8,1.3,3.4,2,5.2c0.6,1.4,1,2.9,1.5,4.2
	c0.7,1.8,1.4,3.4,2.2,5.2c0.9,2.1,2.1,4.2,3,6.3c0.5,1.1,0.8,2.2,1.1,3.3c0.3,1,0.7,2,1,3c0.1,0.9,0.6,1.8,0.3,2.6
	c0,0.3-0.3,0.7-0.6,0.9c-1,1.1-2.4,2.1-3.7,3c-0.9,0.7-2.2,1-3,1.9c-0.5,0.5-0.7,1.3-0.8,2.1c-0.1,0.9,0.1,1.8,0.3,2.6
	c0.1,0.9,0.8,2.5,0.8,2.5s0.8,0.3,1.3,0.4c1.1,0.3,2.4,0.5,3.6,0.8c2.4,0.3,4.8,0.3,7.2,0.3s4.7,0,7.1-0.3c2-0.3,3.9-0.9,5.7-1.4
	c1.4-0.4,4-1.6,4-1.6s1-3.6,1-5.5c0-1.6-0.3-3.2-0.5-4.8c-0.1-1.5-0.7-3.2-0.6-4.7c0.1-1.9,0.8-3.6,1.5-5.3c0.8-2.1,2.1-4.2,3-6.3
	c0.8-2.1,1.7-4.3,2.3-6.5c0.7-2.5,1.4-7.7,1.4-7.7l-0.3-3.2l-10.8-7.4L54.7,214.1z"/>
<path id="path5708" class="st2" d="M56.1,213.8c-0.6-0.5-7.8,3.2-6.2,24.4c42.5,8,34.5,34.5,35.7,39.8c0.5-2.2,0.6-4.1,3.4-9.1
	c0,0,6.4-13.2,3.9-19.5C90.4,243.1,56.1,213.8,56.1,213.8z"/>
<path id="orelha1" class="st3" d="M10.5,87.6c3,1.9,2.8-14.3,17.2-19.1C33.2,58.3,64,32.2,64,32.2S9.6,14.2,0.2,46.1
	C-1.5,65.5,8.6,88.9,10.5,87.6z"/>
<path id="path1742_1_" class="st4" d="M60.1,33.4C15.6,25.8,9.5,35,4.2,44.4C0.5,51,2.8,57.9,3.6,61.9s1.5,8.8,3.9,7.6
	c2.4-1.2,0-21.6,12.6-23.8c9.3-1.6,27.9-2.2,27.9-2.2L60.1,33.4z"/>
<path id="Cabeça" class="st5" d="M172.4,89.8c2.6,8.8-17.2,28.9-24.2,36.4c-12.3,13.2-18.9,16.5-42.6,28.6
	c-16.1,8.4-43.3,9-61.2,0.1c-14.9-7.5-27-23.9-24.4-40.3c0.8-5.7,6.9-9.9,8.7-14c1.8-4.2,0.3-13.1,0.6-14.4C29.5,85.1,24,81,20.9,70
	C17.5,58.8,32,44.5,43.5,42.6c1.5-0.1,3-0.7,4.6-0.7c-1.1-0.1-6.8,1.1-9.9,2.2c-3.1-5.5,37.9-27.6,64.1-31.3
	c18.2,0.3,23.5,6.3,42.3,17.6c9.6,5.8,22.5,31.6,25.1,50C170.5,84.7,169.8,81,172.4,89.8L172.4,89.8z"/>
<path id="path5509-1" class="st6" d="M144.9,30.3c-9.6-2.6-17.2-11.5-25.5-14.3c1.8,2.1,16.8,12.4,18.4,18.3L144.9,30.3z"/>
<path id="path4996" class="st7" d="M183.1,282c0,0.5-1.4,1.1-1.8,1.8c-0.6,1-0.7,2.2-0.8,3.3c0,1.3,0.5,4,0.5,4
	c13.1-1.4,16.9-0.7,28.5-4.6l0.5-3.6L183.1,282z"/>
<path id="path5608-7" class="st8" d="M154.5,49.8c0,0,12.2,45.5-6.3,70.3s25.5-27.3,25.5-27.3l-8.1-17.4l-7.8-23.3l-2.4-2.5
	L154.5,49.8z"/>
<path id="path5608" class="st9" d="M157,52.4c0,0,12.2,45.5-6.3,70.3s25.5-27.3,25.5-27.3l-8-17.4l-7.8-23.2l-2.4-2.5L157,52.4
	L157,52.4L157,52.4z"/>
<path id="Corpo" class="st10" d="M43.5,157.7c76,21.4,125.8-48.9,131.1-66.2c0,0,5.9,20.6,26.6,43.3c0,0,12.4,14.8,33.9,39.5
	c9.8,11.4,19.3,19,29.3,31.5c9.1,11.2,25.9,27.8,35.5,47.2c1.3,7.6-1.7,16.4-7.5,22c-5.5,5.4-14.8,6.5-22.7,7.5
	c-46.7,5.7-80.6,13.1-140.8-10.3c-14.9-5.5-29.8-11.5-43.1-19.9c-9.6-6-18.8-13.2-26-21.7c-5.3-6.2-9.8-13.2-12.3-20.7
	c-2.1-6-2.4-19-2.4-19c-0.5-2.1,0-11.1,0.8-16.5C47,166.9,41.9,154.7,43.5,157.7L43.5,157.7z"/>
<path id="rabo" class="st11" d="M285.6,231c0.7,0.9,2,2.6,2,2.6s2.2-1,3-1.8c1-0.9,1.8-2,2.5-3.1c0.6-1.1,0.9-2.3,1.1-3.5
	c0.2-1.6,0.2-3.4,0-5.2c-0.3-1.5-0.8-3-1.7-4.3c-1.4-2.2-3.1-4.3-5.3-5.8c-2.2-1.6-4.9-2.7-7.8-3.4c-2.4-0.5-5-0.5-7.5-0.1
	s-4.7,1.2-6.8,2.4c-1.7,1.1-3.2,2.5-4.2,4.2c-0.7,1.1-1.5,2.2-1.7,3.5c-0.5,2.4-0.5,5.1,0.5,7.4c0.7,1.9,2,3.7,3.7,4.8
	c1.1,0.7,2.5,0.9,3.9,0.8c1.3,0,2.6-0.5,3.7-1.2c0.7-0.4,1.5-1.8,1.5-1.8s-3-0.5-3.9-1.6c-0.9-1.1-1-2.7-0.8-4.2
	c0.1-0.9,0.5-1.6,1-2.4c1-1.3,2.5-2.3,4-2.9c1.4-0.5,3-0.7,4.5-0.3c1.3,0.3,2.4,1,3.3,1.9c0.7,0.7,1.5,1.5,1.7,2.5
	c0.2,1,0.2,2.1-0.3,2.9c-0.5,0.7-2.4,1-2.4,1L285.6,231z"/>
<path id="path4584" class="st12" d="M43.7,159.6c4,11.9,1.5,15.1,1.5,20.9c-6.9,57.2,46,75.8,93.3,96.4c2,0.8,39.1,10.6,57.7,11
	c18.6-1.5,28.5-4.2,27.4-4.1c0,0-2.5-0.7-3-0.7l12.2-21.3c0,0-29.6,2.2-43.8-1.1c-41.7-9.9-68.3-17.2-87.4-41.7
	c-11.1-14.2-12.5-47.6-9.1-56.5C75.9,160.1,43.2,156.8,43.7,159.6z"/>
<path id="patadd" class="st1" d="M128.2,184.5c-0.3,0-6.8,6.8-8.7,11.2c-1.7,3.8-3.2,8.2-4,12.5c-0.6,3-0.7,6-0.7,9
	c0,3.6,0.5,7.4,1,10.9c0.5,3.2,1,6.3,2,9.5c1,3.4,2.5,6.7,3.9,9.9c1.5,3.6,3.2,7.3,5,10.9c1.4,2.9,4.5,8.5,4.5,8.5
	c2.6,5.5,4.5,9.1,4.5,15.1c0,0-0.1,2.4-1,3.2c-0.8,0.7-2.2,0.4-3.2,0.8c-1.1,0.4-2.5,0.7-3.3,1.4c-1,0.9-1.7,2.1-2,3.4
	c-0.3,1.6,0,3.5,0.6,5.1c0.5,1.1,1.3,2.3,2.5,3.1c3.7,1,7.7,1.1,11.6,1.1c4,0,6.9-0.4,11.9-1.2c1.5-0.7,3-0.8,4.2-2.5
	c0.3-1.3,0.6-2.6,0.6-3.8c0-1.8,0.3-3.6,0.5-5.4c0.2-2.4,0.5-4.7,0.8-7.1c0.6-3.5,1-7.1,2-10.6c0.9-3.5,2.3-6.8,3.7-10.2
	c1.3-3.1,2.8-5.9,4.1-9c1-2.3,2.2-4.6,3.2-6.9c1.3-2.9,2.4-5.7,3.3-8.7c1.1-3.6,1.8-7.3,2.6-10.9c0.5-2.4,1.3-4.8,1.3-7.4
	c0-2.3-0.1-4.7-1-6.9c-0.3-0.9-1.5-2.3-1.5-2.3l0.2,0.4"/>
<path id="patatd" class="st1" d="M253,244.8l-8.5-1.4c0,0-6.4-0.3-9.3,0.4c-7.7,2.2-11.7,4.2-19.4,11.3c-2.5,2.6-4.7,5.3-7,8.2
	c0,0-1.8,3-2.5,4.5c-0.7,1.5-1.5,3-1.7,4.5c-0.2,1.5-0.2,3.2,0.1,4.7c0.3,1.3,2.3,2.5,2,3.8c-0.1,0.5-0.3,0.8-1.4,1.3
	c-1,0.5-3.4,1-5,1.6c-1.5,0.8-3.1,1.5-4,2.7c-0.6,0.7-0.7,1.5-0.7,2.4c0,1,0.5,2,0.5,3c0,1.1-0.3,2.1-0.5,3.2
	c2.2-0.3,7.2-0.8,7.2-0.8l9.8-0.8l11.2-0.8l10.2-1l18.9-1.6l10.2-0.3l9.4-0.8c0,0,5.2-0.5,6.5-1.1c0.6-1.1,1.5-2.1,1.7-3.3
	c0.3-1.3-0.2-4.1-0.2-4.1s1.8-1,2.8-1.4c2.3-1.1,7-3.2,7-3.2"/>
<path id="path1481-7" class="st13" d="M73.8,157.9c-2-1.1-3-0.4-3.6,0.1c2,2.9,0.8,5.8,0.3,7c-0.1,0.4-0.8,0.4-0.8,0.4
	s1.8,0.5,3.8-0.1C73.9,164.6,75.5,161.4,73.8,157.9L73.8,157.9z"/>
<path id="path4976" class="st14" d="M44.7,153.4c3.3,0.7,6.2,1.4,9.3,2c4.5,0.8,9,1.6,13.5,2.1c3.2,0.3,6.4,0.4,9.5,0.3
	c4.5-0.2,9.1-0.8,13.4-1.9c6.7-1.6,13.1-4.1,19.3-6.9c5.4-2.5,10.6-5.7,15.5-8.9c4.6-3.1,9-6.3,13.1-9.8c3-2.4,5.7-5.2,8.4-7.8
	c2.8-2.7,5.4-5.6,8-8.6c2.4-2.6,4.7-5.4,7-8.1c3-3.7,6.7-7.4,8.8-11.5c0.7-1.3,1.1-2.9,1.3-4.3c0-0.9-0.1-1.8-0.3-2.6
	c0-0.7-0.1-1.9-0.1-1.9s1.5,1.1,2,2c0.5,0.7,0.6,1.5,0.8,2.3c0.3,1,0.8,2,1.1,2.9c0.3,1,0.8,1.9,1.1,2.9c0.3,0.9,0.7,2.7,0.7,2.7
	s-1.1,1.5-1.8,2.4c-1.7,2.3-3.2,4.7-4.9,6.9c-2.1,2.7-4.4,5.3-6.7,7.9c-2.9,3.2-6,6.3-9.1,9.2c-3,3.1-6.1,6-9.3,8.8
	c-4.2,3.6-8.6,7.1-13.2,10.4c-3.9,2.7-7.8,5.3-11.8,7.7c-4.4,2.5-8.8,4.9-13.7,6.8c-4.2,1.6-8.6,3.1-13.1,4
	c-5.4,1.1-11,1.5-16.5,1.6c-3.7,0.1-7.2,0-10.9-0.4c-5.6-0.5-11.2-1.4-16.9-2.5c-2.1-0.4-6.1-1.4-6.1-1.4c0.6,0.2-1.4-1.3-1.7-2.5
	c-0.2-1.1-1.5-1.8-2.1-3.4c-0.3-1-0.3-1.8-0.3-1.8C41.7,152.5,42.2,152.9,44.7,153.4L44.7,153.4z"/>
<path id="path5509" class="st12" d="M144.7,30c-5.4-3.2-19.6-11.8-22.7-13c1.8,2.1,18.8,11.7,17.1,17.2L144.7,30z"/>
<path id="rect4692" class="st15" d="M45.5,71.5c2.4-0.2,7.5-1.9,9.6-1.3c1.3,2.5,0.8,5.3,2,9.1c5.7,9.6,4.8,16.4,4.7,22.8
	c-0.1,5.4-6.5,3.1-7.2,7.6c-0.5,2.4-10.7,0.8-17.1-3.1c-2.1-1.2-4.7-4.6-6.1-8.7c-1.3-3.8-0.6-8.8,0.3-12.3
	C33.5,79.6,38.8,72.2,45.5,71.5L45.5,71.5z"/>
<path id="rect4692-4" class="st15" d="M114.2,66.4c5.9,1.2,11.5,4.2,16,7.6c6.1,4.5,9.9,7.4,14,13.7c5.2,8-7.9,12.5-12.4,15.1
	c-6.9,3.8-18.6,6.9-28.1,6.7c0,0-12.6,1-23.1-6.7c-3.9-2.9,9-17.2,11.8-20c2-2.1,6.5-9.2,13.3-13.2c-2.2-1.3-2.9-1.8-7.3-2.2
	C101.4,64.8,113,66.2,114.2,66.4L114.2,66.4z"/>
<path id="olho2" class="st16" d="M112.8,71.7c4.6-0.5,9.1,2.9,12.5,5.4c4.7,3.5,7.6,5.6,10.8,10.6c3.9,6.2-6.1,9.6-9.5,11.5
	c-5.3,3.1-14.3,5.3-21.6,5.2c0,0-9.8,0.8-17.8-5.2c-3-2.2,6.8-13.1,9.1-15.4C98.3,81.9,105.9,72.4,112.8,71.7L112.8,71.7z"/>
<path id="rect4692-4-0-9" class="st17" d="M119.5,103.4c-11.5-5.9-4.5-22.9,6.5-26.7c2.9,2.2,15.1,13.1,12.5,16.3
	C131.5,101.8,119.5,103.4,119.5,103.4L119.5,103.4z"/>
<ellipse id="path5589-4" transform="matrix(0.4396 -0.8982 0.8982 0.4396 -19.7917 158.1618)" class="st18" cx="116.9" cy="94.9" rx="2" ry="1.9"/>
<path id="rect4692-4-0-9-0" class="st19" d="M124.2,102.5c-1,0.4-2.9,0.8-2.5,0.7c-3.2-1.8-5.4-5.5-5.7-7.1c2.6,1.8,2.9-3.8-0.3-2.2
	c0.2-5.1,4.9-13.5,11.8-15.9c2.8,2.3,14.1,11.8,11.2,15.6C133.7,99.8,126.2,101.9,124.2,102.5L124.2,102.5z"/>
<path id="rect4692-4-0-8" class="st20" d="M113,71.7c3.8-0.4,7.2,1.3,10.7,3.8c4.7,3.5,7.9,5.4,11.4,10.1
	c-17.1,9.8-30.6,10-46.8,7.7c2.8-4.2,6.9-8.5,7.9-9.7C97.6,82.2,106.1,72.5,113,71.7L113,71.7z"/>
<path id="olho1" class="st16" d="M45.4,76.2c3.9-0.4,7.5,3.1,9.4,6.4c4.7,7.8,3.9,13.4,3.9,18.6c-0.1,4.4,0.6,4.4-1,5.6
	c-5,3.6-16.3,0.8-18.8-2c-1.3-1.3-3.9-3.8-4.9-7c-1-3.2-0.5-7.3,0.3-10C35.7,82.8,39.9,76.7,45.4,76.2z"/>
<path id="rect4692-9-5" class="st17" d="M55.5,87.3c2,2.4,4.1,6.2,4,9.6c-0.1,3.4-3.3,5.9-4.4,7.6c-0.8,1.2-2.8,3.2-4.6,4.9
	C40.5,109.7,33,93.2,55.5,87.3z"/>
<ellipse id="path5589" transform="matrix(0.9987 -5.070342e-02 5.070342e-02 0.9987 -5.2745 2.4844)" class="st18" cx="46.3" cy="105.2" rx="2.3" ry="1.7"/>
<path id="rect4692-9-5-9" class="st19" d="M46.6,106.6c3.6-1.8-0.1-3.3-1.6-2.1c-3.3-5.3-1.3-13.4,11.8-15.5c1.6,2.3,3,5.6,3,8.4
	c-0.1,3.4-3.3,7.1-4.8,8.5c-1.3,1.3-1.6,1.4-3.3,2.9C49.2,108.1,48.6,108,46.6,106.6z"/>
<path id="palpebra" class="st20" d="M45.2,76.1c4-0.4,7.8,3.1,10,6.4c2.4,3.7,3.6,9.1,4,12.1c-9.9,2.3-14.5,3.2-26.6,0.8
	c-0.3-2.6,0.1-5.6,0.8-7.7C34.9,82.7,39.3,76.7,45.2,76.1z"/>
<path id="path4951" class="st19" d="M62.9,123.9L62.9,123.9L62.9,123.9z"/>
<path id="ruga_2_" class="st21" d="M64.7,80.8c0,0-2.1,1-2.1,0.2c0.2-2.4,4.1-6.4-2.4-12.6c-2.2-2.1,2.1-0.1,1.1-1
	C64.9,69.2,66.1,77.2,64.7,80.8z"/>
<path id="ruga_3_" class="st21" d="M80,77.7c0,0,2.1,1,2.1,0.2c-0.2-2.4-4.1-6.4,2.4-12.6c2.2-2.1-2.1-0.1-1.1-1
	C79.7,66.3,78.6,74.1,80,77.7z"/>
<path id="ruga" class="st22" d="M64,57.6c0,0-1.3-2.7-0.5-2.5c2.9,0.9,6.5,6.9,15.6-0.1c3.1-2.4-0.3,2.7,0.8,1.8
	C73.1,62.4,68,60.3,64,57.6z"/>
<path id="ruga_4_" class="st21" d="M73.6,49.3c0,0,0.9-3.7,8.4-9.7c0.6,0.9-9.3,11-4.2,9.8c2.6-0.5,1.8,1.4,1.4,0.8
	C74.3,51,73.3,49.7,73.6,49.3z"/>
<path id="path5561" class="st23" d="M97.3,57.4c3.4-3,2.5-3.5,10-5.9c6.7-2.1,14.5-6,25.5-4.1c11.2,2.1,8.7,9.5,10.2,10.8
	c0.5,1,2.5,7.4-2.8,2.2c-4-5.4-2.5-3.8-4.6-6c-2.4-2.6-2.4-2.9-4.6-3.4c-2.2-0.5-14.9,1.6-18.4,2.2c-3.3,0.5-7.7,2.5-9.8,3.6
	c-2.4,1.5-6.7,5.9-8.7,6.6c-0.8,0.4-2.3-3.7-2-4.6L97.3,57.4z"/>
<path id="path5563-2-3-1" class="st21" d="M27.5,62.7c0,0-1,2.6,0.2,2.6c3.3-3.7,16.8-10.8,27.4,1.3c3.4,3.4,0.6-4.2,1.7-2.7
	c-2.8-5.5-17.8-8.5-24.6-6.5L27.5,62.7z"/>
<path id="path1174" class="st15" d="M98.2,109.4c-5.6-0.7-11-2.4-15.1-5.1c-2-1.2-2.6-1.8-2.9-2.3c-0.3-1.1,0.2-3.2,1.5-5.5
	c1.8-3.2,5.9-8.4,9.9-12.6c0.9-1,2.4-2.6,3.2-3.6c3.4-4.3,6.4-7.4,9.2-9.3c0.8-0.5,1.6-1.1,1.7-1.1s0.1-0.1,0.1-0.1
	c0-0.1-2.1-1.2-2.8-1.4c-0.8-0.3-3.3-0.8-3.9-0.8c-1.1,0,0.3-0.8,2.4-1.1c1.3-0.2,1.8-0.3,5.3-0.3c4.6,0,6.9,0.2,9.4,1
	c5.2,1.5,9.6,3.8,15.6,8.4c5.9,4.3,9,7.4,11.7,11.5c1.4,2.1,1.7,2.7,1.7,4.5c0,1.4,0,1.5-0.6,2.5c-1.3,2.4-3.8,4.3-9,6.9
	c-1.1,0.5-2.9,1.5-4,2.1c-6.1,3.2-13.2,5.3-21.3,6.3C107.8,109.5,100.4,109.6,98.2,109.4L98.2,109.4z M110.5,104.3
	c5.3-0.7,10.4-2.1,14.3-4c3.2-1.5,6.9-3.4,8.3-4.3c1.6-1.1,2.9-2.2,3.6-3.4c0.5-0.8,0.5-1,0.5-2.2c0-1.2,0-1.4-0.5-2.2
	c-1.1-2.1-3.3-4.8-5.9-7c-1.8-1.6-2.4-2.1-5.9-4.6c-3.3-2.4-4.4-3.2-6.1-3.8c-3.9-1.8-7.2-1.4-11.5,1.1c-4.1,2.5-9.3,7.4-15,14.4
	c-2.6,3.2-4.6,6.3-5.3,8.4c-0.2,0.8-0.1,2,0.1,2.5c0.6,1,4.4,3.1,7.2,4c1.7,0.5,4.4,1.1,6.5,1.3C103,104.7,108,104.5,110.5,104.3
	L110.5,104.3z"/>
<path id="path1499-0" class="st13" d="M70.8,165.7c0.3,0,1,0,1,0s0.6,1.2,0.6,2.1c0,0.5-0.7,1.9-0.7,1.9s-0.6-0.1-0.7-0.3
	c0.2-1,0.6-1.4,0.5-2.1C71.3,166.7,71.2,166.4,70.8,165.7L70.8,165.7z"/>
<g class="st24">
	<path class="st25" d="M58.4,180.1c0.2,2.4-0.1,4.6-0.9,6.3c-0.8,1.8-2,2.7-3.4,3.2l0.2,4l-4.2,1l-1-9.7c-0.2-2.5-0.7-5.9-1.1-10.2
		c0.8-0.4,2-0.9,3.4-1.3c1.8-0.4,3.4-0.2,4.7,0.8C57.2,175.3,58,177.4,58.4,180.1z M55.4,183.1c-0.1-1.3-0.7-2-1.6-1.6
		c-0.1,0-0.2,0.1-0.3,0.1l0.3,4.6C54.9,185.7,55.5,184.7,55.4,183.1z"/>
</g>
<g class="st24">
	<path class="st26" d="M64.2,178.5l0.3,5.3c0.1,1.5,0.2,3.8,0.5,6.9c-0.8,0.7-1.6,1.1-2.4,1.3c-1,0.2-1.8,0.1-2.5-0.4
		c-0.5-0.4-0.9-1.3-1.1-2.5c-0.1-0.7-0.3-2.1-0.7-4c-0.2-1.8-0.5-3.4-0.6-4.9l3.1-0.8c0,0.8,0.1,1.9,0.2,3.5
		c0.1,0.9,0.1,2.2,0.3,3.8c0.1,1.3,0.2,2.1,0.3,2.5c0.1,0.4,0.5,0.7,0.8,0.4c0.1,0,0.2-0.1,0.3-0.2c-0.1-1.1-0.2-2.9-0.5-5.3
		c-0.1-1.2-0.3-2.9-0.6-5.1L64.2,178.5z"/>
</g>
<g class="st24">
	<path class="st26" d="M69.6,184.7c0,0.4,0,1.3,0.1,2.6c0,0.8,0.1,1.6,0.1,2.7c-0.5,0.3-1,0.5-1.8,0.8c-1.1,0.3-2.2,0.1-3.1-0.7
		c-1-0.9-1.6-2.4-1.7-4.6c-0.1-2.1,0.1-3.8,0.8-5.3c0.7-1.3,1.6-2.1,2.8-2.4c0.5-0.1,0.9-0.1,1.5-0.1l0.7,5.1
		c-0.2-0.1-0.5-0.1-0.9,0s-0.9,0.4-1.3,1.1c-0.3,0.7-0.6,1.4-0.5,2.4c0.1,0.9,0.3,1.4,0.7,1.9c0.3,0.3,0.7,0.4,1.1,0.3l-0.2-1.6
		c0-0.3-0.1-0.9-0.2-1.6L69.6,184.7z"/>
</g>
<g class="st24">
	<path class="st26" d="M77.4,173.6c0.1,1.5,0,3-0.3,4.2c-0.3,1.1-0.7,1.9-1.1,2.4c0.3,0.1,0.7,0.5,1,1.1c0.2,0.5,0.5,1.1,0.5,1.9
		c0.1,1.6-0.3,3.1-1.3,4.1c-0.8,0.8-1.8,1.4-3.1,1.8c-1.1,0.3-2.4,0.4-3.7,0.4c-0.2-2-0.6-5.3-1-9.9c-0.3-2.4-0.7-5.8-1.1-10.1
		c0.9-0.5,2.2-1,3.7-1.4C74.8,167,77.1,168.9,77.4,173.6z M74.6,176.8c0-0.7-0.2-1.1-0.6-1.4c-0.3-0.2-0.7-0.3-1.1-0.1l0.2,4
		C74.2,179,74.7,178.2,74.6,176.8z M74.9,183.1c-0.1-1-0.6-1.4-1.4-1.2c-0.1,0-0.1,0-0.2,0.1l0.2,3.2
		C74.4,185.1,74.9,184.4,74.9,183.1z"/>
</g>
<g class="st24">
	<path class="st26" d="M82,180.2c0.1,2,0,3.6-0.5,5.1c-0.5,1.5-1.1,2.4-2.2,2.6c-1,0.2-1.8-0.2-2.5-1.5c-0.7-1.2-1.1-2.7-1.3-4.6
		c-0.1-2.1,0-3.7,0.5-5.1c0.5-1.2,1.1-2,2.2-2.2c0.9-0.2,1.7,0.1,2.4,1.1C81.3,176.6,81.8,178.1,82,180.2z M79.8,182.2
		c-0.1-1.5-0.5-2.2-1-2.1c-0.6,0.1-0.8,1-0.7,2.5c0,0.7,0.1,1.1,0.3,1.6c0.2,0.5,0.5,0.8,0.7,0.8c0.2,0,0.5-0.4,0.6-1.1
		C79.8,183.4,79.8,182.7,79.8,182.2z"/>
</g>
<g class="st24">
	<path class="st26" d="M85.6,178.1c-0.2,0-0.5,0-0.6,0s-0.3,0.1-0.3,0.3c-0.1,0.2-0.1,0.5-0.1,0.9c0,0.2,0.2,0.8,0.6,1.4
		s0.5,1.3,0.6,2c0.1,0.9,0,1.8-0.5,2.4c-0.3,0.7-0.8,1.1-1.4,1.2c-0.5,0.1-0.9,0.1-1.1,0.1c0-0.2-0.1-0.7-0.2-1.2
		c-0.1-0.3-0.1-0.7-0.3-1.2c0.3,0,0.6,0.1,0.7,0c0.5-0.1,0.7-0.4,0.7-1.1c0-0.4-0.1-0.8-0.3-1.1c-0.3-0.4-0.7-0.8-1-1.2
		c-0.7-0.8-1-1.8-1.1-3.1c-0.1-1.3,0.1-2.4,0.6-3.2c0.5-0.7,1-1.2,2-1.4c0.5-0.1,1-0.1,1.6,0L85.6,178.1z"/>
</g>
<g id="opug">
	<g class="st24">
		<path class="st27" d="M58.4,180.1c0.2,2.4-0.1,4.6-0.9,6.3c-0.8,1.8-2,2.7-3.4,3.2l0.2,4l-4.2,1l-1-9.7c-0.2-2.5-0.7-5.9-1.1-10.2
			c0.8-0.4,2-0.9,3.4-1.3c1.8-0.4,3.4-0.2,4.7,0.8C57.2,175.3,58,177.4,58.4,180.1z M55.4,183.1c-0.1-1.3-0.7-2-1.6-1.6
			c-0.1,0-0.2,0.1-0.3,0.1l0.3,4.6C54.9,185.7,55.5,184.7,55.4,183.1z"/>
	</g>
	<g class="st24">
		<path class="st27" d="M64.2,178.5l0.3,5.3c0.1,1.5,0.2,3.8,0.5,6.9c-0.8,0.7-1.6,1.1-2.4,1.3c-1,0.2-1.8,0.1-2.5-0.4
			c-0.5-0.4-0.9-1.3-1.1-2.5c-0.1-0.7-0.3-2.1-0.7-4c-0.2-1.8-0.5-3.4-0.6-4.9l3.1-0.8c0,0.8,0.1,1.9,0.2,3.5
			c0.1,0.9,0.1,2.2,0.3,3.8c0.1,1.3,0.2,2.1,0.3,2.5c0.1,0.4,0.5,0.7,0.8,0.4c0.1,0,0.2-0.1,0.3-0.2c-0.1-1.1-0.2-2.9-0.5-5.3
			c-0.1-1.2-0.3-2.9-0.6-5.1L64.2,178.5z"/>
	</g>
	<g class="st24">
		<path class="st27" d="M69.6,184.7c0,0.4,0,1.3,0.1,2.6c0,0.8,0.1,1.6,0.1,2.7c-0.5,0.3-1,0.5-1.8,0.8c-1.1,0.3-2.2,0.1-3.1-0.7
			c-1-0.9-1.6-2.4-1.7-4.6c-0.1-2.1,0.1-3.8,0.8-5.3c0.7-1.3,1.6-2.1,2.8-2.4c0.5-0.1,0.9-0.1,1.5-0.1l0.7,5.1
			c-0.2-0.1-0.5-0.1-0.9,0s-0.9,0.4-1.3,1.1c-0.3,0.7-0.6,1.4-0.5,2.4c0.1,0.9,0.3,1.4,0.7,1.9c0.3,0.3,0.7,0.4,1.1,0.3l-0.2-1.6
			c0-0.3-0.1-0.9-0.2-1.6L69.6,184.7z"/>
	</g>
	<g class="st24">
		<path class="st27" d="M77.4,173.6c0.1,1.5,0,3-0.3,4.2c-0.3,1.1-0.7,1.9-1.1,2.4c0.3,0.1,0.7,0.5,1,1.1c0.2,0.5,0.5,1.1,0.5,1.9
			c0.1,1.6-0.3,3.1-1.3,4.1c-0.8,0.8-1.8,1.4-3.1,1.8c-1.1,0.3-2.4,0.4-3.7,0.4c-0.2-2-0.6-5.3-1-9.9c-0.3-2.4-0.7-5.8-1.1-10.1
			c0.9-0.5,2.2-1,3.7-1.4C74.8,167,77.1,168.9,77.4,173.6z M74.6,176.8c0-0.7-0.2-1.1-0.6-1.4c-0.3-0.2-0.7-0.3-1.1-0.1l0.2,4
			C74.2,179,74.7,178.2,74.6,176.8z M74.9,183.1c-0.1-1-0.6-1.4-1.4-1.2c-0.1,0-0.1,0-0.2,0.1l0.2,3.2
			C74.4,185.1,74.9,184.4,74.9,183.1z"/>
	</g>
	<g class="st24">
		<path class="st27" d="M82,180.2c0.1,2,0,3.6-0.5,5.1c-0.5,1.5-1.1,2.4-2.2,2.6c-1,0.2-1.8-0.2-2.5-1.5c-0.7-1.2-1.1-2.7-1.3-4.6
			c-0.1-2.1,0-3.7,0.5-5.1c0.5-1.2,1.1-2,2.2-2.2c0.9-0.2,1.7,0.1,2.4,1.1C81.3,176.6,81.8,178.1,82,180.2z M79.8,182.2
			c-0.1-1.5-0.5-2.2-1-2.1c-0.6,0.1-0.8,1-0.7,2.5c0,0.7,0.1,1.1,0.3,1.6c0.2,0.5,0.5,0.8,0.7,0.8c0.2,0,0.5-0.4,0.6-1.1
			C79.8,183.4,79.8,182.7,79.8,182.2z"/>
	</g>
	<g class="st24">
		<path class="st27" d="M85.6,178.1c-0.2,0-0.5,0-0.6,0s-0.3,0.1-0.3,0.3c-0.1,0.2-0.1,0.5-0.1,0.9c0,0.2,0.2,0.8,0.6,1.4
			s0.5,1.3,0.6,2c0.1,0.9,0,1.8-0.5,2.4c-0.3,0.7-0.8,1.1-1.4,1.2c-0.5,0.1-0.9,0.1-1.1,0.1c0-0.2-0.1-0.7-0.2-1.2
			c-0.1-0.3-0.1-0.7-0.3-1.2c0.3,0,0.6,0.1,0.7,0c0.5-0.1,0.7-0.4,0.7-1.1c0-0.4-0.1-0.8-0.3-1.1c-0.3-0.4-0.7-0.8-1-1.2
			c-0.7-0.8-1-1.8-1.1-3.1c-0.1-1.3,0.1-2.4,0.6-3.2c0.5-0.7,1-1.2,2-1.4c0.5-0.1,1-0.1,1.6,0L85.6,178.1z"/>
	</g>
	<g class="st24">
		<path class="st27" d="M89.6,176.5c-0.2,0-0.5,0-0.6,0s-0.3,0.1-0.3,0.3c-0.1,0.2-0.1,0.5-0.1,0.9c0,0.2,0.2,0.8,0.6,1.4
			c0.3,0.7,0.5,1.3,0.6,2c0.1,0.9,0,1.8-0.5,2.4c-0.3,0.7-0.8,1.1-1.4,1.2c-0.5,0.1-0.9,0.1-1.1,0.1c0-0.2-0.1-0.7-0.2-1.2
			c-0.1-0.3-0.1-0.7-0.3-1.2c0.3,0,0.6,0.1,0.7,0c0.5-0.1,0.7-0.4,0.7-1.1c0-0.4-0.1-0.8-0.3-1.1c-0.3-0.4-0.7-0.8-1-1.2
			c-0.7-0.8-1-1.8-1.1-3.1c-0.1-1.3,0.1-2.4,0.6-3.2c0.5-0.7,1-1.2,2-1.4c0.5-0.1,1-0.1,1.6,0L89.6,176.5z"/>
	</g>
</g>
<g class="st24">
	<path class="st28" d="M89.6,176.5c-0.2,0-0.5,0-0.6,0s-0.3,0.1-0.3,0.3c-0.1,0.2-0.1,0.5-0.1,0.9c0,0.2,0.2,0.8,0.6,1.4
		c0.3,0.7,0.5,1.3,0.6,2c0.1,0.9,0,1.8-0.5,2.4c-0.3,0.7-0.8,1.1-1.4,1.2c-0.5,0.1-0.9,0.1-1.1,0.1c0-0.2-0.1-0.7-0.2-1.2
		c-0.1-0.3-0.1-0.7-0.3-1.2c0.3,0,0.6,0.1,0.7,0c0.5-0.1,0.7-0.4,0.7-1.1c0-0.4-0.1-0.8-0.3-1.1c-0.3-0.4-0.7-0.8-1-1.2
		c-0.7-0.8-1-1.8-1.1-3.1c-0.1-1.3,0.1-2.4,0.6-3.2c0.5-0.7,1-1.2,2-1.4c0.5-0.1,1-0.1,1.6,0L89.6,176.5z"/>
</g>
<path id="path1481" class="st13" d="M69.4,157.9c2-1.1,3.7-0.7,4.2,0c-2,2.9-1.5,5.9-1,7.3c0.1,0.4,0.8,0.4,0.8,0.4
	s-1.8,0.5-3.8-0.1C69.3,164.5,67.7,161.4,69.4,157.9L69.4,157.9z"/>
<path id="path1499" class="st13" d="M71.2,165.3c-0.1-0.8-1-0.1-1,0c0,0-0.6,1.2-0.6,2.1c0,0.5,0.7,1.9,0.7,1.9s0.7,0.5,0.7-0.3
	c-0.2-1-0.6-1.4-0.5-2.1C70.5,166.2,70.8,165.9,71.2,165.3L71.2,165.3z"/>
<path id="path4473" class="st29" d="M147.8,131.2c14.1-14.1,18.4-16.6,18.4-16.6l32.4,19.6l52.1,57.1c0,0-15.8-11.9-15.4-9.2
	c0.6,2.5,0.1,0.7-3.7,10.4c-1.4-10.4-17-28.8-17-28.8s-5.2,10.6-10.9,10.9c-1.4-6.4-9.4-20.9-9.4-20.9l-6.9,7.4
	c0,0-8.4-18-17.6-21.2c0.6,5.3-1.7,14-1.7,14s-10.3-20.1-12.3-13.6c-1.3,4.2-3.9,7.9-10.6,13.4C150,142.5,147.9,138.7,147.8,131.2
	L147.8,131.2z"/>
<path id="path3778" class="st9" d="M177,97.9c3.4,9.6,10.8,21,19.2,31.2c5.6,6.7,8.6,10,12.3,14.5c3.3,4,21.7,26.8,46.6,51.7
	c0,0-31.4-32.8-29.4-23.3c0.1,0.8,2.5,6.7,2.5,6.7l-12.9-20.3c0,0-9.9,7.8-10.1,6c-0.1-1.8-8.3-22.1-8.3-22.1s-5.2,10.6-6.5,10
	c-1.4-0.5-8.6-24.1-18.2-31.8c-3.7,6.7-7.2,20.6-7.2,20.6s-2.1-10.6-2.8-11c-1.5-0.9-6.1,2-8,0.4c2.4-3.6,2.9-8.7,2.9-8.7
	C161.1,117.7,162.5,116.6,177,97.9z"/>
<ellipse id="path4542" transform="matrix(0.9954 -9.570955e-02 9.570955e-02 0.9954 -9.8096 5.0141)" class="st30" cx="47.4" cy="104.8" rx="2" ry="1.3"/>
<path id="path4134" class="st31" d="M45.6,119.4c0,0,10.6-15.3,21.9-18.7c8.5-2.5,20.8,13,23.6,23c2.8,9.2,6.7-22.2-21-26.7
	C51.3,98.5,42.4,120.2,45.6,119.4z"/>
<path id="path4582" class="st32" d="M279.6,223.8l4.7,5.8l2,2.4l0.6,0.9l0.6,0.9l1.8-1l0.8-0.5l0.7-0.7l0.7-0.8l0.7-0.9l0.5-0.5
	l0.5-1.1c0,0-6.8-5.2-12.3-5.3c-0.6,0.3-1.5,0.4-1.5,0.4L279.6,223.8z"/>
<path id="path5644" class="st8" d="M46,35.7c-7.1,4.8-8.3,7.4-7.8,8.6c2.9-1,7.8-2.1,7.8-2.1C39.6,41.5,43.5,38.8,46,35.7L46,35.7z"
	/>
<path id="path5646" class="st33" d="M46.3,42.2C13.5,57.2,22.7,69.7,29.6,85.6C4.4,57.6,39.1,41.6,46.3,42.2z"/>
<path id="path5704" class="st2" d="M253.9,244.7c-1.1,0-22.3-10.6-43.4,16.1c-7.3,8.6-7.2,16.1-4.5,18.6c0,0,2.9,2-4.4,3.8
	c-8.1,2.9-6.1,6.9-6.1,6.9c1.1,2.1-0.6,5.2-0.1,5.2c1.5,0.1,60-4.8,58.2-4.9c-0.5,0,4-3.4-1.5-4.9c-7.7-2.2-25.9-3.6-28.9-9.1
	c-2.3-4.2-1.8-12-1.5-12.5C225.4,258.6,226,251.2,253.9,244.7L253.9,244.7z"/>
<path id="path5706" class="st2" d="M134.6,285.5c11.4-2.1,9.6,1.1,13.3,2.1c0,0-19.6-59.3-0.5-88s-19.3-15.2-19.3-15.2
	c-20.9,19.7-13.9,47.3-6.9,62.8C131.2,268.3,137.9,279.7,134.6,285.5z"/>
<path id="path1721" class="st34" d="M45.9,76.6c-5.5,6.4-9.3,13-10,19.2c0,0.2-2.4-0.3-2.4-0.3C33.2,91.2,36.3,78.6,45.9,76.6z"/>
<path id="path1721-2" class="st34" d="M112.7,72.3c-6.4,6.2-11.6,11.2-14,22.1c0,0.2-3.9-0.4-5-0.4C94.6,90,103.5,75.9,112.7,72.3
	L112.7,72.3z"/>
<path id="path1950" class="st35" d="M51.7,173.9c-0.6,0.3-2.4,0.1-3,1c-0.7,2.4,1,9,1,9s-1.3-6.2-0.1-8.7
	C50,174.5,51.7,174.9,51.7,173.9L51.7,173.9z"/>
<path id="path1950-8" class="st35" d="M73.2,169.3c-1.5,1.1-4.2,0-4.8,0.8c-0.7,2.4,1,9,1,9s-1.3-6.2-0.1-8.7
	C69.4,169.8,72,171.1,73.2,169.3L73.2,169.3z"/>
<path id="frontal" class="st15" d="M68.7,99.9c3.6-2.2,7.9,2.9,11.2,5.5c4.5,3.5,8.3,9.9,10,13.6c3.1,6,3.7,10.8,2.8,14.7
	c-0.8,3.4-2.6,6.3-5.3,8.4c-2.5,2-4.9,1.6-8.6,3c-7.5,0.3-6-0.1-11.6-0.1c-3.4,0-11,0.3-14-3.2c-5-5.7-7.1-11-7.9-15.5
	c-1.3-6.7,5.2-12.9,7.6-15C60.3,104.7,59.4,105.6,68.7,99.9L68.7,99.9z"/>
<path id="path4974" class="st19" d="M65,108.9c0,3.8-1.7,7.5-0.6,11c0,0,0.5,0.9-0.2,1c-0.6,0.1-2.9,0.1-3.4,0.4
	c-1,0.5-2.9,1.5-2.9,1.5s-0.6,0.3-0.8,0.4c-0.6,0.2-0.6,0.2-1,0.4c-0.5,0.4-0.9,0.7-1.6,1.1c-0.5,0.3-1.4,0.8-1.4,0.8h-0.6l0.6-1.1
	c0,0-1.1,0.5-1.5,1.1c-0.1,0.3-0.2,0.7-0.2,1.1c0,0.3,0.1,0.8,0.2,1.1c0.1,0.2,1.3,0.3,1.3,0.3l-0.5-0.8v-0.5l1.3-0.2
	c0,0,0.5-0.3,0.8-0.7c0.8-0.5,1.3-0.9,1.8-1.3c0.6-0.3,1-0.3,1.6-0.5c0.5-0.2,0.7-0.5,1.1-0.8c0.9-0.5,2-1.2,3.3-1.1
	c1-0.1,1,0,2.3-0.2c0.5,0,0.9-0.2,1.7-0.3c0.3,0,0.5,0,1.6,0c1,0.4,1.1,0.5,1.6,0.7c0.5,0.2,0.7,0.7,1.1,1c0.6,0.3,0.9,1.2,1.6,1.6
	c0.6,0.3,0.9,0.8,1.4,1c0.6,0.4,0.9,0.2,1.5,0.4c0.5,0.3,0.6,0.3,1.3,0.2c0.5,0,0.7,0.1,1.3,0c0.6-0.1,1,0.1,1,0.1s0.3-0.1,0.5,0.2
	c0.3,0.4,0.6,1.3,0.6,1.3v1.1c0,0,0.7-1.6,0.6-2.5c-0.1-0.7-0.5-1.2-0.9-1.8c-0.2-0.3-0.6-0.7-0.9-1c-0.3-0.2-0.9-0.5-0.9-0.5
	c0.2,0.4,0.3,0.8,0.3,1c0.1,0.4,0.5,1.2,0,1.2c-0.6,0-0.9,0-1.6-0.2c-0.9-0.2-0.7-0.2-1.6-0.4c-0.8-0.2-1.4-0.8-2-1.3
	c-0.6-0.4-0.6-1.2-1.3-1.5c-0.7-0.3-1-0.8-1.7-1.1c-0.6-0.2-1.3-0.4-1.8-0.5c-0.6-0.1-1.5,0.1-2.1,0.1c-0.2,0-0.5-0.8-0.5-0.8
	c-0.9-3.6,0.6-7.3,0.6-11L65,108.9z"/>
<path id="path5606" class="st36" d="M60.8,103.9c-2.9,2.4-26.2,13.9-11.8,32.3C46.1,123.1,42.2,120.9,60.8,103.9z"/>
<path id="Focinho" class="st37" d="M68.2,98.5c3.2,0,6.8,0.9,9.3,2.6c2.1,1.5,0.9,2.9-1.8,5.1c-1.7,1.4-4.9,3.1-8.8,3.4
	c-2,0.1-3.6-1.1-5-2.1c-1.4-0.9-1-0.8-2.5-2.4c-0.8-0.9-2-2.4-0.6-3.4C61.4,99.9,64.8,98.5,68.2,98.5L68.2,98.5z"/>
<linearGradient id="SVGID_1_" gradientUnits="userSpaceOnUse" x1="80.9673" y1="201.4875" x2="142.5418" y2="201.4875" gradientTransform="matrix(1 0 0 -1 0 302)">
	<stop  offset="4.880878e-02" style="stop-color:#666666"/>
	<stop  offset="0.8669" style="stop-color:#000000"/>
</linearGradient>
<path class="st38" d="M90.1,91c2.5-0.8,4.9-1.5,7.5-2.1c6.7-1.5,14-2.1,21.2-2.3c4.6-0.2,9.2-0.3,13.8,0.2c2.1,0.2,4,0.7,5.3,1.5
	c0.7,0.5,1.1,1.1,1.5,1.8c1.8,3.5,1.4,7.3,1,10.8c-0.2,1.8-0.6,3.7-2.9,5.1c-0.8,0.4-1.8,0.8-2.9,1.1c-6,2-12,3.7-18.4,5.3
	c-2.2,0.5-4.1,1.1-6.4,1.4c-1.5,0.2-3,0.3-4.5,0.4c-4.9,0.3-10.1,0.8-14.7-0.3c-0.8-0.2-1.7-0.4-2.4-0.8c-0.5-0.2-0.8-0.5-1.1-0.8
	c-5-4.4-7.7-9.7-8.1-15.1c-0.1-0.8-0.1-1.6,0.3-2.4c0.7-1.3,2.2-1.5,4-1.9C85.6,92.6,87.9,91.7,90.1,91z"/>
<linearGradient id="SVGID_2_" gradientUnits="userSpaceOnUse" x1="22.8676" y1="199.9182" x2="59.4465" y2="199.9182" gradientTransform="matrix(1 0 0 -1 0 302)">
	<stop  offset="4.880878e-02" style="stop-color:#666666"/>
	<stop  offset="0.8669" style="stop-color:#000000"/>
</linearGradient>
<path class="st39" d="M33.9,91.2c5.2-0.7,10.6-1.2,15.7-0.2c1.1,0.2,2.1,0.4,3.1,0.7c1.5,0.3,3,0.8,4.1,1.4c2,1.1,2.8,2.6,2.8,4.2
	s-0.7,3-1.4,4.5c-0.3,0.7-0.7,1.4-1,2.1c-1.4,2.9-3.1,6-7.1,7.9c-2.5,1.2-5.7,1.8-9.1,1.9c-3.3,0.1-6.5-0.2-9.6-0.8
	c-0.8-0.1-1.4-0.2-2-0.5c-0.5-0.3-0.7-0.7-1-1c-0.5-0.3-1.1-0.5-1.6-0.9c-1-0.5-1.5-1.1-2.1-1.9c-0.9-1.2-1.4-2.5-1.6-3.7
	c-0.1-0.8-0.1-1.6,0-2.5c0.3-2.5,1.3-4.9,3.1-7.3C27.6,92.8,29.7,91.7,33.9,91.2z"/>
<path class="st0" d="M135,88.2c0.2,0.2,3.7-1,3.7-1l8.1-7.1l1.5,2.3l-6.2,7.8l-2.4,7.9L135,88.2z"/>
<polyline class="st40" points="124.5,87.9 112.7,88.5 98.9,113.1 "/>
<polyline class="st40" points="56.5,92.1 47.4,90.8 30.8,112.6 "/>
<path class="st0" d="M134.6,86.8c-32.6-3.3-59.8,7.4-59.8,7.4s-5.7,2.9-12.9,0c-21-8.5-33.9-2.4-38,0.1c-0.9,0.7-1.4,1.3-1.3,2.2
	l-1.5,8.6c0,0-0.1-0.3-0.1-0.8c0,0.2,0.1,0.5,0.1,0.9c0.1,0.7,0.8,2.6,2.1,4.4c1.1,1.4,4,3.2,4.7,3.3c2.4,0.3,6.2,0.9,10.6,1.1
	c2.9,0.1,5.2,0.4,7.5,0.2c1.7-0.1,7.9-2.9,8.6-3.6l5.9-8.9c0.8-1.3,3.1-2.2,5.6-2.2h3.2c3,0,5.6,1.2,6.1,2.7c1,3.4,3.6,7.1,9.8,11.5
	c9.2,6.6,41.4-2.7,53.4-7.3C140.1,105.9,144.2,87.8,134.6,86.8z M57.2,102.6c-1,2.1-1.5,5.3-5.7,7.7c-1.3,0.8-2.4,2-5.4,2.1
	c-5.6,0.1-10.8,0.7-16.3-0.9c-3.8-1.1-4.1-4.1-4.9-6c-1.6-4.1,0.1-7.6,1.6-9.8c2-1,3.9-3.3,11.5-3.6c4.8-0.2,17.4,0.3,20.4,3.7
	C59.8,97.4,59,99.2,57.2,102.6z M130.4,107l-14.5,3.6c-0.9,0.2-13.9,2.4-14.9,2.5l-5,0.4c-5.5,0.2-10.4-2.5-12.4-4.7L79,98.6
	c0.2,0.2,0.2-4.2,4.6-5.3l15.6-3.4c14.9-2.1,30-1.9,33.7-0.9c1.4,0.3,3.1,1,3.6,2.4l0.6,5.5C137.2,101,138.2,105.4,130.4,107z"/>
<path id="path910" d="M52.1,118.4c0.2-1.8,1.6-4.2,2.9-5.5c1.4-1.4,3.2-2.5,3.8-2.3c0.6,0.2,1.7,1.9,2.1,3.2
	c0.5,1.4,0.2,3.6-0.5,4.1c-1.1,0.9-3.6,1.5-6.1,1.6l-2.5,0.1L52.1,118.4z"/>
<path id="path912" d="M75.2,118.3c-1-0.1-2.5-0.3-3.3-0.5c-1.4-0.3-1.5-0.4-1.8-1.4c-0.3-1.4-0.1-3.3,0.7-4.7c0.6-1.1,0.7-1.2,2-1.2
	c1.4,0,4.9,1.1,5.2,1.5c0,0.1,0.2,0.2,0.5,0.2c1.3,0,4.8,3.7,5,5.5l0.2,0.9h-3.2C78.6,118.5,76.3,118.4,75.2,118.3L75.2,118.3z"/>
<path id="path1180" d="M64.1,132.8c-0.8-0.5-2-2.1-2.5-3.2c-0.6-1.2-0.8-2.6-0.5-3.3c0.3-0.8,1.7-1.9,2.9-2.3
	c1.4-0.7,2.8-0.7,3.9-0.1c1,0.5,2.2,1.6,2.6,2.5c0.3,0.8,0.3,0.8,0.1,1.4c-1,2.6-3.4,5.1-5.4,5.3C64.8,133.1,64.6,133.1,64.1,132.8
	L64.1,132.8z"/>
<path id="path1182" d="M65.8,157.2c-2-0.2-5-0.9-6.9-1.4c-3-1-5.5-2.4-6.4-3.8c-0.7-1-0.8-1.9-0.7-6.3c0-4.8,0.1-4.7-1.7-6.7
	c-0.7-0.7-1.1-1.4-1.3-1.5c-0.1-0.7,1-2.6,2.3-3.8l0.6-0.5l0.3,0.5c1.1,1.4,3.6,3.3,5.2,4c0.3,0.1,1.4,0.3,2.2,0.4
	c2.4,0.2,10.9,0.5,17,0.5h5.5l0.8-0.4c0.8-0.4,2.4-1.9,2.6-2.4c0.2-0.5,2,1.6,3,3.8l0.6,1.2l-0.3,0.7c-0.5,1-1.6,2.9-3.1,5.3
	c-1.7,2.6-2.1,3.4-2.4,5.4c-0.3,1.9-0.5,2.1-1.7,3.2c-0.9,0.9-2,1.3-3.4,1.6C76.9,157.3,68,157.4,65.8,157.2L65.8,157.2z"/>
<path id="path5702" class="st41" d="M50.5,138.2c2,3.3,2.4,0.3,2.1,11.4c-0.1,3.1,6.2,6.4,8.3,6.2c0-2.7-5.6-3.1-6.5-5.2
	c-1.5-3.2,0.7-8.5-1.6-11.2C52,138.6,49.3,136.4,50.5,138.2z"/>
<path d="M155.6,36c-4.1-2.3-4.7-1.5-5-3.7c-0.5-2.5,1.6-4.4,3.6-7.7c3.7-5.9-9.9-18.4-27.4-22.8C106.5-3.3,86.1,3.7,80.2,6
	c-18.6,7-23.5,23.2-29.5,24.5c-0.6-0.1-1.1-0.1-1.8-0.1c-3.2-1.1-11.2-12.5-10.8-9.7c0.1,0.9,0.2,1.6,0.2,2.5c-0.6-1.1-1-2.4-1.5-4
	c-0.9-2.9-1.5,6,0.1,13.4c-0.1,0.3-0.2,0.7-0.3,1c-1.7-1.8-3.4-4.4-4.8-8.8c-0.7-2.1-1.1,1.5-0.9,6.5c-0.9-0.7-1.8-1.3-2.5-2
	c-0.7-0.8,0.3,1.3,2.6,4.4c0.1,0.8,0.1,1.6,0.2,2.4c-2.4-0.1-5-0.4-7.7-1.3c-1.5-0.5,2.8,2.2,8.4,5.1c0.1,0.5,0.2,1,0.3,1.4l0,0
	c-2.8,0.3-6.5-0.4-11.7-3.6c-2.4-1.4,1.6,3.8,7,8.5c-0.9,0.8-2,1.4-2.9,2c-3-0.3-5.9-1.1-8-2.5c-1-0.7,0.7,1.6,3.9,4.2
	c-0.5,0.1-0.9,0.2-1.4,0.2c-1,0.1-2.8,0.5-2.8,1.2c-0.1,1.2,5.9,2.4,8.3,2.9c26.4,5.4,31.1,0.5,36.5-0.5C78.9,50,72.6,31,88.7,26.7
	c1.4-0.3,2,2,5,2.5c3.6,0.7,12.7,1.8,15.5,1.8c11.4,0,30.4-2.1,42.8,9.9c9.6,9.3,12.7,28.3,14.3,28.3
	C168.5,68.8,167.1,42.3,155.6,36z"/>
<path id="Orelha2" class="st11" d="M149.2,47.3c0.1,1.8,12.4-0.3,15.8,31.9c0.2,2.2,3,6.5,3,6.5s12.7-10.4,17.1-16.4
	c3.6-4.9,6.1-9.8,8.7-15.3c4.7-9.9-3.9-15-10.1-18.8c-28.1-17.7-46-0.2-46-0.2"/>
<path id="path1153-6" class="st42" d="M140.4,37.4c22.8-15.5,43.5-0.3,54.2,7.4c-1.7-4.6-6.8-7.7-10.9-10.2
	c-28.1-17.6-46-0.2-46-0.2"/>
<path id="path5559" class="st43" d="M155.3,48.6c-3.7-5.9,8.7-8.8,9.4-8.8c0.6,0,8-1.5,5.6,6.6c-2.5,8.1,0,10.9,2.1,10.1
	c2.1-0.8,9.8-4.1,6.1,3.3c-3.7,7.4-4.7,7.1-4.4,10.6c0.3,3.4,1.3,6.7,1.3,6.7l0.6,0.3l-4.5,3.1c0,0-7.8-22.8-9.6-24.2
	C160.2,54.8,157.1,51.4,155.3,48.6L155.3,48.6z"/>
<path id="path5549" class="st20" d="M149.4,47.8c3.6,1.4,9,6.3,12,14.2c2.1,5.2,2.1,13.5,4,18.7c2,5.2,3.6,4.9,3.6,4.9l6.8-6.5
	C166.7,71.1,164.3,47.3,149.4,47.8z"/>
</svg>
