<?xml version="1.0" encoding="utf-8"?>
<!-- Generator: Adobe Illustrator 23.0.0, SVG Export Plug-In . SVG Version: 6.00 Build 0)  -->
<svg version="1.1" id="Camada_1" xmlns="http://www.w3.org/2000/svg" xmlns:xlink="http://www.w3.org/1999/xlink" x="0px" y="0px"
	 viewBox="0 0 300 300" style="enable-background:new 0 0 300 300;" xml:space="preserve">
<style type="text/css">
	.st0{fill:#724320;}
	.st1{fill:#7F5130;}
	.st2{fill-rule:evenodd;clip-rule:evenodd;fill:#C4865E;}
	.st3{opacity:0.64;fill:#A95F3A;enable-background:new    ;}
	.st4{fill:#C4865E;}
	.st5{opacity:0.885;fill:#B76D3B;enable-background:new    ;}
	.st6{opacity:0.885;fill:#B97755;enable-background:new    ;}
	.st7{fill:#A95F3A;}
	.st8{opacity:0.885;fill:#BF7D4F;enable-background:new    ;}
	.st9{fill:#C08A63;}
	.st10{fill:#95572E;}
	.st11{opacity:0.885;fill:#A95F3A;enable-background:new    ;}
	.st12{fill:#4E2D12;stroke:#0B090C;stroke-width:0.2317;}
	.st13{fill:#981F1E;}
	.st14{opacity:0.885;fill:#4E2D14;enable-background:new    ;}
	.st15{opacity:0.885;fill:#95572E;enable-background:new    ;}
	.st16{opacity:0.885;fill:#FFFFFF;enable-background:new    ;}
	.st17{opacity:0.885;fill:#489990;enable-background:new    ;}
	.st18{fill:#FFFFFF;}
	.st19{opacity:0.885;fill:#0B090C;enable-background:new    ;}
	.st20{fill:#4E2D14;}
	.st21{opacity:0.885;fill:#291310;enable-background:new    ;}
	.st22{fill:#833E1D;}
	.st23{opacity:0.885;fill:#833E1D;enable-background:new    ;}
	.st24{opacity:0.885;fill:#833F1D;enable-background:new    ;}
	.st25{enable-background:new    ;}
	.st26{fill:none;stroke:#0B090C;stroke-width:0.1793;}
	.st27{fill:none;stroke:#0B090C;stroke-width:0.2646;}
	.st28{fill:#4E2D12;}
	.st29{opacity:0.885;fill:#B87856;enable-background:new    ;}
	.st30{fill:#CECBE2;fill-opacity:0;}
	.st31{fill:#2B1310;}
	.st32{opacity:0.885;fill:#864A2C;enable-background:new    ;}
	.st33{fill:#833F1D;}
	.st34{opacity:0.885;fill:#A06741;enable-background:new    ;}
	.st35{opacity:0.885;fill:#7D421D;enable-background:new    ;}
	.st36{fill:#A15321;}
	.st37{fill:#512F15;}
	.st38{fill:#0B090C;}
	.st39{opacity:0.885;fill:#505136;enable-background:new    ;}
	.st40{fill:#632908;}
	.st41{fill:#BF7D4F;}
</style>
<path id="orelha1" class="st0" d="M43.5,106.4c2.6,1.7,2.4-13,15-17.4c4.8-9.2,31.6-33,31.6-33S42.7,39.7,34.5,68.7
	C33,86.3,41.8,107.6,43.5,106.4z"/>
<path id="path1742_1_" class="st1" d="M86.7,57.1c-38.8-6.9-44.1,1.5-48.7,10c-3.2,6-1.2,12.3-0.5,15.9s1.3,8,3.4,6.9
	c2.1-1.1,0-19.6,11-21.6c8.1-1.5,24.3-2,24.3-2L86.7,57.1z"/>
<path id="Cabeça" class="st2" d="M184.6,108.4c2.3,8-15,26.3-21.1,33.1c-10.7,12-16.5,15-37.1,26c-14,7.6-37.7,8.2-53.3,0.1
	c-13-6.8-23.5-21.7-21.3-36.6c0.7-5.2,6-9,7.6-12.7c1.6-3.8,0.3-11.9,0.5-13.1c0.1-1.1-4.7-4.8-7.4-14.8
	c-2.9-10.2,9.7-23.2,19.7-24.9c1.3-0.1,2.6-0.6,4-0.6c-1-0.1-5.9,1-8.6,2c-2.7-5,33-25.1,55.9-28.5c15.9,0.3,20.5,5.7,36.9,16
	c8.4,5.3,19.6,28.7,21.9,45.5C182.9,103.8,182.3,100.4,184.6,108.4L184.6,108.4z"/>
<path id="path5509-1" class="st3" d="M160.6,54.3c-8.4-2.4-15-10.5-22.2-13c1.6,1.9,14.6,11.3,16,16.6L160.6,54.3z"/>
<path id="patade" class="st4" d="M103.4,207.6c0,0-2.9-1.3-4.4-1.7c-2-0.5-4.2-0.5-6.4-0.5c-2.4,0-4.9,0.5-7.3,0.8
	c-1.5,0.3-3,0.5-4.4,0.8c-1.8,0.4-3.5,0.8-5.1,1.4c-2.6,0.9-5.1,2-7.5,3.3c-1.5,0.8-2.9,1.6-4.3,2.5c-1.2,0.7-2.4,1.3-3.5,1.9
	c-1.5,0.9-2.8,1.7-4.3,2.7c-1.7,1.1-3.4,2.4-5.2,3.6c-0.9,0.6-1.8,1-2.8,1.5c-0.8,0.5-1.7,0.9-2.5,1.4c-0.8,0.2-1.4,1.1-2.2,1.1
	c-0.3,0.1-0.6,0.9-0.9,0.8c-1.1-0.7,0.2,1.1-0.8,0.1c-0.7-0.7-0.2,1.2-1.1,0.6c-0.6-0.3-1.3-0.1-2.1,0c-0.8,0-1.6,0.4-2.3,0.7
	c-0.8,0.2-2.1,1.1-2.1,1.1s-0.2,0.7-0.2,1.2c-0.1,1,6.2,3.7,0.2-1.5c0.1,2.1-3.5,1.4-3.1,3.4c0.4,2.1,0.7,4,1.4,6.1
	c0.6,1.6,1.4,3.2,2.2,4.7c0.6,1.1,2.1,3.2,2.1,3.2s3.4,0.3,5.1,0c1.5-0.3,2.8-0.8,4.3-1.2c1.4-0.3,2.7-1.1,4.1-1.3
	c1.7-0.2,3.4,0.1,5,0.4c2,0.4,4.1,1.1,6.1,1.6c2,0.4,4.1,0.8,6.2,0.9c6.9,0.6,16.7-1.2,16.7-1.2l13.6-4.7l11.6-6.9L103.4,207.6z"/>
<path id="path4996" class="st5" d="M193.9,283.1c0,0.5-1.2,1-1.6,1.6c-0.5,0.9-0.6,2-0.7,3c0,1.2,0.4,3.6,0.4,3.6
	c11.4-1.3,14.7-0.6,24.8-4.2l0.4-3.3L193.9,283.1z"/>
<path id="path5608-7" class="st6" d="M169,72c0,0,10.6,41.4-5.5,63.9s22.2-24.8,22.2-24.8l-7.1-15.8l-6.8-21.2l-2.1-2.3L169,72z"/>
<path id="path5608" class="st7" d="M171.1,74.4c0,0,10.6,41.4-5.5,63.9s22.2-24.8,22.2-24.8l-7-15.8L174,76.6l-2.1-2.3L171.1,74.4
	L171.1,74.4L171.1,74.4z"/>
<path id="path5708" class="st8" d="M103.9,208.7c0.4-0.6-4.1-6.2-22.8-1.4c-0.7,37.7-25.6,35.2-30.2,37c2,0,3.7-0.2,8.7,1.5
	c0,0,22.3,7.3,47.1-9.6C111.9,233,103.9,208.7,103.9,208.7z"/>
<path id="Corpo" class="st9" d="M72.2,170.1c66.2,19.5,109.6-44.5,114.2-60.2c0,0,5.1,18.7,23.2,39.4c0,0,10.8,13.5,29.5,35.9
	c8.5,10.4,16.8,17.3,25.5,28.6c7.9,10.2,22.6,25.3,30.9,42.9c1.1,6.9-1.5,14.9-6.5,20c-4.8,4.9-12.9,5.9-19.8,6.8
	c-40.7,5.2-70.2,11.9-122.7-9.4c-13-5-26-10.5-37.6-18.1c-8.4-5.5-16.4-12-22.7-19.7c-4.6-5.6-8.5-12-10.7-18.8
	c-1.8-5.5-2.1-17.3-2.1-17.3c-0.4-1.9,0-10.1,0.7-15C75.3,178.5,70.8,167.4,72.2,170.1L72.2,170.1z"/>
<path id="rabo" class="st10" d="M283.2,236.8c0.6,0.8,1.7,2.4,1.7,2.4s1.9-0.9,2.6-1.6c0.9-0.8,1.6-1.8,2.2-2.8c0.5-1,0.8-2.1,1-3.2
	c0.2-1.5,0.2-3.1,0-4.7c-0.3-1.4-0.7-2.7-1.5-3.9c-1.2-2-2.7-3.9-4.6-5.3c-1.9-1.5-4.3-2.5-6.8-3.1c-2.1-0.5-4.4-0.5-6.5-0.1
	s-4.1,1.1-5.9,2.2c-1.5,1-2.8,2.3-3.7,3.8c-0.6,1-1.3,2-1.5,3.2c-0.4,2.2-0.4,4.6,0.4,6.7c0.6,1.7,1.7,3.4,3.2,4.4
	c1,0.6,2.2,0.8,3.4,0.7c1.1,0,2.3-0.5,3.2-1.1c0.6-0.4,1.3-1.6,1.3-1.6s-2.6-0.5-3.4-1.5s-0.9-2.5-0.7-3.8c0.1-0.8,0.4-1.5,0.9-2.2
	c0.9-1.2,2.2-2.1,3.5-2.6c1.2-0.5,2.6-0.6,3.9-0.3c1.1,0.3,2.1,0.9,2.9,1.7c0.6,0.6,1.3,1.4,1.5,2.3c0.2,0.9,0.2,1.9-0.3,2.6
	c-0.4,0.6-2.1,0.9-2.1,0.9L283.2,236.8z"/>
<path id="path4584" class="st11" d="M72.4,171.9c3.5,10.8,1.3,13.7,1.3,19c-6,52,40.1,68.9,81.3,87.6c1.7,0.7,34.1,9.6,50.3,10
	c16.2-1.4,24.8-3.8,23.9-3.7c0,0-2.2-0.6-2.6-0.6l10.6-19.4c0,0-25.8,2-38.2-1c-36.3-9-59.5-15.6-76.2-37.9
	c-9.7-12.9-10.9-43.3-7.9-51.4C100.5,172.3,72,169.3,72.4,171.9z"/>
<path id="patadd" class="st4" d="M146,194.5c-0.3,0-5.9,6.2-7.6,10.2c-1.5,3.5-2.8,7.5-3.5,11.4c-0.5,2.7-0.6,5.5-0.6,8.2
	c0,3.3,0.4,6.7,0.9,9.9c0.4,2.9,0.9,5.7,1.7,8.6c0.9,3.1,2.2,6.1,3.4,9c1.3,3.3,2.8,6.6,4.4,9.9c1.2,2.6,3.9,7.7,3.9,7.7
	c2.3,5,3.9,8.3,3.9,13.7c0,0-0.1,2.2-0.9,2.9c-0.7,0.6-1.9,0.4-2.8,0.7c-1,0.4-2.2,0.6-2.9,1.3c-0.9,0.8-1.5,1.9-1.7,3.1
	c-0.3,1.5,0,3.2,0.5,4.6c0.4,1,1.1,2.1,2.2,2.8c3.2,0.9,6.7,1,10.1,1c3.5,0,6-0.4,10.4-1.1c1.3-0.6,2.6-0.7,3.7-2.3
	c0.3-1.2,0.5-2.4,0.5-3.5c0-1.6,0.3-3.3,0.4-4.9c0.2-2.2,0.4-4.3,0.7-6.5c0.5-3.2,0.9-6.5,1.7-9.6c0.8-3.2,2-6.2,3.2-9.3
	c1.1-2.8,2.4-5.4,3.6-8.2c0.9-2.1,1.9-4.2,2.8-6.3c1.1-2.6,2.1-5.2,2.9-7.9c1-3.3,1.6-6.6,2.3-9.9c0.4-2.2,1.1-4.4,1.1-6.7
	c0-2.1-0.1-4.3-0.9-6.3c-0.3-0.8-1.3-2.1-1.3-2.1l0.2,0.4"/>
<path id="patatd" class="st4" d="M254.8,249.3l-7.4-1.3c0,0-5.6-0.3-8.1,0.4c-6.7,2-10.2,3.8-16.9,10.3c-2.2,2.4-4.1,4.8-6.1,7.5
	c0,0-1.6,2.7-2.2,4.1c-0.6,1.4-1.3,2.7-1.5,4.1s-0.2,2.9,0.1,4.3c0.3,1.2,2,2.3,1.7,3.5c-0.1,0.5-0.3,0.7-1.2,1.2s-3,0.9-4.4,1.5
	c-1.3,0.7-2.7,1.4-3.5,2.5c-0.5,0.6-0.6,1.4-0.6,2.2c0,0.9,0.4,1.8,0.4,2.7c0,1-0.3,1.9-0.4,2.9c1.9-0.3,6.3-0.7,6.3-0.7l8.5-0.7
	l9.8-0.7l8.9-0.9l16.5-1.5l8.9-0.3l8.2-0.7c0,0,4.5-0.5,5.7-1c0.5-1,1.3-1.9,1.5-3c0.3-1.2-0.2-3.7-0.2-3.7s1.6-0.9,2.4-1.3
	c2-1,6.1-2.9,6.1-2.9"/>
<path id="path1481-7" class="st12" d="M98.6,170.3c-1.7-1-2.6-0.4-3.1,0.1c1.7,2.6,0.7,5.3,0.3,6.4c-0.1,0.4-0.7,0.4-0.7,0.4
	s1.6,0.5,3.3-0.1C98.7,176.4,100.1,173.5,98.6,170.3L98.6,170.3z"/>
<path id="path4976" class="st13" d="M73.3,166.2c2.9,0.6,5.4,1.3,8.1,1.8c3.9,0.7,7.8,1.5,11.8,1.9c2.8,0.3,5.6,0.4,8.3,0.3
	c3.9-0.2,7.9-0.7,11.7-1.7c5.8-1.5,11.4-3.7,16.8-6.3c4.7-2.3,9.2-5.2,13.5-8.1c4-2.8,7.8-5.7,11.4-8.9c2.6-2.2,5-4.7,7.3-7.1
	c2.4-2.5,4.7-5.1,7-7.8c2.1-2.4,4.1-4.9,6.1-7.4c2.6-3.4,5.8-6.7,7.7-10.5c0.6-1.2,1-2.6,1.1-3.9c0-0.8-0.1-1.6-0.3-2.4
	c0-0.6-0.1-1.7-0.1-1.7s1.3,1,1.7,1.8c0.4,0.6,0.5,1.4,0.7,2.1c0.3,0.9,0.7,1.8,1,2.6c0.3,0.9,0.7,1.7,1,2.6
	c0.3,0.8,0.6,2.5,0.6,2.5s-1,1.4-1.6,2.2c-1.5,2.1-2.8,4.3-4.3,6.3c-1.8,2.5-3.8,4.8-5.8,7.2c-2.5,2.9-5.2,5.7-7.9,8.4
	c-2.6,2.8-5.3,5.5-8.1,8c-3.7,3.3-7.5,6.5-11.5,9.5c-3.4,2.5-6.8,4.8-10.3,7c-3.8,2.3-7.7,4.5-11.9,6.2c-3.7,1.5-7.5,2.8-11.4,3.6
	c-4.7,1-9.6,1.4-14.4,1.5c-3.2,0.1-6.3,0-9.5-0.4c-4.9-0.5-9.8-1.3-14.7-2.3c-1.8-0.4-5.3-1.3-5.3-1.3c0.5,0.2-1.2-1.2-1.5-2.3
	c-0.2-1-1.3-1.6-1.8-3.1c-0.3-0.9-0.3-1.6-0.3-1.6C70.7,165.4,71.1,165.8,73.3,166.2L73.3,166.2z"/>
<path id="path5509" class="st11" d="M160.4,54c-4.7-2.9-17.1-10.7-19.8-11.8c1.6,1.9,16.4,10.6,14.9,15.6L160.4,54z"/>
<path id="Orelha2" class="st10" d="M164.3,69.8c0.1,1.6,10.8-0.3,13.8,29c0.2,2,2.6,5.9,2.6,5.9s11.1-9.5,14.9-14.9
	c3.1-4.5,5.3-8.9,7.6-13.9c4.1-9-3.4-13.6-8.8-17.1c-24.5-16.1-40.1-0.2-40.1-0.2"/>
<path id="path1153-6" class="st14" d="M156.7,60.8c19.9-14.1,37.9-0.3,47.2,6.7c-1.5-4.2-5.9-7-9.5-9.3c-24.5-16-40.1-0.2-40.1-0.2"
	/>
<path id="rect4692" class="st15" d="M74,91.8c2.1-0.2,6.5-1.7,8.4-1.2c1.1,2.3,0.7,4.8,1.7,8.3c5,8.7,4.2,14.9,4.1,20.7
	c-0.1,4.9-5.7,2.8-6.3,6.9c-0.4,2.2-9.3,0.7-14.9-2.8c-1.8-1.1-4.1-4.2-5.3-7.9c-1.1-3.5-0.5-8,0.3-11.2
	C63.5,99.1,68.1,92.4,74,91.8L74,91.8z"/>
<path id="rect4692-4" class="st15" d="M133.8,87.1c5.1,1.1,10,3.8,13.9,6.9c5.3,4.1,8.6,6.7,12.2,12.5c4.5,7.3-6.9,11.4-10.8,13.7
	c-6,3.5-16.2,6.3-24.5,6.1c0,0-11,0.9-20.1-6.1c-3.4-2.6,7.8-15.6,10.3-18.2c1.7-1.9,5.7-8.4,11.6-12c-1.9-1.2-2.5-1.6-6.4-2
	C122.7,85.7,132.8,86.9,133.8,87.1L133.8,87.1z"/>
<path id="olho2" class="st16" d="M132.6,91.9c4-0.5,7.9,2.6,10.9,4.9c4.1,3.2,6.6,5.1,9.4,9.6c3.4,5.6-5.3,8.7-8.3,10.5
	c-4.6,2.8-12.5,4.8-18.8,4.7c0,0-8.5,0.7-15.5-4.7c-2.6-2,5.9-11.9,7.9-14C120,101.2,126.6,92.6,132.6,91.9L132.6,91.9z"/>
<path id="rect4692-4-0-9" class="st17" d="M138.5,120.8c-10-5.4-3.9-20.8,5.7-24.3c2.5,2,13.2,11.9,10.9,14.8
	C148.9,119.3,138.5,120.8,138.5,120.8L138.5,120.8z"/>
<ellipse id="path5589-4" transform="matrix(0.1417 -0.9899 0.9899 0.1417 4.9849 231.7585)" class="st18" cx="136.1" cy="113" rx="1.8" ry="1.7"/>
<path id="rect4692-4-0-9-0" class="st19" d="M142.6,119.9c-0.9,0.4-2.5,0.7-2.2,0.6c-2.8-1.6-4.7-5-5-6.5c2.3,1.6,2.5-3.5-0.3-2
	c0.2-4.6,4.3-12.3,10.3-14.5c2.4,2.1,12.3,10.7,9.8,14.2C150.8,117.5,144.3,119.4,142.6,119.9L142.6,119.9z"/>
<path id="rect4692-4-0-8" class="st20" d="M132.8,91.9c3.3-0.4,6.3,1.2,9.3,3.5c4.1,3.2,6.9,4.9,9.9,9.2c-14.9,8.9-26.7,9.1-40.8,7
	c2.4-3.8,6-7.7,6.9-8.8C119.4,101.5,126.8,92.7,132.8,91.9L132.8,91.9z"/>
<path id="olho1" class="st16" d="M73.9,96c3.4-0.4,6.5,2.8,8.2,5.8c4.1,7.1,3.4,12.2,3.4,16.9c-0.1,4,0.5,4-0.9,5.1
	c-4.4,3.3-14.2,0.7-16.4-1.8c-1.1-1.2-3.4-3.5-4.3-6.4s-0.4-6.6,0.3-9.1C65.4,102,69.1,96.5,73.9,96z"/>
<path id="rect4692-9-5" class="st17" d="M82.7,106.1c1.7,2.2,3.6,5.6,3.5,8.7c-0.1,3.1-2.9,5.4-3.8,6.9c-0.7,1.1-2.4,2.9-4,4.5
	C69.6,126.5,63.1,111.5,82.7,106.1z"/>
<ellipse id="path5589" transform="matrix(0.9983 -5.840921e-02 5.840921e-02 0.9983 -7.021 4.5705)" class="st18" cx="74.7" cy="122.4" rx="2" ry="1.5"/>
<path id="rect4692-9-5-9" class="st19" d="M74.9,123.7c3.1-1.6-0.1-3-1.4-1.9c-2.9-4.8-1.1-12.2,10.3-14.1c1.4,2.1,2.6,5.1,2.6,7.6
	c-0.1,3.1-2.9,6.5-4.2,7.7c-1.1,1.2-1.4,1.3-2.9,2.6C77.2,125,76.7,124.9,74.9,123.7z"/>
<path id="palpebra" class="st20" d="M73.7,95.9c3.5-0.4,6.8,2.8,8.7,5.8c2.1,3.4,3.1,8.3,3.5,11c-8.6,2.1-12.6,2.9-23.2,0.7
	c-0.3-2.4,0.1-5.1,0.7-7C64.7,101.9,68.6,96.5,73.7,95.9z"/>
<path id="path4951" class="st19" d="M89.1,139.4L89.1,139.4L89.1,139.4z"/>
<path id="path904" class="st21" d="M89,145.7c-1.6-1.7-2.4-3.6-1.9-4.8c0.6-1.5,3.2-2.9,4.8-2.6c1.2,0.1,2.8,1.3,3.4,2.4
	c0.4,0.9,0.4,0.9-0.1,2c-1,2.2-3.1,3.9-4.6,3.9C90.1,146.7,89.6,146.4,89,145.7L89,145.7z"/>
<path id="ruga_2_" class="st22" d="M90.7,100.2c0,0-1.8,0.9-1.8,0.2c0.2-2.2,3.6-5.8-2.1-11.5c-1.9-1.9,1.8-0.1,1-0.9
	C90.9,89.7,91.9,96.9,90.7,100.2z"/>
<path id="ruga_3_" class="st22" d="M104,97.4c0,0,1.8,0.9,1.8,0.2c-0.2-2.2-3.6-5.8,2.1-11.5c1.9-1.9-1.8-0.1-1-0.9
	C103.8,87,102.8,94.1,104,97.4z"/>
<path id="ruga" class="st23" d="M90.1,79.1c0,0-1.1-2.5-0.4-2.3c2.5,0.8,5.7,6.3,13.6-0.1c2.7-2.2-0.3,2.5,0.7,1.6
	C98,83.5,93.6,81.6,90.1,79.1z"/>
<path id="ruga_4_" class="st22" d="M98.5,71.6c0,0,0.8-3.4,7.3-8.8c0.5,0.8-8.1,10-3.7,8.9c2.3-0.5,1.6,1.3,1.2,0.7
	C99.1,73.1,98.2,71.9,98.5,71.6z"/>
<path id="path5561" class="st24" d="M121.4,71.8c3.2-3,6.1-4.6,12.9-3.9c6.1,0.6,5.9,0.4,13.9,6c8.2,5.7,11.5,13.7,12.2,15.3
	c0,1,0.7,7.1-1.6,0.9c-2.4-6.2-3.8-2.1-5.6-4.7s-6-9.7-7.5-10.9c-1.5-1.2-4.7-2.5-7.7-3.2c-2.9-0.7-7.1-0.6-9.1-0.4
	c-2.5,0.4-6.3,3.2-8.2,3C119.9,74,120.8,72.4,121.4,71.8L121.4,71.8z"/>
<path id="path5563-2-3-1" class="st22" d="M57.8,91c0,0,1,3.2,1.7,2.3c2.3-3.1,2.6-11.6,15.3-12.6c4.3-0.3-1.8-2.2-0.1-2.2
	C69.3,77.2,60.1,85.3,57.8,91L57.8,91z"/>
<path id="path1174" class="st15" d="M119.9,126.2c-4.9-0.6-9.6-2.2-13.2-4.6c-1.7-1.1-2.3-1.6-2.5-2.1c-0.3-1,0.2-2.9,1.3-5
	c1.6-2.9,5.1-7.6,8.6-11.5c0.8-0.9,2.1-2.4,2.8-3.3c3-3.9,5.6-6.7,8-8.5c0.7-0.5,1.4-1,1.5-1s0.1-0.1,0.1-0.1c0-0.1-1.8-1.1-2.4-1.3
	c-0.7-0.3-2.9-0.7-3.4-0.7c-1,0,0.3-0.7,2.1-1c1.1-0.2,1.6-0.3,4.6-0.3c4,0,6,0.2,8.2,0.9c4.5,1.4,8.4,3.5,13.6,7.6
	c5.1,3.9,7.8,6.7,10.2,10.5c1.2,1.9,1.5,2.5,1.5,4.1c0,1.3,0,1.4-0.5,2.3c-1.1,2.2-3.3,3.9-7.8,6.3c-1,0.5-2.5,1.4-3.5,1.9
	c-5.3,2.9-11.5,4.8-18.6,5.7C128.3,126.3,121.8,126.4,119.9,126.2L119.9,126.2z M130.6,121.6c4.6-0.6,9.1-1.9,12.5-3.6
	c2.8-1.4,6-3.1,7.2-3.9c1.4-1,2.5-2,3.1-3.1c0.4-0.7,0.4-0.9,0.4-2s0-1.3-0.4-2c-1-1.9-2.9-4.4-5.1-6.4c-1.6-1.5-2.1-1.9-5.1-4.2
	c-2.9-2.2-3.8-2.9-5.3-3.5c-3.4-1.6-6.3-1.3-10,1c-3.6,2.3-8.1,6.7-13.1,13.1c-2.3,2.9-4,5.7-4.6,7.6c-0.2,0.7-0.1,1.8,0.1,2.3
	c0.5,0.9,3.8,2.8,6.3,3.6c1.5,0.5,3.8,1,5.7,1.2C124.1,121.9,128.4,121.8,130.6,121.6L130.6,121.6z"/>
<path id="path1499-0" class="st12" d="M96,177.4c0.3,0,0.9,0,0.9,0s0.5,1.1,0.5,1.9c0,0.5-0.6,1.7-0.6,1.7s-0.5-0.1-0.6-0.3
	c0.2-0.9,0.5-1.3,0.4-1.9C96.5,178.3,96.4,178,96,177.4L96,177.4z"/>
<g class="st25">
	<path class="st26" d="M85.2,190.5c0.2,2.2-0.1,4.2-0.8,5.7c-0.7,1.6-1.7,2.5-3,2.9l0.2,3.6l-3.7,0.9l-0.9-8.8
		c-0.2-2.3-0.6-5.4-1-9.3c0.7-0.4,1.7-0.8,3-1.2c1.6-0.4,3-0.2,4.1,0.7C84.2,186.1,84.9,188,85.2,190.5z M82.6,193.2
		c-0.1-1.2-0.6-1.8-1.4-1.5c-0.1,0-0.2,0.1-0.3,0.1l0.3,4.2C82.2,195.6,82.7,194.7,82.6,193.2z"/>
</g>
<g class="st25">
	<path class="st27" d="M90.3,189l0.3,4.8c0.1,1.4,0.2,3.5,0.4,6.3c-0.7,0.6-1.4,1-2.1,1.2c-0.9,0.2-1.6,0.1-2.2-0.4
		c-0.4-0.4-0.8-1.2-1-2.3c-0.1-0.6-0.3-1.9-0.6-3.6c-0.2-1.6-0.4-3.1-0.5-4.5l2.7-0.7c0,0.7,0.1,1.7,0.2,3.2c0.1,0.8,0.1,2,0.3,3.5
		c0.1,1.2,0.2,1.9,0.3,2.3c0.1,0.4,0.4,0.6,0.7,0.4c0.1,0,0.2-0.1,0.3-0.2c-0.1-1-0.2-2.6-0.4-4.8c-0.1-1.1-0.3-2.6-0.5-4.6
		L90.3,189z"/>
</g>
<g class="st25">
	<path class="st27" d="M95,194.7c0,0.4,0,1.2,0.1,2.4c0,0.7,0.1,1.5,0.1,2.5c-0.4,0.3-0.9,0.5-1.6,0.7c-1,0.3-1.9,0.1-2.7-0.6
		c-0.9-0.8-1.4-2.2-1.5-4.2c-0.1-1.9,0.1-3.5,0.7-4.8c0.6-1.2,1.4-1.9,2.4-2.2c0.4-0.1,0.8-0.1,1.3-0.1l0.6,4.6
		c-0.2-0.1-0.4-0.1-0.8,0s-0.8,0.4-1.1,1c-0.3,0.6-0.5,1.3-0.4,2.2c0.1,0.8,0.3,1.3,0.6,1.7c0.3,0.3,0.6,0.4,1,0.3l-0.2-1.5
		c0-0.3-0.1-0.8-0.2-1.5L95,194.7z"/>
</g>
<g class="st25">
	<path class="st27" d="M101.8,184.6c0.1,1.4,0,2.7-0.3,3.8c-0.3,1-0.6,1.7-1,2.2c0.3,0.1,0.6,0.5,0.9,1c0.2,0.5,0.4,1,0.4,1.7
		c0.1,1.5-0.3,2.8-1.1,3.7c-0.7,0.7-1.6,1.3-2.7,1.6c-1,0.3-2.1,0.4-3.2,0.4c-0.2-1.8-0.5-4.8-0.9-9c-0.3-2.2-0.6-5.3-1-9.2
		c0.8-0.5,1.9-0.9,3.2-1.3C99.5,178.6,101.5,180.3,101.8,184.6z M99.3,187.5c0-0.6-0.2-1-0.5-1.3c-0.3-0.2-0.6-0.3-1-0.1l0.2,3.6
		C99,189.5,99.4,188.8,99.3,187.5z M99.6,193.2c-0.1-0.9-0.5-1.3-1.2-1.1c-0.1,0-0.1,0-0.2,0.1l0.2,2.9
		C99.2,195,99.6,194.4,99.6,193.2z"/>
</g>
<g class="st25">
	<path class="st27" d="M105.8,190.6c0.1,1.8,0,3.3-0.4,4.6c-0.4,1.4-1,2.2-1.9,2.4s-1.6-0.2-2.2-1.4c-0.6-1.1-1-2.5-1.1-4.2
		c-0.1-1.9,0-3.4,0.4-4.6c0.4-1.1,1-1.8,1.9-2c0.8-0.2,1.5,0.1,2.1,1C105.2,187.3,105.6,188.7,105.8,190.6z M103.9,192.4
		c-0.1-1.4-0.4-2-0.9-1.9s-0.7,0.9-0.6,2.3c0,0.6,0.1,1,0.3,1.5c0.2,0.5,0.4,0.7,0.6,0.7s0.4-0.4,0.5-1
		C103.9,193.5,103.9,192.9,103.9,192.4z"/>
</g>
<g class="st25">
	<path class="st27" d="M108.9,188.7c-0.2,0-0.4,0-0.5,0s-0.3,0.1-0.3,0.3c-0.1,0.2-0.1,0.5-0.1,0.8c0,0.2,0.2,0.7,0.5,1.3
		s0.4,1.2,0.5,1.8c0.1,0.8,0,1.6-0.4,2.2c-0.3,0.6-0.7,1-1.2,1.1c-0.4,0.1-0.8,0.1-1,0.1c0-0.2-0.1-0.6-0.2-1.1
		c-0.1-0.3-0.1-0.6-0.3-1.1c0.3,0,0.5,0.1,0.6,0c0.4-0.1,0.6-0.4,0.6-1c0-0.4-0.1-0.7-0.3-1c-0.3-0.4-0.6-0.7-0.9-1.1
		c-0.6-0.7-0.9-1.6-1-2.8s0.1-2.2,0.5-2.9c0.4-0.6,0.9-1.1,1.7-1.3c0.4-0.1,0.9-0.1,1.4,0L108.9,188.7z"/>
</g>
<g id="opug">
	<g class="st25">
		<path class="st28" d="M85.2,190.5c0.2,2.2-0.1,4.2-0.8,5.7c-0.7,1.6-1.7,2.5-3,2.9l0.2,3.6l-3.7,0.9l-0.9-8.8
			c-0.2-2.3-0.6-5.4-1-9.3c0.7-0.4,1.7-0.8,3-1.2c1.6-0.4,3-0.2,4.1,0.7C84.2,186.1,84.9,188,85.2,190.5z M82.6,193.2
			c-0.1-1.2-0.6-1.8-1.4-1.5c-0.1,0-0.2,0.1-0.3,0.1l0.3,4.2C82.2,195.6,82.7,194.7,82.6,193.2z"/>
	</g>
	<g class="st25">
		<path class="st28" d="M90.3,189l0.3,4.8c0.1,1.4,0.2,3.5,0.4,6.3c-0.7,0.6-1.4,1-2.1,1.2c-0.9,0.2-1.6,0.1-2.2-0.4
			c-0.4-0.4-0.8-1.2-1-2.3c-0.1-0.6-0.3-1.9-0.6-3.6c-0.2-1.6-0.4-3.1-0.5-4.5l2.7-0.7c0,0.7,0.1,1.7,0.2,3.2c0.1,0.8,0.1,2,0.3,3.5
			c0.1,1.2,0.2,1.9,0.3,2.3c0.1,0.4,0.4,0.6,0.7,0.4c0.1,0,0.2-0.1,0.3-0.2c-0.1-1-0.2-2.6-0.4-4.8c-0.1-1.1-0.3-2.6-0.5-4.6
			L90.3,189z"/>
	</g>
	<g class="st25">
		<path class="st28" d="M95,194.7c0,0.4,0,1.2,0.1,2.4c0,0.7,0.1,1.5,0.1,2.5c-0.4,0.3-0.9,0.5-1.6,0.7c-1,0.3-1.9,0.1-2.7-0.6
			c-0.9-0.8-1.4-2.2-1.5-4.2c-0.1-1.9,0.1-3.5,0.7-4.8c0.6-1.2,1.4-1.9,2.4-2.2c0.4-0.1,0.8-0.1,1.3-0.1l0.6,4.6
			c-0.2-0.1-0.4-0.1-0.8,0s-0.8,0.4-1.1,1c-0.3,0.6-0.5,1.3-0.4,2.2c0.1,0.8,0.3,1.3,0.6,1.7c0.3,0.3,0.6,0.4,1,0.3l-0.2-1.5
			c0-0.3-0.1-0.8-0.2-1.5L95,194.7z"/>
	</g>
	<g class="st25">
		<path class="st28" d="M101.8,184.6c0.1,1.4,0,2.7-0.3,3.8c-0.3,1-0.6,1.7-1,2.2c0.3,0.1,0.6,0.5,0.9,1c0.2,0.5,0.4,1,0.4,1.7
			c0.1,1.5-0.3,2.8-1.1,3.7c-0.7,0.7-1.6,1.3-2.7,1.6c-1,0.3-2.1,0.4-3.2,0.4c-0.2-1.8-0.5-4.8-0.9-9c-0.3-2.2-0.6-5.3-1-9.2
			c0.8-0.5,1.9-0.9,3.2-1.3C99.5,178.6,101.5,180.3,101.8,184.6z M99.3,187.5c0-0.6-0.2-1-0.5-1.3c-0.3-0.2-0.6-0.3-1-0.1l0.2,3.6
			C99,189.5,99.4,188.8,99.3,187.5z M99.6,193.2c-0.1-0.9-0.5-1.3-1.2-1.1c-0.1,0-0.1,0-0.2,0.1l0.2,2.9
			C99.2,195,99.6,194.4,99.6,193.2z"/>
	</g>
	<g class="st25">
		<path class="st28" d="M105.8,190.6c0.1,1.8,0,3.3-0.4,4.6c-0.4,1.4-1,2.2-1.9,2.4s-1.6-0.2-2.2-1.4c-0.6-1.1-1-2.5-1.1-4.2
			c-0.1-1.9,0-3.4,0.4-4.6c0.4-1.1,1-1.8,1.9-2c0.8-0.2,1.5,0.1,2.1,1C105.2,187.3,105.6,188.7,105.8,190.6z M103.9,192.4
			c-0.1-1.4-0.4-2-0.9-1.9s-0.7,0.9-0.6,2.3c0,0.6,0.1,1,0.3,1.5c0.2,0.5,0.4,0.7,0.6,0.7s0.4-0.4,0.5-1
			C103.9,193.5,103.9,192.9,103.9,192.4z"/>
	</g>
	<g class="st25">
		<path class="st28" d="M108.9,188.7c-0.2,0-0.4,0-0.5,0s-0.3,0.1-0.3,0.3c-0.1,0.2-0.1,0.5-0.1,0.8c0,0.2,0.2,0.7,0.5,1.3
			s0.4,1.2,0.5,1.8c0.1,0.8,0,1.6-0.4,2.2c-0.3,0.6-0.7,1-1.2,1.1c-0.4,0.1-0.8,0.1-1,0.1c0-0.2-0.1-0.6-0.2-1.1
			c-0.1-0.3-0.1-0.6-0.3-1.1c0.3,0,0.5,0.1,0.6,0c0.4-0.1,0.6-0.4,0.6-1c0-0.4-0.1-0.7-0.3-1c-0.3-0.4-0.6-0.7-0.9-1.1
			c-0.6-0.7-0.9-1.6-1-2.8s0.1-2.2,0.5-2.9c0.4-0.6,0.9-1.1,1.7-1.3c0.4-0.1,0.9-0.1,1.4,0L108.9,188.7z"/>
	</g>
	<g class="st25">
		<path class="st28" d="M112.4,187.2c-0.2,0-0.4,0-0.5,0s-0.3,0.1-0.3,0.3c-0.1,0.2-0.1,0.5-0.1,0.8c0,0.2,0.2,0.7,0.5,1.3
			s0.4,1.2,0.5,1.8c0.1,0.8,0,1.6-0.4,2.2c-0.3,0.6-0.7,1-1.2,1.1c-0.4,0.1-0.8,0.1-1,0.1c0-0.2-0.1-0.6-0.2-1.1
			c-0.1-0.3-0.1-0.6-0.3-1.1c0.3,0,0.5,0.1,0.6,0c0.4-0.1,0.6-0.4,0.6-1c0-0.4-0.1-0.7-0.3-1c-0.3-0.4-0.6-0.7-0.9-1.1
			c-0.6-0.7-0.9-1.6-1-2.8s0.1-2.2,0.5-2.9c0.4-0.6,0.9-1.1,1.7-1.3c0.4-0.1,0.9-0.1,1.4,0L112.4,187.2z"/>
	</g>
</g>
<g class="st25">
	<path class="st27" d="M112.4,187.2c-0.2,0-0.4,0-0.5,0s-0.3,0.1-0.3,0.3c-0.1,0.2-0.1,0.5-0.1,0.8c0,0.2,0.2,0.7,0.5,1.3
		s0.4,1.2,0.5,1.8c0.1,0.8,0,1.6-0.4,2.2c-0.3,0.6-0.7,1-1.2,1.1c-0.4,0.1-0.8,0.1-1,0.1c0-0.2-0.1-0.6-0.2-1.1
		c-0.1-0.3-0.1-0.6-0.3-1.1c0.3,0,0.5,0.1,0.6,0c0.4-0.1,0.6-0.4,0.6-1c0-0.4-0.1-0.7-0.3-1c-0.3-0.4-0.6-0.7-0.9-1.1
		c-0.6-0.7-0.9-1.6-1-2.8s0.1-2.2,0.5-2.9c0.4-0.6,0.9-1.1,1.7-1.3c0.4-0.1,0.9-0.1,1.4,0L112.4,187.2z"/>
</g>
<path id="path1481" class="st12" d="M94.8,170.3c1.7-1,3.2-0.6,3.7,0c-1.7,2.6-1.3,5.4-0.9,6.6c0.1,0.4,0.7,0.4,0.7,0.4
	s-1.6,0.5-3.3-0.1C94.7,176.3,93.3,173.5,94.8,170.3L94.8,170.3z"/>
<path id="path1499" class="st12" d="M96.4,177c-0.1-0.7-0.9-0.1-0.9,0c0,0-0.5,1.1-0.5,1.9c0,0.5,0.6,1.7,0.6,1.7s0.6,0.5,0.6-0.3
	c-0.2-0.9-0.5-1.3-0.4-1.9C95.8,177.9,96,177.6,96.4,177L96.4,177z"/>
<path id="path4473" class="st29" d="M163.1,146c12.3-12.8,16-15.1,16-15.1l28.2,17.8l45.4,51.9c0,0-13.8-10.8-13.4-8.4
	c0.5,2.3,0.1,0.6-3.2,9.5c-1.2-9.5-14.8-26.2-14.8-26.2s-4.5,9.6-9.5,9.9c-1.2-5.8-8.2-19-8.2-19l-6,6.7c0,0-7.3-16.4-15.3-19.3
	c0.5,4.8-1.5,12.7-1.5,12.7s-9-18.3-10.7-12.4c-1.1,3.8-3.4,7.2-9.2,12.2C165,156.3,163.2,152.9,163.1,146L163.1,146z"/>
<path id="path3778" class="st7" d="M188.6,115.8c3,8.7,9.4,19.1,16.7,28.4c4.9,6.1,7.5,9.1,10.7,13.2c2.9,3.6,18.9,24.4,40.6,47
	c0,0-27.4-29.8-25.6-21.2c0.1,0.7,2.2,6.1,2.2,6.1L222,170.8c0,0-8.6,7.1-8.8,5.5c-0.1-1.6-7.2-20.1-7.2-20.1s-4.5,9.6-5.7,9.1
	s-7.5-21.9-15.9-28.9c-3.2,6.1-6.3,18.7-6.3,18.7s-1.8-9.6-2.4-10c-1.3-0.8-5.3,1.8-7,0.4c2.1-3.3,2.5-7.9,2.5-7.9
	C174.7,133.8,175.9,132.8,188.6,115.8z"/>
<ellipse id="path4542" transform="matrix(0.9942 -0.1078 0.1078 0.9942 -12.7067 8.8559)" class="st30" cx="75.6" cy="122" rx="1.7" ry="1.2"/>
<path id="path4134" class="st31" d="M74.1,135.3c0,0,9.2-13.9,19.1-17c7.4-2.3,18.1,11.8,20.6,20.9c2.4,8.4,5.8-20.2-18.3-24.3
	C79,116.3,71.3,136,74.1,135.3z"/>
<path id="path4582" class="st32" d="M278,230.2l4.1,5.3l1.7,2.2l0.5,0.8l0.5,0.8l1.6-0.9l0.7-0.5l0.6-0.6l0.6-0.7l0.6-0.8l0.4-0.5
	l0.4-1c0,0-5.9-4.7-10.7-4.8c-0.5,0.3-1.3,0.4-1.3,0.4L278,230.2z"/>
<path id="path5559" class="st33" d="M169.7,70.9c-3.2-5.4,7.6-8,8.2-8c0.5,0,7-1.4,4.9,6c-2.2,7.4,0,9.9,1.8,9.2s8.5-3.7,5.3,3
	s-4.1,6.5-3.8,9.6s1.1,6.1,1.1,6.1l0.5,0.3l-3.9,2.8c0,0-6.8-20.7-8.4-22C173.9,76.6,171.2,73.5,169.7,70.9L169.7,70.9z"/>
<path id="path5549" class="st20" d="M164.5,70.2c3.1,1.3,7.8,5.7,10.5,12.9c1.8,4.7,1.8,12.3,3.5,17s3.1,4.5,3.1,4.5l5.9-5.9
	C179.6,91.4,177.5,69.8,164.5,70.2z"/>
<path id="path5644" class="st6" d="M74.4,59.2c-6.2,4.4-7.2,6.7-6.8,7.8c2.5-0.9,6.8-1.9,6.8-1.9C68.8,64.5,72.2,62,74.4,59.2
	L74.4,59.2z"/>
<path id="path5646" class="st34" d="M74.7,65.1c-28.6,13.7-20.6,25-14.6,39.5C38.2,79.1,68.4,64.6,74.7,65.1z"/>
<path id="path5704" class="st8" d="M255.6,249.2c-1,0-19.4-9.6-37.8,14.6c-6.4,7.8-6.3,14.6-3.9,16.9c0,0,2.5,1.8-3.8,3.5
	c-7.1,2.6-5.3,6.3-5.3,6.3c1,1.9-0.5,4.7-0.1,4.7c1.3,0.1,52.3-4.4,50.7-4.5c-0.4,0,3.5-3.1-1.3-4.5c-6.7-2-22.6-3.3-25.2-8.3
	c-2-3.8-1.6-10.9-1.3-11.4C230.7,261.9,231.3,255.1,255.6,249.2L255.6,249.2z"/>
<path id="path5706" class="st8" d="M151.6,286.3c9.9-1.9,8.4,1,11.6,1.9c0,0-17.1-53.9-0.4-80S146,194.4,146,194.4
	c-18.2,17.9-12.1,43-6,57.1C148.7,270.7,154.5,281,151.6,286.3z"/>
<path id="path1721" class="st35" d="M74.3,96.4c-4.8,5.8-8.1,11.8-8.7,17.5c0,0.2-2.1-0.3-2.1-0.3C63.3,109.7,66,98.2,74.3,96.4z"/>
<path id="path1721-2" class="st35" d="M132.5,92.5c-5.6,5.6-10.1,10.2-12.2,20.1c0,0.2-3.4-0.4-4.4-0.4
	C116.8,108.6,124.5,95.8,132.5,92.5L132.5,92.5z"/>
<path id="path1950" class="st36" d="M79.4,184.9c-0.5,0.3-2.1,0.1-2.6,0.9c-0.6,2.2,0.9,8.2,0.9,8.2s-1.1-5.6-0.1-7.9
	C77.9,185.4,79.4,185.8,79.4,184.9L79.4,184.9z"/>
<path id="path1950-8" class="st36" d="M98.1,180.7c-1.3,1-3.7,0-4.2,0.7c-0.6,2.2,0.9,8.2,0.9,8.2s-1.1-5.6-0.1-7.9
	C94.8,181.1,97.1,182.3,98.1,180.7L98.1,180.7z"/>
<path id="frontal" class="st15" d="M93.6,117.2c3.1-2,6.9,2.6,9.8,5c3.9,3.2,7.2,9,8.7,12.4c2.7,5.5,3.2,9.8,2.4,13.4
	c-0.7,3.1-2.3,5.7-4.6,7.6c-2.2,1.8-5.9,2.7-8.5,4.4c-5.4,3.7-5.4,1.9-10.3,1.9c-3,0-8.4-3.4-11-6.6c-4.4-5.2-6.2-10-6.9-14.1
	c-1.1-6.1,4.5-11.7,6.6-13.6C86.3,121.5,85.5,122.4,93.6,117.2L93.6,117.2z"/>
<path id="path4974" class="st19" d="M91.3,125.6c0,3.5-1.5,6.8-0.5,10c0,0-1.2,0-1.8,0.1c-0.5,0.1-1,0.3-1.5,0.6
	c-0.9,0.5-2.4,1.9-2.4,1.9s-0.5,0.3-0.7,0.4c-0.4,0.1-0.9,0.3-1.3,0.4c-0.5,0.1-1,0.1-1.5,0.1s-1.4-0.3-1.4-0.3l0.1-0.4l0.5-1
	c0,0-1,0.5-1.3,1c-0.1,0.3-0.2,0.6-0.2,1c0,0.3,0.1,0.7,0.2,1c0.1,0.2,0.4,0.6,0.4,0.6l-0.1-1.1l0.2-0.1l0.3,0.1c0,0,0.8,0,1.2,0
	c0.7,0,1.4,0,2.1-0.1c0.5-0.1,1.1-0.3,1.6-0.5c0.4-0.2,0.6-0.5,1-0.7c0.8-0.5,1.6-1.2,2.5-1.6c0.5-0.2,1.1-0.2,1.7-0.3
	c0.4,0,0.9-0.1,1.3-0.1c0.7,0,1.5,0.2,2.2,0.4c0.5,0.1,1.1,0.3,1.6,0.5c0.4,0.2,0.7,0.6,1.1,0.9c0.5,0.3,1.2,0.5,1.8,0.6
	c0.5,0.1,1.1,0.3,1.6,0.4c0.6,0.1,1.3,0.1,1.9,0.1c0.5,0,1.1-0.1,1.6-0.3c0.4,0,0.7-0.1,1.1-0.3c0.5-0.1,1.6-0.3,1.6-0.3
	s0.5,0.4,0.6,0.7c0.3,0.4,0.5,1.2,0.5,1.2v1c0,0,0.6-1.5,0.5-2.3c-0.1-0.6-0.4-1.1-0.8-1.6c-0.2-0.3-0.5-0.6-0.8-0.9
	c-0.3-0.2-0.8-0.5-0.8-0.5c0.4,1,0.6,1.3,0.2,1.7c0,0-1.4,0.4-2.2,0.5c-0.8,0.1-1.6,0.1-2.4,0c-0.7,0-1.5-0.1-2.2-0.4
	c-0.6-0.1-1.1-0.3-1.7-0.6s-1.1-0.7-1.7-1c-0.5-0.2-1.1-0.4-1.6-0.5s-0.9-0.3-1.4-0.3c-0.2,0-0.6,0-0.6,0c-0.8-3.3,0.5-6.6,0.5-10
	L91.3,125.6z"/>
<path id="path910" class="st19" d="M79.5,134.1c0.2-1.4,1.3-3.5,2.4-4.7c1.2-1.2,2.8-2.1,3.2-1.9c0.5,0.1,1.4,1.6,1.8,2.6
	c0.4,1.2,0.1,3-0.4,3.4c-1,0.7-3,1.3-5.1,1.4l-2.2,0.1L79.5,134.1z"/>
<path id="path912" class="st19" d="M99.1,134.1c-0.9-0.1-2.2-0.3-2.9-0.5c-1.2-0.3-1.3-0.4-1.5-1.2c-0.3-1.2,0-2.8,0.6-4
	c0.5-1,0.5-1,1.6-1s4.1,1,4.3,1.3c0,0.1,0.2,0.2,0.4,0.2c1.1,0,4,3.2,4.3,4.6l0.1,0.8h-2.7C101.9,134.3,100,134.2,99.1,134.1
	L99.1,134.1z"/>
<path id="path1180" class="st19" d="M89.8,146.2c-0.6-0.4-1.7-1.7-2.2-2.7s-0.6-2.2-0.3-2.8c0.3-0.6,1.5-1.5,2.4-2
	c1.1-0.5,2.3-0.6,3.3-0.1c0.9,0.4,1.9,1.4,2.3,2.2c0.3,0.6,0.3,0.6,0.1,1.2c-0.9,2.2-2.9,4.2-4.5,4.4
	C90.4,146.5,90.2,146.5,89.8,146.2L89.8,146.2z"/>
<path id="path5606" class="st37" d="M87.3,121.2c-2.5,2.2-22.8,12.6-10.3,29.4C74.5,138.7,71.1,136.7,87.3,121.2z"/>
<path id="Focinho" class="st38" d="M93.8,116.3c2.8,0,5.9,0.8,8.1,2.4c1.8,1.4,0.8,2.6-1.6,4.6c-1.5,1.3-4.3,2.8-7.7,3.1
	c-1.7,0.1-3.1-1-4.4-1.9c-1.2-0.8-0.9-0.7-2.2-2.2c-0.7-0.8-1.7-2.2-0.5-3.1C87.8,117.6,90.8,116.3,93.8,116.3L93.8,116.3z"/>
<path id="cavanhaque" class="st38" d="M90.5,166.2c-1.6-0.1-4.3-0.7-5.8-1.2c-2.5-0.9-4.6-2-5.4-3.2c-0.6-0.9-0.6-1.5-0.6-5.3
	c0-4,0-3.9-1.5-5.6c-0.5-0.6-1-1.2-1.1-1.3c-0.1-0.5,0.9-2.2,1.9-3.2l0.5-0.4l0.3,0.4c0.9,1.2,3,2.8,4.4,3.3
	c0.3,0.1,1.1,0.3,1.9,0.3c2.1,0.2,9.2,0.4,14.3,0.4h4.6l0.7-0.4c0.7-0.3,2.1-1.6,2.2-2c0.1-0.5,1.7,1.4,2.6,3.2l0.5,1l-0.3,0.6
	c-0.4,0.9-1.3,2.4-2.6,4.4c-1.5,2.2-1.8,2.9-2.1,4.5c-0.3,1.5-0.4,1.8-1.5,2.7c-0.8,0.7-1.7,1.1-2.9,1.4
	C99.7,166.2,92.3,166.4,90.5,166.2L90.5,166.2z"/>
<path id="path5702" class="st39" d="M77.4,150.2c1.6,2.8,2,0.3,1.7,9.5c-0.1,2.6,5.3,5.4,7,5.2c0-2.3-4.7-2.6-5.5-4.4
	c-1.2-2.7,0.6-7.1-1.3-9.4C78.7,150.6,76.5,148.7,77.4,150.2z"/>
<g>
	<path class="st4" d="M12.8,242.1c-0.5-1.1-1.2-5.3,0.4-7.8c0.5-0.8,1.5-2.2,4.8-3.1c5.6-1.5,6.8-0.9,10.7-2.2
		c3.3-1.1,3-0.9,5.9-1.7c3.6-1,5.1-0.5,9.1-0.9c7.1-0.7,7.6-1.8,10-1.8c6.7,0,7.9,18.3,5,19.8c-0.7,0.4-0.5,0-3,0.2
		c-1.4,0.1-2.5,1.1-4.8,1.5c-1.1,0.2-1.5,1.3-2.2,2.4c-0.6,0.9-0.8,3-3.3,4.7c-4.3,2.9-4.7,3-6.8,5c-3.8,3.5-3.6,6.4-6.5,7.8
		c-2.5,1.2-5.2,1.3-6.4-0.1c-0.3-0.3-1.5-1.4-1.8-3c0-0.1-0.4-1-0.4-1c-0.2-1.8,3.7-7.5,3.4-7.8c-0.5-0.6-2.4,8.2-6.9,8
		c-2.5-0.1-3.9-3.2-5-8.4C14.4,250.6,13.4,246.8,12.8,242.1z"/>
	<path class="st40" d="M18.5,239.7l1.9,1.2c0,0,0.2,0.2,0.5,0.5c0.4,0.4,0.8,0.9,1,1c0.3,0.2,1.9,1.9,1.9,1.9l1.6,0.8l3.3,1.4
		l1.1,0.1l0.3,2.3l-1,2.2l-1.6,2.3l-3.3,6.2l2.4-6.2l-1.4-1.4l-0.7-1l-0.5-0.1l-1.1,1.8l0.6-2l0-0.9l-1.1-0.1l-0.8,0l-0.2-0.3
		l-0.6,0.2l0.4-0.5l-1.1-0.5l1.9,0.6l1.9,0.2l0.8-1.1l0.4-1.7l-0.3-0.8l1.2,0.4l-0.7,1.5l-0.3,1.3l-0.2,0.8l0.5,1.4l1.7,1.7l1.8-2.6
		l0.4-1.6l-0.5-1.7l-4.5-1.4l-1.3-1.1L18.5,239.7z"/>
</g>
<polygon class="st41" points="41,255.8 46.3,252.4 49.7,246.9 57.3,244.3 60.3,244.4 71.2,246.9 80.8,240.8 53.8,241.1 52.8,235.4 
	47.7,233.8 "/>
</svg>
