<?xml version="1.0" encoding="utf-8"?>
<!-- Generator: Adobe Illustrator 23.0.0, SVG Export Plug-In . SVG Version: 6.00 Build 0)  -->
<svg version="1.1" id="Camada_1" xmlns="http://www.w3.org/2000/svg" xmlns:xlink="http://www.w3.org/1999/xlink" x="0px" y="0px"
	 viewBox="0 0 300 300" style="enable-background:new 0 0 300 300;" xml:space="preserve">
<style type="text/css">
	.st0{fill:#724320;}
	.st1{fill:#7F5130;}
	.st2{fill-rule:evenodd;clip-rule:evenodd;fill:#C4865E;}
	.st3{opacity:0.64;fill:#A95F3A;enable-background:new    ;}
	.st4{fill:#C4865E;}
	.st5{opacity:0.885;fill:#B76D3B;enable-background:new    ;}
	.st6{opacity:0.885;fill:#B97755;enable-background:new    ;}
	.st7{fill:#A95F3A;}
	.st8{opacity:0.885;fill:#BF7D4F;enable-background:new    ;}
	.st9{fill:#C08A63;}
	.st10{fill:#95572E;}
	.st11{opacity:0.885;fill:#A95F3A;enable-background:new    ;}
	.st12{fill:#4E2D12;stroke:#0B090C;stroke-width:0.2317;}
	.st13{fill:#981F1E;}
	.st14{opacity:0.885;fill:#4E2D14;enable-background:new    ;}
	.st15{opacity:0.885;fill:#95572E;enable-background:new    ;}
	.st16{opacity:0.885;fill:#FFFFFF;enable-background:new    ;}
	.st17{opacity:0.885;fill:#489990;enable-background:new    ;}
	.st18{fill:#FFFFFF;}
	.st19{opacity:0.885;fill:#0B090C;enable-background:new    ;}
	.st20{fill:#4E2D14;}
	.st21{fill:#833E1D;}
	.st22{opacity:0.885;fill:#833E1D;enable-background:new    ;}
	.st23{opacity:0.885;fill:#833F1D;enable-background:new    ;}
	.st24{enable-background:new    ;}
	.st25{fill:none;stroke:#0B090C;stroke-width:0.1793;}
	.st26{fill:none;stroke:#0B090C;stroke-width:0.2646;}
	.st27{fill:#4E2D12;}
	.st28{opacity:0.885;fill:#B87856;enable-background:new    ;}
	.st29{fill:#CECBE2;fill-opacity:0;}
	.st30{fill:#2B1310;}
	.st31{opacity:0.885;fill:#864A2C;enable-background:new    ;}
	.st32{fill:#833F1D;}
	.st33{opacity:0.885;fill:#A06741;enable-background:new    ;}
	.st34{opacity:0.885;fill:#7D421D;enable-background:new    ;}
	.st35{fill:#A15321;}
	.st36{fill:#512F15;}
	.st37{fill:#0B090C;}
	.st38{fill:#1E150E;}
	.st39{fill:#D1290D;}
	.st40{fill:#E8D91A;}
	.st41{fill:#C6130E;}
	.st42{fill:#C1B348;}
	.st43{fill:#8C0404;}
	.st44{fill:#E2DA91;}
</style>
<g id="Camada_3">
</g>
<g>
	<g>
		<path id="orelha1" class="st0" d="M44.5,105.4c2.6,1.7,2.4-13,15-17.4c4.8-9.2,31.6-33,31.6-33S43.7,38.7,35.5,67.7
			C34,85.3,42.8,106.6,44.5,105.4z"/>
		<path id="path1742_1_" class="st1" d="M87.7,56.1c-38.8-6.9-44.1,1.5-48.7,10c-3.2,6-1.2,12.3-0.5,15.9s1.3,8,3.4,6.9
			c2.1-1.1,0-19.6,11-21.6c8.1-1.5,24.3-2,24.3-2L87.7,56.1z"/>
		<path id="Cabeça" class="st2" d="M185.6,107.4c2.3,8-15,26.3-21.1,33.1c-10.7,12-16.5,15-37.1,26c-14,7.6-37.7,8.2-53.3,0.1
			c-13-6.8-23.5-21.7-21.3-36.6c0.7-5.2,6-9,7.6-12.7c1.6-3.8,0.3-11.9,0.5-13.1c0.1-1.1-4.7-4.8-7.4-14.8
			c-2.9-10.2,9.7-23.2,19.7-24.9c1.3-0.1,2.6-0.6,4-0.6c-1-0.1-5.9,1-8.6,2c-2.7-5,33-25.1,55.9-28.5c15.9,0.3,20.5,5.7,36.9,16
			c8.4,5.3,19.6,28.7,21.9,45.5C183.9,102.8,183.3,99.4,185.6,107.4L185.6,107.4z"/>
		<path id="path5509-1" class="st3" d="M161.6,53.3c-8.4-2.4-15-10.5-22.2-13c1.6,1.9,14.6,11.3,16,16.6L161.6,53.3z"/>
		<path id="patade" class="st4" d="M80.2,222.8c0,0-1.8,2.6-2.4,4c-0.8,1.9-1.2,4.1-1.6,6.2c-0.4,2.4-0.4,4.9-0.5,7.3
			c0,1.5,0,3,0,4.5c0.1,1.8,0.2,3.6,0.5,5.3c0.4,2.7,1.1,5.4,1.9,8c0.5,1.6,1.1,3.1,1.7,4.7c0.5,1.3,0.9,2.6,1.3,3.8
			c0.6,1.6,1.2,3.1,1.9,4.7c0.8,1.9,1.8,3.8,2.6,5.7c0.4,1,0.7,2,1,3c0.3,0.9,0.6,1.8,0.9,2.7c0.1,0.8,0.5,1.6,0.3,2.4
			c0,0.3-0.3,0.6-0.5,0.8c-0.9,1-2.1,1.9-3.2,2.7c-0.8,0.6-1.9,0.9-2.6,1.7c-0.4,0.5-0.6,1.2-0.7,1.9c-0.1,0.8,0.1,1.6,0.3,2.4
			c0.1,0.8,0.7,2.3,0.7,2.3s0.7,0.3,1.1,0.4c1,0.3,2.1,0.5,3.1,0.7c2.1,0.3,4.2,0.3,6.3,0.3c2.1,0,4.1,0,6.2-0.3
			c1.7-0.3,3.4-0.8,5-1.3c1.2-0.4,3.5-1.5,3.5-1.5s0.9-3.3,0.9-5c0-1.5-0.3-2.9-0.4-4.4c-0.1-1.4-0.6-2.9-0.5-4.3
			c0.1-1.7,0.7-3.3,1.3-4.8c0.7-1.9,1.8-3.8,2.6-5.7c0.7-1.9,1.5-3.9,2-5.9c0.6-2.3,1.2-7,1.2-7l-0.3-2.9l-9.4-6.7L80.2,222.8z"/>
		<path id="path4996" class="st5" d="M194.9,282.1c0,0.5-1.2,1-1.6,1.6c-0.5,0.9-0.6,2-0.7,3c0,1.2,0.4,3.6,0.4,3.6
			c11.4-1.3,14.7-0.6,24.8-4.2l0.4-3.3L194.9,282.1z"/>
		<path id="path5608-7" class="st6" d="M170,71c0,0,10.6,41.4-5.5,63.9s22.2-24.8,22.2-24.8l-7.1-15.8l-6.8-21.2l-2.1-2.3L170,71z"
			/>
		<path id="path5608" class="st7" d="M172.1,73.4c0,0,10.6,41.4-5.5,63.9s22.2-24.8,22.2-24.8l-7-15.8L175,75.6l-2.1-2.3L172.1,73.4
			L172.1,73.4L172.1,73.4z"/>
		<path id="path5708" class="st8" d="M81.4,222.5c-0.5-0.5-6.8,2.9-5.4,22.2c37,7.3,30.1,31.4,31.1,36.2c0.4-2,0.5-3.7,3-8.3
			c0,0,5.6-12,3.4-17.7C111.3,249.2,81.4,222.5,81.4,222.5z"/>
		<path id="Corpo" class="st9" d="M73.2,169.1c66.2,19.5,109.6-44.5,114.2-60.2c0,0,5.1,18.7,23.2,39.4c0,0,10.8,13.5,29.5,35.9
			c8.5,10.4,16.8,17.3,25.5,28.6c7.9,10.2,22.6,25.3,30.9,42.9c1.1,6.9-1.5,14.9-6.5,20c-4.8,4.9-12.9,5.9-19.8,6.8
			c-40.7,5.2-70.2,11.9-122.7-9.4c-13-5-26-10.5-37.6-18.1c-8.4-5.5-16.4-12-22.7-19.7c-4.6-5.6-8.5-12-10.7-18.8
			c-1.8-5.5-2.1-17.3-2.1-17.3c-0.4-1.9,0-10.1,0.7-15C76.3,177.5,71.8,166.4,73.2,169.1L73.2,169.1z"/>
		<path id="rabo" class="st10" d="M284.2,235.8c0.6,0.8,1.7,2.4,1.7,2.4s1.9-0.9,2.6-1.6c0.9-0.8,1.6-1.8,2.2-2.8
			c0.5-1,0.8-2.1,1-3.2c0.2-1.5,0.2-3.1,0-4.7c-0.3-1.4-0.7-2.7-1.5-3.9c-1.2-2-2.7-3.9-4.6-5.3c-1.9-1.5-4.3-2.5-6.8-3.1
			c-2.1-0.5-4.4-0.5-6.5-0.1s-4.1,1.1-5.9,2.2c-1.5,1-2.8,2.3-3.7,3.8c-0.6,1-1.3,2-1.5,3.2c-0.4,2.2-0.4,4.6,0.4,6.7
			c0.6,1.7,1.7,3.4,3.2,4.4c1,0.6,2.2,0.8,3.4,0.7c1.1,0,2.3-0.5,3.2-1.1c0.6-0.4,1.3-1.6,1.3-1.6s-2.6-0.5-3.4-1.5
			s-0.9-2.5-0.7-3.8c0.1-0.8,0.4-1.5,0.9-2.2c0.9-1.2,2.2-2.1,3.5-2.6c1.2-0.5,2.6-0.6,3.9-0.3c1.1,0.3,2.1,0.9,2.9,1.7
			c0.6,0.6,1.3,1.4,1.5,2.3c0.2,0.9,0.2,1.9-0.3,2.6c-0.4,0.6-2.1,0.9-2.1,0.9L284.2,235.8z"/>
		<path id="path4584" class="st11" d="M73.4,170.9c3.5,10.8,1.3,13.7,1.3,19c-6,52,40.1,68.9,81.3,87.6c1.7,0.7,34.1,9.6,50.3,10
			c16.2-1.4,24.8-3.8,23.9-3.7c0,0-2.2-0.6-2.6-0.6l10.6-19.4c0,0-25.8,2-38.2-1c-36.3-9-59.5-15.6-76.2-37.9
			c-9.7-12.9-10.9-43.3-7.9-51.4C101.5,171.3,73,168.3,73.4,170.9z"/>
		<path id="patadd" class="st4" d="M147,193.5c-0.3,0-5.9,6.2-7.6,10.2c-1.5,3.5-2.8,7.5-3.5,11.4c-0.5,2.7-0.6,5.5-0.6,8.2
			c0,3.3,0.4,6.7,0.9,9.9c0.4,2.9,0.9,5.7,1.7,8.6c0.9,3.1,2.2,6.1,3.4,9c1.3,3.3,2.8,6.6,4.4,9.9c1.2,2.6,3.9,7.7,3.9,7.7
			c2.3,5,3.9,8.3,3.9,13.7c0,0-0.1,2.2-0.9,2.9c-0.7,0.6-1.9,0.4-2.8,0.7c-1,0.4-2.2,0.6-2.9,1.3c-0.9,0.8-1.5,1.9-1.7,3.1
			c-0.3,1.5,0,3.2,0.5,4.6c0.4,1,1.1,2.1,2.2,2.8c3.2,0.9,6.7,1,10.1,1c3.5,0,6-0.4,10.4-1.1c1.3-0.6,2.6-0.7,3.7-2.3
			c0.3-1.2,0.5-2.4,0.5-3.5c0-1.6,0.3-3.3,0.4-4.9c0.2-2.2,0.4-4.3,0.7-6.5c0.5-3.2,0.9-6.5,1.7-9.6c0.8-3.2,2-6.2,3.2-9.3
			c1.1-2.8,2.4-5.4,3.6-8.2c0.9-2.1,1.9-4.2,2.8-6.3c1.1-2.6,2.1-5.2,2.9-7.9c1-3.3,1.6-6.6,2.3-9.9c0.4-2.2,1.1-4.4,1.1-6.7
			c0-2.1-0.1-4.3-0.9-6.3c-0.3-0.8-1.3-2.1-1.3-2.1l0.2,0.4"/>
		<path id="patatd" class="st4" d="M255.8,248.3l-7.4-1.3c0,0-5.6-0.3-8.1,0.4c-6.7,2-10.2,3.8-16.9,10.3c-2.2,2.4-4.1,4.8-6.1,7.5
			c0,0-1.6,2.7-2.2,4.1c-0.6,1.4-1.3,2.7-1.5,4.1s-0.2,2.9,0.1,4.3c0.3,1.2,2,2.3,1.7,3.5c-0.1,0.5-0.3,0.7-1.2,1.2s-3,0.9-4.4,1.5
			c-1.3,0.7-2.7,1.4-3.5,2.5c-0.5,0.6-0.6,1.4-0.6,2.2c0,0.9,0.4,1.8,0.4,2.7c0,1-0.3,1.9-0.4,2.9c1.9-0.3,6.3-0.7,6.3-0.7l8.5-0.7
			l9.8-0.7l8.9-0.9l16.5-1.5l8.9-0.3l8.2-0.7c0,0,4.5-0.5,5.7-1c0.5-1,1.3-1.9,1.5-3c0.3-1.2-0.2-3.7-0.2-3.7s1.6-0.9,2.4-1.3
			c2-1,6.1-2.9,6.1-2.9"/>
		<path id="path1481-7" class="st12" d="M99.6,169.3c-1.7-1-2.6-0.4-3.1,0.1c1.7,2.6,0.7,5.3,0.3,6.4c-0.1,0.4-0.7,0.4-0.7,0.4
			s1.6,0.5,3.3-0.1C99.7,175.4,101.1,172.5,99.6,169.3L99.6,169.3z"/>
		<path id="path4976" class="st13" d="M74.3,165.2c2.9,0.6,5.4,1.3,8.1,1.8c3.9,0.7,7.8,1.5,11.8,1.9c2.8,0.3,5.6,0.4,8.3,0.3
			c3.9-0.2,7.9-0.7,11.7-1.7c5.8-1.5,11.4-3.7,16.8-6.3c4.7-2.3,9.2-5.2,13.5-8.1c4-2.8,7.8-5.7,11.4-8.9c2.6-2.2,5-4.7,7.3-7.1
			c2.4-2.5,4.7-5.1,7-7.8c2.1-2.4,4.1-4.9,6.1-7.4c2.6-3.4,5.8-6.7,7.7-10.5c0.6-1.2,1-2.6,1.1-3.9c0-0.8-0.1-1.6-0.3-2.4
			c0-0.6-0.1-1.7-0.1-1.7s1.3,1,1.7,1.8c0.4,0.6,0.5,1.4,0.7,2.1c0.3,0.9,0.7,1.8,1,2.6c0.3,0.9,0.7,1.7,1,2.6
			c0.3,0.8,0.6,2.5,0.6,2.5s-1,1.4-1.6,2.2c-1.5,2.1-2.8,4.3-4.3,6.3c-1.8,2.5-3.8,4.8-5.8,7.2c-2.5,2.9-5.2,5.7-7.9,8.4
			c-2.6,2.8-5.3,5.5-8.1,8c-3.7,3.3-7.5,6.5-11.5,9.5c-3.4,2.5-6.8,4.8-10.3,7c-3.8,2.3-7.7,4.5-11.9,6.2c-3.7,1.5-7.5,2.8-11.4,3.6
			c-4.7,1-9.6,1.4-14.4,1.5c-3.2,0.1-6.3,0-9.5-0.4c-4.9-0.5-9.8-1.3-14.7-2.3c-1.8-0.4-5.3-1.3-5.3-1.3c0.5,0.2-1.2-1.2-1.5-2.3
			c-0.2-1-1.3-1.6-1.8-3.1c-0.3-0.9-0.3-1.6-0.3-1.6C71.7,164.4,72.1,164.8,74.3,165.2L74.3,165.2z"/>
		<path id="path5509" class="st11" d="M161.4,53c-4.7-2.9-17.1-10.7-19.8-11.8c1.6,1.9,16.4,10.6,14.9,15.6L161.4,53z"/>
		<path id="Orelha2" class="st10" d="M165.3,68.8c0.1,1.6,10.8-0.3,13.8,29c0.2,2,2.6,5.9,2.6,5.9s11.1-9.5,14.9-14.9
			c3.1-4.5,5.3-8.9,7.6-13.9c4.1-9-3.4-13.6-8.8-17.1c-24.5-16.1-40.1-0.2-40.1-0.2"/>
		<path id="path1153-6" class="st14" d="M157.7,59.8c19.9-14.1,37.9-0.3,47.2,6.7c-1.5-4.2-5.9-7-9.5-9.3
			c-24.5-16-40.1-0.2-40.1-0.2"/>
		<path id="rect4692" class="st15" d="M75,90.8c2.1-0.2,6.5-1.7,8.4-1.2c1.1,2.3,0.7,4.8,1.7,8.3c5,8.7,4.2,14.9,4.1,20.7
			c-0.1,4.9-5.7,2.8-6.3,6.9c-0.4,2.2-9.3,0.7-14.9-2.8c-1.8-1.1-4.1-4.2-5.3-7.9c-1.1-3.5-0.5-8,0.3-11.2
			C64.5,98.1,69.1,91.4,75,90.8L75,90.8z"/>
		<path id="rect4692-4" class="st15" d="M134.8,86.1c5.1,1.1,10,3.8,13.9,6.9c5.3,4.1,8.6,6.7,12.2,12.5c4.5,7.3-6.9,11.4-10.8,13.7
			c-6,3.5-16.2,6.3-24.5,6.1c0,0-11,0.9-20.1-6.1c-3.4-2.6,7.8-15.6,10.3-18.2c1.7-1.9,5.7-8.4,11.6-12c-1.9-1.2-2.5-1.6-6.4-2
			C123.7,84.7,133.8,85.9,134.8,86.1L134.8,86.1z"/>
		<path id="olho2" class="st16" d="M133.6,90.9c4-0.5,7.9,2.6,10.9,4.9c4.1,3.2,6.6,5.1,9.4,9.6c3.4,5.6-5.3,8.7-8.3,10.5
			c-4.6,2.8-12.5,4.8-18.8,4.7c0,0-8.5,0.7-15.5-4.7c-2.6-2,5.9-11.9,7.9-14C121,100.2,127.6,91.6,133.6,90.9L133.6,90.9z"/>
		<path id="rect4692-4-0-9" class="st17" d="M128.4,120.7c0,0-10,0.6-17-4.8c-2.6-2,5.9-11.9,7.9-14
			C128.8,103.1,136.9,114.5,128.4,120.7L128.4,120.7z"/>
		<ellipse id="path5589-4" class="st18" cx="129.4" cy="113.9" rx="1.6" ry="1.5"/>
		<path id="rect4692-4-0-9-0" class="st19" d="M124.4,120.7c-1.7-0.1-8.1-0.5-13-4.5c-2.9-2.4,5.1-11.2,7-13.3c6,0.7,11,6.3,11.9,10
			c-2.9-0.7-1.9,3.4,0,1.7c-0.1,1.3-1.3,4.4-3.7,6.2C126.8,120.8,125.3,120.9,124.4,120.7L124.4,120.7z"/>
		<path id="rect4692-4-0-8" class="st20" d="M133.6,90.9c3.3-0.4,6.2,1.2,9.2,3.5c4.1,3.2,6.8,4.9,9.8,9.2
			c-14.7,8.9-26.4,9.1-40.4,7c2.4-3.8,5.9-7.7,6.8-8.8C120.3,100.5,127.6,91.7,133.6,90.9L133.6,90.9z"/>
		<path id="olho1" class="st16" d="M74.9,95c3.4-0.4,6.5,2.8,8.2,5.8c4.1,7.1,3.4,12.2,3.4,16.9c-0.1,4,0.5,4-0.9,5.1
			c-4.4,3.3-14.2,0.7-16.4-1.8c-1.1-1.2-3.4-3.5-4.3-6.4s-0.4-6.6,0.3-9.1C66.4,101,70.1,95.5,74.9,95z"/>
		<path id="rect4692-9-5" class="st17" d="M73.4,123.9c-1.7-1.2-3.5-2.6-4.3-3.5c-1.1-1.2-3.9-2.8-4.8-5.8c-0.9-2.9-0.4-6.6,0.3-9.1
			C81.1,106.4,80.2,122.3,73.4,123.9z"/>
		<ellipse id="path5589" class="st18" cx="74.6" cy="119.4" rx="1.6" ry="1.5"/>
		<path id="rect4692-9-5-9" class="st19" d="M72.6,123.5c-1.5-0.9-1.7-1-2.9-1.9c-1.3-0.9-4.4-3.5-5.3-6.5c-0.7-2.4-0.6-5.6-0.1-7.9
			c9.2-0.6,12.6,6.2,11.7,11.4c-1.3-0.8-3.4,1.2-0.6,2.1C74.3,122.3,74,122.5,72.6,123.5z"/>
		<path id="palpebra" class="st20" d="M74.7,94.9c3.5-0.4,6.8,2.8,8.7,5.8c2.1,3.4,3.1,8.3,3.5,11c-8.6,2.1-12.6,2.9-23.2,0.7
			c-0.3-2.4,0.1-5.1,0.7-7C65.7,100.9,69.6,95.5,74.7,94.9z"/>
		<polygon id="path4951" class="st19" points="90.1,138.4 90.1,138.4 90.1,138.4 		"/>
		<path id="ruga_2_" class="st21" d="M91.7,99.2c0,0-1.8,0.9-1.8,0.2c0.2-2.2,3.6-5.8-2.1-11.5c-1.9-1.9,1.8-0.1,1-0.9
			C91.9,88.7,92.9,95.9,91.7,99.2z"/>
		<path id="ruga_3_" class="st21" d="M105,96.4c0,0,1.8,0.9,1.8,0.2c-0.2-2.2-3.6-5.8,2.1-11.5c1.9-1.9-1.8-0.1-1-0.9
			C104.8,86,103.8,93.1,105,96.4z"/>
		<path id="ruga" class="st22" d="M91.1,78.1c0,0-1.1-2.5-0.4-2.3c2.5,0.8,5.7,6.3,13.6-0.1c2.7-2.2-0.3,2.5,0.7,1.6
			C99,82.5,94.6,80.6,91.1,78.1z"/>
		<path id="ruga_4_" class="st21" d="M99.5,70.6c0,0,0.8-3.4,7.3-8.8c0.5,0.8-8.1,10-3.7,8.9c2.3-0.5,1.6,1.3,1.2,0.7
			C100.1,72.1,99.2,70.9,99.5,70.6z"/>
		<path id="path5561" class="st23" d="M122.4,70.8c3.2-3,6.1-4.6,12.9-3.9c6.1,0.6,5.9,0.4,13.9,6c8.2,5.7,11.5,13.7,12.2,15.3
			c0,1,0.7,7.1-1.6,0.9c-2.4-6.2-3.8-2.1-5.6-4.7s-6-9.7-7.5-10.9c-1.5-1.2-4.7-2.5-7.7-3.2c-2.9-0.7-7.1-0.6-9.1-0.4
			c-2.5,0.4-6.3,3.2-8.2,3C120.9,73,121.8,71.4,122.4,70.8L122.4,70.8z"/>
		<path id="path5563-2-3-1" class="st21" d="M58.8,90c0,0,1,3.2,1.7,2.3c2.3-3.1,2.6-11.6,15.3-12.6c4.3-0.3-1.8-2.2-0.1-2.2
			C70.3,76.2,61.1,84.3,58.8,90L58.8,90z"/>
		<path id="path1174" class="st15" d="M120.7,125.2c-4.9-0.6-9.6-2.2-13.2-4.6c-1.7-1.1-2.3-1.6-2.5-2.1c-0.3-1,0.2-2.9,1.3-5
			c1.6-2.9,5.1-7.6,8.6-11.5c0.8-0.9,2.1-2.4,2.8-3.3c3-3.9,5.6-6.7,8-8.5c0.7-0.5,1.4-1,1.5-1s0.1-0.1,0.1-0.1
			c0-0.1-1.8-1.1-2.4-1.3c-0.7-0.3-2.9-0.7-3.4-0.7c-1,0,0.3-0.7,2.1-1c1.1-0.2,1.6-0.3,4.6-0.3c4,0,6,0.2,8.2,0.9
			c4.5,1.4,8.4,3.5,13.6,7.6c5.1,3.9,7.8,6.7,10.2,10.5c1.2,1.9,1.5,2.5,1.5,4.1c0,1.3,0,1.4-0.5,2.3c-1.1,2.2-3.3,3.9-7.8,6.3
			c-1,0.5-2.5,1.4-3.5,1.9c-5.3,2.9-11.5,4.8-18.6,5.7C129.1,125.3,122.6,125.4,120.7,125.2L120.7,125.2z M131.4,120.6
			c4.6-0.6,9.1-1.9,12.5-3.6c2.8-1.4,6-3.1,7.2-3.9c1.4-1,2.5-2,3.1-3.1c0.4-0.7,0.4-0.9,0.4-2s0-1.3-0.4-2c-1-1.9-2.9-4.4-5.1-6.4
			c-1.6-1.5-2.1-1.9-5.1-4.2c-2.9-2.2-3.8-2.9-5.3-3.5c-3.4-1.6-6.3-1.3-10,1c-3.6,2.3-8.1,6.7-13.1,13.1c-2.3,2.9-4,5.7-4.6,7.6
			c-0.2,0.7-0.1,1.8,0.1,2.3c0.5,0.9,3.8,2.8,6.3,3.6c1.5,0.5,3.8,1,5.7,1.2C124.9,120.9,129.2,120.8,131.4,120.6L131.4,120.6z"/>
		<path id="path1499-0" class="st12" d="M97,176.4c0.3,0,0.9,0,0.9,0s0.5,1.1,0.5,1.9c0,0.5-0.6,1.7-0.6,1.7s-0.5-0.1-0.6-0.3
			c0.2-0.9,0.5-1.3,0.4-1.9C97.5,177.3,97.4,177,97,176.4L97,176.4z"/>
		<g class="st24">
			<path class="st25" d="M86.2,189.5c0.2,2.2-0.1,4.2-0.8,5.7c-0.7,1.6-1.7,2.5-3,2.9l0.2,3.6l-3.7,0.9l-0.9-8.8
				c-0.2-2.3-0.6-5.4-1-9.3c0.7-0.4,1.7-0.8,3-1.2c1.6-0.4,3-0.2,4.1,0.7C85.2,185.1,85.9,187,86.2,189.5z M83.6,192.2
				c-0.1-1.2-0.6-1.8-1.4-1.5c-0.1,0-0.2,0.1-0.3,0.1l0.3,4.2C83.2,194.6,83.7,193.7,83.6,192.2z"/>
		</g>
		<g class="st24">
			<path class="st26" d="M91.3,188l0.3,4.8c0.1,1.4,0.2,3.5,0.4,6.3c-0.7,0.6-1.4,1-2.1,1.2c-0.9,0.2-1.6,0.1-2.2-0.4
				c-0.4-0.4-0.8-1.2-1-2.3c-0.1-0.6-0.3-1.9-0.6-3.6c-0.2-1.6-0.4-3.1-0.5-4.5l2.7-0.7c0,0.7,0.1,1.7,0.2,3.2
				c0.1,0.8,0.1,2,0.3,3.5c0.1,1.2,0.2,1.9,0.3,2.3c0.1,0.4,0.4,0.6,0.7,0.4c0.1,0,0.2-0.1,0.3-0.2c-0.1-1-0.2-2.6-0.4-4.8
				c-0.1-1.1-0.3-2.6-0.5-4.6L91.3,188z"/>
		</g>
		<g class="st24">
			<path class="st26" d="M96,193.7c0,0.4,0,1.2,0.1,2.4c0,0.7,0.1,1.5,0.1,2.5c-0.4,0.3-0.9,0.5-1.6,0.7c-1,0.3-1.9,0.1-2.7-0.6
				c-0.9-0.8-1.4-2.2-1.5-4.2c-0.1-1.9,0.1-3.5,0.7-4.8c0.6-1.2,1.4-1.9,2.4-2.2c0.4-0.1,0.8-0.1,1.3-0.1l0.6,4.6
				c-0.2-0.1-0.4-0.1-0.8,0s-0.8,0.4-1.1,1c-0.3,0.6-0.5,1.3-0.4,2.2c0.1,0.8,0.3,1.3,0.6,1.7c0.3,0.3,0.6,0.4,1,0.3l-0.2-1.5
				c0-0.3-0.1-0.8-0.2-1.5L96,193.7z"/>
		</g>
		<g class="st24">
			<path class="st26" d="M102.8,183.6c0.1,1.4,0,2.7-0.3,3.8c-0.3,1-0.6,1.7-1,2.2c0.3,0.1,0.6,0.5,0.9,1c0.2,0.5,0.4,1,0.4,1.7
				c0.1,1.5-0.3,2.8-1.1,3.7c-0.7,0.7-1.6,1.3-2.7,1.6c-1,0.3-2.1,0.4-3.2,0.4c-0.2-1.8-0.5-4.8-0.9-9c-0.3-2.2-0.6-5.3-1-9.2
				c0.8-0.5,1.9-0.9,3.2-1.3C100.5,177.6,102.5,179.3,102.8,183.6z M100.3,186.5c0-0.6-0.2-1-0.5-1.3c-0.3-0.2-0.6-0.3-1-0.1
				l0.2,3.6C100,188.5,100.4,187.8,100.3,186.5z M100.6,192.2c-0.1-0.9-0.5-1.3-1.2-1.1c-0.1,0-0.1,0-0.2,0.1l0.2,2.9
				C100.2,194,100.6,193.4,100.6,192.2z"/>
		</g>
		<g class="st24">
			<path class="st26" d="M106.8,189.6c0.1,1.8,0,3.3-0.4,4.6c-0.4,1.4-1,2.2-1.9,2.4s-1.6-0.2-2.2-1.4c-0.6-1.1-1-2.5-1.1-4.2
				c-0.1-1.9,0-3.4,0.4-4.6c0.4-1.1,1-1.8,1.9-2c0.8-0.2,1.5,0.1,2.1,1C106.2,186.3,106.6,187.7,106.8,189.6z M104.9,191.4
				c-0.1-1.4-0.4-2-0.9-1.9s-0.7,0.9-0.6,2.3c0,0.6,0.1,1,0.3,1.5c0.2,0.5,0.4,0.7,0.6,0.7s0.4-0.4,0.5-1
				C104.9,192.5,104.9,191.9,104.9,191.4z"/>
		</g>
		<g class="st24">
			<path class="st26" d="M109.9,187.7c-0.2,0-0.4,0-0.5,0s-0.3,0.1-0.3,0.3c-0.1,0.2-0.1,0.5-0.1,0.8c0,0.2,0.2,0.7,0.5,1.3
				s0.4,1.2,0.5,1.8c0.1,0.8,0,1.6-0.4,2.2c-0.3,0.6-0.7,1-1.2,1.1c-0.4,0.1-0.8,0.1-1,0.1c0-0.2-0.1-0.6-0.2-1.1
				c-0.1-0.3-0.1-0.6-0.3-1.1c0.3,0,0.5,0.1,0.6,0c0.4-0.1,0.6-0.4,0.6-1c0-0.4-0.1-0.7-0.3-1c-0.3-0.4-0.6-0.7-0.9-1.1
				c-0.6-0.7-0.9-1.6-1-2.8s0.1-2.2,0.5-2.9c0.4-0.6,0.9-1.1,1.7-1.3c0.4-0.1,0.9-0.1,1.4,0L109.9,187.7z"/>
		</g>
		<g id="opug">
			<g class="st24">
				<path class="st27" d="M86.2,189.5c0.2,2.2-0.1,4.2-0.8,5.7c-0.7,1.6-1.7,2.5-3,2.9l0.2,3.6l-3.7,0.9l-0.9-8.8
					c-0.2-2.3-0.6-5.4-1-9.3c0.7-0.4,1.7-0.8,3-1.2c1.6-0.4,3-0.2,4.1,0.7C85.2,185.1,85.9,187,86.2,189.5z M83.6,192.2
					c-0.1-1.2-0.6-1.8-1.4-1.5c-0.1,0-0.2,0.1-0.3,0.1l0.3,4.2C83.2,194.6,83.7,193.7,83.6,192.2z"/>
			</g>
			<g class="st24">
				<path class="st27" d="M91.3,188l0.3,4.8c0.1,1.4,0.2,3.5,0.4,6.3c-0.7,0.6-1.4,1-2.1,1.2c-0.9,0.2-1.6,0.1-2.2-0.4
					c-0.4-0.4-0.8-1.2-1-2.3c-0.1-0.6-0.3-1.9-0.6-3.6c-0.2-1.6-0.4-3.1-0.5-4.5l2.7-0.7c0,0.7,0.1,1.7,0.2,3.2
					c0.1,0.8,0.1,2,0.3,3.5c0.1,1.2,0.2,1.9,0.3,2.3c0.1,0.4,0.4,0.6,0.7,0.4c0.1,0,0.2-0.1,0.3-0.2c-0.1-1-0.2-2.6-0.4-4.8
					c-0.1-1.1-0.3-2.6-0.5-4.6L91.3,188z"/>
			</g>
			<g class="st24">
				<path class="st27" d="M96,193.7c0,0.4,0,1.2,0.1,2.4c0,0.7,0.1,1.5,0.1,2.5c-0.4,0.3-0.9,0.5-1.6,0.7c-1,0.3-1.9,0.1-2.7-0.6
					c-0.9-0.8-1.4-2.2-1.5-4.2c-0.1-1.9,0.1-3.5,0.7-4.8c0.6-1.2,1.4-1.9,2.4-2.2c0.4-0.1,0.8-0.1,1.3-0.1l0.6,4.6
					c-0.2-0.1-0.4-0.1-0.8,0s-0.8,0.4-1.1,1c-0.3,0.6-0.5,1.3-0.4,2.2c0.1,0.8,0.3,1.3,0.6,1.7c0.3,0.3,0.6,0.4,1,0.3l-0.2-1.5
					c0-0.3-0.1-0.8-0.2-1.5L96,193.7z"/>
			</g>
			<g class="st24">
				<path class="st27" d="M102.8,183.6c0.1,1.4,0,2.7-0.3,3.8c-0.3,1-0.6,1.7-1,2.2c0.3,0.1,0.6,0.5,0.9,1c0.2,0.5,0.4,1,0.4,1.7
					c0.1,1.5-0.3,2.8-1.1,3.7c-0.7,0.7-1.6,1.3-2.7,1.6c-1,0.3-2.1,0.4-3.2,0.4c-0.2-1.8-0.5-4.8-0.9-9c-0.3-2.2-0.6-5.3-1-9.2
					c0.8-0.5,1.9-0.9,3.2-1.3C100.5,177.6,102.5,179.3,102.8,183.6z M100.3,186.5c0-0.6-0.2-1-0.5-1.3c-0.3-0.2-0.6-0.3-1-0.1
					l0.2,3.6C100,188.5,100.4,187.8,100.3,186.5z M100.6,192.2c-0.1-0.9-0.5-1.3-1.2-1.1c-0.1,0-0.1,0-0.2,0.1l0.2,2.9
					C100.2,194,100.6,193.4,100.6,192.2z"/>
			</g>
			<g class="st24">
				<path class="st27" d="M106.8,189.6c0.1,1.8,0,3.3-0.4,4.6c-0.4,1.4-1,2.2-1.9,2.4s-1.6-0.2-2.2-1.4c-0.6-1.1-1-2.5-1.1-4.2
					c-0.1-1.9,0-3.4,0.4-4.6c0.4-1.1,1-1.8,1.9-2c0.8-0.2,1.5,0.1,2.1,1C106.2,186.3,106.6,187.7,106.8,189.6z M104.9,191.4
					c-0.1-1.4-0.4-2-0.9-1.9s-0.7,0.9-0.6,2.3c0,0.6,0.1,1,0.3,1.5c0.2,0.5,0.4,0.7,0.6,0.7s0.4-0.4,0.5-1
					C104.9,192.5,104.9,191.9,104.9,191.4z"/>
			</g>
			<g class="st24">
				<path class="st27" d="M109.9,187.7c-0.2,0-0.4,0-0.5,0s-0.3,0.1-0.3,0.3c-0.1,0.2-0.1,0.5-0.1,0.8c0,0.2,0.2,0.7,0.5,1.3
					s0.4,1.2,0.5,1.8c0.1,0.8,0,1.6-0.4,2.2c-0.3,0.6-0.7,1-1.2,1.1c-0.4,0.1-0.8,0.1-1,0.1c0-0.2-0.1-0.6-0.2-1.1
					c-0.1-0.3-0.1-0.6-0.3-1.1c0.3,0,0.5,0.1,0.6,0c0.4-0.1,0.6-0.4,0.6-1c0-0.4-0.1-0.7-0.3-1c-0.3-0.4-0.6-0.7-0.9-1.1
					c-0.6-0.7-0.9-1.6-1-2.8s0.1-2.2,0.5-2.9c0.4-0.6,0.9-1.1,1.7-1.3c0.4-0.1,0.9-0.1,1.4,0L109.9,187.7z"/>
			</g>
			<g class="st24">
				<path class="st27" d="M113.4,186.2c-0.2,0-0.4,0-0.5,0s-0.3,0.1-0.3,0.3c-0.1,0.2-0.1,0.5-0.1,0.8c0,0.2,0.2,0.7,0.5,1.3
					s0.4,1.2,0.5,1.8c0.1,0.8,0,1.6-0.4,2.2c-0.3,0.6-0.7,1-1.2,1.1c-0.4,0.1-0.8,0.1-1,0.1c0-0.2-0.1-0.6-0.2-1.1
					c-0.1-0.3-0.1-0.6-0.3-1.1c0.3,0,0.5,0.1,0.6,0c0.4-0.1,0.6-0.4,0.6-1c0-0.4-0.1-0.7-0.3-1c-0.3-0.4-0.6-0.7-0.9-1.1
					c-0.6-0.7-0.9-1.6-1-2.8s0.1-2.2,0.5-2.9c0.4-0.6,0.9-1.1,1.7-1.3c0.4-0.1,0.9-0.1,1.4,0L113.4,186.2z"/>
			</g>
		</g>
		<g class="st24">
			<path class="st26" d="M113.4,186.2c-0.2,0-0.4,0-0.5,0s-0.3,0.1-0.3,0.3c-0.1,0.2-0.1,0.5-0.1,0.8c0,0.2,0.2,0.7,0.5,1.3
				s0.4,1.2,0.5,1.8c0.1,0.8,0,1.6-0.4,2.2c-0.3,0.6-0.7,1-1.2,1.1c-0.4,0.1-0.8,0.1-1,0.1c0-0.2-0.1-0.6-0.2-1.1
				c-0.1-0.3-0.1-0.6-0.3-1.1c0.3,0,0.5,0.1,0.6,0c0.4-0.1,0.6-0.4,0.6-1c0-0.4-0.1-0.7-0.3-1c-0.3-0.4-0.6-0.7-0.9-1.1
				c-0.6-0.7-0.9-1.6-1-2.8s0.1-2.2,0.5-2.9c0.4-0.6,0.9-1.1,1.7-1.3c0.4-0.1,0.9-0.1,1.4,0L113.4,186.2z"/>
		</g>
		<path id="path1481" class="st12" d="M95.8,169.3c1.7-1,3.2-0.6,3.7,0c-1.7,2.6-1.3,5.4-0.9,6.6c0.1,0.4,0.7,0.4,0.7,0.4
			s-1.6,0.5-3.3-0.1C95.7,175.3,94.3,172.5,95.8,169.3L95.8,169.3z"/>
		<path id="path1499" class="st12" d="M97.4,176c-0.1-0.7-0.9-0.1-0.9,0c0,0-0.5,1.1-0.5,1.9c0,0.5,0.6,1.7,0.6,1.7s0.6,0.5,0.6-0.3
			c-0.2-0.9-0.5-1.3-0.4-1.9C96.8,176.9,97,176.6,97.4,176L97.4,176z"/>
		<path id="path4473" class="st28" d="M164.1,145c12.3-12.8,16-15.1,16-15.1l28.2,17.8l45.4,51.9c0,0-13.8-10.8-13.4-8.4
			c0.5,2.3,0.1,0.6-3.2,9.5c-1.2-9.5-14.8-26.2-14.8-26.2s-4.5,9.6-9.5,9.9c-1.2-5.8-8.2-19-8.2-19l-6,6.7c0,0-7.3-16.4-15.3-19.3
			c0.5,4.8-1.5,12.7-1.5,12.7s-9-18.3-10.7-12.4c-1.1,3.8-3.4,7.2-9.2,12.2C166,155.3,164.2,151.9,164.1,145L164.1,145z"/>
		<path id="path3778" class="st7" d="M189.6,114.8c3,8.7,9.4,19.1,16.7,28.4c4.9,6.1,7.5,9.1,10.7,13.2c2.9,3.6,18.9,24.4,40.6,47
			c0,0-27.4-29.8-25.6-21.2c0.1,0.7,2.2,6.1,2.2,6.1L223,169.8c0,0-8.6,7.1-8.8,5.5c-0.1-1.6-7.2-20.1-7.2-20.1s-4.5,9.6-5.7,9.1
			s-7.5-21.9-15.9-28.9c-3.2,6.1-6.3,18.7-6.3,18.7s-1.8-9.6-2.4-10c-1.3-0.8-5.3,1.8-7,0.4c2.1-3.3,2.5-7.9,2.5-7.9
			C175.7,132.8,176.9,131.8,189.6,114.8z"/>
		<path id="frontal" class="st15" d="M94.2,115.2c3.1-2,6.9,2.6,9.8,5c3.9,3.2,7.2,9,8.7,12.4c2.7,5.5,3.2,9.8,2.4,13.4
			c-0.7,3.1-2.8,5.3-5.1,7.2c-2.2,1.8-4.9,3.7-8,4.8c-5.4,1.9-5.4,1.9-10.3,1.9c-3,0-8.4-3.4-11-6.6c-4.4-5.2-5.4-9.5-6.1-13.6
			c-1.1-6.1,4.4-12.2,6.5-14.1C87.6,119.5,86.1,120.4,94.2,115.2L94.2,115.2z"/>
		<ellipse id="path4542" class="st29" cx="75.4" cy="119.2" rx="1.4" ry="1.2"/>
		<path id="path4134" class="st30" d="M75.1,134.3c0,0,9.2-13.9,19.1-17c7.4-2.3,18.1,11.8,20.6,20.9c2.4,8.4,5.8-20.2-18.3-24.3
			C80,115.3,72.3,135,75.1,134.3z"/>
		<path id="path4582" class="st31" d="M279,229.2l4.1,5.3l1.7,2.2l0.5,0.8l0.5,0.8l1.6-0.9l0.7-0.5l0.6-0.6l0.6-0.7l0.6-0.8l0.4-0.5
			l0.4-1c0,0-5.9-4.7-10.7-4.8c-0.5,0.3-1.3,0.4-1.3,0.4L279,229.2z"/>
		<path id="path5559" class="st32" d="M170.7,69.9c-3.2-5.4,7.6-8,8.2-8c0.5,0,7-1.4,4.9,6c-2.2,7.4,0,9.9,1.8,9.2s8.5-3.7,5.3,3
			s-4.1,6.5-3.8,9.6s1.1,6.1,1.1,6.1l0.5,0.3l-3.9,2.8c0,0-6.8-20.7-8.4-22C174.9,75.6,172.2,72.5,170.7,69.9L170.7,69.9z"/>
		<path id="path5549" class="st20" d="M165.5,69.2c3.1,1.3,7.8,5.7,10.5,12.9c1.8,4.7,1.8,12.3,3.5,17s3.1,4.5,3.1,4.5l5.9-5.9
			C180.6,90.4,178.5,68.8,165.5,69.2z"/>
		<path id="path5644" class="st6" d="M75.4,58.2c-6.2,4.4-7.2,6.7-6.8,7.8c2.5-0.9,6.8-1.9,6.8-1.9C69.8,63.5,73.2,61,75.4,58.2
			L75.4,58.2z"/>
		<path id="path5646" class="st33" d="M75.7,64.1c-28.6,13.7-20.6,25-14.6,39.5C39.2,78.1,69.4,63.6,75.7,64.1z"/>
		<path id="path5704" class="st8" d="M256.6,248.2c-1,0-19.4-9.6-37.8,14.6c-6.4,7.8-6.3,14.6-3.9,16.9c0,0,2.5,1.8-3.8,3.5
			c-7.1,2.6-5.3,6.3-5.3,6.3c1,1.9-0.5,4.7-0.1,4.7c1.3,0.1,52.3-4.4,50.7-4.5c-0.4,0,3.5-3.1-1.3-4.5c-6.7-2-22.6-3.3-25.2-8.3
			c-2-3.8-1.6-10.9-1.3-11.4C231.7,260.9,232.3,254.1,256.6,248.2L256.6,248.2z"/>
		<path id="path5706" class="st8" d="M152.6,285.3c9.9-1.9,8.4,1,11.6,1.9c0,0-17.1-53.9-0.4-80S147,193.4,147,193.4
			c-18.2,17.9-12.1,43-6,57.1C149.7,269.7,155.5,280,152.6,285.3z"/>
		<path id="path1721" class="st34" d="M75.3,95.4c-4.8,5.8-8.1,11.8-8.7,17.5c0,0.2-2.1-0.3-2.1-0.3C64.3,108.7,67,97.2,75.3,95.4z"
			/>
		<path id="path1721-2" class="st34" d="M133.5,91.5c-5.6,5.6-10.1,10.2-12.2,20.1c0,0.2-3.4-0.4-4.4-0.4
			C117.8,107.6,125.5,94.8,133.5,91.5L133.5,91.5z"/>
		<path id="path1950" class="st35" d="M80.4,183.9c-0.5,0.3-2.1,0.1-2.6,0.9c-0.6,2.2,0.9,8.2,0.9,8.2s-1.1-5.6-0.1-7.9
			C78.9,184.4,80.4,184.8,80.4,183.9L80.4,183.9z"/>
		<path id="path1950-8" class="st35" d="M99.1,179.7c-1.3,1-3.7,0-4.2,0.7c-0.6,2.2,0.9,8.2,0.9,8.2s-1.1-5.6-0.1-7.9
			C95.8,180.1,98.1,181.3,99.1,179.7L99.1,179.7z"/>
		<path id="path4974" class="st19" d="M92.3,124.6c0,3.5-1.5,6.8-0.5,10c0,0-1.2,0-1.8,0.1c-0.5,0.1-1,0.3-1.5,0.6
			c-0.9,0.5-2.4,1.9-2.4,1.9s-0.5,0.3-0.7,0.4c-0.4,0.1-0.9,0.3-1.3,0.4c-0.5,0.1-1,0.1-1.5,0.1s-1.4-0.3-1.4-0.3l0.1-0.4l0.5-1
			c0,0-1,0.5-1.3,1c-0.1,0.3-0.2,0.6-0.2,1c0,0.3,0.1,0.7,0.2,1c0.1,0.2,0.4,0.6,0.4,0.6l-0.1-1.1l0.2-0.1l0.3,0.1c0,0,0.8,0,1.2,0
			c0.7,0,1.4,0,2.1-0.1c0.5-0.1,1.1-0.3,1.6-0.5c0.4-0.2,0.6-0.5,1-0.7c0.8-0.5,1.6-1.2,2.5-1.6c0.5-0.2,1.1-0.2,1.7-0.3
			c0.4,0,0.9-0.1,1.3-0.1c0.7,0,1.5,0.2,2.2,0.4c0.5,0.1,1.1,0.3,1.6,0.5c0.4,0.2,0.7,0.6,1.1,0.9c0.5,0.3,1.2,0.5,1.8,0.6
			c0.5,0.1,1.1,0.3,1.6,0.4c0.6,0.1,1.3,0.1,1.9,0.1c0.5,0,1.1-0.1,1.6-0.3c0.4,0,0.7-0.1,1.1-0.3c0.5-0.1,1.6-0.3,1.6-0.3
			s0.5,0.4,0.6,0.7c0.3,0.4,0.5,1.2,0.5,1.2v1c0,0,0.6-1.5,0.5-2.3c-0.1-0.6-0.4-1.1-0.8-1.6c-0.2-0.3-0.5-0.6-0.8-0.9
			c-0.3-0.2-0.8-0.5-0.8-0.5c0.4,1,0.6,1.3,0.2,1.7c0,0-1.4,0.4-2.2,0.5c-0.8,0.1-1.6,0.1-2.4,0c-0.7,0-1.5-0.1-2.2-0.4
			c-0.6-0.1-1.1-0.3-1.7-0.6s-1.1-0.7-1.7-1c-0.5-0.2-1.1-0.4-1.6-0.5s-0.9-0.3-1.4-0.3c-0.2,0-0.6,0-0.6,0c-0.8-3.3,0.5-6.6,0.5-10
			L92.3,124.6z"/>
		<path id="path5606" class="st36" d="M88.3,120.2c-2.5,2.2-22.8,12.6-10.3,29.4C75.5,137.7,72.1,135.7,88.3,120.2z"/>
		<path id="Focinho" class="st37" d="M94.8,115.3c2.8,0,5.9,0.8,8.1,2.4c1.8,1.4,0.8,2.6-1.6,4.6c-1.5,1.3-4.3,2.8-7.7,3.1
			c-1.7,0.1-3.1-1-4.4-1.9c-1.2-0.8-0.9-0.7-2.2-2.2c-0.7-0.8-1.7-2.2-0.5-3.1C88.8,116.6,91.8,115.3,94.8,115.3L94.8,115.3z"/>
	</g>
</g>
<path class="st38" d="M83.6,52.9c-19.1-0.8-27.1-0.4-31.6-3.4c-2.5-5.9,13-1.5,18.7-19.7c7.4-23.4,71.7-52.1,84.1,7.9
	c0.8,3.9,6.1,2.6,12.7,5.9c3.7,3.2,2.1,5.4-0.9,6.4c-5.5-0.1-26.9,0.9-30.2-0.8C116.1,38.8,94.2,48,83.6,52.9z"/>
<ellipse transform="matrix(0.9538 -0.3006 0.3006 0.9538 0.7214 41.3959)" class="st39" cx="134.9" cy="18.4" rx="4.3" ry="6.8"/>
<ellipse transform="matrix(0.9538 -0.3006 0.3006 0.9538 0.7214 41.3959)" class="st40" cx="134.9" cy="18.4" rx="1.8" ry="4.2"/>
<polygon class="st41" points="129.9,209 118.2,215.6 112,205.2 116.4,186 125.8,187.2 131.5,187.9 "/>
<polyline class="st42" points="112.6,210.3 118.7,217.1 127.6,216.5 123.2,223.8 127.2,231.8 118.4,229.5 111.9,235.1 110.8,226.4 
	102.8,221.8 111,218.8 "/>
<polygon class="st43" points="129.9,208.8 118.2,215.4 118.4,208.3 121.6,186.5 125.7,187 131.4,187.7 "/>
<polygon class="st42" points="124.6,233.6 116.7,229.4 108.5,233.2 110.3,224.9 104,218.8 113,217.8 117.3,210.3 121.1,218 
	130,219.5 123.4,225.2 "/>
<polygon class="st42" points="119.1,236.8 113.6,229.8 104.2,229.5 109.7,223 106.5,215 115.5,218.1 122.9,213.4 122.9,221.8 
	130.7,226.9 121.8,229 "/>
<line class="st44" x1="111.1" y1="219.1" x2="112.6" y2="210.7"/>
</svg>
