<?xml version="1.0" encoding="utf-8"?>
<!-- Generator: Adobe Illustrator 23.0.0, SVG Export Plug-In . SVG Version: 6.00 Build 0)  -->
<svg version="1.1" id="Camada_1" xmlns="http://www.w3.org/2000/svg" xmlns:xlink="http://www.w3.org/1999/xlink" x="0px" y="0px"
	 viewBox="0 0 167.7 170.2" style="enable-background:new 0 0 167.7 170.2;" xml:space="preserve">
<style type="text/css">
	.st0{fill:#261F24;}
	.st1{fill:#1D1A22;}
	.st2{fill-rule:evenodd;clip-rule:evenodd;fill:#837364;}
	.st3{fill:#5B504E;}
	.st4{fill:#837364;}
	.st5{fill:#302724;}
	.st6{fill:#271F27;}
	.st7{fill:#AD7D6C;}
	.st8{fill:#A69C93;}
	.st9{fill:#110D11;}
	.st10{fill:#D3D2D3;}
	.st11{fill:#4F2D12;stroke:#070308;stroke-width:0.2317;}
	.st12{fill:#A0141B;}
	.st13{fill:#211A1D;}
	.st14{opacity:0.885;fill:#FFFFFF;enable-background:new    ;}
	.st15{fill:#4F4442;}
	.st16{fill:#FFFFFF;}
	.st17{fill:#070308;}
	.st18{opacity:0.885;fill:#070308;enable-background:new    ;}
	.st19{opacity:0.885;fill:#2A130E;enable-background:new    ;}
	.st20{fill:#100D10;}
	.st21{enable-background:new    ;}
	.st22{fill:#4F2D12;}
	.st23{fill:none;stroke:#070308;stroke-width:0.1793;}
	.st24{fill:none;stroke:#070308;stroke-width:0.2646;}
	.st25{fill:#D0CDE5;fill-opacity:0;}
	.st26{fill:#322222;}
	.st27{fill:#1E161A;}
	.st28{fill:#2B2223;}
	.st29{opacity:0.885;fill:#503F36;enable-background:new    ;}
	.st30{opacity:0.885;fill:#505137;enable-background:new    ;}
	.st31{fill:#9A582D;}
</style>
<path id="path1170_4_" class="st0" d="M161.9,44.2c-1.7,1.1-1.6-8.5-9.6-11.4c-3.1-6-20.3-21.5-20.3-21.5s30.4-10.6,35.7,8.3
	C168.6,31.1,163,44.9,161.9,44.2L161.9,44.2z"/>
<path id="path1742_4_" class="st1" d="M133.8,12.1c24.9-4.5,28.3,1,31.2,6.5c2,3.9,0.8,8,0.3,10.4c-0.4,2.4-0.8,5.2-2.2,4.5
	s0-12.8-7.1-14.1c-5.2-1-15.6-1.3-15.6-1.3L133.8,12.1z"/>
<path id="path4698_4_" class="st2" d="M153.6,24.6c-2.6-3.6-6.7-6.4-10.2-7.1c-0.8-0.1-1.7-0.4-2.6-0.4c0.7-0.1,3.8,0.6,5.5,1.3
	C148,15.3,125.2,2.1,110.4,0c-10.2,0.2-13.1,3.7-23.6,10.4c-5.4,3.4-12.6,18.8-14,29.7c-0.3,2.3,0,0.2-1.4,5.4l0,0
	c-1.5,5.2,9.6,17.1,13.5,21.6c6.9,7.8,10.6,9.8,23.8,17c9,4.9,24.2,5.4,34.2,0.1c8.3-4.4,15.1-14.2,13.7-23.9
	c-0.5-3.4-3.9-5.9-4.9-8.3c-1-2.4-0.2-7.8-0.3-8.5s3-3.1,4.8-9.7C156.8,30.8,155.7,27.5,153.6,24.6"/>
<path id="path5509-1_4_" class="st3" d="M86.8,10.2c5.4-1.5,9.6-6.8,14.2-8.5c-1,1.3-9.4,7.4-10.3,10.8L86.8,10.2z"/>
<path id="path4994_4_" class="st4" d="M139,120.8c0,0,1.1,1.7,1.5,2.6c0.5,1.3,0.8,2.7,1,4c0.2,1.6,0.3,3.2,0.3,4.8c0,1,0,2,0,3
	c-0.1,1.2-0.1,2.3-0.3,3.5c-0.3,1.8-0.7,3.5-1.2,5.2c-0.3,1-0.7,2-1.1,3.1c-0.3,0.8-0.6,1.7-0.9,2.5c-0.4,1-0.8,2-1.2,3.1
	c-0.5,1.2-1.1,2.4-1.7,3.7c-0.2,0.7-0.4,1.3-0.7,2c-0.2,0.6-0.4,1.1-0.6,1.8c-0.1,0.5-0.3,1-0.2,1.5c0,0.2,0.2,0.4,0.3,0.5
	c0.6,0.7,1.3,1.2,2.1,1.8c0.5,0.4,1.2,0.6,1.7,1.1c0.3,0.3,0.4,0.8,0.4,1.2c0.1,0.5-0.1,1.1-0.2,1.6c-0.1,0.5-0.5,1.5-0.5,1.5
	s-0.5,0.2-0.7,0.2c-0.7,0.2-1.3,0.3-2,0.4c-1.3,0.2-2.7,0.2-4,0.2s-2.7,0-3.9-0.2c-1.1-0.2-2.1-0.5-3.2-0.9c-0.8-0.3-2.2-1-2.2-1
	s-0.6-2.2-0.6-3.3c0-1,0.2-1.9,0.3-2.9c0.1-0.9,0.4-1.9,0.3-2.8c-0.1-1.1-0.5-2.1-0.8-3.2c-0.4-1.3-1.1-2.4-1.7-3.7
	c-0.5-1.3-1-2.5-1.3-3.9c-0.4-1.5-0.8-4.6-0.8-4.6l0.2-1.9l6-4.4L139,120.8z"/>
<path id="path5000_4_" class="st3" d="M14.1,132.3c-0.9,0.4-2,0.6-3,0.6c-0.9,0-1.8-0.1-2.7-0.4c-1.4-0.5-2.9-1.1-4-2.1
	c-1.2-1-2.2-2.3-2.9-3.8c-0.6-1.2-0.9-2.7-1-4.1c-0.1-1.3,0.1-2.7,0.6-4c0.4-1.1,1.1-2,1.9-2.9c0.5-0.5,1.1-1.1,1.8-1.4
	c1.3-0.6,2.9-0.9,4.3-0.7c1.2,0.1,2.4,0.6,3.2,1.4c0.5,0.5,0.8,1.3,0.9,2c0.1,0.7,0,1.5-0.3,2.2c-0.2,0.4-0.9,1.1-0.9,1.1
	s-0.7-1.6-1.5-1.9c-0.8-0.4-1.7-0.2-2.5,0.1c-0.5,0.2-0.9,0.5-1.2,0.9c-0.6,0.7-1,1.6-1.2,2.6c-0.1,0.8,0,1.7,0.3,2.5
	c0.3,0.6,0.9,1.2,1.5,1.5c0.4,0.3,0.6,0.2,1.6,0.6c0.8,0.3,0.8,0.4,1.2,0.5c0.5,0.2,1.3,0.2,2.3-0.1C14,127,14.8,132.1,14.1,132.3z"
	/>
<path id="path4996_4_" class="st5" d="M65.4,159.5c0,0.3,0.8,0.6,1,1.1c0.3,0.6,0.4,1.3,0.4,2c0,0.8-0.3,2.3-0.3,2.3
	c-7.3-0.9-9.4-0.4-15.9-2.8l-0.3-2.2L65.4,159.5z"/>
<path id="path4582_4_" class="st5" d="M10.2,126.4c-0.7,1.2-1.4,2.4-2,3.6l-0.8,1.1l-0.2,0.4L7,131.9c-0.4-0.1-0.8-0.3-1.3-0.6
	c-0.7-0.4-1.2-0.8-1.5-1.1c0.5-0.6,1.2-1.3,2.1-2C7.8,127.1,9.3,126.6,10.2,126.4z"/>
<path id="path5708_4_" class="st6" d="M138.2,120.6c0.6,0.5,1.5,1.2,2.2,2.4c0.5,0.9,1.1,2.1,1.3,6.3c0.1,1.5,0.1,3.5,0,5.8
	c-0.9,0-12.2,0.9-17.7,10.4c-3.2,5.6-2.6,11.2-2.3,13.2c-0.3-1.3-0.3-2.4-1.9-5.4c0,0-3.6-7.8-2.2-11.5
	C119,138,138.2,120.6,138.2,120.6z"/>
<path id="rect4708_4_" class="st4" d="M143.4,85.7c-42.5,12.7-70.3-29.1-73.3-39.3c0,0-3.2,12.2-14.9,25.7c0,0-6.9,8.8-18.9,23.4
	c-5.4,6.8-10.8,11.3-16.4,18.7c-5.1,6.6-14.5,16.5-19.8,28c-0.7,4.5,1,9.7,4.2,13c3.1,3.2,8.3,3.9,12.7,4.4
	c26.1,3.4,45,7.8,78.7-6.1c8.3-3.2,16.7-6.8,24.1-11.8c5.4-3.6,10.5-7.8,14.5-12.8c2.9-3.6,5.4-7.8,6.8-12.3
	c1.2-3.6,1.3-11.3,1.3-11.3c0.3-1.2,0-6.6-0.4-9.8C141.5,91.2,144.4,84,143.4,85.7L143.4,85.7z"/>
<path class="st7" d="M50.7,147.2c0,0,10.6-15.3,22.4-18.3c11.8-3.1,14.7-0.6,14.7-0.6l5,27.9c-6.3,1.6-11.8,2.9-16.4,3.9
	c-13.4,3-19.5,3.9-25.7,1.3c-4.1-1.7-4.9-3.6-5.2-4.4C44.5,154.1,46.6,150.3,50.7,147.2z"/>
<path class="st8" d="M24.4,113l-11.2,14l-7.7,11.5c0,0,0,3.4,2.2,3.4s11.3-6,11.3-6l-7.5,10.6l8.2-3.8l3.2-9.7c0,0-6.2,0-5.8-1.1
	s5.4-6.8,5.4-6.8l-0.4,2.5l4.7-8.2l-4.9,1.6l8.1-8.1l1-10l-3,11.8l-1-5.2L24.4,113z"/>
<path id="path4584_4_" class="st9" d="M143.3,86.9c-2.3,7.1-0.8,9-0.8,12.4c0.6,4.8,0.8,12.5-2.5,20.8s-9.5,15.9-23.8,24.4
	c-28.6,17-58.1,18.7-58.1,18.5s15.4-0.6,35.3-9.2c15.9-6.9,34.6-14.9,41.8-33.7c1.8-4.6,5.3-16.1,0.2-32.8c0.6-0.4,1.6-1,3-1.2
	C140.8,85.6,142.7,86.5,143.3,86.9z"/>
<path id="path4980_4_" class="st4" d="M96.1,101.6c0.2,0,3.8,4,4.9,6.6c0.9,2.3,1.8,4.9,2.3,7.4c0.3,1.8,0.4,3.6,0.4,5.4
	c0,2.2-0.2,4.3-0.6,6.5c-0.3,1.9-0.6,3.8-1.1,5.6c-0.6,2-1.4,4-2.2,5.9c-0.9,2.2-1.8,4.3-2.8,6.4c-0.8,1.7-2.5,5.1-2.5,5.1
	c-1.5,3.2-2.5,5.4-2.5,9c0,0,0.1,1.4,0.6,1.9c0.4,0.4,1.2,0.3,1.8,0.4c0.7,0.2,1.4,0.4,1.9,0.9c0.6,0.5,1,1.3,1.1,2
	c0.2,1,0,2.1-0.3,3c-0.3,0.7-0.7,1.4-1.4,1.8c-2.1,0.6-4.3,0.6-6.5,0.6s-3.9-0.2-6.7-0.7c-0.9-0.4-1.7-0.5-2.4-1.5
	c-0.2-0.8-0.3-1.5-0.3-2.3c0-1-0.2-2.1-0.3-3.2c-0.1-1.4-0.3-2.8-0.4-4.2c-0.3-2.1-0.6-4.2-1.1-6.3s-1.3-4.1-2-6.1
	c-0.7-1.8-1.6-3.5-2.3-5.3c-0.6-1.4-1.2-2.7-1.8-4.1c-0.7-1.7-1.3-3.4-1.9-5.2c-0.6-2.1-1-4.3-1.5-6.5c-0.3-1.4-0.7-2.9-0.7-4.3
	s0.1-2.8,0.6-4.1c0.2-0.5,0.9-1.4,0.9-1.4l-0.1,0.2"/>
<path id="path4998_4_" class="st4" d="M26.4,137.4l4.7-0.9c0,0,3.6-0.2,5.2,0.3c4.3,1.3,6.5,2.5,10.8,6.7c1.4,1.6,2.6,3.1,3.9,4.9
	c0,0,1,1.8,1.4,2.7s0.8,1.8,1,2.7c0.1,0.9,0.1,1.9-0.1,2.8c-0.2,0.8-1.3,1.5-1.1,2.3c0.1,0.3,0.2,0.4,0.8,0.8c0.6,0.3,1.9,0.6,2.8,1
	c0.9,0.4,1.7,0.9,2.2,1.6c0.3,0.4,0.4,0.9,0.4,1.4c0,0.6-0.3,1.2-0.3,1.8s0.2,1.2,0.3,1.9c-1.2-0.2-4-0.4-4-0.4l-5.4-0.4l-6.3-0.4
	l-5.7-0.6l-10.6-1l-5.7-0.2l-5.4-0.3c0,0-2.9-0.3-3.6-0.7c-0.3-0.7-0.8-1.3-1-2c-0.2-0.8,0.1-2.4,0.1-2.4s-1-0.6-1.5-0.9
	c-1.3-0.7-3.9-1.9-3.9-1.9"/>
<path class="st3" d="M105.8,23.4h-6.1c0,0,3.5,2.4,1.3,2.4s-15.2,8.7-15.2,8.7h5.5l-6.9,5.9c0,0,6.4-2.4,3.7,0
	c-2.7,2.4-6.7,8.3-6.7,8.3l5.4-1.8l-5.4,6.2l4.4,3.1l-3.4,8L75.1,56l2.7-3.6c0,0-3.9-3.3-2.7-4.3c1.2-0.9,7.3-6.2,7.3-6.2
	s-4.5,0.7-3.7-0.4c0.8-1.1,3.7-4.2,3.7-4.2l2-8l9.6-7.2l-0.6-3.4l6.4-0.3l7.7,4.3l1-6.8l2.3,4.6l-2.2-0.2l1.7,5.4L105.8,23.4z"/>
<path class="st3" d="M91.2,20.6c0.6-1.3,1.3-5.7,1.3-5.7l8.4,1.1l4.3,3l1.5-4.1l0.7-3.4l4,4.5l-3-7.6h-5.5l-1.6,4.1L97,10.4
	l-1.2,2.2l-1.9-2.2l-3.4,5.3l-3.7,8.7l-4.4-1l-1,5.7L76.9,33l1.1,4.4l-6.3,8.1c0,0,2.9-2.1,2.7-1.2c-0.2,0.8-3,5.3-3,5.3l6.8-6.2
	c0,0,0.1,0.4-1.3-1.9c-1.4-2.3,4.4-4.2,4.4-4.2L80.2,33l11-11V20.6z"/>
<path class="st10" d="M116.1,108l5.6,2.9l-3.3-5.8l5.4,2.8l-1.6-4.3l4.7-1.4l4.4,2.9L129,108l5.7-1.5l-1.8,5.1c0,0,1.4,8.8-0.3,11.7
	c-1.6,3-3.6,5.9-3.6,5.9c-0.4-0.5-0.8-1.2-1-2.2c-0.7-2.8,0.7-5.2,1-5.7c-1.3-0.4-2.5-0.8-3.8-1.2c-1.3,0.9-2.5,1.9-3.8,2.8
	c0.3-1.9,0.5-3.8,0.8-5.6l-5-4.8L116.1,108z"/>
<polygon class="st3" points="99.7,5.8 101,8.4 103.9,5.8 110.1,7.1 113.9,14.5 115.5,7.4 120.7,11.5 124.3,8 131.3,15.9 132,11.3 
	132.9,22.2 135.3,15.7 138.3,25.7 138.3,30.8 141.2,29 145,24.4 140.3,15.9 139.7,13.4 124.3,4 111.4,0.1 101,1.7 97.6,4.6 
	95.8,9.3 98,8 101,10.4 "/>
<path class="st3" d="M90.5,50.9l-4.7,2.4l2.4,5.7l-2.4,5.9l6.8-0.6v4.4l3.3,6.9l11.4,5.4l12.7,6.6v-5.8l-6,0.6L112.6,71l-2.5,5.6
	l2.5-13.7l-5.2,10.4l-1.6-12.9c0,0-2.8,8.2-2.9,7.2s0.8-10.5,0.8-10.5L93.9,56l1.9-2.2l-4.4-2.9"/>
<polygon class="st3" points="101,96.6 101.9,101.3 101,104.7 106.4,96.6 103,91.6 103.9,87.5 99.7,86.7 96.4,79.4 71.4,49.6 
	66.9,54.7 66.9,64.2 71.2,54.5 74.9,64.2 81.2,62.9 81.3,69.2 85.7,67.7 88,78.4 88,71.3 91.2,77.6 92.8,77.6 92.5,83.4 95,80.6 
	97.6,88 100.4,88 99.7,91.6 98,95.4 102.8,93.8 101,95.6 "/>
<path class="st3" d="M108.6,84.1v7.5L113,90l-0.7,5.5c0,0,4.2,0.1,3.1,1.9c-1.1,1.7-2.7,6.6-2.7,6.6l3.3-4.3l3.2-8.3l-2.1,2.7
	l-1.1-3.6l-2.2,2.3v-6.9L108.6,84.1z"/>
<path class="st3" d="M149.9,53.9l-4.2,5.1c0,0,3.4-2.4,3.3-1s-2.6,6.3-2.6,6.3s3.2,1.4,3.1,1.9c-0.1,0.5-6.2,7.2-6.2,7.2l3.3,4.2
	c0,0-9.9,5.7-10.3,7s7.3,0,7.3,0l3.1-5l-2.5,1l8.5-6.4l-5.9-0.9l5.9-3.8h-3.2l4.8-6.1l-1.7-2.9l-2.7,2.5l2.7-6.7l-1.6-6.5l-2,4.7
	L149.9,53.9z"/>
<path id="path1481-7_4_" class="st11" d="M126.6,85.9c1.1-0.7,1.7-0.3,2,0.1c-1.1,1.7-0.4,3.4-0.2,4.2c0.1,0.2,0.5,0.3,0.5,0.3
	s-1,0.3-2.1-0.1C126.5,89.8,125.6,88,126.6,85.9L126.6,85.9z"/>
<path id="path4976_4_" class="st12" d="M142.8,83.2c-1.9,0.4-3.5,0.8-5.2,1.2c-2.5,0.5-5,1-7.6,1.2c-1.8,0.2-3.6,0.3-5.3,0.2
	c-2.5-0.1-5.1-0.4-7.5-1.1c-3.7-1-7.3-2.4-10.8-4.1c-3-1.5-5.9-3.4-8.6-5.3c-2.6-1.8-5-3.7-7.3-5.8c-1.7-1.4-3.2-3-4.7-4.6
	c-1.6-1.7-3-3.3-4.5-5.1c-1.3-1.6-2.7-3.2-3.9-4.9c-1.7-2.2-3.7-4.3-4.9-6.9c-0.4-0.8-0.7-1.7-0.7-2.5c0-0.5,0.1-1.1,0.2-1.6
	c0-0.4,0.1-1.1,0.1-1.1S71.3,43.5,71,44c-0.2,0.4-0.3,0.9-0.5,1.4c-0.2,0.6-0.4,1.1-0.7,1.7c-0.2,0.6-0.5,1.1-0.7,1.7
	c-0.2,0.5-0.4,1.6-0.4,1.6s0.7,0.9,1,1.4c0.9,1.4,1.8,2.8,2.7,4.1c1.2,1.6,2.4,3.2,3.7,4.7c1.6,1.9,3.3,3.7,5,5.5s3.4,3.6,5.2,5.2
	c2.4,2.2,4.8,4.2,7.4,6.2c2.1,1.6,4.4,3.1,6.6,4.5c2.5,1.5,4.9,3,7.6,4.1c2.4,1,4.8,1.8,7.3,2.3c3,0.7,6.2,0.9,9.3,1
	c2,0.1,4.1,0,6.1-0.2c3.1-0.3,6.3-0.9,9.4-1.5c1.1-0.2,3.4-0.8,3.4-0.8c-0.3,0.1,0.8-0.8,0.9-1.5c0.1-0.7,0.8-1,1.2-2
	c0.2-0.6,0.2-1.1,0.2-1.1C144.4,82.7,144.2,82.9,142.8,83.2z"/>
<path id="path5509_4_" class="st3" d="M86.9,10c3-1.9,11-7,12.7-7.7c-1,1.3-10.5,6.9-9.6,10.2L86.9,10z"/>
<path class="st3" d="M97.5,39.6c0,0-10.5,4.5-9.4,3.8c1-0.7,6.1-5.3,6.1-5.3h-4.1l7.4-2.9l-6.1-2.9l6.1-4.3l4.3-1.8h4.8l3.8,3.5
	l2.5-3.5l-4.6-5.8l4.6,2.3l-1-4.2l5.1,1.8l-1.8-6.2l6.4,1.8l3.3-1.8v-2.6l3.6,4.9l1.8,3.9v2.2l1.5-4v4.7v4.3v4.8l2.1-8.8l2.5,2.7
	v6.1l1.5,4.4l6.5-7.1l2.1,7.1c-0.2,1.9-0.7,3.3-1.3,4.4c-0.7,1.3-1.4,2-1.8,2.4c-3.9,4.1-3.8,7.9-6.9,9.9c-1.4,0.9-3.7,1.6-7.5,0.7
	c-2.8-0.3-5.6-0.6-8.3-0.9C113.1,48.6,105.3,44.1,97.5,39.6z"/>
<path id="path1153_4_" class="st0" d="M84.4,20.3c-0.1,1.1-6.9-0.2-8.9,18.9c-0.1,1.3-1.7,3.9-1.7,3.9s-7.1-6.2-9.6-9.7
	c-2-2.9-3.4-5.8-4.9-9.1c-2.6-5.9,2.2-8.9,5.7-11.2C80.8,2.7,90.8,13,90.8,13"/>
<path class="st13" d="M96.7,37.6c3.1-3.6,5.8-4,6.9-4.1c2.8-0.2,5.8,2.6,11.8,8.2c0,0,2.5,2.4,6.4,8.9c0.3,0.4,0.5,0.9,0.4,1.4
	c-0.5,2.9-10.6,4.9-19.2,2.8c-6.1-1.5-13.1-5.4-12.9-9c0.1-0.9,0.7-1.8,2-3.5C93.8,40,95.5,38.5,96.7,37.6z"/>
<path id="path1153-6_4_" class="st1" d="M89.2,14.4c-12.8-9.2-24.3-0.2-30.3,4.3c0.9-2.8,3.8-4.6,6.1-6.1
	c15.7-10.4,25.7-0.1,25.7-0.1"/>
<path id="rect4692-4-0_4_" class="st14" d="M104.7,34.7c-2.6-0.3-5,1.7-7,3.2c-2.6,2.1-4.2,3.3-6,6.3c-2.2,3.6,3.4,5.7,5.3,6.9
	c2.9,1.8,8,3.1,12,3.1c0,0,5.4,0.4,9.9-3.1c1.7-1.3-3.8-7.8-5.1-9.2C112.8,40.8,108.6,35.2,104.7,34.7L104.7,34.7z"/>
<path id="rect4692-4-0-9_4_" class="st15" d="M108.1,54.2c0,0,6.4,0.4,10.9-3.1c1.7-1.3-3.8-7.8-5.1-9.2
	C107.8,42.7,102.6,50.1,108.1,54.2L108.1,54.2z"/>
<ellipse id="path5589-4_4_" class="st16" cx="107.4" cy="49.7" rx="1" ry="1"/>
<path id="rect4692-4-0-9-0_4_" class="st17" d="M110.6,54.2c1.1-0.1,5.2-0.3,8.3-2.9c1.8-1.5-3.2-7.3-4.5-8.7
	c-3.8,0.5-7.1,4.1-7.6,6.5c1.9-0.5,1.2,2.2,0,1.1c0.1,0.9,0.8,2.9,2.4,4C109.1,54.2,110.1,54.3,110.6,54.2L110.6,54.2z"/>
<path class="st13" d="M135.3,40.4c0,0,3.7-9.9,11.2-0.9s1.8,15,1.8,15s-3.4,3.6-4.6,3.4c-1.2-0.1-5.9,0.1-5.9,0.1l-6.2-7.3
	L135.3,40.4z"/>
<path id="rect4692-4-0-8_4_" class="st5" d="M104.7,34.5c-2.1-0.3-4,0.8-5.9,2.4c-2.6,2.1-4.3,3.3-6.3,6.1c9.5,5.9,17,6,26,4.7
	c-1.5-2.6-3.8-5.1-4.4-5.8C113.3,40.8,108.5,34.9,104.7,34.5L104.7,34.5z"/>
<path id="rect4692-9_4_" class="st14" d="M142.3,37.4c-2.2-0.2-4.2,1.8-5.3,3.8c-2.6,4.6-2.2,8-2.1,11.1c0.1,2.6-0.3,2.6,0.6,3.3
	c2.8,2.1,9.1,0.4,10.5-1.1c0.7-0.8,2.2-2.3,2.8-4.2s0.2-4.3-0.2-6C147.8,41.3,145.4,37.7,142.3,37.4z"/>
<path class="st3" d="M107.2,117.1c0,0-1.7,7.8-0.8,7.3c0.9-0.4,4.1-4.4,3.8-3c-0.3,1.4-3.8,9.7-3.8,9.7s3.2-1.1,2.1,0
	s-7.5,10.2-7.5,10.2s2.2-2.4,1.9-1c-0.3,1.4-7,7.6-7,7.6l1.6-6.2l5.9-26.2l2,7L107.2,117.1z"/>
<path class="st3" d="M103.9,108.6c0.8,1.6,1.6,8.5,1.6,8.5l1.7-7.3l3,9.1c0,0,0.7-3.8,1.3-2.4c0.6,1.4-0.7,11.1-0.7,11.1
	s4.8-4.7,4.7-3.2c-0.1,1.6-9.6,12.8-9.6,12.8s0.2,7.7-1,8.1s8.2-4.3,8.2-4.3l6.2-3.4L114,136l2.2-7.1l3.8-3l1.8-6.3l-4.3,0.8l1-7
	l-4.5,7v-10.9l-1.1-5.6l-1.4,9.2l-1.3-11.1l-4.7,3.9l0.9-6.3L103,104L103.9,108.6z"/>
<path class="st3" d="M61.4,64.2l2.4,8.7l4.9-3.8l-1.2,10.4l2.1-1.2v7.6l5.4,1.6l-2.2,9.9l8.7-6.1L77.6,104l3.7-5.5L78,117.3
	l-1.1-8.5c0,0-5.2-2.6-3.7-4.9c1.6-2.3,3.7-6.6,3.7-6.6l-7.4,0.9l2.3-8.3L63,88l3.9-7.5l-2.3-3.4l-4,6.2l-2.8-14.2L61.4,64.2z"/>
<path class="st8" d="M79.4,73.6v8.5l1.9-0.6l-1,6.4c0,0,2.8-0.4,3-0.5c0.2,0,0,9.1,0,9.1s4.5-0.6,4.7,0s-2.3,7.4-2.3,7.4l11-4.3
	l-1-5.6l-3.3,3.4l-2.8-7.9l-2.8,2.9v-8.3l-2.6,1v-5.9c0,0-1.8-0.6-2-1.6s0-5.1,0-5.1L79.3,68v5.6H79.4z"/>
<path class="st8" d="M40,97.6v6.4l1.9-1L41,114.7l0.9,9.8c0,0,0.5-0.9,1.5,0.4S40,133,40,133v-8.1c0,0-2.6,2.1-2.4,1.1s2-8.7,2-8.7
	s-3.2-2.8-2.8-4.4s2.4-5.2,2.4-5.2l-1.6-3L40,97.6z"/>
<path id="rect4692-9-5_4_" class="st15" d="M142.8,56c0.7-0.1,1.6-0.4,2.6-1.1c2.7-1.7,3.6-4.3,3.8-4.8c0.9-2.9,0.1-5.3-0.2-6
	c-3.5-0.6-6.9,1.4-8,4.5C140.1,51.2,140.8,54,142.8,56z"/>
<path class="st3" d="M18.9,151.8c-1,0-6.1,9.5-6.1,9.5l1,2l7.5,0.9l12.5,0.8l14.8,1.6l-4.7-10.9l-10.8,2.4v-2l-5.9,3.2l0.9-5.7
	l-4,1.8L23,147L18.9,151.8z"/>
<ellipse id="path5589_4_" class="st16" cx="142.6" cy="53.3" rx="1" ry="1"/>
<path class="st3" d="M34.5,106.5l-3.4,10.8c0,0,1.2-0.6,1.7,0c0.1,0.1,0.1,0.5-0.1,0.9c-0.5,2-2.6,6.5-2.6,6.5s2-0.4,2.2-0.3
	s-3.6,3.2-3.6,3.2l-2.5,4.2h4.2l-7.3,6L32,133l1.7-3.4L32,130l0.9-4l-0.9,1.6l2.5-5.5l-1.4,0.5l1.4-4l-1.4-3.5l3.5-7.5V103
	L34.5,106.5z"/>
<path class="st3" d="M45.2,106c0,0.7,0,10.6,0,10.6v3.9v6.5l-0.8,2.2l-1,2.8l0.9,1.1l-0.9,4.9l3.2,0.9l3.8-0.9l-1.5-3l-2-3l-0.3,2.1
	V126l2.9-8.5l-1-3.6l-1.6,6.7l-0.3-8.5l0.1-0.9l0.2-3.3l-1.5-5.8L45.2,106z"/>
<path class="st3" d="M61.4,104v5c0,0,4.7-1,3.6,1c-1.2,2-2.2,6.5-2.2,6.5s1-0.6,1.2,0.8c0.2,1.4-1.2,7.1-1.2,7.1s3.4-0.7,3.2,0.4
	s-3.2,3.9-3.2,3.9l5.7-4.1l-3.6-2v-9.8l-2.2,1.7l4.1-6.9h-4.1V104l-1.4-4.3c0,0-1,4-1,4.3s0,0.3,0,0.3l0,0L61.4,104z"/>
<path id="rect4692-9-5-9_4_" class="st17" d="M143.6,55.8c0.3-0.1,0.7-0.2,1.1-0.3c0.3-0.1,1.3-0.6,2.4-1.9c0.7-0.7,1.5-1.7,2.1-3.1
	c0.8-2.2,0.4-4.3,0.1-5.2c-5.9-0.4-8.1,4.1-7.5,7.4c0.9-0.5,2.2,0.8,0.4,1.4c0.1,0.3,0.4,0.7,0.7,1.1
	C143.1,55.5,143.4,55.7,143.6,55.8z"/>
<path id="rect4692-9-7_4_" class="st5" d="M142.5,37.4c-2.4-0.2-4.5,1.8-5.7,3.8c-1.4,2.2-2.1,5.4-2.3,7.2c5.7,1.4,8.3,1.9,15.3,0.5
	c0.2-1.6-0.1-3.3-0.5-4.6C148.5,41.2,145.9,37.7,142.5,37.4z"/>
<polygon id="path4951_4_" class="st18" points="132.7,65.7 132.7,65.7 132.7,65.7 132.7,65.7 "/>
<path id="path904_4_" class="st19" d="M132.7,69.8c1-1.1,1.5-2.4,1.2-3.1c-0.4-1-2-1.9-3.1-1.7c-0.8,0.1-1.8,0.9-2.1,1.6
	c-0.3,0.6-0.3,0.6,0.1,1.3c0.7,1.4,2,2.6,3,2.6C132,70.4,132.3,70.3,132.7,69.8L132.7,69.8z"/>
<path id="path5563-2_4_" class="st20" d="M131.6,40.1c0,0,1.2,0.6,1.1,0.1c-0.1-1.4-2.3-3.8,1.3-7.5c1.2-1.3-1.1-0.1-0.7-0.6
	C131.5,33.3,130.8,38,131.6,40.1z"/>
<path id="path5563-2-3_4_" class="st20" d="M122.9,37.4c0,0-1.1,0.5-1.1,0.1c0.1-1.3,2.2-3.5-1.3-7c-1.2-1.2,1.1-0.1,0.6-0.5
	C123,31.1,123.6,35.4,122.9,37.4z"/>
<path class="st8" d="M44.3,85.9c0.1-0.1,5.3-6.5,5.3-6.5l3.1,18c0,0,6.2-11.3,5.1-9.4s-1.3,9.4-1.3,9.4s1.5-1.5,1.4,0
	s-1.1,9.1-1.1,9.1l1.8-2.5l-2,10.7c0,0,4.5-7.1,3.8,1.1c-0.8,8.2,0.1,9.9,0.1,9.9l2.3,2l-3.8,6.7h2.2l-4.2,5.2l-0.7-3.1l1.5-7.3
	c0,0-3.3,3.4-2.9,0.8c0.4-2.6,5.2-11.7,2.9-11.9c-2.3-0.2-3.1-7.2-3.1-7.2l0.4-9.3l-4.6,4.4v-6.3l-6.1-1.3L47.5,88l-5.6,2.8
	L44.3,85.9z"/>
<path id="path5563_4_" class="st20" d="M131.2,26.2c0,0,0.6-1.5,0.2-1.4c-1.5,0.5-3.4,3.8-8.2-0.1c-1.6-1.3,0.2,1.5-0.4,1
	C126.5,28.9,129.1,27.7,131.2,26.2z"/>
<path id="path5563-5_4_" class="st20" d="M126.6,21.5c0,0-0.5-2.2-4.7-5.7c-0.3,0.5,5.2,6.5,2.4,5.8c-1.5-0.3-1,0.9-0.8,0.5
	C126.2,22.5,126.8,21.7,126.6,21.5z"/>
<path id="path5561_4_" class="st20" d="M112,21.6c-2.1-2-3.9-3-8.3-2.5c-3.9,0.4-3.8,0.3-9,3.9c-5.3,3.7-7.4,9-7.8,10
	c0,0.7-0.4,4.6,1,0.6c1.5-4,2.4-1.4,3.6-3.1c1.2-1.7,3.9-6.3,4.8-7.1c1-0.8,3-1.6,4.9-2.1c1.9-0.4,4.6-0.4,5.8-0.2
	c1.6,0.2,4,2.1,5.3,2C112.9,23,112.3,22,112,21.6L112,21.6z"/>
<path id="path5563-2-3-1_4_" class="st20" d="M152.7,34.1c0,0-0.6,2.1-1.1,1.5c-1.5-2-1.7-7.6-9.8-8.2c-2.8-0.2,1.1-1.4,0.1-1.4
	C145.3,25.1,151.2,30.4,152.7,34.1L152.7,34.1z"/>
<path id="path1499-0_4_" class="st11" d="M128.2,90.5c-0.2,0-0.6,0-0.6,0s-0.3,0.7-0.3,1.2c0,0.3,0.4,1.1,0.4,1.1s0.3-0.1,0.4-0.2
	c-0.1-0.6-0.3-0.8-0.3-1.3C127.9,91.1,128,90.9,128.2,90.5L128.2,90.5z"/>
<g>
	<g class="st21">
		<path class="st22" d="M122.5,99.1c0.1,1.5,0,2.7-0.5,3.7c-0.4,1-1.1,1.6-1.9,1.9l0.1,2.4l-2.3,0.6l-0.6-5.7
			c-0.2-1.5-0.4-3.5-0.7-6.1c0.4-0.3,1.1-0.5,1.9-0.8c1-0.3,1.9-0.1,2.6,0.5C121.9,96.2,122.4,97.4,122.5,99.1z M120.8,100.9
			c-0.1-0.8-0.4-1.1-0.9-1c-0.1,0-0.1,0-0.2,0.1l0.2,2.7C120.6,102.4,120.9,101.8,120.8,100.9z"/>
	</g>
	<g class="st21">
		<path class="st23" d="M122.5,99.1c0.1,1.5,0,2.7-0.5,3.7c-0.4,1-1.1,1.6-1.9,1.9l0.1,2.4l-2.3,0.6l-0.6-5.7
			c-0.2-1.5-0.4-3.5-0.7-6.1c0.4-0.3,1.1-0.5,1.9-0.8c1-0.3,1.9-0.1,2.6,0.5C121.9,96.2,122.4,97.4,122.5,99.1z M120.8,100.9
			c-0.1-0.8-0.4-1.1-0.9-1c-0.1,0-0.1,0-0.2,0.1l0.2,2.7C120.6,102.4,120.9,101.8,120.8,100.9z"/>
	</g>
	<g class="st21">
		<path class="st22" d="M125.8,98.1l0.2,3.2c0.1,0.9,0.2,2.3,0.3,4.1c-0.4,0.4-0.9,0.7-1.3,0.8c-0.6,0.2-1,0.1-1.4-0.3
			c-0.3-0.3-0.5-0.8-0.7-1.5c-0.1-0.4-0.2-1.2-0.4-2.3c-0.1-1.1-0.2-2-0.3-2.9l1.7-0.5c0,0.4,0.1,1.1,0.1,2.1c0,0.5,0.1,1.3,0.2,2.3
			c0.1,0.7,0.1,1.2,0.2,1.5c0.1,0.3,0.3,0.4,0.5,0.3c0.1,0,0.1-0.1,0.2-0.2c-0.1-0.7-0.1-1.7-0.3-3.2c-0.1-0.7-0.2-1.7-0.3-3
			L125.8,98.1z"/>
	</g>
	<g class="st21">
		<path class="st24" d="M125.8,98.1l0.2,3.2c0.1,0.9,0.2,2.3,0.3,4.1c-0.4,0.4-0.9,0.7-1.3,0.8c-0.6,0.2-1,0.1-1.4-0.3
			c-0.3-0.3-0.5-0.8-0.7-1.5c-0.1-0.4-0.2-1.2-0.4-2.3c-0.1-1.1-0.2-2-0.3-2.9l1.7-0.5c0,0.4,0.1,1.1,0.1,2.1c0,0.5,0.1,1.3,0.2,2.3
			c0.1,0.7,0.1,1.2,0.2,1.5c0.1,0.3,0.3,0.4,0.5,0.3c0.1,0,0.1-0.1,0.2-0.2c-0.1-0.7-0.1-1.7-0.3-3.2c-0.1-0.7-0.2-1.7-0.3-3
			L125.8,98.1z"/>
	</g>
	<g class="st21">
		<path class="st22" d="M128.8,101.8c0,0.3,0,0.8,0,1.6c0,0.5,0,1,0.1,1.6c-0.2,0.2-0.6,0.3-1,0.5c-0.7,0.2-1.2,0-1.7-0.4
			c-0.6-0.5-0.9-1.5-1-2.8c-0.1-1.3,0-2.3,0.4-3.1c0.4-0.8,0.9-1.2,1.5-1.4c0.3-0.1,0.5-0.1,0.8-0.1l0.4,3c-0.1-0.1-0.3,0-0.5,0
			c-0.3,0.1-0.5,0.3-0.7,0.7c-0.2,0.4-0.3,0.9-0.3,1.4c0,0.5,0.2,0.9,0.4,1.1c0.2,0.2,0.4,0.2,0.6,0.2l-0.1-1c0-0.2-0.1-0.5-0.2-1
			L128.8,101.8z"/>
	</g>
	<g class="st21">
		<path class="st24" d="M128.8,101.8c0,0.3,0,0.8,0,1.6c0,0.5,0,1,0.1,1.6c-0.2,0.2-0.6,0.3-1,0.5c-0.7,0.2-1.2,0-1.7-0.4
			c-0.6-0.5-0.9-1.5-1-2.8c-0.1-1.3,0-2.3,0.4-3.1c0.4-0.8,0.9-1.2,1.5-1.4c0.3-0.1,0.5-0.1,0.8-0.1l0.4,3c-0.1-0.1-0.3,0-0.5,0
			c-0.3,0.1-0.5,0.3-0.7,0.7c-0.2,0.4-0.3,0.9-0.3,1.4c0,0.5,0.2,0.9,0.4,1.1c0.2,0.2,0.4,0.2,0.6,0.2l-0.1-1c0-0.2-0.1-0.5-0.2-1
			L128.8,101.8z"/>
	</g>
	<g class="st21">
		<path class="st22" d="M133.2,95.2c0.1,0.9,0,1.8-0.2,2.5c-0.2,0.6-0.4,1.1-0.7,1.4c0.2,0.1,0.4,0.3,0.5,0.6s0.2,0.7,0.3,1.1
			c0.1,1-0.2,1.8-0.7,2.4c-0.4,0.5-1,0.8-1.7,1c-0.6,0.2-1.3,0.2-2.1,0.3c-0.1-1.2-0.3-3.2-0.6-5.9c-0.2-1.5-0.4-3.4-0.7-6
			c0.5-0.3,1.2-0.6,2-0.8C131.7,91.3,132.9,92.4,133.2,95.2z M131.5,97.2c0-0.4-0.1-0.7-0.3-0.8c-0.2-0.1-0.4-0.2-0.6-0.1l0.1,2.4
			C131.3,98.4,131.6,98,131.5,97.2z M131.7,100.9c0-0.6-0.3-0.8-0.8-0.7c0,0-0.1,0-0.1,0.1l0.1,1.9
			C131.5,102,131.8,101.6,131.7,100.9z"/>
	</g>
	<g class="st21">
		<path class="st24" d="M133.2,95.2c0.1,0.9,0,1.8-0.2,2.5c-0.2,0.6-0.4,1.1-0.7,1.4c0.2,0.1,0.4,0.3,0.5,0.6s0.2,0.7,0.3,1.1
			c0.1,1-0.2,1.8-0.7,2.4c-0.4,0.5-1,0.8-1.7,1c-0.6,0.2-1.3,0.2-2.1,0.3c-0.1-1.2-0.3-3.2-0.6-5.9c-0.2-1.5-0.4-3.4-0.7-6
			c0.5-0.3,1.2-0.6,2-0.8C131.7,91.3,132.9,92.4,133.2,95.2z M131.5,97.2c0-0.4-0.1-0.7-0.3-0.8c-0.2-0.1-0.4-0.2-0.6-0.1l0.1,2.4
			C131.3,98.4,131.6,98,131.5,97.2z M131.7,100.9c0-0.6-0.3-0.8-0.8-0.7c0,0-0.1,0-0.1,0.1l0.1,1.9
			C131.5,102,131.8,101.6,131.7,100.9z"/>
	</g>
	<g class="st21">
		<path class="st22" d="M135.6,99.1c0.1,1.1,0,2.1-0.3,3c-0.3,0.9-0.7,1.4-1.2,1.6c-0.5,0.1-1-0.2-1.4-0.9c-0.4-0.7-0.6-1.6-0.7-2.8
			c-0.1-1.2,0-2.2,0.3-3c0.3-0.7,0.7-1.2,1.2-1.3c0.5-0.1,1,0.1,1.3,0.7C135.3,97,135.5,97.9,135.6,99.1z M134.4,100.3
			c-0.1-0.9-0.3-1.3-0.6-1.2c-0.3,0.1-0.4,0.6-0.4,1.5c0,0.4,0.1,0.7,0.2,1c0.1,0.3,0.3,0.5,0.4,0.4c0.1,0,0.2-0.2,0.3-0.6
			C134.4,101,134.5,100.7,134.4,100.3z"/>
	</g>
	<g class="st21">
		<path class="st24" d="M135.6,99.1c0.1,1.1,0,2.1-0.3,3c-0.3,0.9-0.7,1.4-1.2,1.6c-0.5,0.1-1-0.2-1.4-0.9c-0.4-0.7-0.6-1.6-0.7-2.8
			c-0.1-1.2,0-2.2,0.3-3c0.3-0.7,0.7-1.2,1.2-1.3c0.5-0.1,1,0.1,1.3,0.7C135.3,97,135.5,97.9,135.6,99.1z M134.4,100.3
			c-0.1-0.9-0.3-1.3-0.6-1.2c-0.3,0.1-0.4,0.6-0.4,1.5c0,0.4,0.1,0.7,0.2,1c0.1,0.3,0.3,0.5,0.4,0.4c0.1,0,0.2-0.2,0.3-0.6
			C134.4,101,134.5,100.7,134.4,100.3z"/>
	</g>
	<g class="st21">
		<path class="st22" d="M137.6,97.9c-0.1,0-0.2,0-0.3,0c-0.1,0-0.2,0.1-0.2,0.2c-0.1,0.1-0.1,0.3-0.1,0.5c0,0.2,0.1,0.4,0.3,0.8
			c0.2,0.4,0.3,0.8,0.3,1.2c0,0.5,0,1-0.2,1.4c-0.2,0.4-0.4,0.6-0.8,0.7c-0.3,0.1-0.5,0.1-0.7,0.1c0-0.1-0.1-0.4-0.1-0.7
			c0-0.2-0.1-0.4-0.2-0.7c0.2,0,0.3,0,0.4,0c0.3-0.1,0.4-0.3,0.4-0.7c0-0.3-0.1-0.5-0.2-0.7c-0.2-0.2-0.4-0.5-0.6-0.7
			c-0.4-0.5-0.6-1.1-0.7-1.8c-0.1-0.8,0.1-1.4,0.3-1.9c0.3-0.4,0.6-0.7,1.1-0.8c0.3-0.1,0.6-0.1,0.9,0L137.6,97.9z"/>
	</g>
	<g class="st21">
		<path class="st24" d="M137.6,97.9c-0.1,0-0.2,0-0.3,0c-0.1,0-0.2,0.1-0.2,0.2c-0.1,0.1-0.1,0.3-0.1,0.5c0,0.2,0.1,0.4,0.3,0.8
			c0.2,0.4,0.3,0.8,0.3,1.2c0,0.5,0,1-0.2,1.4c-0.2,0.4-0.4,0.6-0.8,0.7c-0.3,0.1-0.5,0.1-0.7,0.1c0-0.1-0.1-0.4-0.1-0.7
			c0-0.2-0.1-0.4-0.2-0.7c0.2,0,0.3,0,0.4,0c0.3-0.1,0.4-0.3,0.4-0.7c0-0.3-0.1-0.5-0.2-0.7c-0.2-0.2-0.4-0.5-0.6-0.7
			c-0.4-0.5-0.6-1.1-0.7-1.8c-0.1-0.8,0.1-1.4,0.3-1.9c0.3-0.4,0.6-0.7,1.1-0.8c0.3-0.1,0.6-0.1,0.9,0L137.6,97.9z"/>
	</g>
	<g class="st21">
		<path class="st22" d="M139.9,96.9c-0.1,0-0.2,0-0.3,0c-0.1,0-0.2,0.1-0.2,0.2c-0.1,0.1-0.1,0.3-0.1,0.5c0,0.2,0.1,0.4,0.3,0.8
			c0.2,0.4,0.3,0.8,0.3,1.2c0,0.5,0,1-0.2,1.4c-0.2,0.4-0.4,0.6-0.8,0.7c-0.3,0.1-0.5,0.1-0.7,0.1c0-0.1-0.1-0.4-0.1-0.7
			c0-0.2-0.1-0.4-0.2-0.7c0.2,0,0.3,0,0.4,0c0.3-0.1,0.4-0.3,0.4-0.7c0-0.3-0.1-0.5-0.2-0.7c-0.2-0.2-0.4-0.5-0.6-0.7
			c-0.4-0.5-0.6-1.1-0.7-1.8c-0.1-0.8,0.1-1.4,0.3-1.9c0.3-0.4,0.6-0.7,1.1-0.8c0.3-0.1,0.6-0.1,0.9,0L139.9,96.9z"/>
	</g>
	<g class="st21">
		<path class="st24" d="M139.9,96.9c-0.1,0-0.2,0-0.3,0c-0.1,0-0.2,0.1-0.2,0.2c-0.1,0.1-0.1,0.3-0.1,0.5c0,0.2,0.1,0.4,0.3,0.8
			c0.2,0.4,0.3,0.8,0.3,1.2c0,0.5,0,1-0.2,1.4c-0.2,0.4-0.4,0.6-0.8,0.7c-0.3,0.1-0.5,0.1-0.7,0.1c0-0.1-0.1-0.4-0.1-0.7
			c0-0.2-0.1-0.4-0.2-0.7c0.2,0,0.3,0,0.4,0c0.3-0.1,0.4-0.3,0.4-0.7c0-0.3-0.1-0.5-0.2-0.7c-0.2-0.2-0.4-0.5-0.6-0.7
			c-0.4-0.5-0.6-1.1-0.7-1.8c-0.1-0.8,0.1-1.4,0.3-1.9c0.3-0.4,0.6-0.7,1.1-0.8c0.3-0.1,0.6-0.1,0.9,0L139.9,96.9z"/>
	</g>
</g>
<path id="path1481_4_" class="st11" d="M129,85.9c-1.1-0.7-2-0.4-2.4,0c1.1,1.7,0.8,3.5,0.6,4.3c-0.1,0.2-0.5,0.3-0.5,0.3
	s1,0.3,2.1-0.1C129.1,89.8,130,87.9,129,85.9L129,85.9z"/>
<path id="path1499_4_" class="st11" d="M128,90.3c0.1-0.4,0.6-0.1,0.6,0c0,0,0.3,0.7,0.3,1.2c0,0.3-0.4,1.1-0.4,1.1
	s-0.4,0.3-0.4-0.2c0.1-0.6,0.3-0.8,0.3-1.3C128.3,90.8,128.2,90.6,128,90.3L128,90.3z"/>
<ellipse id="path4542_8_" class="st25" cx="142.1" cy="53.2" rx="0.9" ry="0.8"/>
<path id="path4134_4_" class="st26" d="M142.3,63c0,0-5.9-9.1-12.3-11.1c-4.7-1.5-11.6,7.7-13.2,13.6c-0.1,0.3-0.4,1-0.6,1
	c-0.6-0.1-1.3-5.3,0.2-9.4c2.6-7.2,11.4-9.3,12.5-9.5c1.6,0.4,6,1.8,9.5,6.1C141.3,57.5,142.1,61.4,142.3,63z"/>
<path id="path5559_4_" class="st27" d="M81,21c2-3.5-4.9-5.2-5.3-5.2c-0.3,0-4.5-0.9-3.1,3.9s0,6.4-1.2,6s-5.4-2.4-3.4,2
	s2.6,4.2,2.4,6.3c-0.2,2-0.7,4-0.7,4l-0.3,0.2l2.5,1.8c0,0,4.4-13.5,5.4-14.4C78.2,24.8,80,22.7,81,21L81,21z"/>
<path id="path5549_4_" class="st28" d="M84.3,20.6c-2,0.9-5,3.8-6.7,8.4c-1.1,3.1-1.2,8-2.3,11.1c-1.1,3.1-2,2.9-2,2.9l-3.8-3.9
	C74.6,34.4,75.9,20.3,84.3,20.6z"/>
<path id="path5644_4_" class="st3" d="M142.1,13.4c4,2.9,4.6,4.4,4.3,5.1c-1.6-0.6-4.4-1.2-4.4-1.2
	C145.7,16.9,143.4,15.2,142.1,13.4L142.1,13.4z"/>
<path class="st3" d="M87.6,156c-0.2,1.9-0.5,3.8-0.7,5.6l3.1-0.9h1.4c0.4,0.2,0.8,0.4,1.2,0.7c0.6,0.1,1.2,0.3,1.8,0.4
	c0,0,1.9,0.4,2.4,1.5c0.2,0.5,0.5,1,0.7,1.8c0.3,1.9-0.7,3.8-0.7,3.8s-0.6,0.3-1.6,0.8l-1.2,0.2l-1.4,0.2l-2,0.1l-3.8-0.1l-3-0.4
	l-1.5-0.9l-1-1.9v-3.7l1-0.2l1.9-1.5C85.4,159.6,86.5,157.8,87.6,156z"/>
<path id="path5646_4_" class="st3" d="M141.9,17.3c18.4,8.9,13.2,16.3,9.4,25.7C165.3,26.4,145.9,16.9,141.9,17.3z"/>
<path id="path5704_4_" class="st5" d="M26.8,137.4c0.6,0,12.5-6.3,24.2,9.5c4.1,5.1,4,9.5,2.5,11c0,0-1.6,1.2,2.5,2.3
	c4.6,1.7,3.4,4.1,3.4,4.1c-0.6,1.2,0.3,3,0.1,3c-0.9,0.1-33.6-2.9-32.5-2.9c0.2,0-2.3-2,0.8-3c4.3-1.3,14.5-2.2,16.2-5.4
	c1.3-2.4,1-7.1,0.9-7.4C42.8,145.6,42.4,141.2,26.8,137.4L26.8,137.4z"/>
<path id="path5706_4_" class="st5" d="M92.5,161.5c-6.4-1.2-5.4,0.7-7.5,1.3c0,0,11-35.1,0.2-52.2s10.8-9,10.8-9
	c11.6,11.7,7.8,28.1,3.9,37.2C94.4,151.4,90.6,158.1,92.5,161.5z"/>
<path id="path1721_4_" class="st3" d="M142.1,37.7c3.1,3.8,5.2,7.7,5.6,11.4c0,0.1,1.3-0.2,1.3-0.2
	C149.2,46.3,147.4,38.8,142.1,37.7z"/>
<path id="path1721-2_4_" class="st3" d="M104.8,35.1c3.6,3.6,6.5,6.6,7.8,13.2c0,0.1,2.2-0.2,2.8-0.2
	C114.9,45.6,110,37.3,104.8,35.1L104.8,35.1z"/>
<path id="path1950_4_" class="st22" d="M118.8,95.4c-0.3,0.2-1.3,0.1-1.7,0.6c-0.4,1.4,0.6,5.4,0.6,5.4s-0.7-3.6-0.1-5.2
	C117.8,95.7,118.8,95.9,118.8,95.4L118.8,95.4z"/>
<path id="path1950-8_4_" class="st22" d="M130.7,92.6c-0.9,0.7-2.4,0-2.7,0.4c-0.4,1.4,0.6,5.4,0.6,5.4s-0.7-3.6-0.1-5.2
	C128.7,92.9,130.1,93.7,130.7,92.6L130.7,92.6z"/>
<path id="rect4692-4-7_4_" class="st29" d="M129.8,51.2c-2-1.3-4.5,1.7-6.3,3.2c-2.5,2.1-4.6,5.9-5.6,8.1c-1.7,3.6-2.1,6.4-1.5,8.8
	c0.5,2,1.5,3.8,2.9,5s3.8,1.8,5.4,2.9c3.5,2.4,3.5,1.2,6.6,1.2c1.9,0,5.4-2.2,7.1-4.3c2.8-3.4,4-6.5,4.5-9.2c0.7-4-2.9-7.6-4.2-8.8
	C134.4,54,134.9,54.6,129.8,51.2L129.8,51.2z"/>
<path id="path4974_4_" class="st18" d="M131.2,56.7c0,2.3,0.9,4.4,0.3,6.5c0,0,0.8,0,1.2,0.1c0.3,0.1,0.7,0.2,0.9,0.4
	c0.6,0.3,1.5,1.2,1.5,1.2s0.3,0.2,0.5,0.3c0.3,0.1,0.6,0.2,0.8,0.2c0.3,0.1,0.6,0.1,1,0.1c0.3,0,0.9-0.2,0.9-0.2l-0.1-0.3l-0.3-0.7
	c0,0,0.7,0.3,0.8,0.7c0.1,0.2,0.1,0.4,0.1,0.6s-0.1,0.4-0.1,0.7c-0.1,0.1-0.2,0.4-0.2,0.4l0.1-0.7l-0.1-0.1l-0.2,0.1
	c0,0-0.5,0-0.8,0c-0.4,0-0.9,0-1.3-0.1c-0.3-0.1-0.7-0.2-1-0.3c-0.2-0.1-0.4-0.3-0.6-0.4c-0.5-0.3-1-0.8-1.6-1
	c-0.3-0.1-0.7-0.1-1.1-0.2c-0.3,0-0.6-0.1-0.8-0.1c-0.5,0-0.9,0.1-1.4,0.3c-0.3,0.1-0.7,0.2-1,0.3c-0.3,0.1-0.4,0.4-0.7,0.6
	s-0.8,0.3-1.1,0.4c-0.3,0.1-0.7,0.2-1,0.2c-0.4,0.1-0.8,0.1-1.2,0.1c-0.3,0-0.7-0.1-1-0.2c-0.2,0-0.4-0.1-0.7-0.2
	c-0.3-0.1-1-0.2-1-0.2s-0.3,0.3-0.4,0.4c-0.2,0.2-0.3,0.8-0.3,0.8V67c0,0-0.4-1-0.3-1.5c0.1-0.4,0.3-0.7,0.5-1
	c0.1-0.2,0.3-0.4,0.5-0.6c0.2-0.1,0.5-0.3,0.5-0.3c-0.2,0.7-0.4,0.8-0.1,1.1c0,0,0.9,0.2,1.4,0.3c0.5,0.1,1,0.1,1.5,0
	c0.5,0,0.9-0.1,1.4-0.2c0.4-0.1,0.7-0.2,1.1-0.4c0.4-0.2,0.7-0.5,1.1-0.7c0.3-0.1,0.7-0.2,1-0.3s0.6-0.2,0.9-0.2c0.1,0,0.4,0,0.4,0
	c0.5-2.2-0.3-4.3-0.3-6.5L131.2,56.7z"/>
<path id="path910_4_" class="st18" d="M138.7,62.3c-0.1-0.9-0.9-2.3-1.6-3c-0.8-0.8-1.8-1.4-2.1-1.2c-0.3,0.1-0.9,1-1.1,1.7
	c-0.2,0.8-0.1,2,0.2,2.2c0.6,0.4,1.9,0.8,3.2,0.9l1.4,0.1L138.7,62.3z"/>
<path id="path912_4_" class="st18" d="M126.2,62.2c0.6-0.1,1.4-0.2,1.8-0.3c0.8-0.2,0.8-0.2,1-0.8c0.2-0.8,0-1.8-0.4-2.6
	c-0.3-0.6-0.3-0.7-1-0.7s-2.7,0.6-2.8,0.9c0,0.1-0.1,0.1-0.2,0.1c-0.7,0-2.6,2.1-2.8,3l-0.1,0.5h1.7
	C124.4,62.4,125.6,62.3,126.2,62.2L126.2,62.2z"/>
<path id="path1180_4_" class="st18" d="M132.2,70.2c0.4-0.3,1.1-1.1,1.4-1.8c0.3-0.7,0.4-1.4,0.2-1.8s-0.9-1-1.5-1.3
	c-0.7-0.3-1.5-0.4-2.1-0.1s-1.2,0.9-1.5,1.4c-0.2,0.4-0.2,0.4-0.1,0.8c0.6,1.4,1.9,2.8,2.9,2.9C131.8,70.4,131.9,70.3,132.2,70.2
	L132.2,70.2z"/>
<path id="path1182_4_" class="st17" d="M131.9,84.1c1-0.1,2.7-0.4,3.7-0.8c1.6-0.6,3-1.3,3.5-2.1c0.4-0.6,0.4-1,0.4-3.4
	c0-2.6,0-2.6,1-3.6c0.3-0.4,0.7-0.8,0.7-0.9c0.1-0.3-0.6-1.4-1.2-2.1l-0.3-0.3l-0.2,0.3c-0.6,0.8-1.9,1.8-2.8,2.2
	c-0.2,0.1-0.7,0.2-1.2,0.2c-1.3,0.1-5.9,0.3-9.2,0.3h-3l-0.4-0.2c-0.4-0.2-1.3-1-1.4-1.3s-1.1,0.9-1.7,2.1l-0.3,0.7l0.2,0.4
	c0.2,0.6,0.8,1.6,1.7,2.9c0.9,1.4,1.1,1.9,1.3,3c0.2,1,0.2,1.2,0.9,1.8c0.5,0.4,1.1,0.7,1.9,0.9C125.9,84.2,130.7,84.3,131.9,84.1
	L131.9,84.1z"/>
<path id="path5702_4_" class="st30" d="M140.2,73.7c-1,1.8-1.3,0.2-1.1,6.2c0.1,1.7-3.4,3.5-4.5,3.4c0-1.5,3-1.7,3.5-2.9
	c0.8-1.8-0.4-4.6,0.9-6.1C139.4,73.9,140.9,72.7,140.2,73.7z"/>
<path id="path5606_4_" class="st3" d="M133.7,53.8c1.6,1.4,14.6,8.2,6.6,19.2C142,65.2,144.2,64,133.7,53.8z"/>
<path id="rect4692-42_4_" class="st17" d="M129.7,50.6c-1.8,0-3.8,0.5-5.2,1.6c-1.2,0.9-0.5,1.7,1,3c0.9,0.8,2.7,1.8,4.9,2
	c1.1,0.1,2-0.7,2.8-1.2s0.6-0.5,1.4-1.4c0.5-0.5,1.1-1.4,0.3-2C133.5,51.5,131.6,50.6,129.7,50.6L129.7,50.6z"/>
<path class="st3" d="M31.9,140.3c0.2,0.8,0.6,1.3,1,1.7c0.5,0.5,0.9,0.4,2.2,1c0.6,0.3,1.2,0.6,1.8,0.9c0.9,0.5,1.8,1,2.6,1.5
	c3,2.1,1.7,7.5,1.7,7.5l-3.5,2.2l1.7-3.4l-1.1-2.4v-2.9h-1.4l-0.8-1.1h-1.5h-3.3l-0.9-6.6C30.8,139.3,31.4,139.8,31.9,140.3z"/>
<polygon class="st8" points="15.9,151.8 11.6,153.3 10.8,156.7 9.6,154.2 11.2,151.6 11.6,151 14.3,150 14.5,151.8 "/>
<path class="st31" d="M21,120.5"/>
<path class="st13" d="M148.1,51.6"/>
<path class="st8" d="M68.4,116.3l0.1,7v1.4l1.5,6.5l4.4,5.3V133l2.5,2.9l-3.9-7l-1.2,2.4l-0.6-4.8l0.6-3.1c0,0-0.6-2.2-2.3-2.5
	C67.8,120.4,68.4,116.3,68.4,116.3z"/>
<path class="st8" d="M73.5,124.7l1.1-2.2l0.2,2.2l1.2-2.6l0.8-1.7l1.4,1.3l3.1,3l1-4l3.4,4l4.3,6.5v1.7c0,0-2.7,5.8-3.2,4.9
	c-0.6-0.8-2.5-10.4-2.5-10.5s0-1,0-1h-2l-2.9,2.8v-2.8l-2.5-1.7v2.6h-2L73.5,124.7z"/>
<path class="st3" d="M121.7,168c0.6,0.4,1.1,0.6,1.4,0.7c0.1,0,0.1,0,0.8,0.3c0.5,0.2,0.8,0.2,0.9,0.3c0.8,0.3,0.8,0.3,1.2,0.4
	c0.2,0.1,0.6,0.1,1.1,0.1c0.4,0.1,0.9,0.1,1.3,0.2c0.3,0,0.7,0,1.1,0c0.4,0,0.8,0.1,1.1,0.1s0.6,0.1,1,0c0.3,0,0.4,0,0.8-0.1
	c0.3,0,0.6-0.1,1-0.1c0.5,0,1-0.1,1.6-0.1c0.4-0.1,0.9-0.2,1.2-0.3c0.5-0.1,1-0.3,1.5-0.4l0.5-1.5c0.1-0.2,0.2-0.5,0.2-0.8
	c0.1-0.6,0-1-0.1-1.3c-0.1-0.2-0.2-0.4-0.4-0.7c-0.1-0.2-0.3-0.4-0.7-0.7s-0.7-0.4-1-0.4c-0.3-0.2-0.6-0.5-0.9-0.7l-1.1-1.1
	l-0.3-1.1c0.2-0.7,0.4-1.2,0.5-1.6c0.1-0.6,0.3-1.3,0.5-1.9c0-0.1,0.1-0.3,0.2-0.5c0.1-0.4,0.2-0.6,0.4-1.1s0.4-1.1,0.7-1.7
	c0.3-0.6,0.3-0.4,0.4-0.8c0.2-0.5,0.3-0.7,0.5-1.5c0.1-0.2,0.2-0.5,0.4-1c0.3-0.8,0.4-0.9,0.6-1.4c0.2-0.4,0.3-0.7,0.5-1.3
	s0.4-1.1,0.6-1.7c-0.8,0.5-1.6,1.1-2.3,1.6l-1.6,2.9l-3.1,5.8l1.4-0.7l-2.4,4.5l-4.7,2.6c0,0-2.3,2.2-2.9,1.7s-1.7-2.7-1.7-2.7
	l-0.9,2.1c0,0.4,0,0.8,0,1.2c0,0.6,0,1.2,0,1.8C121.3,167.5,121.5,167.7,121.7,168z"/>
</svg>
